%TF.GenerationSoftware,KiCad,Pcbnew,8.0.2*%
%TF.CreationDate,2024-05-16T19:26:54+09:30*%
%TF.ProjectId,power_and_monotoring,706f7765-725f-4616-9e64-5f6d6f6e6f74,rev?*%
%TF.SameCoordinates,Original*%
%TF.FileFunction,Soldermask,Top*%
%TF.FilePolarity,Negative*%
%FSLAX46Y46*%
G04 Gerber Fmt 4.6, Leading zero omitted, Abs format (unit mm)*
G04 Created by KiCad (PCBNEW 8.0.2) date 2024-05-16 19:26:54*
%MOMM*%
%LPD*%
G01*
G04 APERTURE LIST*
G04 Aperture macros list*
%AMRoundRect*
0 Rectangle with rounded corners*
0 $1 Rounding radius*
0 $2 $3 $4 $5 $6 $7 $8 $9 X,Y pos of 4 corners*
0 Add a 4 corners polygon primitive as box body*
4,1,4,$2,$3,$4,$5,$6,$7,$8,$9,$2,$3,0*
0 Add four circle primitives for the rounded corners*
1,1,$1+$1,$2,$3*
1,1,$1+$1,$4,$5*
1,1,$1+$1,$6,$7*
1,1,$1+$1,$8,$9*
0 Add four rect primitives between the rounded corners*
20,1,$1+$1,$2,$3,$4,$5,0*
20,1,$1+$1,$4,$5,$6,$7,0*
20,1,$1+$1,$6,$7,$8,$9,0*
20,1,$1+$1,$8,$9,$2,$3,0*%
G04 Aperture macros list end*
%ADD10RoundRect,0.250000X0.450000X-0.325000X0.450000X0.325000X-0.450000X0.325000X-0.450000X-0.325000X0*%
%ADD11C,2.780000*%
%ADD12C,2.410000*%
%ADD13R,1.270000X2.540000*%
%ADD14R,0.450000X0.800000*%
%ADD15RoundRect,0.250000X-0.325000X-0.450000X0.325000X-0.450000X0.325000X0.450000X-0.325000X0.450000X0*%
%ADD16R,0.800000X0.900000*%
%ADD17RoundRect,0.249550X-0.450450X0.325450X-0.450450X-0.325450X0.450450X-0.325450X0.450450X0.325450X0*%
%ADD18RoundRect,0.250000X-0.450000X0.325000X-0.450000X-0.325000X0.450000X-0.325000X0.450000X0.325000X0*%
%ADD19R,1.340000X1.800000*%
%ADD20C,2.000000*%
%ADD21C,0.970000*%
%ADD22RoundRect,0.102000X-0.635000X-0.780000X0.635000X-0.780000X0.635000X0.780000X-0.635000X0.780000X0*%
%ADD23R,2.900000X5.400000*%
%ADD24C,1.240000*%
%ADD25R,1.550000X0.600000*%
%ADD26C,3.200000*%
%ADD27C,2.540000*%
%ADD28R,1.600000X1.600000*%
%ADD29C,1.600000*%
%ADD30C,0.800000*%
%ADD31C,6.400000*%
%ADD32R,2.300000X2.300000*%
%ADD33C,2.300000*%
%ADD34R,5.700000X2.000000*%
%ADD35R,4.320000X1.020000*%
%ADD36R,9.910000X11.180000*%
%ADD37R,2.540000X1.270000*%
%ADD38R,1.800000X1.340000*%
%ADD39R,1.120000X1.240000*%
%ADD40RoundRect,0.250000X-0.475000X0.250000X-0.475000X-0.250000X0.475000X-0.250000X0.475000X0.250000X0*%
%ADD41RoundRect,0.250000X0.325000X0.450000X-0.325000X0.450000X-0.325000X-0.450000X0.325000X-0.450000X0*%
%ADD42C,1.270000*%
%ADD43RoundRect,0.250001X-0.759999X0.499999X-0.759999X-0.499999X0.759999X-0.499999X0.759999X0.499999X0*%
%ADD44O,2.020000X1.500000*%
%ADD45RoundRect,0.250000X0.250000X0.475000X-0.250000X0.475000X-0.250000X-0.475000X0.250000X-0.475000X0*%
%ADD46R,1.050000X0.400000*%
%ADD47R,0.450000X1.350000*%
%ADD48RoundRect,0.249550X0.450450X-0.325450X0.450450X0.325450X-0.450450X0.325450X-0.450450X-0.325450X0*%
G04 APERTURE END LIST*
D10*
%TO.C,R15*%
X60657600Y-138817000D03*
X60657600Y-136767000D03*
%TD*%
D11*
%TO.C,F13*%
X102530800Y-193291200D03*
X105930800Y-193291200D03*
X102530800Y-183371200D03*
X105930800Y-183371200D03*
%TD*%
D12*
%TO.C,J7*%
X118312400Y-150368000D03*
X143612400Y-150368000D03*
D13*
X141462400Y-155068000D03*
X138462400Y-155068000D03*
X135462400Y-155068000D03*
X132462400Y-155068000D03*
X129462400Y-155068000D03*
X126462400Y-155068000D03*
X123462400Y-155068000D03*
X120462400Y-155068000D03*
X141462400Y-145668000D03*
X138462400Y-145668000D03*
X135462400Y-145668000D03*
X132462400Y-145668000D03*
X129462400Y-145668000D03*
X126462400Y-145668000D03*
X123462400Y-145668000D03*
X120462400Y-145668000D03*
%TD*%
D10*
%TO.C,R18*%
X76257600Y-138817000D03*
X76257600Y-136767000D03*
%TD*%
D14*
%TO.C,RN1*%
X94018000Y-219532400D03*
X93218000Y-219532400D03*
X92418000Y-219532400D03*
X91618000Y-219532400D03*
X91618000Y-221132400D03*
X92418000Y-221132400D03*
X93218000Y-221132400D03*
X94018000Y-221132400D03*
%TD*%
D15*
%TO.C,D22*%
X153377400Y-134248400D03*
X155427400Y-134248400D03*
%TD*%
D16*
%TO.C,Q1*%
X111709200Y-156768800D03*
X109809200Y-156768800D03*
X110759200Y-158768800D03*
%TD*%
D17*
%TO.C,C2*%
X71526400Y-250435000D03*
D18*
X71526400Y-252485000D03*
%TD*%
D19*
%TO.C,D26*%
X47381200Y-241401600D03*
X50241200Y-241401600D03*
%TD*%
D20*
%TO.C,POW_PRESSED1*%
X62585600Y-155651200D03*
%TD*%
D10*
%TO.C,R33*%
X138639200Y-138817000D03*
X138639200Y-136767000D03*
%TD*%
D21*
%TO.C,J5*%
X124415208Y-168887981D03*
X124415208Y-171427981D03*
X126955208Y-168887981D03*
X126955208Y-171427981D03*
X129495208Y-168887981D03*
X129495208Y-171427981D03*
X132035208Y-168887981D03*
X132035208Y-171427981D03*
X134575208Y-168887981D03*
X134575208Y-171427981D03*
X137115208Y-168887981D03*
X137115208Y-171427981D03*
X139655208Y-168887981D03*
X139655208Y-171427981D03*
X142195208Y-168887981D03*
X142195208Y-171427981D03*
D22*
X124415208Y-172937981D03*
X124415208Y-167377981D03*
X126955208Y-172937981D03*
X126955208Y-167377981D03*
X129495208Y-172937981D03*
X129495208Y-167377981D03*
X132035208Y-172937981D03*
X132035208Y-167377981D03*
X134575208Y-172937981D03*
X134575208Y-167377981D03*
X137115208Y-172937981D03*
X137115208Y-167377981D03*
X139655208Y-172937981D03*
X139655208Y-167377981D03*
X142195208Y-172937981D03*
X142195208Y-167377981D03*
%TD*%
D21*
%TO.C,J4*%
X101415208Y-168887981D03*
X101415208Y-171427981D03*
X103955208Y-168887981D03*
X103955208Y-171427981D03*
X106495208Y-168887981D03*
X106495208Y-171427981D03*
X109035208Y-168887981D03*
X109035208Y-171427981D03*
X111575208Y-168887981D03*
X111575208Y-171427981D03*
X114115208Y-168887981D03*
X114115208Y-171427981D03*
X116655208Y-168887981D03*
X116655208Y-171427981D03*
X119195208Y-168887981D03*
X119195208Y-171427981D03*
D22*
X101415208Y-172937981D03*
X101415208Y-167377981D03*
X103955208Y-172937981D03*
X103955208Y-167377981D03*
X106495208Y-172937981D03*
X106495208Y-167377981D03*
X109035208Y-172937981D03*
X109035208Y-167377981D03*
X111575208Y-172937981D03*
X111575208Y-167377981D03*
X114115208Y-172937981D03*
X114115208Y-167377981D03*
X116655208Y-172937981D03*
X116655208Y-167377981D03*
X119195208Y-172937981D03*
X119195208Y-167377981D03*
%TD*%
D15*
%TO.C,D14*%
X111777400Y-134248400D03*
X113827400Y-134248400D03*
%TD*%
D10*
%TO.C,R17*%
X71057600Y-138817000D03*
X71057600Y-136767000D03*
%TD*%
D23*
%TO.C,L1*%
X132892800Y-222097600D03*
X123192800Y-222097600D03*
%TD*%
D10*
%TO.C,R32*%
X133439200Y-138817000D03*
X133439200Y-136767000D03*
%TD*%
D15*
%TO.C,D5*%
X64977400Y-134248400D03*
X67027400Y-134248400D03*
%TD*%
%TO.C,R29*%
X87011400Y-238302800D03*
X89061400Y-238302800D03*
%TD*%
D11*
%TO.C,F16*%
X52530800Y-193291200D03*
X55930800Y-193291200D03*
X52530800Y-183371200D03*
X55930800Y-183371200D03*
%TD*%
D20*
%TO.C,BREAK_LOW1*%
X88950800Y-155905200D03*
%TD*%
D11*
%TO.C,F15*%
X101887600Y-212986000D03*
X105287600Y-212986000D03*
X101887600Y-203066000D03*
X105287600Y-203066000D03*
%TD*%
D24*
%TO.C,RL5*%
X83667600Y-148357690D03*
X83667600Y-145817690D03*
X83667600Y-143277690D03*
%TD*%
D20*
%TO.C,TEMP_3*%
X150774400Y-240233200D03*
%TD*%
D15*
%TO.C,D7*%
X75377400Y-134248400D03*
X77427400Y-134248400D03*
%TD*%
D10*
%TO.C,R25*%
X107439200Y-138817000D03*
X107439200Y-136767000D03*
%TD*%
%TO.C,R27*%
X117839200Y-138817000D03*
X117839200Y-136767000D03*
%TD*%
D15*
%TO.C,D1*%
X43577400Y-134248400D03*
X45627400Y-134248400D03*
%TD*%
D10*
%TO.C,R7*%
X68427600Y-244001400D03*
X68427600Y-241951400D03*
%TD*%
%TO.C,R28*%
X123039200Y-138817000D03*
X123039200Y-136767000D03*
%TD*%
D25*
%TO.C,U4*%
X83719200Y-228142800D03*
X83719200Y-229412800D03*
X83719200Y-230682800D03*
X83719200Y-231952800D03*
X83719200Y-233222800D03*
X83719200Y-234492800D03*
X83719200Y-235762800D03*
X89119200Y-235762800D03*
X89119200Y-234492800D03*
X89119200Y-233222800D03*
X89119200Y-231952800D03*
X89119200Y-230682800D03*
X89119200Y-229412800D03*
X89119200Y-228142800D03*
%TD*%
D11*
%TO.C,F10*%
X81887600Y-212986000D03*
X85287600Y-212986000D03*
X81887600Y-203066000D03*
X85287600Y-203066000D03*
%TD*%
D21*
%TO.C,J3*%
X78415208Y-168887981D03*
X78415208Y-171427981D03*
X80955208Y-168887981D03*
X80955208Y-171427981D03*
X83495208Y-168887981D03*
X83495208Y-171427981D03*
X86035208Y-168887981D03*
X86035208Y-171427981D03*
X88575208Y-168887981D03*
X88575208Y-171427981D03*
X91115208Y-168887981D03*
X91115208Y-171427981D03*
X93655208Y-168887981D03*
X93655208Y-171427981D03*
X96195208Y-168887981D03*
X96195208Y-171427981D03*
D22*
X78415208Y-172937981D03*
X78415208Y-167377981D03*
X80955208Y-172937981D03*
X80955208Y-167377981D03*
X83495208Y-172937981D03*
X83495208Y-167377981D03*
X86035208Y-172937981D03*
X86035208Y-167377981D03*
X88575208Y-172937981D03*
X88575208Y-167377981D03*
X91115208Y-172937981D03*
X91115208Y-167377981D03*
X93655208Y-172937981D03*
X93655208Y-167377981D03*
X96195208Y-172937981D03*
X96195208Y-167377981D03*
%TD*%
D15*
%TO.C,D19*%
X137777400Y-134248400D03*
X139827400Y-134248400D03*
%TD*%
%TO.C,D9*%
X85777400Y-134248400D03*
X87827400Y-134248400D03*
%TD*%
D26*
%TO.C,A1*%
X95758000Y-251053600D03*
D27*
X141478000Y-251053600D03*
D26*
X95758000Y-233273600D03*
D27*
X141478000Y-233273600D03*
D28*
X99568000Y-252323600D03*
D29*
X102108000Y-252323600D03*
X104648000Y-252323600D03*
X107188000Y-252323600D03*
X109728000Y-252323600D03*
X112268000Y-252323600D03*
X114808000Y-252323600D03*
X117348000Y-252323600D03*
X119888000Y-252323600D03*
X122428000Y-252323600D03*
X124968000Y-252323600D03*
X127508000Y-252323600D03*
X130048000Y-252323600D03*
X132588000Y-252323600D03*
X135128000Y-252323600D03*
X137668000Y-252323600D03*
X137668000Y-232003600D03*
X135128000Y-232003600D03*
X132588000Y-232003600D03*
X130048000Y-232003600D03*
X127508000Y-232003600D03*
X124968000Y-232003600D03*
X122428000Y-232003600D03*
X119888000Y-232003600D03*
X117348000Y-232003600D03*
X114808000Y-232003600D03*
X112268000Y-232003600D03*
X109728000Y-232003600D03*
%TD*%
D10*
%TO.C,R23*%
X97039200Y-138817000D03*
X97039200Y-136767000D03*
%TD*%
D20*
%TO.C,12V1*%
X116636800Y-227736400D03*
%TD*%
D14*
%TO.C,RN2*%
X115804800Y-214033200D03*
X115004800Y-214033200D03*
X114204800Y-214033200D03*
X113404800Y-214033200D03*
X113404800Y-215633200D03*
X114204800Y-215633200D03*
X115004800Y-215633200D03*
X115804800Y-215633200D03*
%TD*%
D10*
%TO.C,R38*%
X159439200Y-138817000D03*
X159439200Y-136767000D03*
%TD*%
%TO.C,R14*%
X55457600Y-138817000D03*
X55457600Y-136767000D03*
%TD*%
D20*
%TO.C,POW_HIGH1*%
X72694800Y-155448000D03*
%TD*%
%TO.C,3V3*%
X113030000Y-227634800D03*
%TD*%
D30*
%TO.C,H4*%
X51905208Y-248157981D03*
X52608152Y-246460925D03*
X52608152Y-249855037D03*
X54305208Y-245757981D03*
D31*
X54305208Y-248157981D03*
D30*
X54305208Y-250557981D03*
X56002264Y-246460925D03*
X56002264Y-249855037D03*
X56705208Y-248157981D03*
%TD*%
D10*
%TO.C,R34*%
X143839200Y-138817000D03*
X143839200Y-136767000D03*
%TD*%
D15*
%TO.C,D21*%
X148177400Y-134248400D03*
X150227400Y-134248400D03*
%TD*%
D11*
%TO.C,F11*%
X91887600Y-212986000D03*
X95287600Y-212986000D03*
X91887600Y-203066000D03*
X95287600Y-203066000D03*
%TD*%
D20*
%TO.C,PRES_2*%
X156819600Y-236067600D03*
%TD*%
D32*
%TO.C,K2*%
X52222400Y-221592000D03*
D33*
X62382400Y-221592000D03*
X70002400Y-221592000D03*
X52222400Y-213972000D03*
%TD*%
D18*
%TO.C,R30*%
X89611200Y-240122600D03*
X89611200Y-242172600D03*
%TD*%
D24*
%TO.C,RL4*%
X78181200Y-148539200D03*
X78181200Y-145999200D03*
X78181200Y-143459200D03*
%TD*%
D21*
%TO.C,J2*%
X55415208Y-168887981D03*
X55415208Y-171427981D03*
X57955208Y-168887981D03*
X57955208Y-171427981D03*
X60495208Y-168887981D03*
X60495208Y-171427981D03*
X63035208Y-168887981D03*
X63035208Y-171427981D03*
X65575208Y-168887981D03*
X65575208Y-171427981D03*
X68115208Y-168887981D03*
X68115208Y-171427981D03*
X70655208Y-168887981D03*
X70655208Y-171427981D03*
X73195208Y-168887981D03*
X73195208Y-171427981D03*
D22*
X55415208Y-172937981D03*
X55415208Y-167377981D03*
X57955208Y-172937981D03*
X57955208Y-167377981D03*
X60495208Y-172937981D03*
X60495208Y-167377981D03*
X63035208Y-172937981D03*
X63035208Y-167377981D03*
X65575208Y-172937981D03*
X65575208Y-167377981D03*
X68115208Y-172937981D03*
X68115208Y-167377981D03*
X70655208Y-172937981D03*
X70655208Y-167377981D03*
X73195208Y-172937981D03*
X73195208Y-167377981D03*
%TD*%
D25*
%TO.C,U7*%
X77638400Y-247853200D03*
X77638400Y-246583200D03*
X77638400Y-245313200D03*
X77638400Y-244043200D03*
X77638400Y-242773200D03*
X77638400Y-241503200D03*
X77638400Y-240233200D03*
X72238400Y-240233200D03*
X72238400Y-241503200D03*
X72238400Y-242773200D03*
X72238400Y-244043200D03*
X72238400Y-245313200D03*
X72238400Y-246583200D03*
X72238400Y-247853200D03*
%TD*%
D20*
%TO.C,BREAK_HIGH1*%
X83667600Y-155498800D03*
%TD*%
D30*
%TO.C,H3*%
X51905208Y-145157981D03*
X52608152Y-143460925D03*
X52608152Y-146855037D03*
X54305208Y-142757981D03*
D31*
X54305208Y-145157981D03*
D30*
X54305208Y-147557981D03*
X56002264Y-143460925D03*
X56002264Y-146855037D03*
X56705208Y-145157981D03*
%TD*%
D11*
%TO.C,F3*%
X92530800Y-193291200D03*
X95930800Y-193291200D03*
X92530800Y-183371200D03*
X95930800Y-183371200D03*
%TD*%
D10*
%TO.C,R31*%
X128239200Y-138817000D03*
X128239200Y-136767000D03*
%TD*%
D15*
%TO.C,D15*%
X116977400Y-134248400D03*
X119027400Y-134248400D03*
%TD*%
D11*
%TO.C,F4*%
X112530800Y-193291200D03*
X115930800Y-193291200D03*
X112530800Y-183371200D03*
X115930800Y-183371200D03*
%TD*%
D24*
%TO.C,RL8*%
X95046800Y-148488400D03*
X95046800Y-145948400D03*
X95046800Y-143408400D03*
%TD*%
D15*
%TO.C,D2*%
X49077400Y-134248400D03*
X51127400Y-134248400D03*
%TD*%
D10*
%TO.C,R37*%
X154239200Y-138817000D03*
X154239200Y-136767000D03*
%TD*%
D30*
%TO.C,H1*%
X151905208Y-145157981D03*
X152608152Y-143460925D03*
X152608152Y-146855037D03*
X154305208Y-142757981D03*
D31*
X154305208Y-145157981D03*
D30*
X154305208Y-147557981D03*
X156002264Y-143460925D03*
X156002264Y-146855037D03*
X156705208Y-145157981D03*
%TD*%
D34*
%TO.C,C8*%
X122430800Y-206705200D03*
X132130800Y-206705200D03*
%TD*%
D20*
%TO.C,TEMP_2*%
X150774400Y-235966000D03*
%TD*%
D35*
%TO.C,IC3*%
X139089400Y-217732400D03*
X139089400Y-219432400D03*
X139089400Y-221132400D03*
X139089400Y-222832400D03*
X139089400Y-224532400D03*
D36*
X148234400Y-221132400D03*
%TD*%
D20*
%TO.C,GLV_IN1*%
X107899200Y-151485600D03*
%TD*%
D10*
%TO.C,R39*%
X86639200Y-138817000D03*
X86639200Y-136767000D03*
%TD*%
D18*
%TO.C,R45*%
X147116800Y-245008400D03*
X147116800Y-247058400D03*
%TD*%
D10*
%TO.C,R36*%
X149039200Y-138817000D03*
X149039200Y-136767000D03*
%TD*%
D15*
%TO.C,D20*%
X142977400Y-134248400D03*
X145027400Y-134248400D03*
%TD*%
D12*
%TO.C,J6*%
X151434800Y-160612450D03*
X151434800Y-176912450D03*
D37*
X146734800Y-174762450D03*
X146734800Y-171762450D03*
X146734800Y-168762450D03*
X146734800Y-165762450D03*
X146734800Y-162762450D03*
X156134800Y-174762450D03*
X156134800Y-171762450D03*
X156134800Y-168762450D03*
X156134800Y-165762450D03*
X156134800Y-162762450D03*
%TD*%
D18*
%TO.C,R19*%
X84328000Y-222495000D03*
X84328000Y-224545000D03*
%TD*%
D38*
%TO.C,D25*%
X74777600Y-208780400D03*
X74777600Y-211640400D03*
%TD*%
D20*
%TO.C,GND1*%
X152603200Y-153619200D03*
%TD*%
%TO.C,POW_LOW1*%
X77825600Y-155651200D03*
%TD*%
D15*
%TO.C,D17*%
X127377400Y-134248400D03*
X129427400Y-134248400D03*
%TD*%
%TO.C,D6*%
X70177400Y-134248400D03*
X72227400Y-134248400D03*
%TD*%
%TO.C,D12*%
X101377400Y-134248400D03*
X103427400Y-134248400D03*
%TD*%
D10*
%TO.C,R5*%
X81439200Y-138817000D03*
X81439200Y-136767000D03*
%TD*%
D15*
%TO.C,D18*%
X132577400Y-134248400D03*
X134627400Y-134248400D03*
%TD*%
%TO.C,D16*%
X122177400Y-134248400D03*
X124227400Y-134248400D03*
%TD*%
D11*
%TO.C,F1*%
X72530800Y-193291200D03*
X75930800Y-193291200D03*
X72530800Y-183371200D03*
X75930800Y-183371200D03*
%TD*%
D15*
%TO.C,D3*%
X54577400Y-134248400D03*
X56627400Y-134248400D03*
%TD*%
%TO.C,D13*%
X106577400Y-134248400D03*
X108627400Y-134248400D03*
%TD*%
D39*
%TO.C,D27*%
X119278400Y-224447800D03*
X119278400Y-221447800D03*
%TD*%
D15*
%TO.C,D11*%
X96177400Y-134248400D03*
X98227400Y-134248400D03*
%TD*%
D20*
%TO.C,24V2*%
X109982000Y-147574000D03*
%TD*%
D10*
%TO.C,R24*%
X102239200Y-138817000D03*
X102239200Y-136767000D03*
%TD*%
D40*
%TO.C,C11*%
X110286800Y-218861600D03*
X110286800Y-220761600D03*
%TD*%
D10*
%TO.C,R16*%
X65857600Y-138817000D03*
X65857600Y-136767000D03*
%TD*%
D18*
%TO.C,R44*%
X147116800Y-241008400D03*
X147116800Y-243058400D03*
%TD*%
D24*
%TO.C,RL6*%
X89560400Y-148437600D03*
X89560400Y-145897600D03*
X89560400Y-143357600D03*
%TD*%
D25*
%TO.C,U3*%
X74719200Y-228142800D03*
X74719200Y-229412800D03*
X74719200Y-230682800D03*
X74719200Y-231952800D03*
X74719200Y-233222800D03*
X74719200Y-234492800D03*
X74719200Y-235762800D03*
X80119200Y-235762800D03*
X80119200Y-234492800D03*
X80119200Y-233222800D03*
X80119200Y-231952800D03*
X80119200Y-230682800D03*
X80119200Y-229412800D03*
X80119200Y-228142800D03*
%TD*%
D41*
%TO.C,R3*%
X84845000Y-220522800D03*
X82795000Y-220522800D03*
%TD*%
D24*
%TO.C,RL2*%
X67259200Y-148437600D03*
X67259200Y-145897600D03*
X67259200Y-143357600D03*
%TD*%
D10*
%TO.C,R21*%
X45057600Y-138817000D03*
X45057600Y-136767000D03*
%TD*%
D15*
%TO.C,D8*%
X80577400Y-134248400D03*
X82627400Y-134248400D03*
%TD*%
D30*
%TO.C,H2*%
X151905208Y-248157981D03*
X152608152Y-246460925D03*
X152608152Y-249855037D03*
X154305208Y-245757981D03*
D31*
X154305208Y-248157981D03*
D30*
X154305208Y-250557981D03*
X156002264Y-246460925D03*
X156002264Y-249855037D03*
X156705208Y-248157981D03*
%TD*%
D20*
%TO.C,BREAK_PRESSED1*%
X67208400Y-155600400D03*
%TD*%
D15*
%TO.C,D23*%
X158577400Y-134248400D03*
X160627400Y-134248400D03*
%TD*%
D20*
%TO.C,PRES_1*%
X156870400Y-231800400D03*
%TD*%
D42*
%TO.C,J1*%
X115752000Y-201822800D03*
X115752000Y-210822800D03*
D43*
X113792000Y-204822800D03*
D44*
X113792000Y-207822800D03*
%TD*%
D15*
%TO.C,D10*%
X90977400Y-134248400D03*
X93027400Y-134248400D03*
%TD*%
D38*
%TO.C,D24*%
X74726800Y-201770000D03*
X74726800Y-204630000D03*
%TD*%
D10*
%TO.C,R22*%
X91839200Y-138817000D03*
X91839200Y-136767000D03*
%TD*%
D20*
%TO.C,TEMP_1*%
X151028400Y-231800400D03*
%TD*%
%TO.C,POW_SIG_AMP1*%
X59842400Y-239776000D03*
%TD*%
D45*
%TO.C,C10*%
X98130400Y-218389200D03*
X96230400Y-218389200D03*
%TD*%
D24*
%TO.C,RL3*%
X72898000Y-148539200D03*
X72898000Y-145999200D03*
X72898000Y-143459200D03*
%TD*%
D46*
%TO.C,U1*%
X65953600Y-250200400D03*
X65953600Y-250850400D03*
X65953600Y-251500400D03*
X67853600Y-251500400D03*
X67853600Y-250200400D03*
%TD*%
D11*
%TO.C,F9*%
X132530800Y-193291200D03*
X135930800Y-193291200D03*
X132530800Y-183371200D03*
X135930800Y-183371200D03*
%TD*%
D47*
%TO.C,IC2*%
X106263800Y-222955000D03*
X106913800Y-222955000D03*
X107563800Y-222955000D03*
X108213800Y-222955000D03*
X108213800Y-219005000D03*
X107563800Y-219005000D03*
X106913800Y-219005000D03*
X106263800Y-219005000D03*
%TD*%
D24*
%TO.C,RL7*%
X100482400Y-148539200D03*
X100482400Y-145999200D03*
X100482400Y-143459200D03*
%TD*%
D48*
%TO.C,C7*%
X81432400Y-224545000D03*
D10*
X81432400Y-222495000D03*
%TD*%
%TO.C,R26*%
X112639200Y-138817000D03*
X112639200Y-136767000D03*
%TD*%
%TO.C,R13*%
X50257600Y-138817000D03*
X50257600Y-136767000D03*
%TD*%
D11*
%TO.C,F2*%
X82530800Y-193291200D03*
X85930800Y-193291200D03*
X82530800Y-183371200D03*
X85930800Y-183371200D03*
%TD*%
D20*
%TO.C,RC_TRIG1*%
X100126800Y-156108400D03*
%TD*%
D17*
%TO.C,C3*%
X89865200Y-244643800D03*
D18*
X89865200Y-246693800D03*
%TD*%
D32*
%TO.C,K3*%
X52222400Y-234142000D03*
D33*
X62382400Y-234142000D03*
X70002400Y-234142000D03*
X52222400Y-226522000D03*
%TD*%
D20*
%TO.C,5V1*%
X152958800Y-183134000D03*
%TD*%
D15*
%TO.C,R50*%
X92396200Y-227025200D03*
X94446200Y-227025200D03*
%TD*%
D11*
%TO.C,F8*%
X122530800Y-193291200D03*
X125930800Y-193291200D03*
X122530800Y-183371200D03*
X125930800Y-183371200D03*
%TD*%
%TO.C,F14*%
X142530800Y-193291200D03*
X145930800Y-193291200D03*
X142530800Y-183371200D03*
X145930800Y-183371200D03*
%TD*%
D20*
%TO.C,PRES_3*%
X156718000Y-240334800D03*
%TD*%
%TO.C,BRAKE_SIG1*%
X111150400Y-152298400D03*
%TD*%
D25*
%TO.C,U2*%
X86638400Y-247853200D03*
X86638400Y-246583200D03*
X86638400Y-245313200D03*
X86638400Y-244043200D03*
X86638400Y-242773200D03*
X86638400Y-241503200D03*
X86638400Y-240233200D03*
X81238400Y-240233200D03*
X81238400Y-241503200D03*
X81238400Y-242773200D03*
X81238400Y-244043200D03*
X81238400Y-245313200D03*
X81238400Y-246583200D03*
X81238400Y-247853200D03*
%TD*%
D32*
%TO.C,K1*%
X52222400Y-209042000D03*
D33*
X62382400Y-209042000D03*
X70002400Y-209042000D03*
X52222400Y-201422000D03*
%TD*%
D47*
%TO.C,IC1*%
X100218600Y-222955000D03*
X100868600Y-222955000D03*
X101518600Y-222955000D03*
X102168600Y-222955000D03*
X102168600Y-219005000D03*
X101518600Y-219005000D03*
X100868600Y-219005000D03*
X100218600Y-219005000D03*
%TD*%
D11*
%TO.C,F5*%
X62530800Y-193291200D03*
X65930800Y-193291200D03*
X62530800Y-183371200D03*
X65930800Y-183371200D03*
%TD*%
D15*
%TO.C,D4*%
X59777400Y-134248400D03*
X61827400Y-134248400D03*
%TD*%
%TO.C,R51*%
X92405200Y-229260400D03*
X94455200Y-229260400D03*
%TD*%
D24*
%TO.C,RL1*%
X61722000Y-148488400D03*
X61722000Y-145948400D03*
X61722000Y-143408400D03*
%TD*%
D20*
%TO.C,BREAK_SIG1*%
X94183200Y-155803600D03*
%TD*%
D34*
%TO.C,C6*%
X141343600Y-206248000D03*
X151043600Y-206248000D03*
%TD*%
D20*
%TO.C,BRAKE_SIG_AMP1*%
X84785200Y-252476000D03*
%TD*%
M02*
