M48
; DRILL file {KiCad 8.0.4} date 2024-10-16T17:02:37+1030
; FORMAT={-:-/ absolute / metric / decimal}
; #@! TF.CreationDate,2024-10-16T17:02:37+10:30
; #@! TF.GenerationSoftware,Kicad,Pcbnew,8.0.4
; #@! TF.FileFunction,Plated,1,4,PTH
FMAT,2
METRIC
; #@! TA.AperFunction,Plated,PTH,ViaDrill
T1C0.400
; #@! TA.AperFunction,Plated,PTH,ComponentDrill
T2C0.500
; #@! TA.AperFunction,Plated,PTH,ComponentDrill
T3C0.740
; #@! TA.AperFunction,Plated,PTH,ViaDrill
T4C0.750
; #@! TA.AperFunction,Plated,PTH,ComponentDrill
T5C0.800
; #@! TA.AperFunction,Plated,PTH,ComponentDrill
T6C1.020
; #@! TA.AperFunction,Plated,PTH,ComponentDrill
T7C1.300
; #@! TA.AperFunction,Plated,PTH,ComponentDrill
T8C1.780
; #@! TA.AperFunction,Plated,PTH,ComponentDrill
T9C3.200
%
G90
G05
T1
X43.282Y-132.69
X44.218Y-173.787
X44.235Y-201.648
X44.418Y-176.936
X46.634Y-208.331
X46.939Y-132.74
X48.209Y-131.877
X49.022Y-237.185
X49.567Y-155.563
X49.666Y-174.072
X49.733Y-168.859
X50.698Y-182.016
X50.698Y-184.607
X50.902Y-167.234
X51.054Y-168.91
X51.054Y-171.45
X51.284Y-159.742
X51.308Y-185.217
X51.359Y-181.458
X51.613Y-195.732
X51.664Y-168.199
X51.664Y-239.573
X51.918Y-167.234
X52.031Y-155.06
X52.07Y-171.45
X52.172Y-168.961
X52.578Y-133.045
X52.68Y-168.199
X52.73Y-160.274
X52.781Y-195.732
X52.934Y-167.234
X52.984Y-171.45
X53.238Y-168.961
X53.238Y-199.796
X53.43Y-159.004
X53.631Y-204.893
X53.645Y-185.318
X53.696Y-168.199
X53.714Y-207.172
X53.746Y-181.458
X53.899Y-171.45
X53.899Y-203.556
X53.95Y-167.234
X54.305Y-131.877
X54.407Y-201.524
X54.508Y-214.986
X54.712Y-181.559
X54.712Y-185.217
X55.067Y-212.75
X55.169Y-252.335
X55.423Y-211.684
X55.575Y-226.365
X55.626Y-225.45
X55.766Y-158.078
X56.54Y-167.386
X56.693Y-168.808
X56.693Y-171.348
X57.048Y-181.407
X57.048Y-185.268
X57.138Y-156.706
X57.506Y-159.715
X57.541Y-199.542
X57.607Y-182.067
X57.658Y-184.658
X57.76Y-170.231
X59.03Y-200.914
X59.436Y-131.674
X59.741Y-163.881
X60.046Y-164.795
X60.655Y-222.555
X61.366Y-223.164
X61.57Y-163.982
X61.57Y-164.897
X61.62Y-170.129
X61.93Y-172.872
X62.535Y-153.416
X62.636Y-142.189
X62.738Y-144.526
X63.348Y-162.092
X63.449Y-223.114
X63.602Y-220.167
X64.465Y-251.866
X64.668Y-131.775
X64.668Y-198.476
X65.532Y-245.516
X66.294Y-142.138
X66.294Y-144.424
X66.7Y-153.67
X68.326Y-140.868
X68.529Y-231.14
X68.682Y-188.163
X68.732Y-248.92
X69.139Y-252.066
X69.191Y-135.737
X69.444Y-139.802
X69.545Y-170.485
X69.698Y-131.928
X70.086Y-162.668
X70.256Y-187.503
X70.753Y-156.261
X70.764Y-188.468
X70.863Y-247.853
X71.933Y-167.691
X71.933Y-170.84
X71.984Y-166.878
X71.984Y-186.995
X72.034Y-142.443
X72.034Y-188.062
X72.492Y-137.058
X72.746Y-235.255
X72.746Y-239.334
X72.836Y-229.356
X72.898Y-188.773
X73.101Y-252.335
X73.152Y-186.792
X73.152Y-187.808
X73.355Y-157.734
X73.508Y-240.081
X73.762Y-236.779
X73.914Y-144.526
X74.219Y-206.096
X74.32Y-217.17
X74.332Y-164.643
X74.422Y-213.208
X74.473Y-135.89
X74.473Y-200.558
X74.715Y-239.307
X74.719Y-229.413
X74.93Y-132.08
X75.247Y-240.753
X75.731Y-156.26
X75.911Y-232.492
X76.037Y-235.047
X76.131Y-163.068
X76.131Y-164.49
X76.251Y-244.958
X76.302Y-246.38
X76.302Y-251.917
X76.344Y-229.252
X76.522Y-233.561
X76.615Y-166.779
X76.81Y-222.199
X77.165Y-142.545
X77.216Y-144.374
X77.224Y-169.741
X77.514Y-226.104
X77.638Y-227.958
X77.673Y-152.451
X77.673Y-153.862
X77.673Y-238.963
X78.029Y-233.793
X78.13Y-179.019
X78.223Y-162.001
X78.283Y-138.176
X78.339Y-220.015
X78.339Y-221.386
X78.339Y-225.266
X78.345Y-227.252
X78.435Y-235.192
X78.623Y-164.948
X78.664Y-214.249
X78.808Y-232.593
X78.892Y-197.206
X79.045Y-201.727
X79.062Y-226.534
X79.437Y-208.977
X79.807Y-244.348
X79.929Y-181.137
X79.959Y-197.206
X80.01Y-132.08
X80.138Y-223.571
X80.315Y-239.471
X80.366Y-143.256
X80.569Y-158.039
X80.837Y-219.71
X81.483Y-220.929
X81.585Y-156.26
X81.585Y-197.206
X81.788Y-162.668
X82.245Y-179.121
X82.398Y-143.002
X82.61Y-240.59
X82.664Y-245.274
X82.855Y-137.668
X82.956Y-197.256
X82.956Y-236.83
X83.261Y-226.974
X83.35Y-218.782
X83.719Y-231.953
X83.972Y-205.791
X84.024Y-246.633
X84.074Y-166.014
X84.226Y-177.546
X84.226Y-197.358
X84.408Y-162.996
X84.785Y-169.621
X84.836Y-139.413
X84.882Y-244.302
X85.0Y-148.031
X85.0Y-151.232
X85.09Y-229.413
X85.192Y-132.131
X85.242Y-197.358
X85.293Y-241.656
X85.293Y-243.302
X85.446Y-227.635
X85.547Y-232.816
X86.196Y-233.578
X86.399Y-149.962
X86.512Y-197.307
X86.817Y-234.493
X86.97Y-143.137
X87.274Y-178.562
X87.579Y-218.44
X87.999Y-225.413
X88.24Y-243.992
X88.556Y-245.89
X88.811Y-166.065
X89.814Y-132.385
X89.916Y-237.084
X89.967Y-150.058
X90.373Y-241.351
X90.435Y-230.734
X90.435Y-232.004
X90.61Y-176.546
X90.983Y-147.168
X91.034Y-143.358
X91.491Y-166.053
X91.643Y-164.254
X91.643Y-190.5
X91.694Y-195.732
X91.835Y-227.838
X91.846Y-230.734
X91.987Y-156.312
X92.304Y-232.258
X92.354Y-247.142
X92.405Y-224.942
X92.456Y-175.729
X92.456Y-241.859
X92.516Y-163.767
X92.862Y-222.453
X93.015Y-190.551
X93.269Y-138.481
X93.523Y-179.578
X93.828Y-143.459
X94.793Y-170.078
X94.89Y-172.8
X94.894Y-166.675
X94.94Y-175.029
X95.098Y-223.012
X95.148Y-132.436
X95.301Y-190.449
X96.317Y-190.449
X96.317Y-219.71
X97.282Y-180.899
X97.536Y-168.085
X97.536Y-174.6
X97.621Y-202.997
X98.38Y-228.416
X98.4Y-201.27
X98.45Y-157.785
X98.654Y-137.314
X98.958Y-135.788
X99.06Y-224.079
X99.212Y-143.408
X99.873Y-229.21
X100.178Y-231.394
X100.33Y-163.855
X100.736Y-132.69
X101.213Y-200.418
X101.498Y-228.244
X101.956Y-225.095
X102.057Y-190.551
X102.464Y-195.885
X102.565Y-216.713
X102.632Y-175.614
X102.87Y-166.268
X103.276Y-156.312
X103.327Y-199.695
X103.683Y-138.714
X103.804Y-174.443
X104.394Y-195.682
X104.445Y-190.551
X105.207Y-174.515
X105.757Y-164.254
X105.766Y-159.106
X105.918Y-132.537
X105.969Y-139.413
X106.132Y-210.007
X106.528Y-190.449
X106.782Y-224.536
X106.832Y-211.023
X107.188Y-250.292
X107.34Y-160.677
X107.391Y-230.327
X107.391Y-236.728
X107.455Y-240.627
X107.532Y-209.55
X107.899Y-143.137
X107.899Y-164.654
X107.899Y-215.036
X108.001Y-220.878
X108.255Y-155.956
X108.458Y-156.972
X108.915Y-216.459
X109.576Y-174.915
X109.83Y-138.613
X109.88Y-223.114
X110.084Y-216.205
X110.236Y-236.83
X111.15Y-132.639
X111.202Y-236.572
X111.493Y-216.624
X111.911Y-235.867
X112.116Y-190.754
X112.166Y-195.936
X112.767Y-235.352
X112.827Y-146.05
X112.979Y-217.12
X113.081Y-220.929
X113.66Y-174.915
X113.69Y-152.502
X113.894Y-144.413
X113.894Y-190.398
X114.046Y-222.555
X114.249Y-161.377
X114.402Y-176.378
X114.452Y-195.783
X115.519Y-161.442
X115.683Y-242.265
X115.722Y-176.546
X115.824Y-247.142
X115.976Y-190.602
X116.23Y-195.732
X116.332Y-132.639
X116.383Y-237.084
X116.434Y-222.809
X116.484Y-156.413
X117.082Y-242.265
X117.348Y-235.204
X117.399Y-180.594
X117.45Y-222.148
X117.907Y-219.71
X118.059Y-234.544
X118.059Y-245.11
X118.262Y-221.234
X118.343Y-153.259
X118.974Y-229.21
X119.163Y-141.542
X119.532Y-160.576
X120.091Y-204.826
X120.091Y-235.001
X120.198Y-179.624
X120.396Y-208.483
X120.548Y-147.422
X120.606Y-164.853
X120.994Y-159.563
X121.209Y-204.826
X121.339Y-174.242
X121.412Y-132.588
X121.856Y-156.579
X121.883Y-158.584
X122.123Y-142.24
X122.276Y-175.311
X122.428Y-245.72
X122.53Y-204.826
X122.653Y-143.088
X122.733Y-208.432
X123.37Y-162.177
X123.495Y-147.574
X123.527Y-170.332
X123.802Y-159.892
X123.901Y-204.876
X124.511Y-208.432
X125.12Y-204.876
X125.171Y-221.64
X125.222Y-223.164
X125.222Y-224.485
X125.273Y-219.812
X125.826Y-225.862
X125.832Y-206.35
X125.933Y-207.721
X126.441Y-147.676
X126.695Y-132.588
X127.406Y-142.939
X127.406Y-240.03
X127.864Y-246.532
X128.27Y-202.286
X128.626Y-162.103
X129.794Y-142.646
X129.794Y-224.485
X130.099Y-164.275
X130.861Y-246.482
X131.064Y-176.568
X131.79Y-177.968
X131.877Y-132.639
X131.978Y-204.826
X132.182Y-208.534
X132.283Y-162.052
X132.69Y-141.871
X133.045Y-166.053
X133.147Y-140.97
X133.756Y-240.589
X134.976Y-138.328
X135.585Y-206.654
X135.791Y-141.471
X135.992Y-217.221
X136.347Y-162.154
X137.058Y-216.306
X137.109Y-132.588
X137.109Y-236.474
X137.516Y-206.299
X137.82Y-204.368
X138.278Y-208.229
X138.938Y-226.009
X139.04Y-139.903
X139.141Y-216.205
X139.192Y-141.071
X140.208Y-138.005
X140.513Y-216.154
X140.665Y-208.382
X141.224Y-204.216
X141.326Y-140.106
X141.427Y-238.19
X141.63Y-236.677
X142.189Y-217.373
X142.189Y-221.742
X142.24Y-139.407
X142.291Y-132.588
X142.291Y-223.317
X142.646Y-153.721
X142.9Y-164.654
X143.51Y-232.664
X143.526Y-145.272
X143.839Y-140.868
X143.916Y-190.144
X144.069Y-208.28
X144.17Y-191.11
X144.221Y-188.062
X144.272Y-187.147
X144.323Y-175.717
X144.424Y-192.583
X144.475Y-235.407
X144.628Y-204.368
X144.831Y-163.728
X145.237Y-144.47
X145.237Y-206.4
X145.542Y-186.385
X145.542Y-233.731
X146.05Y-192.735
X146.299Y-144.173
X146.507Y-186.334
X147.066Y-206.096
X147.299Y-144.159
X147.472Y-132.588
X147.523Y-214.224
X147.777Y-192.43
X147.98Y-187.604
X147.98Y-188.519
X147.98Y-190.094
X148.031Y-191.11
X148.082Y-140.671
X148.234Y-227.279
X148.247Y-176.568
X148.467Y-144.489
X148.488Y-214.274
X148.895Y-164.686
X148.946Y-143.612
X148.946Y-203.962
X148.996Y-236.677
X148.996Y-247.752
X149.047Y-239.014
X149.25Y-174.549
X149.322Y-173.36
X149.454Y-232.969
X149.454Y-242.011
X150.927Y-140.074
X151.079Y-204.013
X151.13Y-209.398
X152.654Y-132.639
X152.959Y-165.087
X153.568Y-162.966
X153.924Y-155.194
X154.026Y-172.872
X154.026Y-221.082
X154.28Y-162.052
X155.143Y-205.689
X155.194Y-161.138
X155.296Y-228.752
X155.905Y-140.474
X156.159Y-160.02
X156.261Y-242.976
X156.362Y-218.389
X157.023Y-160.426
X157.886Y-132.588
X158.801Y-241.249
X158.902Y-140.919
X159.085Y-157.577
X159.111Y-179.984
X159.511Y-158.481
X159.903Y-159.524
X160.02Y-143.612
X160.311Y-162.103
X160.311Y-163.17
X160.311Y-165.405
X160.311Y-167.792
X160.711Y-196.249
X161.015Y-197.215
X161.089Y-139.356
X161.354Y-216.47
X161.501Y-236.231
X161.606Y-227.889
X161.696Y-140.564
X161.911Y-198.425
X161.911Y-200.711
X161.95Y-237.185
X162.408Y-206.502
X162.408Y-241.96
X162.611Y-154.381
T2
X51.905Y-145.158
X51.905Y-248.158
X52.608Y-143.461
X52.608Y-146.855
X52.608Y-246.461
X52.608Y-249.855
X54.305Y-142.758
X54.305Y-147.558
X54.305Y-245.758
X54.305Y-250.558
X56.002Y-143.461
X56.002Y-146.855
X56.002Y-246.461
X56.002Y-249.855
X56.705Y-145.158
X56.705Y-248.158
X151.905Y-145.158
X151.905Y-248.158
X152.608Y-143.461
X152.608Y-146.855
X152.608Y-246.461
X152.608Y-249.855
X154.305Y-142.758
X154.305Y-147.558
X154.305Y-245.758
X154.305Y-250.558
X156.002Y-143.461
X156.002Y-146.855
X156.002Y-246.461
X156.002Y-249.855
X156.705Y-145.158
X156.705Y-248.158
T3
X61.722Y-143.408
X61.722Y-145.948
X61.722Y-148.488
X67.259Y-143.358
X67.259Y-145.898
X67.259Y-148.438
X72.898Y-143.459
X72.898Y-145.999
X72.898Y-148.539
X78.181Y-143.459
X78.181Y-145.999
X78.181Y-148.539
X83.668Y-143.278
X83.668Y-145.818
X83.668Y-148.358
X89.56Y-143.358
X89.56Y-145.898
X89.56Y-148.438
X95.047Y-143.408
X95.047Y-145.948
X95.047Y-148.488
X100.482Y-143.459
X100.482Y-145.999
X100.482Y-148.539
T4
X70.714Y-175.616
X72.085Y-179.121
X72.238Y-176.886
X72.39Y-174.955
X73.558Y-178.105
X73.914Y-175.92
T5
X99.568Y-252.324
X102.108Y-252.324
X104.648Y-252.324
X107.188Y-252.324
X109.728Y-232.004
X109.728Y-252.324
X112.268Y-232.004
X112.268Y-252.324
X114.808Y-232.004
X114.808Y-252.324
X117.348Y-232.004
X117.348Y-252.324
X119.888Y-232.004
X119.888Y-252.324
X122.428Y-232.004
X122.428Y-252.324
X124.968Y-232.004
X124.968Y-252.324
X127.508Y-232.004
X127.508Y-252.324
X130.048Y-232.004
X130.048Y-252.324
X132.588Y-232.004
X132.588Y-252.324
X135.128Y-232.004
X135.128Y-252.324
X137.668Y-232.004
X137.668Y-252.324
T6
X146.041Y-188.086
X146.041Y-191.086
T7
X52.222Y-201.422
X52.222Y-209.042
X52.222Y-213.972
X52.222Y-221.592
X52.222Y-226.522
X52.222Y-234.142
X62.382Y-209.042
X62.382Y-221.592
X62.382Y-234.142
X70.002Y-209.042
X70.002Y-221.592
X70.002Y-234.142
T8
X52.531Y-183.371
X52.531Y-193.291
X55.931Y-183.371
X55.931Y-193.291
X62.531Y-183.371
X62.531Y-193.291
X65.931Y-183.371
X65.931Y-193.291
X72.531Y-183.371
X72.531Y-193.291
X75.931Y-183.371
X75.931Y-193.291
X81.888Y-203.066
X81.888Y-212.986
X82.531Y-183.371
X82.531Y-193.291
X85.288Y-203.066
X85.288Y-212.986
X85.931Y-183.371
X85.931Y-193.291
X91.888Y-203.066
X91.888Y-212.986
X92.531Y-183.371
X92.531Y-193.291
X95.288Y-203.066
X95.288Y-212.986
X95.931Y-183.371
X95.931Y-193.291
X101.888Y-203.066
X101.888Y-212.986
X102.531Y-183.371
X102.531Y-193.291
X105.288Y-203.066
X105.288Y-212.986
X105.931Y-183.371
X105.931Y-193.291
X111.888Y-203.066
X111.888Y-212.986
X112.531Y-183.371
X112.531Y-193.291
X115.288Y-203.066
X115.288Y-212.986
X115.931Y-183.371
X115.931Y-193.291
X122.531Y-183.371
X122.531Y-193.291
X125.931Y-183.371
X125.931Y-193.291
X132.531Y-183.371
X132.531Y-193.291
X135.931Y-183.371
X135.931Y-193.291
T9
X54.305Y-145.158
X54.305Y-248.158
X154.305Y-145.158
X154.305Y-248.158
M30
