%TF.GenerationSoftware,KiCad,Pcbnew,8.0.4*%
%TF.CreationDate,2024-10-16T17:02:38+10:30*%
%TF.ProjectId,power_and_monotoring,706f7765-725f-4616-9e64-5f6d6f6e6f74,rev?*%
%TF.SameCoordinates,Original*%
%TF.FileFunction,Drillmap*%
%TF.FilePolarity,Positive*%
%FSLAX45Y45*%
G04 Gerber Fmt 4.5, Leading zero omitted, Abs format (unit mm)*
G04 Created by KiCad (PCBNEW 8.0.4) date 2024-10-16 17:02:38*
%MOMM*%
%LPD*%
G01*
G04 APERTURE LIST*
%ADD10C,0.100000*%
%ADD11C,0.200000*%
%ADD12C,0.127000*%
%ADD13C,0.241000*%
%ADD14C,0.250000*%
%ADD15C,0.254000*%
G04 APERTURE END LIST*
D10*
X16330027Y-24815304D02*
G75*
G02*
X15731027Y-25415307I-599507J-496D01*
G01*
X15431027Y-25415304D02*
X4731015Y-25415304D01*
X15730532Y-12979680D02*
G75*
G02*
X16330540Y-13578680I508J-599500D01*
G01*
X4131015Y-24816304D02*
X4131520Y-13579680D01*
X4731015Y-25415304D02*
G75*
G02*
X4131016Y-24816304I-495J599504D01*
G01*
X4730520Y-12979680D02*
X15730532Y-12979680D01*
X15731027Y-25415304D02*
X15431027Y-25415304D01*
X16330532Y-13578680D02*
X16330027Y-24815304D01*
X4131520Y-13579680D02*
G75*
G02*
X4730520Y-12979680I599506J494D01*
G01*
D11*
D10*
X5493021Y-16840298D02*
X5590021Y-16937298D01*
X5590021Y-16840298D02*
X5493021Y-16937298D01*
X5493021Y-17094298D02*
X5590021Y-17191298D01*
X5590021Y-17094298D02*
X5493021Y-17191298D01*
X5747021Y-16840298D02*
X5844021Y-16937298D01*
X5844021Y-16840298D02*
X5747021Y-16937298D01*
X5747021Y-17094298D02*
X5844021Y-17191298D01*
X5844021Y-17094298D02*
X5747021Y-17191298D01*
X6001021Y-16840298D02*
X6098021Y-16937298D01*
X6098021Y-16840298D02*
X6001021Y-16937298D01*
X6001021Y-17094298D02*
X6098021Y-17191298D01*
X6098021Y-17094298D02*
X6001021Y-17191298D01*
X6255021Y-16840298D02*
X6352021Y-16937298D01*
X6352021Y-16840298D02*
X6255021Y-16937298D01*
X6255021Y-17094298D02*
X6352021Y-17191298D01*
X6352021Y-17094298D02*
X6255021Y-17191298D01*
X6509021Y-16840298D02*
X6606021Y-16937298D01*
X6606021Y-16840298D02*
X6509021Y-16937298D01*
X6509021Y-17094298D02*
X6606021Y-17191298D01*
X6606021Y-17094298D02*
X6509021Y-17191298D01*
X6763021Y-16840298D02*
X6860021Y-16937298D01*
X6860021Y-16840298D02*
X6763021Y-16937298D01*
X6763021Y-17094298D02*
X6860021Y-17191298D01*
X6860021Y-17094298D02*
X6763021Y-17191298D01*
X7017021Y-16840298D02*
X7114021Y-16937298D01*
X7114021Y-16840298D02*
X7017021Y-16937298D01*
X7017021Y-17094298D02*
X7114021Y-17191298D01*
X7114021Y-17094298D02*
X7017021Y-17191298D01*
X7271021Y-16840298D02*
X7368021Y-16937298D01*
X7368021Y-16840298D02*
X7271021Y-16937298D01*
X7271021Y-17094298D02*
X7368021Y-17191298D01*
X7368021Y-17094298D02*
X7271021Y-17191298D01*
X7793021Y-16840298D02*
X7890021Y-16937298D01*
X7890021Y-16840298D02*
X7793021Y-16937298D01*
X7793021Y-17094298D02*
X7890021Y-17191298D01*
X7890021Y-17094298D02*
X7793021Y-17191298D01*
X8047021Y-16840298D02*
X8144021Y-16937298D01*
X8144021Y-16840298D02*
X8047021Y-16937298D01*
X8047021Y-17094298D02*
X8144021Y-17191298D01*
X8144021Y-17094298D02*
X8047021Y-17191298D01*
X8301021Y-16840298D02*
X8398021Y-16937298D01*
X8398021Y-16840298D02*
X8301021Y-16937298D01*
X8301021Y-17094298D02*
X8398021Y-17191298D01*
X8398021Y-17094298D02*
X8301021Y-17191298D01*
X8555021Y-16840298D02*
X8652021Y-16937298D01*
X8652021Y-16840298D02*
X8555021Y-16937298D01*
X8555021Y-17094298D02*
X8652021Y-17191298D01*
X8652021Y-17094298D02*
X8555021Y-17191298D01*
X8809021Y-16840298D02*
X8906021Y-16937298D01*
X8906021Y-16840298D02*
X8809021Y-16937298D01*
X8809021Y-17094298D02*
X8906021Y-17191298D01*
X8906021Y-17094298D02*
X8809021Y-17191298D01*
X9063021Y-16840298D02*
X9160021Y-16937298D01*
X9160021Y-16840298D02*
X9063021Y-16937298D01*
X9063021Y-17094298D02*
X9160021Y-17191298D01*
X9160021Y-17094298D02*
X9063021Y-17191298D01*
X9317021Y-16840298D02*
X9414021Y-16937298D01*
X9414021Y-16840298D02*
X9317021Y-16937298D01*
X9317021Y-17094298D02*
X9414021Y-17191298D01*
X9414021Y-17094298D02*
X9317021Y-17191298D01*
X9571021Y-16840298D02*
X9668021Y-16937298D01*
X9668021Y-16840298D02*
X9571021Y-16937298D01*
X9571021Y-17094298D02*
X9668021Y-17191298D01*
X9668021Y-17094298D02*
X9571021Y-17191298D01*
X10093021Y-16840298D02*
X10190021Y-16937298D01*
X10190021Y-16840298D02*
X10093021Y-16937298D01*
X10093021Y-17094298D02*
X10190021Y-17191298D01*
X10190021Y-17094298D02*
X10093021Y-17191298D01*
X10347021Y-16840298D02*
X10444021Y-16937298D01*
X10444021Y-16840298D02*
X10347021Y-16937298D01*
X10347021Y-17094298D02*
X10444021Y-17191298D01*
X10444021Y-17094298D02*
X10347021Y-17191298D01*
X10601021Y-16840298D02*
X10698021Y-16937298D01*
X10698021Y-16840298D02*
X10601021Y-16937298D01*
X10601021Y-17094298D02*
X10698021Y-17191298D01*
X10698021Y-17094298D02*
X10601021Y-17191298D01*
X10855021Y-16840298D02*
X10952021Y-16937298D01*
X10952021Y-16840298D02*
X10855021Y-16937298D01*
X10855021Y-17094298D02*
X10952021Y-17191298D01*
X10952021Y-17094298D02*
X10855021Y-17191298D01*
X11109021Y-16840298D02*
X11206021Y-16937298D01*
X11206021Y-16840298D02*
X11109021Y-16937298D01*
X11109021Y-17094298D02*
X11206021Y-17191298D01*
X11206021Y-17094298D02*
X11109021Y-17191298D01*
X11363021Y-16840298D02*
X11460021Y-16937298D01*
X11460021Y-16840298D02*
X11363021Y-16937298D01*
X11363021Y-17094298D02*
X11460021Y-17191298D01*
X11460021Y-17094298D02*
X11363021Y-17191298D01*
X11617021Y-16840298D02*
X11714021Y-16937298D01*
X11714021Y-16840298D02*
X11617021Y-16937298D01*
X11617021Y-17094298D02*
X11714021Y-17191298D01*
X11714021Y-17094298D02*
X11617021Y-17191298D01*
X11871021Y-16840298D02*
X11968021Y-16937298D01*
X11968021Y-16840298D02*
X11871021Y-16937298D01*
X11871021Y-17094298D02*
X11968021Y-17191298D01*
X11968021Y-17094298D02*
X11871021Y-17191298D01*
X12393021Y-16840298D02*
X12490021Y-16937298D01*
X12490021Y-16840298D02*
X12393021Y-16937298D01*
X12393021Y-17094298D02*
X12490021Y-17191298D01*
X12490021Y-17094298D02*
X12393021Y-17191298D01*
X12647021Y-16840298D02*
X12744021Y-16937298D01*
X12744021Y-16840298D02*
X12647021Y-16937298D01*
X12647021Y-17094298D02*
X12744021Y-17191298D01*
X12744021Y-17094298D02*
X12647021Y-17191298D01*
X12901021Y-16840298D02*
X12998021Y-16937298D01*
X12998021Y-16840298D02*
X12901021Y-16937298D01*
X12901021Y-17094298D02*
X12998021Y-17191298D01*
X12998021Y-17094298D02*
X12901021Y-17191298D01*
X13155021Y-16840298D02*
X13252021Y-16937298D01*
X13252021Y-16840298D02*
X13155021Y-16937298D01*
X13155021Y-17094298D02*
X13252021Y-17191298D01*
X13252021Y-17094298D02*
X13155021Y-17191298D01*
X13409021Y-16840298D02*
X13506021Y-16937298D01*
X13506021Y-16840298D02*
X13409021Y-16937298D01*
X13409021Y-17094298D02*
X13506021Y-17191298D01*
X13506021Y-17094298D02*
X13409021Y-17191298D01*
X13663021Y-16840298D02*
X13760021Y-16937298D01*
X13760021Y-16840298D02*
X13663021Y-16937298D01*
X13663021Y-17094298D02*
X13760021Y-17191298D01*
X13760021Y-17094298D02*
X13663021Y-17191298D01*
X13917021Y-16840298D02*
X14014021Y-16937298D01*
X14014021Y-16840298D02*
X13917021Y-16937298D01*
X13917021Y-17094298D02*
X14014021Y-17191298D01*
X14014021Y-17094298D02*
X13917021Y-17191298D01*
X14171021Y-16840298D02*
X14268021Y-16937298D01*
X14268021Y-16840298D02*
X14171021Y-16937298D01*
X14171021Y-17094298D02*
X14268021Y-17191298D01*
X14268021Y-17094298D02*
X14171021Y-17191298D01*
D12*
X14471640Y-18508560D02*
G75*
G02*
X14344640Y-18508560I-63500J0D01*
G01*
X14344640Y-18508560D02*
G75*
G02*
X14471640Y-18508560I63500J0D01*
G01*
X14471640Y-19408560D02*
G75*
G02*
X14344640Y-19408560I-63500J0D01*
G01*
X14344640Y-19408560D02*
G75*
G02*
X14471640Y-19408560I63500J0D01*
G01*
D13*
X11831240Y-14916300D02*
X11831240Y-15157300D01*
X11710740Y-15036800D02*
X11951740Y-15036800D01*
X14361240Y-14916300D02*
X14361240Y-15157300D01*
X14240740Y-15036800D02*
X14481740Y-15036800D01*
X15143480Y-15940745D02*
X15143480Y-16181745D01*
X15022980Y-16061245D02*
X15263980Y-16061245D01*
X15143480Y-17570745D02*
X15143480Y-17811745D01*
X15022980Y-17691245D02*
X15263980Y-17691245D01*
D14*
X9664189Y-23415749D02*
X9664189Y-23238971D01*
X9487411Y-23238971D01*
X9487411Y-23415749D01*
X9664189Y-23415749D01*
X9664189Y-25193749D02*
X9664189Y-25016971D01*
X9487411Y-25016971D01*
X9487411Y-25193749D01*
X9664189Y-25193749D01*
D15*
X14147800Y-23454360D02*
X14274800Y-23327360D01*
X14147800Y-23200360D01*
X14020800Y-23327360D01*
X14147800Y-23454360D01*
X14147800Y-25232360D02*
X14274800Y-25105360D01*
X14147800Y-24978360D01*
X14020800Y-25105360D01*
X14147800Y-25232360D01*
D11*
X4386792Y-25731788D02*
X4386792Y-25531788D01*
X4386792Y-25531788D02*
X4434411Y-25531788D01*
X4434411Y-25531788D02*
X4462982Y-25541312D01*
X4462982Y-25541312D02*
X4482030Y-25560359D01*
X4482030Y-25560359D02*
X4491554Y-25579407D01*
X4491554Y-25579407D02*
X4501077Y-25617502D01*
X4501077Y-25617502D02*
X4501077Y-25646074D01*
X4501077Y-25646074D02*
X4491554Y-25684169D01*
X4491554Y-25684169D02*
X4482030Y-25703216D01*
X4482030Y-25703216D02*
X4462982Y-25722264D01*
X4462982Y-25722264D02*
X4434411Y-25731788D01*
X4434411Y-25731788D02*
X4386792Y-25731788D01*
X4586792Y-25731788D02*
X4586792Y-25598455D01*
X4586792Y-25636550D02*
X4596316Y-25617502D01*
X4596316Y-25617502D02*
X4605839Y-25607978D01*
X4605839Y-25607978D02*
X4624887Y-25598455D01*
X4624887Y-25598455D02*
X4643935Y-25598455D01*
X4710601Y-25731788D02*
X4710601Y-25598455D01*
X4710601Y-25531788D02*
X4701077Y-25541312D01*
X4701077Y-25541312D02*
X4710601Y-25550836D01*
X4710601Y-25550836D02*
X4720125Y-25541312D01*
X4720125Y-25541312D02*
X4710601Y-25531788D01*
X4710601Y-25531788D02*
X4710601Y-25550836D01*
X4834411Y-25731788D02*
X4815363Y-25722264D01*
X4815363Y-25722264D02*
X4805839Y-25703216D01*
X4805839Y-25703216D02*
X4805839Y-25531788D01*
X4939173Y-25731788D02*
X4920125Y-25722264D01*
X4920125Y-25722264D02*
X4910601Y-25703216D01*
X4910601Y-25703216D02*
X4910601Y-25531788D01*
X5167744Y-25731788D02*
X5167744Y-25531788D01*
X5167744Y-25531788D02*
X5234411Y-25674645D01*
X5234411Y-25674645D02*
X5301077Y-25531788D01*
X5301077Y-25531788D02*
X5301077Y-25731788D01*
X5482030Y-25731788D02*
X5482030Y-25627026D01*
X5482030Y-25627026D02*
X5472506Y-25607978D01*
X5472506Y-25607978D02*
X5453458Y-25598455D01*
X5453458Y-25598455D02*
X5415363Y-25598455D01*
X5415363Y-25598455D02*
X5396316Y-25607978D01*
X5482030Y-25722264D02*
X5462982Y-25731788D01*
X5462982Y-25731788D02*
X5415363Y-25731788D01*
X5415363Y-25731788D02*
X5396316Y-25722264D01*
X5396316Y-25722264D02*
X5386792Y-25703216D01*
X5386792Y-25703216D02*
X5386792Y-25684169D01*
X5386792Y-25684169D02*
X5396316Y-25665121D01*
X5396316Y-25665121D02*
X5415363Y-25655597D01*
X5415363Y-25655597D02*
X5462982Y-25655597D01*
X5462982Y-25655597D02*
X5482030Y-25646074D01*
X5577268Y-25598455D02*
X5577268Y-25798455D01*
X5577268Y-25607978D02*
X5596315Y-25598455D01*
X5596315Y-25598455D02*
X5634411Y-25598455D01*
X5634411Y-25598455D02*
X5653458Y-25607978D01*
X5653458Y-25607978D02*
X5662982Y-25617502D01*
X5662982Y-25617502D02*
X5672506Y-25636550D01*
X5672506Y-25636550D02*
X5672506Y-25693693D01*
X5672506Y-25693693D02*
X5662982Y-25712740D01*
X5662982Y-25712740D02*
X5653458Y-25722264D01*
X5653458Y-25722264D02*
X5634411Y-25731788D01*
X5634411Y-25731788D02*
X5596315Y-25731788D01*
X5596315Y-25731788D02*
X5577268Y-25722264D01*
X5758220Y-25712740D02*
X5767744Y-25722264D01*
X5767744Y-25722264D02*
X5758220Y-25731788D01*
X5758220Y-25731788D02*
X5748696Y-25722264D01*
X5748696Y-25722264D02*
X5758220Y-25712740D01*
X5758220Y-25712740D02*
X5758220Y-25731788D01*
X5758220Y-25607978D02*
X5767744Y-25617502D01*
X5767744Y-25617502D02*
X5758220Y-25627026D01*
X5758220Y-25627026D02*
X5748696Y-25617502D01*
X5748696Y-25617502D02*
X5758220Y-25607978D01*
X5758220Y-25607978D02*
X5758220Y-25627026D01*
D10*
X4029015Y-26011804D02*
X4126015Y-26108804D01*
X4126015Y-26011804D02*
X4029015Y-26108804D01*
D11*
X4424887Y-25951788D02*
X4443935Y-25951788D01*
X4443935Y-25951788D02*
X4462982Y-25961312D01*
X4462982Y-25961312D02*
X4472506Y-25970836D01*
X4472506Y-25970836D02*
X4482030Y-25989883D01*
X4482030Y-25989883D02*
X4491554Y-26027978D01*
X4491554Y-26027978D02*
X4491554Y-26075597D01*
X4491554Y-26075597D02*
X4482030Y-26113693D01*
X4482030Y-26113693D02*
X4472506Y-26132740D01*
X4472506Y-26132740D02*
X4462982Y-26142264D01*
X4462982Y-26142264D02*
X4443935Y-26151788D01*
X4443935Y-26151788D02*
X4424887Y-26151788D01*
X4424887Y-26151788D02*
X4405839Y-26142264D01*
X4405839Y-26142264D02*
X4396316Y-26132740D01*
X4396316Y-26132740D02*
X4386792Y-26113693D01*
X4386792Y-26113693D02*
X4377268Y-26075597D01*
X4377268Y-26075597D02*
X4377268Y-26027978D01*
X4377268Y-26027978D02*
X4386792Y-25989883D01*
X4386792Y-25989883D02*
X4396316Y-25970836D01*
X4396316Y-25970836D02*
X4405839Y-25961312D01*
X4405839Y-25961312D02*
X4424887Y-25951788D01*
X4577268Y-26132740D02*
X4586792Y-26142264D01*
X4586792Y-26142264D02*
X4577268Y-26151788D01*
X4577268Y-26151788D02*
X4567744Y-26142264D01*
X4567744Y-26142264D02*
X4577268Y-26132740D01*
X4577268Y-26132740D02*
X4577268Y-26151788D01*
X4682030Y-26151788D02*
X4720125Y-26151788D01*
X4720125Y-26151788D02*
X4739173Y-26142264D01*
X4739173Y-26142264D02*
X4748697Y-26132740D01*
X4748697Y-26132740D02*
X4767744Y-26104169D01*
X4767744Y-26104169D02*
X4777268Y-26066074D01*
X4777268Y-26066074D02*
X4777268Y-25989883D01*
X4777268Y-25989883D02*
X4767744Y-25970836D01*
X4767744Y-25970836D02*
X4758220Y-25961312D01*
X4758220Y-25961312D02*
X4739173Y-25951788D01*
X4739173Y-25951788D02*
X4701077Y-25951788D01*
X4701077Y-25951788D02*
X4682030Y-25961312D01*
X4682030Y-25961312D02*
X4672506Y-25970836D01*
X4672506Y-25970836D02*
X4662982Y-25989883D01*
X4662982Y-25989883D02*
X4662982Y-26037502D01*
X4662982Y-26037502D02*
X4672506Y-26056550D01*
X4672506Y-26056550D02*
X4682030Y-26066074D01*
X4682030Y-26066074D02*
X4701077Y-26075597D01*
X4701077Y-26075597D02*
X4739173Y-26075597D01*
X4739173Y-26075597D02*
X4758220Y-26066074D01*
X4758220Y-26066074D02*
X4767744Y-26056550D01*
X4767744Y-26056550D02*
X4777268Y-26037502D01*
X4843935Y-25951788D02*
X4977268Y-25951788D01*
X4977268Y-25951788D02*
X4891554Y-26151788D01*
X5091554Y-25951788D02*
X5110601Y-25951788D01*
X5110601Y-25951788D02*
X5129649Y-25961312D01*
X5129649Y-25961312D02*
X5139173Y-25970836D01*
X5139173Y-25970836D02*
X5148697Y-25989883D01*
X5148697Y-25989883D02*
X5158220Y-26027978D01*
X5158220Y-26027978D02*
X5158220Y-26075597D01*
X5158220Y-26075597D02*
X5148697Y-26113693D01*
X5148697Y-26113693D02*
X5139173Y-26132740D01*
X5139173Y-26132740D02*
X5129649Y-26142264D01*
X5129649Y-26142264D02*
X5110601Y-26151788D01*
X5110601Y-26151788D02*
X5091554Y-26151788D01*
X5091554Y-26151788D02*
X5072506Y-26142264D01*
X5072506Y-26142264D02*
X5062982Y-26132740D01*
X5062982Y-26132740D02*
X5053458Y-26113693D01*
X5053458Y-26113693D02*
X5043935Y-26075597D01*
X5043935Y-26075597D02*
X5043935Y-26027978D01*
X5043935Y-26027978D02*
X5053458Y-25989883D01*
X5053458Y-25989883D02*
X5062982Y-25970836D01*
X5062982Y-25970836D02*
X5072506Y-25961312D01*
X5072506Y-25961312D02*
X5091554Y-25951788D01*
X5243935Y-26151788D02*
X5243935Y-26018455D01*
X5243935Y-26037502D02*
X5253458Y-26027978D01*
X5253458Y-26027978D02*
X5272506Y-26018455D01*
X5272506Y-26018455D02*
X5301078Y-26018455D01*
X5301078Y-26018455D02*
X5320125Y-26027978D01*
X5320125Y-26027978D02*
X5329649Y-26047026D01*
X5329649Y-26047026D02*
X5329649Y-26151788D01*
X5329649Y-26047026D02*
X5339173Y-26027978D01*
X5339173Y-26027978D02*
X5358220Y-26018455D01*
X5358220Y-26018455D02*
X5386792Y-26018455D01*
X5386792Y-26018455D02*
X5405839Y-26027978D01*
X5405839Y-26027978D02*
X5415363Y-26047026D01*
X5415363Y-26047026D02*
X5415363Y-26151788D01*
X5510601Y-26151788D02*
X5510601Y-26018455D01*
X5510601Y-26037502D02*
X5520125Y-26027978D01*
X5520125Y-26027978D02*
X5539173Y-26018455D01*
X5539173Y-26018455D02*
X5567744Y-26018455D01*
X5567744Y-26018455D02*
X5586792Y-26027978D01*
X5586792Y-26027978D02*
X5596316Y-26047026D01*
X5596316Y-26047026D02*
X5596316Y-26151788D01*
X5596316Y-26047026D02*
X5605839Y-26027978D01*
X5605839Y-26027978D02*
X5624887Y-26018455D01*
X5624887Y-26018455D02*
X5653458Y-26018455D01*
X5653458Y-26018455D02*
X5672506Y-26027978D01*
X5672506Y-26027978D02*
X5682030Y-26047026D01*
X5682030Y-26047026D02*
X5682030Y-26151788D01*
X6072506Y-25942264D02*
X5901078Y-26199407D01*
X6329649Y-25951788D02*
X6348697Y-25951788D01*
X6348697Y-25951788D02*
X6367744Y-25961312D01*
X6367744Y-25961312D02*
X6377268Y-25970836D01*
X6377268Y-25970836D02*
X6386792Y-25989883D01*
X6386792Y-25989883D02*
X6396316Y-26027978D01*
X6396316Y-26027978D02*
X6396316Y-26075597D01*
X6396316Y-26075597D02*
X6386792Y-26113693D01*
X6386792Y-26113693D02*
X6377268Y-26132740D01*
X6377268Y-26132740D02*
X6367744Y-26142264D01*
X6367744Y-26142264D02*
X6348697Y-26151788D01*
X6348697Y-26151788D02*
X6329649Y-26151788D01*
X6329649Y-26151788D02*
X6310601Y-26142264D01*
X6310601Y-26142264D02*
X6301078Y-26132740D01*
X6301078Y-26132740D02*
X6291554Y-26113693D01*
X6291554Y-26113693D02*
X6282030Y-26075597D01*
X6282030Y-26075597D02*
X6282030Y-26027978D01*
X6282030Y-26027978D02*
X6291554Y-25989883D01*
X6291554Y-25989883D02*
X6301078Y-25970836D01*
X6301078Y-25970836D02*
X6310601Y-25961312D01*
X6310601Y-25961312D02*
X6329649Y-25951788D01*
X6482030Y-26132740D02*
X6491554Y-26142264D01*
X6491554Y-26142264D02*
X6482030Y-26151788D01*
X6482030Y-26151788D02*
X6472506Y-26142264D01*
X6472506Y-26142264D02*
X6482030Y-26132740D01*
X6482030Y-26132740D02*
X6482030Y-26151788D01*
X6615363Y-25951788D02*
X6634411Y-25951788D01*
X6634411Y-25951788D02*
X6653459Y-25961312D01*
X6653459Y-25961312D02*
X6662982Y-25970836D01*
X6662982Y-25970836D02*
X6672506Y-25989883D01*
X6672506Y-25989883D02*
X6682030Y-26027978D01*
X6682030Y-26027978D02*
X6682030Y-26075597D01*
X6682030Y-26075597D02*
X6672506Y-26113693D01*
X6672506Y-26113693D02*
X6662982Y-26132740D01*
X6662982Y-26132740D02*
X6653459Y-26142264D01*
X6653459Y-26142264D02*
X6634411Y-26151788D01*
X6634411Y-26151788D02*
X6615363Y-26151788D01*
X6615363Y-26151788D02*
X6596316Y-26142264D01*
X6596316Y-26142264D02*
X6586792Y-26132740D01*
X6586792Y-26132740D02*
X6577268Y-26113693D01*
X6577268Y-26113693D02*
X6567744Y-26075597D01*
X6567744Y-26075597D02*
X6567744Y-26027978D01*
X6567744Y-26027978D02*
X6577268Y-25989883D01*
X6577268Y-25989883D02*
X6586792Y-25970836D01*
X6586792Y-25970836D02*
X6596316Y-25961312D01*
X6596316Y-25961312D02*
X6615363Y-25951788D01*
X6748697Y-25951788D02*
X6872506Y-25951788D01*
X6872506Y-25951788D02*
X6805839Y-26027978D01*
X6805839Y-26027978D02*
X6834411Y-26027978D01*
X6834411Y-26027978D02*
X6853459Y-26037502D01*
X6853459Y-26037502D02*
X6862982Y-26047026D01*
X6862982Y-26047026D02*
X6872506Y-26066074D01*
X6872506Y-26066074D02*
X6872506Y-26113693D01*
X6872506Y-26113693D02*
X6862982Y-26132740D01*
X6862982Y-26132740D02*
X6853459Y-26142264D01*
X6853459Y-26142264D02*
X6834411Y-26151788D01*
X6834411Y-26151788D02*
X6777268Y-26151788D01*
X6777268Y-26151788D02*
X6758220Y-26142264D01*
X6758220Y-26142264D02*
X6748697Y-26132740D01*
X6986792Y-26037502D02*
X6967744Y-26027978D01*
X6967744Y-26027978D02*
X6958220Y-26018455D01*
X6958220Y-26018455D02*
X6948697Y-25999407D01*
X6948697Y-25999407D02*
X6948697Y-25989883D01*
X6948697Y-25989883D02*
X6958220Y-25970836D01*
X6958220Y-25970836D02*
X6967744Y-25961312D01*
X6967744Y-25961312D02*
X6986792Y-25951788D01*
X6986792Y-25951788D02*
X7024887Y-25951788D01*
X7024887Y-25951788D02*
X7043935Y-25961312D01*
X7043935Y-25961312D02*
X7053459Y-25970836D01*
X7053459Y-25970836D02*
X7062982Y-25989883D01*
X7062982Y-25989883D02*
X7062982Y-25999407D01*
X7062982Y-25999407D02*
X7053459Y-26018455D01*
X7053459Y-26018455D02*
X7043935Y-26027978D01*
X7043935Y-26027978D02*
X7024887Y-26037502D01*
X7024887Y-26037502D02*
X6986792Y-26037502D01*
X6986792Y-26037502D02*
X6967744Y-26047026D01*
X6967744Y-26047026D02*
X6958220Y-26056550D01*
X6958220Y-26056550D02*
X6948697Y-26075597D01*
X6948697Y-26075597D02*
X6948697Y-26113693D01*
X6948697Y-26113693D02*
X6958220Y-26132740D01*
X6958220Y-26132740D02*
X6967744Y-26142264D01*
X6967744Y-26142264D02*
X6986792Y-26151788D01*
X6986792Y-26151788D02*
X7024887Y-26151788D01*
X7024887Y-26151788D02*
X7043935Y-26142264D01*
X7043935Y-26142264D02*
X7053459Y-26132740D01*
X7053459Y-26132740D02*
X7062982Y-26113693D01*
X7062982Y-26113693D02*
X7062982Y-26075597D01*
X7062982Y-26075597D02*
X7053459Y-26056550D01*
X7053459Y-26056550D02*
X7043935Y-26047026D01*
X7043935Y-26047026D02*
X7024887Y-26037502D01*
X7139173Y-25970836D02*
X7148697Y-25961312D01*
X7148697Y-25961312D02*
X7167744Y-25951788D01*
X7167744Y-25951788D02*
X7215363Y-25951788D01*
X7215363Y-25951788D02*
X7234411Y-25961312D01*
X7234411Y-25961312D02*
X7243935Y-25970836D01*
X7243935Y-25970836D02*
X7253459Y-25989883D01*
X7253459Y-25989883D02*
X7253459Y-26008931D01*
X7253459Y-26008931D02*
X7243935Y-26037502D01*
X7243935Y-26037502D02*
X7129649Y-26151788D01*
X7129649Y-26151788D02*
X7253459Y-26151788D01*
X7329649Y-25951788D02*
X7329649Y-25989883D01*
X7405840Y-25951788D02*
X7405840Y-25989883D01*
X7701078Y-26227978D02*
X7691554Y-26218455D01*
X7691554Y-26218455D02*
X7672506Y-26189883D01*
X7672506Y-26189883D02*
X7662982Y-26170836D01*
X7662982Y-26170836D02*
X7653459Y-26142264D01*
X7653459Y-26142264D02*
X7643935Y-26094645D01*
X7643935Y-26094645D02*
X7643935Y-26056550D01*
X7643935Y-26056550D02*
X7653459Y-26008931D01*
X7653459Y-26008931D02*
X7662982Y-25980359D01*
X7662982Y-25980359D02*
X7672506Y-25961312D01*
X7672506Y-25961312D02*
X7691554Y-25932740D01*
X7691554Y-25932740D02*
X7701078Y-25923216D01*
X7862982Y-25951788D02*
X7824887Y-25951788D01*
X7824887Y-25951788D02*
X7805840Y-25961312D01*
X7805840Y-25961312D02*
X7796316Y-25970836D01*
X7796316Y-25970836D02*
X7777268Y-25999407D01*
X7777268Y-25999407D02*
X7767744Y-26037502D01*
X7767744Y-26037502D02*
X7767744Y-26113693D01*
X7767744Y-26113693D02*
X7777268Y-26132740D01*
X7777268Y-26132740D02*
X7786792Y-26142264D01*
X7786792Y-26142264D02*
X7805840Y-26151788D01*
X7805840Y-26151788D02*
X7843935Y-26151788D01*
X7843935Y-26151788D02*
X7862982Y-26142264D01*
X7862982Y-26142264D02*
X7872506Y-26132740D01*
X7872506Y-26132740D02*
X7882030Y-26113693D01*
X7882030Y-26113693D02*
X7882030Y-26066074D01*
X7882030Y-26066074D02*
X7872506Y-26047026D01*
X7872506Y-26047026D02*
X7862982Y-26037502D01*
X7862982Y-26037502D02*
X7843935Y-26027978D01*
X7843935Y-26027978D02*
X7805840Y-26027978D01*
X7805840Y-26027978D02*
X7786792Y-26037502D01*
X7786792Y-26037502D02*
X7777268Y-26047026D01*
X7777268Y-26047026D02*
X7767744Y-26066074D01*
X8053459Y-26018455D02*
X8053459Y-26151788D01*
X8005840Y-25942264D02*
X7958221Y-26085121D01*
X7958221Y-26085121D02*
X8082030Y-26085121D01*
X8310602Y-26151788D02*
X8310602Y-25951788D01*
X8396316Y-26151788D02*
X8396316Y-26047026D01*
X8396316Y-26047026D02*
X8386792Y-26027978D01*
X8386792Y-26027978D02*
X8367744Y-26018455D01*
X8367744Y-26018455D02*
X8339173Y-26018455D01*
X8339173Y-26018455D02*
X8320125Y-26027978D01*
X8320125Y-26027978D02*
X8310602Y-26037502D01*
X8520125Y-26151788D02*
X8501078Y-26142264D01*
X8501078Y-26142264D02*
X8491554Y-26132740D01*
X8491554Y-26132740D02*
X8482030Y-26113693D01*
X8482030Y-26113693D02*
X8482030Y-26056550D01*
X8482030Y-26056550D02*
X8491554Y-26037502D01*
X8491554Y-26037502D02*
X8501078Y-26027978D01*
X8501078Y-26027978D02*
X8520125Y-26018455D01*
X8520125Y-26018455D02*
X8548697Y-26018455D01*
X8548697Y-26018455D02*
X8567745Y-26027978D01*
X8567745Y-26027978D02*
X8577268Y-26037502D01*
X8577268Y-26037502D02*
X8586792Y-26056550D01*
X8586792Y-26056550D02*
X8586792Y-26113693D01*
X8586792Y-26113693D02*
X8577268Y-26132740D01*
X8577268Y-26132740D02*
X8567745Y-26142264D01*
X8567745Y-26142264D02*
X8548697Y-26151788D01*
X8548697Y-26151788D02*
X8520125Y-26151788D01*
X8701078Y-26151788D02*
X8682030Y-26142264D01*
X8682030Y-26142264D02*
X8672506Y-26123216D01*
X8672506Y-26123216D02*
X8672506Y-25951788D01*
X8853459Y-26142264D02*
X8834411Y-26151788D01*
X8834411Y-26151788D02*
X8796316Y-26151788D01*
X8796316Y-26151788D02*
X8777268Y-26142264D01*
X8777268Y-26142264D02*
X8767745Y-26123216D01*
X8767745Y-26123216D02*
X8767745Y-26047026D01*
X8767745Y-26047026D02*
X8777268Y-26027978D01*
X8777268Y-26027978D02*
X8796316Y-26018455D01*
X8796316Y-26018455D02*
X8834411Y-26018455D01*
X8834411Y-26018455D02*
X8853459Y-26027978D01*
X8853459Y-26027978D02*
X8862983Y-26047026D01*
X8862983Y-26047026D02*
X8862983Y-26066074D01*
X8862983Y-26066074D02*
X8767745Y-26085121D01*
X8939173Y-26142264D02*
X8958221Y-26151788D01*
X8958221Y-26151788D02*
X8996316Y-26151788D01*
X8996316Y-26151788D02*
X9015364Y-26142264D01*
X9015364Y-26142264D02*
X9024887Y-26123216D01*
X9024887Y-26123216D02*
X9024887Y-26113693D01*
X9024887Y-26113693D02*
X9015364Y-26094645D01*
X9015364Y-26094645D02*
X8996316Y-26085121D01*
X8996316Y-26085121D02*
X8967745Y-26085121D01*
X8967745Y-26085121D02*
X8948697Y-26075597D01*
X8948697Y-26075597D02*
X8939173Y-26056550D01*
X8939173Y-26056550D02*
X8939173Y-26047026D01*
X8939173Y-26047026D02*
X8948697Y-26027978D01*
X8948697Y-26027978D02*
X8967745Y-26018455D01*
X8967745Y-26018455D02*
X8996316Y-26018455D01*
X8996316Y-26018455D02*
X9015364Y-26027978D01*
X9091554Y-26227978D02*
X9101078Y-26218455D01*
X9101078Y-26218455D02*
X9120126Y-26189883D01*
X9120126Y-26189883D02*
X9129649Y-26170836D01*
X9129649Y-26170836D02*
X9139173Y-26142264D01*
X9139173Y-26142264D02*
X9148697Y-26094645D01*
X9148697Y-26094645D02*
X9148697Y-26056550D01*
X9148697Y-26056550D02*
X9139173Y-26008931D01*
X9139173Y-26008931D02*
X9129649Y-25980359D01*
X9129649Y-25980359D02*
X9120126Y-25961312D01*
X9120126Y-25961312D02*
X9101078Y-25932740D01*
X9101078Y-25932740D02*
X9091554Y-25923216D01*
X9453459Y-26227978D02*
X9443935Y-26218455D01*
X9443935Y-26218455D02*
X9424887Y-26189883D01*
X9424887Y-26189883D02*
X9415364Y-26170836D01*
X9415364Y-26170836D02*
X9405840Y-26142264D01*
X9405840Y-26142264D02*
X9396316Y-26094645D01*
X9396316Y-26094645D02*
X9396316Y-26056550D01*
X9396316Y-26056550D02*
X9405840Y-26008931D01*
X9405840Y-26008931D02*
X9415364Y-25980359D01*
X9415364Y-25980359D02*
X9424887Y-25961312D01*
X9424887Y-25961312D02*
X9443935Y-25932740D01*
X9443935Y-25932740D02*
X9453459Y-25923216D01*
X9529649Y-26018455D02*
X9529649Y-26151788D01*
X9529649Y-26037502D02*
X9539173Y-26027978D01*
X9539173Y-26027978D02*
X9558221Y-26018455D01*
X9558221Y-26018455D02*
X9586792Y-26018455D01*
X9586792Y-26018455D02*
X9605840Y-26027978D01*
X9605840Y-26027978D02*
X9615364Y-26047026D01*
X9615364Y-26047026D02*
X9615364Y-26151788D01*
X9739173Y-26151788D02*
X9720126Y-26142264D01*
X9720126Y-26142264D02*
X9710602Y-26132740D01*
X9710602Y-26132740D02*
X9701078Y-26113693D01*
X9701078Y-26113693D02*
X9701078Y-26056550D01*
X9701078Y-26056550D02*
X9710602Y-26037502D01*
X9710602Y-26037502D02*
X9720126Y-26027978D01*
X9720126Y-26027978D02*
X9739173Y-26018455D01*
X9739173Y-26018455D02*
X9767745Y-26018455D01*
X9767745Y-26018455D02*
X9786792Y-26027978D01*
X9786792Y-26027978D02*
X9796316Y-26037502D01*
X9796316Y-26037502D02*
X9805840Y-26056550D01*
X9805840Y-26056550D02*
X9805840Y-26113693D01*
X9805840Y-26113693D02*
X9796316Y-26132740D01*
X9796316Y-26132740D02*
X9786792Y-26142264D01*
X9786792Y-26142264D02*
X9767745Y-26151788D01*
X9767745Y-26151788D02*
X9739173Y-26151788D01*
X9862983Y-26018455D02*
X9939173Y-26018455D01*
X9891554Y-25951788D02*
X9891554Y-26123216D01*
X9891554Y-26123216D02*
X9901078Y-26142264D01*
X9901078Y-26142264D02*
X9920126Y-26151788D01*
X9920126Y-26151788D02*
X9939173Y-26151788D01*
X10158221Y-26018455D02*
X10158221Y-26218455D01*
X10158221Y-26027978D02*
X10177268Y-26018455D01*
X10177268Y-26018455D02*
X10215364Y-26018455D01*
X10215364Y-26018455D02*
X10234411Y-26027978D01*
X10234411Y-26027978D02*
X10243935Y-26037502D01*
X10243935Y-26037502D02*
X10253459Y-26056550D01*
X10253459Y-26056550D02*
X10253459Y-26113693D01*
X10253459Y-26113693D02*
X10243935Y-26132740D01*
X10243935Y-26132740D02*
X10234411Y-26142264D01*
X10234411Y-26142264D02*
X10215364Y-26151788D01*
X10215364Y-26151788D02*
X10177268Y-26151788D01*
X10177268Y-26151788D02*
X10158221Y-26142264D01*
X10367745Y-26151788D02*
X10348697Y-26142264D01*
X10348697Y-26142264D02*
X10339173Y-26123216D01*
X10339173Y-26123216D02*
X10339173Y-25951788D01*
X10529649Y-26151788D02*
X10529649Y-26047026D01*
X10529649Y-26047026D02*
X10520126Y-26027978D01*
X10520126Y-26027978D02*
X10501078Y-26018455D01*
X10501078Y-26018455D02*
X10462983Y-26018455D01*
X10462983Y-26018455D02*
X10443935Y-26027978D01*
X10529649Y-26142264D02*
X10510602Y-26151788D01*
X10510602Y-26151788D02*
X10462983Y-26151788D01*
X10462983Y-26151788D02*
X10443935Y-26142264D01*
X10443935Y-26142264D02*
X10434411Y-26123216D01*
X10434411Y-26123216D02*
X10434411Y-26104169D01*
X10434411Y-26104169D02*
X10443935Y-26085121D01*
X10443935Y-26085121D02*
X10462983Y-26075597D01*
X10462983Y-26075597D02*
X10510602Y-26075597D01*
X10510602Y-26075597D02*
X10529649Y-26066074D01*
X10596316Y-26018455D02*
X10672507Y-26018455D01*
X10624888Y-25951788D02*
X10624888Y-26123216D01*
X10624888Y-26123216D02*
X10634411Y-26142264D01*
X10634411Y-26142264D02*
X10653459Y-26151788D01*
X10653459Y-26151788D02*
X10672507Y-26151788D01*
X10815364Y-26142264D02*
X10796316Y-26151788D01*
X10796316Y-26151788D02*
X10758221Y-26151788D01*
X10758221Y-26151788D02*
X10739173Y-26142264D01*
X10739173Y-26142264D02*
X10729649Y-26123216D01*
X10729649Y-26123216D02*
X10729649Y-26047026D01*
X10729649Y-26047026D02*
X10739173Y-26027978D01*
X10739173Y-26027978D02*
X10758221Y-26018455D01*
X10758221Y-26018455D02*
X10796316Y-26018455D01*
X10796316Y-26018455D02*
X10815364Y-26027978D01*
X10815364Y-26027978D02*
X10824888Y-26047026D01*
X10824888Y-26047026D02*
X10824888Y-26066074D01*
X10824888Y-26066074D02*
X10729649Y-26085121D01*
X10996316Y-26151788D02*
X10996316Y-25951788D01*
X10996316Y-26142264D02*
X10977269Y-26151788D01*
X10977269Y-26151788D02*
X10939173Y-26151788D01*
X10939173Y-26151788D02*
X10920126Y-26142264D01*
X10920126Y-26142264D02*
X10910602Y-26132740D01*
X10910602Y-26132740D02*
X10901078Y-26113693D01*
X10901078Y-26113693D02*
X10901078Y-26056550D01*
X10901078Y-26056550D02*
X10910602Y-26037502D01*
X10910602Y-26037502D02*
X10920126Y-26027978D01*
X10920126Y-26027978D02*
X10939173Y-26018455D01*
X10939173Y-26018455D02*
X10977269Y-26018455D01*
X10977269Y-26018455D02*
X10996316Y-26027978D01*
X11072507Y-26227978D02*
X11082030Y-26218455D01*
X11082030Y-26218455D02*
X11101078Y-26189883D01*
X11101078Y-26189883D02*
X11110602Y-26170836D01*
X11110602Y-26170836D02*
X11120126Y-26142264D01*
X11120126Y-26142264D02*
X11129649Y-26094645D01*
X11129649Y-26094645D02*
X11129649Y-26056550D01*
X11129649Y-26056550D02*
X11120126Y-26008931D01*
X11120126Y-26008931D02*
X11110602Y-25980359D01*
X11110602Y-25980359D02*
X11101078Y-25961312D01*
X11101078Y-25961312D02*
X11082030Y-25932740D01*
X11082030Y-25932740D02*
X11072507Y-25923216D01*
D12*
X4126015Y-26324304D02*
G75*
G02*
X3999015Y-26324304I-63500J0D01*
G01*
X3999015Y-26324304D02*
G75*
G02*
X4126015Y-26324304I63500J0D01*
G01*
D11*
X4491554Y-26415788D02*
X4377268Y-26415788D01*
X4434411Y-26415788D02*
X4434411Y-26215788D01*
X4434411Y-26215788D02*
X4415363Y-26244359D01*
X4415363Y-26244359D02*
X4396316Y-26263407D01*
X4396316Y-26263407D02*
X4377268Y-26272931D01*
X4577268Y-26396740D02*
X4586792Y-26406264D01*
X4586792Y-26406264D02*
X4577268Y-26415788D01*
X4577268Y-26415788D02*
X4567744Y-26406264D01*
X4567744Y-26406264D02*
X4577268Y-26396740D01*
X4577268Y-26396740D02*
X4577268Y-26415788D01*
X4662982Y-26234836D02*
X4672506Y-26225312D01*
X4672506Y-26225312D02*
X4691554Y-26215788D01*
X4691554Y-26215788D02*
X4739173Y-26215788D01*
X4739173Y-26215788D02*
X4758220Y-26225312D01*
X4758220Y-26225312D02*
X4767744Y-26234836D01*
X4767744Y-26234836D02*
X4777268Y-26253883D01*
X4777268Y-26253883D02*
X4777268Y-26272931D01*
X4777268Y-26272931D02*
X4767744Y-26301502D01*
X4767744Y-26301502D02*
X4653458Y-26415788D01*
X4653458Y-26415788D02*
X4777268Y-26415788D01*
X4843935Y-26215788D02*
X4977268Y-26215788D01*
X4977268Y-26215788D02*
X4891554Y-26415788D01*
X5091554Y-26215788D02*
X5110601Y-26215788D01*
X5110601Y-26215788D02*
X5129649Y-26225312D01*
X5129649Y-26225312D02*
X5139173Y-26234836D01*
X5139173Y-26234836D02*
X5148697Y-26253883D01*
X5148697Y-26253883D02*
X5158220Y-26291978D01*
X5158220Y-26291978D02*
X5158220Y-26339597D01*
X5158220Y-26339597D02*
X5148697Y-26377693D01*
X5148697Y-26377693D02*
X5139173Y-26396740D01*
X5139173Y-26396740D02*
X5129649Y-26406264D01*
X5129649Y-26406264D02*
X5110601Y-26415788D01*
X5110601Y-26415788D02*
X5091554Y-26415788D01*
X5091554Y-26415788D02*
X5072506Y-26406264D01*
X5072506Y-26406264D02*
X5062982Y-26396740D01*
X5062982Y-26396740D02*
X5053458Y-26377693D01*
X5053458Y-26377693D02*
X5043935Y-26339597D01*
X5043935Y-26339597D02*
X5043935Y-26291978D01*
X5043935Y-26291978D02*
X5053458Y-26253883D01*
X5053458Y-26253883D02*
X5062982Y-26234836D01*
X5062982Y-26234836D02*
X5072506Y-26225312D01*
X5072506Y-26225312D02*
X5091554Y-26215788D01*
X5243935Y-26415788D02*
X5243935Y-26282455D01*
X5243935Y-26301502D02*
X5253458Y-26291978D01*
X5253458Y-26291978D02*
X5272506Y-26282455D01*
X5272506Y-26282455D02*
X5301078Y-26282455D01*
X5301078Y-26282455D02*
X5320125Y-26291978D01*
X5320125Y-26291978D02*
X5329649Y-26311026D01*
X5329649Y-26311026D02*
X5329649Y-26415788D01*
X5329649Y-26311026D02*
X5339173Y-26291978D01*
X5339173Y-26291978D02*
X5358220Y-26282455D01*
X5358220Y-26282455D02*
X5386792Y-26282455D01*
X5386792Y-26282455D02*
X5405839Y-26291978D01*
X5405839Y-26291978D02*
X5415363Y-26311026D01*
X5415363Y-26311026D02*
X5415363Y-26415788D01*
X5510601Y-26415788D02*
X5510601Y-26282455D01*
X5510601Y-26301502D02*
X5520125Y-26291978D01*
X5520125Y-26291978D02*
X5539173Y-26282455D01*
X5539173Y-26282455D02*
X5567744Y-26282455D01*
X5567744Y-26282455D02*
X5586792Y-26291978D01*
X5586792Y-26291978D02*
X5596316Y-26311026D01*
X5596316Y-26311026D02*
X5596316Y-26415788D01*
X5596316Y-26311026D02*
X5605839Y-26291978D01*
X5605839Y-26291978D02*
X5624887Y-26282455D01*
X5624887Y-26282455D02*
X5653458Y-26282455D01*
X5653458Y-26282455D02*
X5672506Y-26291978D01*
X5672506Y-26291978D02*
X5682030Y-26311026D01*
X5682030Y-26311026D02*
X5682030Y-26415788D01*
X6072506Y-26206264D02*
X5901078Y-26463407D01*
X6329649Y-26215788D02*
X6348697Y-26215788D01*
X6348697Y-26215788D02*
X6367744Y-26225312D01*
X6367744Y-26225312D02*
X6377268Y-26234836D01*
X6377268Y-26234836D02*
X6386792Y-26253883D01*
X6386792Y-26253883D02*
X6396316Y-26291978D01*
X6396316Y-26291978D02*
X6396316Y-26339597D01*
X6396316Y-26339597D02*
X6386792Y-26377693D01*
X6386792Y-26377693D02*
X6377268Y-26396740D01*
X6377268Y-26396740D02*
X6367744Y-26406264D01*
X6367744Y-26406264D02*
X6348697Y-26415788D01*
X6348697Y-26415788D02*
X6329649Y-26415788D01*
X6329649Y-26415788D02*
X6310601Y-26406264D01*
X6310601Y-26406264D02*
X6301078Y-26396740D01*
X6301078Y-26396740D02*
X6291554Y-26377693D01*
X6291554Y-26377693D02*
X6282030Y-26339597D01*
X6282030Y-26339597D02*
X6282030Y-26291978D01*
X6282030Y-26291978D02*
X6291554Y-26253883D01*
X6291554Y-26253883D02*
X6301078Y-26234836D01*
X6301078Y-26234836D02*
X6310601Y-26225312D01*
X6310601Y-26225312D02*
X6329649Y-26215788D01*
X6482030Y-26396740D02*
X6491554Y-26406264D01*
X6491554Y-26406264D02*
X6482030Y-26415788D01*
X6482030Y-26415788D02*
X6472506Y-26406264D01*
X6472506Y-26406264D02*
X6482030Y-26396740D01*
X6482030Y-26396740D02*
X6482030Y-26415788D01*
X6615363Y-26215788D02*
X6634411Y-26215788D01*
X6634411Y-26215788D02*
X6653459Y-26225312D01*
X6653459Y-26225312D02*
X6662982Y-26234836D01*
X6662982Y-26234836D02*
X6672506Y-26253883D01*
X6672506Y-26253883D02*
X6682030Y-26291978D01*
X6682030Y-26291978D02*
X6682030Y-26339597D01*
X6682030Y-26339597D02*
X6672506Y-26377693D01*
X6672506Y-26377693D02*
X6662982Y-26396740D01*
X6662982Y-26396740D02*
X6653459Y-26406264D01*
X6653459Y-26406264D02*
X6634411Y-26415788D01*
X6634411Y-26415788D02*
X6615363Y-26415788D01*
X6615363Y-26415788D02*
X6596316Y-26406264D01*
X6596316Y-26406264D02*
X6586792Y-26396740D01*
X6586792Y-26396740D02*
X6577268Y-26377693D01*
X6577268Y-26377693D02*
X6567744Y-26339597D01*
X6567744Y-26339597D02*
X6567744Y-26291978D01*
X6567744Y-26291978D02*
X6577268Y-26253883D01*
X6577268Y-26253883D02*
X6586792Y-26234836D01*
X6586792Y-26234836D02*
X6596316Y-26225312D01*
X6596316Y-26225312D02*
X6615363Y-26215788D01*
X6862982Y-26215788D02*
X6767744Y-26215788D01*
X6767744Y-26215788D02*
X6758220Y-26311026D01*
X6758220Y-26311026D02*
X6767744Y-26301502D01*
X6767744Y-26301502D02*
X6786792Y-26291978D01*
X6786792Y-26291978D02*
X6834411Y-26291978D01*
X6834411Y-26291978D02*
X6853459Y-26301502D01*
X6853459Y-26301502D02*
X6862982Y-26311026D01*
X6862982Y-26311026D02*
X6872506Y-26330074D01*
X6872506Y-26330074D02*
X6872506Y-26377693D01*
X6872506Y-26377693D02*
X6862982Y-26396740D01*
X6862982Y-26396740D02*
X6853459Y-26406264D01*
X6853459Y-26406264D02*
X6834411Y-26415788D01*
X6834411Y-26415788D02*
X6786792Y-26415788D01*
X6786792Y-26415788D02*
X6767744Y-26406264D01*
X6767744Y-26406264D02*
X6758220Y-26396740D01*
X6996316Y-26215788D02*
X7015363Y-26215788D01*
X7015363Y-26215788D02*
X7034411Y-26225312D01*
X7034411Y-26225312D02*
X7043935Y-26234836D01*
X7043935Y-26234836D02*
X7053459Y-26253883D01*
X7053459Y-26253883D02*
X7062982Y-26291978D01*
X7062982Y-26291978D02*
X7062982Y-26339597D01*
X7062982Y-26339597D02*
X7053459Y-26377693D01*
X7053459Y-26377693D02*
X7043935Y-26396740D01*
X7043935Y-26396740D02*
X7034411Y-26406264D01*
X7034411Y-26406264D02*
X7015363Y-26415788D01*
X7015363Y-26415788D02*
X6996316Y-26415788D01*
X6996316Y-26415788D02*
X6977268Y-26406264D01*
X6977268Y-26406264D02*
X6967744Y-26396740D01*
X6967744Y-26396740D02*
X6958220Y-26377693D01*
X6958220Y-26377693D02*
X6948697Y-26339597D01*
X6948697Y-26339597D02*
X6948697Y-26291978D01*
X6948697Y-26291978D02*
X6958220Y-26253883D01*
X6958220Y-26253883D02*
X6967744Y-26234836D01*
X6967744Y-26234836D02*
X6977268Y-26225312D01*
X6977268Y-26225312D02*
X6996316Y-26215788D01*
X7186792Y-26215788D02*
X7205840Y-26215788D01*
X7205840Y-26215788D02*
X7224887Y-26225312D01*
X7224887Y-26225312D02*
X7234411Y-26234836D01*
X7234411Y-26234836D02*
X7243935Y-26253883D01*
X7243935Y-26253883D02*
X7253459Y-26291978D01*
X7253459Y-26291978D02*
X7253459Y-26339597D01*
X7253459Y-26339597D02*
X7243935Y-26377693D01*
X7243935Y-26377693D02*
X7234411Y-26396740D01*
X7234411Y-26396740D02*
X7224887Y-26406264D01*
X7224887Y-26406264D02*
X7205840Y-26415788D01*
X7205840Y-26415788D02*
X7186792Y-26415788D01*
X7186792Y-26415788D02*
X7167744Y-26406264D01*
X7167744Y-26406264D02*
X7158220Y-26396740D01*
X7158220Y-26396740D02*
X7148697Y-26377693D01*
X7148697Y-26377693D02*
X7139173Y-26339597D01*
X7139173Y-26339597D02*
X7139173Y-26291978D01*
X7139173Y-26291978D02*
X7148697Y-26253883D01*
X7148697Y-26253883D02*
X7158220Y-26234836D01*
X7158220Y-26234836D02*
X7167744Y-26225312D01*
X7167744Y-26225312D02*
X7186792Y-26215788D01*
X7329649Y-26215788D02*
X7329649Y-26253883D01*
X7405840Y-26215788D02*
X7405840Y-26253883D01*
X7701078Y-26491978D02*
X7691554Y-26482455D01*
X7691554Y-26482455D02*
X7672506Y-26453883D01*
X7672506Y-26453883D02*
X7662982Y-26434836D01*
X7662982Y-26434836D02*
X7653459Y-26406264D01*
X7653459Y-26406264D02*
X7643935Y-26358645D01*
X7643935Y-26358645D02*
X7643935Y-26320550D01*
X7643935Y-26320550D02*
X7653459Y-26272931D01*
X7653459Y-26272931D02*
X7662982Y-26244359D01*
X7662982Y-26244359D02*
X7672506Y-26225312D01*
X7672506Y-26225312D02*
X7691554Y-26196740D01*
X7691554Y-26196740D02*
X7701078Y-26187216D01*
X7767744Y-26234836D02*
X7777268Y-26225312D01*
X7777268Y-26225312D02*
X7796316Y-26215788D01*
X7796316Y-26215788D02*
X7843935Y-26215788D01*
X7843935Y-26215788D02*
X7862982Y-26225312D01*
X7862982Y-26225312D02*
X7872506Y-26234836D01*
X7872506Y-26234836D02*
X7882030Y-26253883D01*
X7882030Y-26253883D02*
X7882030Y-26272931D01*
X7882030Y-26272931D02*
X7872506Y-26301502D01*
X7872506Y-26301502D02*
X7758221Y-26415788D01*
X7758221Y-26415788D02*
X7882030Y-26415788D01*
X8120125Y-26415788D02*
X8120125Y-26215788D01*
X8205840Y-26415788D02*
X8205840Y-26311026D01*
X8205840Y-26311026D02*
X8196316Y-26291978D01*
X8196316Y-26291978D02*
X8177268Y-26282455D01*
X8177268Y-26282455D02*
X8148697Y-26282455D01*
X8148697Y-26282455D02*
X8129649Y-26291978D01*
X8129649Y-26291978D02*
X8120125Y-26301502D01*
X8329649Y-26415788D02*
X8310602Y-26406264D01*
X8310602Y-26406264D02*
X8301078Y-26396740D01*
X8301078Y-26396740D02*
X8291554Y-26377693D01*
X8291554Y-26377693D02*
X8291554Y-26320550D01*
X8291554Y-26320550D02*
X8301078Y-26301502D01*
X8301078Y-26301502D02*
X8310602Y-26291978D01*
X8310602Y-26291978D02*
X8329649Y-26282455D01*
X8329649Y-26282455D02*
X8358221Y-26282455D01*
X8358221Y-26282455D02*
X8377268Y-26291978D01*
X8377268Y-26291978D02*
X8386792Y-26301502D01*
X8386792Y-26301502D02*
X8396316Y-26320550D01*
X8396316Y-26320550D02*
X8396316Y-26377693D01*
X8396316Y-26377693D02*
X8386792Y-26396740D01*
X8386792Y-26396740D02*
X8377268Y-26406264D01*
X8377268Y-26406264D02*
X8358221Y-26415788D01*
X8358221Y-26415788D02*
X8329649Y-26415788D01*
X8510602Y-26415788D02*
X8491554Y-26406264D01*
X8491554Y-26406264D02*
X8482030Y-26387216D01*
X8482030Y-26387216D02*
X8482030Y-26215788D01*
X8662983Y-26406264D02*
X8643935Y-26415788D01*
X8643935Y-26415788D02*
X8605840Y-26415788D01*
X8605840Y-26415788D02*
X8586792Y-26406264D01*
X8586792Y-26406264D02*
X8577268Y-26387216D01*
X8577268Y-26387216D02*
X8577268Y-26311026D01*
X8577268Y-26311026D02*
X8586792Y-26291978D01*
X8586792Y-26291978D02*
X8605840Y-26282455D01*
X8605840Y-26282455D02*
X8643935Y-26282455D01*
X8643935Y-26282455D02*
X8662983Y-26291978D01*
X8662983Y-26291978D02*
X8672506Y-26311026D01*
X8672506Y-26311026D02*
X8672506Y-26330074D01*
X8672506Y-26330074D02*
X8577268Y-26349121D01*
X8748697Y-26406264D02*
X8767745Y-26415788D01*
X8767745Y-26415788D02*
X8805840Y-26415788D01*
X8805840Y-26415788D02*
X8824887Y-26406264D01*
X8824887Y-26406264D02*
X8834411Y-26387216D01*
X8834411Y-26387216D02*
X8834411Y-26377693D01*
X8834411Y-26377693D02*
X8824887Y-26358645D01*
X8824887Y-26358645D02*
X8805840Y-26349121D01*
X8805840Y-26349121D02*
X8777268Y-26349121D01*
X8777268Y-26349121D02*
X8758221Y-26339597D01*
X8758221Y-26339597D02*
X8748697Y-26320550D01*
X8748697Y-26320550D02*
X8748697Y-26311026D01*
X8748697Y-26311026D02*
X8758221Y-26291978D01*
X8758221Y-26291978D02*
X8777268Y-26282455D01*
X8777268Y-26282455D02*
X8805840Y-26282455D01*
X8805840Y-26282455D02*
X8824887Y-26291978D01*
X8901078Y-26491978D02*
X8910602Y-26482455D01*
X8910602Y-26482455D02*
X8929649Y-26453883D01*
X8929649Y-26453883D02*
X8939173Y-26434836D01*
X8939173Y-26434836D02*
X8948697Y-26406264D01*
X8948697Y-26406264D02*
X8958221Y-26358645D01*
X8958221Y-26358645D02*
X8958221Y-26320550D01*
X8958221Y-26320550D02*
X8948697Y-26272931D01*
X8948697Y-26272931D02*
X8939173Y-26244359D01*
X8939173Y-26244359D02*
X8929649Y-26225312D01*
X8929649Y-26225312D02*
X8910602Y-26196740D01*
X8910602Y-26196740D02*
X8901078Y-26187216D01*
X9262983Y-26491978D02*
X9253459Y-26482455D01*
X9253459Y-26482455D02*
X9234411Y-26453883D01*
X9234411Y-26453883D02*
X9224887Y-26434836D01*
X9224887Y-26434836D02*
X9215364Y-26406264D01*
X9215364Y-26406264D02*
X9205840Y-26358645D01*
X9205840Y-26358645D02*
X9205840Y-26320550D01*
X9205840Y-26320550D02*
X9215364Y-26272931D01*
X9215364Y-26272931D02*
X9224887Y-26244359D01*
X9224887Y-26244359D02*
X9234411Y-26225312D01*
X9234411Y-26225312D02*
X9253459Y-26196740D01*
X9253459Y-26196740D02*
X9262983Y-26187216D01*
X9339173Y-26282455D02*
X9339173Y-26415788D01*
X9339173Y-26301502D02*
X9348697Y-26291978D01*
X9348697Y-26291978D02*
X9367745Y-26282455D01*
X9367745Y-26282455D02*
X9396316Y-26282455D01*
X9396316Y-26282455D02*
X9415364Y-26291978D01*
X9415364Y-26291978D02*
X9424887Y-26311026D01*
X9424887Y-26311026D02*
X9424887Y-26415788D01*
X9548697Y-26415788D02*
X9529649Y-26406264D01*
X9529649Y-26406264D02*
X9520126Y-26396740D01*
X9520126Y-26396740D02*
X9510602Y-26377693D01*
X9510602Y-26377693D02*
X9510602Y-26320550D01*
X9510602Y-26320550D02*
X9520126Y-26301502D01*
X9520126Y-26301502D02*
X9529649Y-26291978D01*
X9529649Y-26291978D02*
X9548697Y-26282455D01*
X9548697Y-26282455D02*
X9577268Y-26282455D01*
X9577268Y-26282455D02*
X9596316Y-26291978D01*
X9596316Y-26291978D02*
X9605840Y-26301502D01*
X9605840Y-26301502D02*
X9615364Y-26320550D01*
X9615364Y-26320550D02*
X9615364Y-26377693D01*
X9615364Y-26377693D02*
X9605840Y-26396740D01*
X9605840Y-26396740D02*
X9596316Y-26406264D01*
X9596316Y-26406264D02*
X9577268Y-26415788D01*
X9577268Y-26415788D02*
X9548697Y-26415788D01*
X9672507Y-26282455D02*
X9748697Y-26282455D01*
X9701078Y-26215788D02*
X9701078Y-26387216D01*
X9701078Y-26387216D02*
X9710602Y-26406264D01*
X9710602Y-26406264D02*
X9729649Y-26415788D01*
X9729649Y-26415788D02*
X9748697Y-26415788D01*
X9967745Y-26282455D02*
X9967745Y-26482455D01*
X9967745Y-26291978D02*
X9986792Y-26282455D01*
X9986792Y-26282455D02*
X10024888Y-26282455D01*
X10024888Y-26282455D02*
X10043935Y-26291978D01*
X10043935Y-26291978D02*
X10053459Y-26301502D01*
X10053459Y-26301502D02*
X10062983Y-26320550D01*
X10062983Y-26320550D02*
X10062983Y-26377693D01*
X10062983Y-26377693D02*
X10053459Y-26396740D01*
X10053459Y-26396740D02*
X10043935Y-26406264D01*
X10043935Y-26406264D02*
X10024888Y-26415788D01*
X10024888Y-26415788D02*
X9986792Y-26415788D01*
X9986792Y-26415788D02*
X9967745Y-26406264D01*
X10177268Y-26415788D02*
X10158221Y-26406264D01*
X10158221Y-26406264D02*
X10148697Y-26387216D01*
X10148697Y-26387216D02*
X10148697Y-26215788D01*
X10339173Y-26415788D02*
X10339173Y-26311026D01*
X10339173Y-26311026D02*
X10329649Y-26291978D01*
X10329649Y-26291978D02*
X10310602Y-26282455D01*
X10310602Y-26282455D02*
X10272507Y-26282455D01*
X10272507Y-26282455D02*
X10253459Y-26291978D01*
X10339173Y-26406264D02*
X10320126Y-26415788D01*
X10320126Y-26415788D02*
X10272507Y-26415788D01*
X10272507Y-26415788D02*
X10253459Y-26406264D01*
X10253459Y-26406264D02*
X10243935Y-26387216D01*
X10243935Y-26387216D02*
X10243935Y-26368169D01*
X10243935Y-26368169D02*
X10253459Y-26349121D01*
X10253459Y-26349121D02*
X10272507Y-26339597D01*
X10272507Y-26339597D02*
X10320126Y-26339597D01*
X10320126Y-26339597D02*
X10339173Y-26330074D01*
X10405840Y-26282455D02*
X10482030Y-26282455D01*
X10434411Y-26215788D02*
X10434411Y-26387216D01*
X10434411Y-26387216D02*
X10443935Y-26406264D01*
X10443935Y-26406264D02*
X10462983Y-26415788D01*
X10462983Y-26415788D02*
X10482030Y-26415788D01*
X10624888Y-26406264D02*
X10605840Y-26415788D01*
X10605840Y-26415788D02*
X10567745Y-26415788D01*
X10567745Y-26415788D02*
X10548697Y-26406264D01*
X10548697Y-26406264D02*
X10539173Y-26387216D01*
X10539173Y-26387216D02*
X10539173Y-26311026D01*
X10539173Y-26311026D02*
X10548697Y-26291978D01*
X10548697Y-26291978D02*
X10567745Y-26282455D01*
X10567745Y-26282455D02*
X10605840Y-26282455D01*
X10605840Y-26282455D02*
X10624888Y-26291978D01*
X10624888Y-26291978D02*
X10634411Y-26311026D01*
X10634411Y-26311026D02*
X10634411Y-26330074D01*
X10634411Y-26330074D02*
X10539173Y-26349121D01*
X10805840Y-26415788D02*
X10805840Y-26215788D01*
X10805840Y-26406264D02*
X10786792Y-26415788D01*
X10786792Y-26415788D02*
X10748697Y-26415788D01*
X10748697Y-26415788D02*
X10729649Y-26406264D01*
X10729649Y-26406264D02*
X10720126Y-26396740D01*
X10720126Y-26396740D02*
X10710602Y-26377693D01*
X10710602Y-26377693D02*
X10710602Y-26320550D01*
X10710602Y-26320550D02*
X10720126Y-26301502D01*
X10720126Y-26301502D02*
X10729649Y-26291978D01*
X10729649Y-26291978D02*
X10748697Y-26282455D01*
X10748697Y-26282455D02*
X10786792Y-26282455D01*
X10786792Y-26282455D02*
X10805840Y-26291978D01*
X10882030Y-26491978D02*
X10891554Y-26482455D01*
X10891554Y-26482455D02*
X10910602Y-26453883D01*
X10910602Y-26453883D02*
X10920126Y-26434836D01*
X10920126Y-26434836D02*
X10929649Y-26406264D01*
X10929649Y-26406264D02*
X10939173Y-26358645D01*
X10939173Y-26358645D02*
X10939173Y-26320550D01*
X10939173Y-26320550D02*
X10929649Y-26272931D01*
X10929649Y-26272931D02*
X10920126Y-26244359D01*
X10920126Y-26244359D02*
X10910602Y-26225312D01*
X10910602Y-26225312D02*
X10891554Y-26196740D01*
X10891554Y-26196740D02*
X10882030Y-26187216D01*
X4026015Y-26488304D02*
X4026015Y-26688304D01*
X3926015Y-26588304D02*
X4126015Y-26588304D01*
X4377268Y-26498836D02*
X4386792Y-26489312D01*
X4386792Y-26489312D02*
X4405839Y-26479788D01*
X4405839Y-26479788D02*
X4453458Y-26479788D01*
X4453458Y-26479788D02*
X4472506Y-26489312D01*
X4472506Y-26489312D02*
X4482030Y-26498836D01*
X4482030Y-26498836D02*
X4491554Y-26517883D01*
X4491554Y-26517883D02*
X4491554Y-26536931D01*
X4491554Y-26536931D02*
X4482030Y-26565502D01*
X4482030Y-26565502D02*
X4367744Y-26679788D01*
X4367744Y-26679788D02*
X4491554Y-26679788D01*
X4577268Y-26660740D02*
X4586792Y-26670264D01*
X4586792Y-26670264D02*
X4577268Y-26679788D01*
X4577268Y-26679788D02*
X4567744Y-26670264D01*
X4567744Y-26670264D02*
X4577268Y-26660740D01*
X4577268Y-26660740D02*
X4577268Y-26679788D01*
X4758220Y-26546455D02*
X4758220Y-26679788D01*
X4710601Y-26470264D02*
X4662982Y-26613121D01*
X4662982Y-26613121D02*
X4786792Y-26613121D01*
X4967744Y-26679788D02*
X4853458Y-26679788D01*
X4910601Y-26679788D02*
X4910601Y-26479788D01*
X4910601Y-26479788D02*
X4891554Y-26508359D01*
X4891554Y-26508359D02*
X4872506Y-26527407D01*
X4872506Y-26527407D02*
X4853458Y-26536931D01*
X5091554Y-26479788D02*
X5110601Y-26479788D01*
X5110601Y-26479788D02*
X5129649Y-26489312D01*
X5129649Y-26489312D02*
X5139173Y-26498836D01*
X5139173Y-26498836D02*
X5148697Y-26517883D01*
X5148697Y-26517883D02*
X5158220Y-26555978D01*
X5158220Y-26555978D02*
X5158220Y-26603597D01*
X5158220Y-26603597D02*
X5148697Y-26641693D01*
X5148697Y-26641693D02*
X5139173Y-26660740D01*
X5139173Y-26660740D02*
X5129649Y-26670264D01*
X5129649Y-26670264D02*
X5110601Y-26679788D01*
X5110601Y-26679788D02*
X5091554Y-26679788D01*
X5091554Y-26679788D02*
X5072506Y-26670264D01*
X5072506Y-26670264D02*
X5062982Y-26660740D01*
X5062982Y-26660740D02*
X5053458Y-26641693D01*
X5053458Y-26641693D02*
X5043935Y-26603597D01*
X5043935Y-26603597D02*
X5043935Y-26555978D01*
X5043935Y-26555978D02*
X5053458Y-26517883D01*
X5053458Y-26517883D02*
X5062982Y-26498836D01*
X5062982Y-26498836D02*
X5072506Y-26489312D01*
X5072506Y-26489312D02*
X5091554Y-26479788D01*
X5243935Y-26679788D02*
X5243935Y-26546455D01*
X5243935Y-26565502D02*
X5253458Y-26555978D01*
X5253458Y-26555978D02*
X5272506Y-26546455D01*
X5272506Y-26546455D02*
X5301078Y-26546455D01*
X5301078Y-26546455D02*
X5320125Y-26555978D01*
X5320125Y-26555978D02*
X5329649Y-26575026D01*
X5329649Y-26575026D02*
X5329649Y-26679788D01*
X5329649Y-26575026D02*
X5339173Y-26555978D01*
X5339173Y-26555978D02*
X5358220Y-26546455D01*
X5358220Y-26546455D02*
X5386792Y-26546455D01*
X5386792Y-26546455D02*
X5405839Y-26555978D01*
X5405839Y-26555978D02*
X5415363Y-26575026D01*
X5415363Y-26575026D02*
X5415363Y-26679788D01*
X5510601Y-26679788D02*
X5510601Y-26546455D01*
X5510601Y-26565502D02*
X5520125Y-26555978D01*
X5520125Y-26555978D02*
X5539173Y-26546455D01*
X5539173Y-26546455D02*
X5567744Y-26546455D01*
X5567744Y-26546455D02*
X5586792Y-26555978D01*
X5586792Y-26555978D02*
X5596316Y-26575026D01*
X5596316Y-26575026D02*
X5596316Y-26679788D01*
X5596316Y-26575026D02*
X5605839Y-26555978D01*
X5605839Y-26555978D02*
X5624887Y-26546455D01*
X5624887Y-26546455D02*
X5653458Y-26546455D01*
X5653458Y-26546455D02*
X5672506Y-26555978D01*
X5672506Y-26555978D02*
X5682030Y-26575026D01*
X5682030Y-26575026D02*
X5682030Y-26679788D01*
X6072506Y-26470264D02*
X5901078Y-26727407D01*
X6329649Y-26479788D02*
X6348697Y-26479788D01*
X6348697Y-26479788D02*
X6367744Y-26489312D01*
X6367744Y-26489312D02*
X6377268Y-26498836D01*
X6377268Y-26498836D02*
X6386792Y-26517883D01*
X6386792Y-26517883D02*
X6396316Y-26555978D01*
X6396316Y-26555978D02*
X6396316Y-26603597D01*
X6396316Y-26603597D02*
X6386792Y-26641693D01*
X6386792Y-26641693D02*
X6377268Y-26660740D01*
X6377268Y-26660740D02*
X6367744Y-26670264D01*
X6367744Y-26670264D02*
X6348697Y-26679788D01*
X6348697Y-26679788D02*
X6329649Y-26679788D01*
X6329649Y-26679788D02*
X6310601Y-26670264D01*
X6310601Y-26670264D02*
X6301078Y-26660740D01*
X6301078Y-26660740D02*
X6291554Y-26641693D01*
X6291554Y-26641693D02*
X6282030Y-26603597D01*
X6282030Y-26603597D02*
X6282030Y-26555978D01*
X6282030Y-26555978D02*
X6291554Y-26517883D01*
X6291554Y-26517883D02*
X6301078Y-26498836D01*
X6301078Y-26498836D02*
X6310601Y-26489312D01*
X6310601Y-26489312D02*
X6329649Y-26479788D01*
X6482030Y-26660740D02*
X6491554Y-26670264D01*
X6491554Y-26670264D02*
X6482030Y-26679788D01*
X6482030Y-26679788D02*
X6472506Y-26670264D01*
X6472506Y-26670264D02*
X6482030Y-26660740D01*
X6482030Y-26660740D02*
X6482030Y-26679788D01*
X6615363Y-26479788D02*
X6634411Y-26479788D01*
X6634411Y-26479788D02*
X6653459Y-26489312D01*
X6653459Y-26489312D02*
X6662982Y-26498836D01*
X6662982Y-26498836D02*
X6672506Y-26517883D01*
X6672506Y-26517883D02*
X6682030Y-26555978D01*
X6682030Y-26555978D02*
X6682030Y-26603597D01*
X6682030Y-26603597D02*
X6672506Y-26641693D01*
X6672506Y-26641693D02*
X6662982Y-26660740D01*
X6662982Y-26660740D02*
X6653459Y-26670264D01*
X6653459Y-26670264D02*
X6634411Y-26679788D01*
X6634411Y-26679788D02*
X6615363Y-26679788D01*
X6615363Y-26679788D02*
X6596316Y-26670264D01*
X6596316Y-26670264D02*
X6586792Y-26660740D01*
X6586792Y-26660740D02*
X6577268Y-26641693D01*
X6577268Y-26641693D02*
X6567744Y-26603597D01*
X6567744Y-26603597D02*
X6567744Y-26555978D01*
X6567744Y-26555978D02*
X6577268Y-26517883D01*
X6577268Y-26517883D02*
X6586792Y-26498836D01*
X6586792Y-26498836D02*
X6596316Y-26489312D01*
X6596316Y-26489312D02*
X6615363Y-26479788D01*
X6777268Y-26679788D02*
X6815363Y-26679788D01*
X6815363Y-26679788D02*
X6834411Y-26670264D01*
X6834411Y-26670264D02*
X6843935Y-26660740D01*
X6843935Y-26660740D02*
X6862982Y-26632169D01*
X6862982Y-26632169D02*
X6872506Y-26594074D01*
X6872506Y-26594074D02*
X6872506Y-26517883D01*
X6872506Y-26517883D02*
X6862982Y-26498836D01*
X6862982Y-26498836D02*
X6853459Y-26489312D01*
X6853459Y-26489312D02*
X6834411Y-26479788D01*
X6834411Y-26479788D02*
X6796316Y-26479788D01*
X6796316Y-26479788D02*
X6777268Y-26489312D01*
X6777268Y-26489312D02*
X6767744Y-26498836D01*
X6767744Y-26498836D02*
X6758220Y-26517883D01*
X6758220Y-26517883D02*
X6758220Y-26565502D01*
X6758220Y-26565502D02*
X6767744Y-26584550D01*
X6767744Y-26584550D02*
X6777268Y-26594074D01*
X6777268Y-26594074D02*
X6796316Y-26603597D01*
X6796316Y-26603597D02*
X6834411Y-26603597D01*
X6834411Y-26603597D02*
X6853459Y-26594074D01*
X6853459Y-26594074D02*
X6862982Y-26584550D01*
X6862982Y-26584550D02*
X6872506Y-26565502D01*
X7043935Y-26546455D02*
X7043935Y-26679788D01*
X6996316Y-26470264D02*
X6948697Y-26613121D01*
X6948697Y-26613121D02*
X7072506Y-26613121D01*
X7158220Y-26679788D02*
X7196316Y-26679788D01*
X7196316Y-26679788D02*
X7215363Y-26670264D01*
X7215363Y-26670264D02*
X7224887Y-26660740D01*
X7224887Y-26660740D02*
X7243935Y-26632169D01*
X7243935Y-26632169D02*
X7253459Y-26594074D01*
X7253459Y-26594074D02*
X7253459Y-26517883D01*
X7253459Y-26517883D02*
X7243935Y-26498836D01*
X7243935Y-26498836D02*
X7234411Y-26489312D01*
X7234411Y-26489312D02*
X7215363Y-26479788D01*
X7215363Y-26479788D02*
X7177268Y-26479788D01*
X7177268Y-26479788D02*
X7158220Y-26489312D01*
X7158220Y-26489312D02*
X7148697Y-26498836D01*
X7148697Y-26498836D02*
X7139173Y-26517883D01*
X7139173Y-26517883D02*
X7139173Y-26565502D01*
X7139173Y-26565502D02*
X7148697Y-26584550D01*
X7148697Y-26584550D02*
X7158220Y-26594074D01*
X7158220Y-26594074D02*
X7177268Y-26603597D01*
X7177268Y-26603597D02*
X7215363Y-26603597D01*
X7215363Y-26603597D02*
X7234411Y-26594074D01*
X7234411Y-26594074D02*
X7243935Y-26584550D01*
X7243935Y-26584550D02*
X7253459Y-26565502D01*
X7329649Y-26479788D02*
X7329649Y-26517883D01*
X7405840Y-26479788D02*
X7405840Y-26517883D01*
X7701078Y-26755978D02*
X7691554Y-26746455D01*
X7691554Y-26746455D02*
X7672506Y-26717883D01*
X7672506Y-26717883D02*
X7662982Y-26698836D01*
X7662982Y-26698836D02*
X7653459Y-26670264D01*
X7653459Y-26670264D02*
X7643935Y-26622645D01*
X7643935Y-26622645D02*
X7643935Y-26584550D01*
X7643935Y-26584550D02*
X7653459Y-26536931D01*
X7653459Y-26536931D02*
X7662982Y-26508359D01*
X7662982Y-26508359D02*
X7672506Y-26489312D01*
X7672506Y-26489312D02*
X7691554Y-26460740D01*
X7691554Y-26460740D02*
X7701078Y-26451216D01*
X7862982Y-26546455D02*
X7862982Y-26679788D01*
X7815363Y-26470264D02*
X7767744Y-26613121D01*
X7767744Y-26613121D02*
X7891554Y-26613121D01*
X8120125Y-26679788D02*
X8120125Y-26479788D01*
X8205840Y-26679788D02*
X8205840Y-26575026D01*
X8205840Y-26575026D02*
X8196316Y-26555978D01*
X8196316Y-26555978D02*
X8177268Y-26546455D01*
X8177268Y-26546455D02*
X8148697Y-26546455D01*
X8148697Y-26546455D02*
X8129649Y-26555978D01*
X8129649Y-26555978D02*
X8120125Y-26565502D01*
X8329649Y-26679788D02*
X8310602Y-26670264D01*
X8310602Y-26670264D02*
X8301078Y-26660740D01*
X8301078Y-26660740D02*
X8291554Y-26641693D01*
X8291554Y-26641693D02*
X8291554Y-26584550D01*
X8291554Y-26584550D02*
X8301078Y-26565502D01*
X8301078Y-26565502D02*
X8310602Y-26555978D01*
X8310602Y-26555978D02*
X8329649Y-26546455D01*
X8329649Y-26546455D02*
X8358221Y-26546455D01*
X8358221Y-26546455D02*
X8377268Y-26555978D01*
X8377268Y-26555978D02*
X8386792Y-26565502D01*
X8386792Y-26565502D02*
X8396316Y-26584550D01*
X8396316Y-26584550D02*
X8396316Y-26641693D01*
X8396316Y-26641693D02*
X8386792Y-26660740D01*
X8386792Y-26660740D02*
X8377268Y-26670264D01*
X8377268Y-26670264D02*
X8358221Y-26679788D01*
X8358221Y-26679788D02*
X8329649Y-26679788D01*
X8510602Y-26679788D02*
X8491554Y-26670264D01*
X8491554Y-26670264D02*
X8482030Y-26651216D01*
X8482030Y-26651216D02*
X8482030Y-26479788D01*
X8662983Y-26670264D02*
X8643935Y-26679788D01*
X8643935Y-26679788D02*
X8605840Y-26679788D01*
X8605840Y-26679788D02*
X8586792Y-26670264D01*
X8586792Y-26670264D02*
X8577268Y-26651216D01*
X8577268Y-26651216D02*
X8577268Y-26575026D01*
X8577268Y-26575026D02*
X8586792Y-26555978D01*
X8586792Y-26555978D02*
X8605840Y-26546455D01*
X8605840Y-26546455D02*
X8643935Y-26546455D01*
X8643935Y-26546455D02*
X8662983Y-26555978D01*
X8662983Y-26555978D02*
X8672506Y-26575026D01*
X8672506Y-26575026D02*
X8672506Y-26594074D01*
X8672506Y-26594074D02*
X8577268Y-26613121D01*
X8748697Y-26670264D02*
X8767745Y-26679788D01*
X8767745Y-26679788D02*
X8805840Y-26679788D01*
X8805840Y-26679788D02*
X8824887Y-26670264D01*
X8824887Y-26670264D02*
X8834411Y-26651216D01*
X8834411Y-26651216D02*
X8834411Y-26641693D01*
X8834411Y-26641693D02*
X8824887Y-26622645D01*
X8824887Y-26622645D02*
X8805840Y-26613121D01*
X8805840Y-26613121D02*
X8777268Y-26613121D01*
X8777268Y-26613121D02*
X8758221Y-26603597D01*
X8758221Y-26603597D02*
X8748697Y-26584550D01*
X8748697Y-26584550D02*
X8748697Y-26575026D01*
X8748697Y-26575026D02*
X8758221Y-26555978D01*
X8758221Y-26555978D02*
X8777268Y-26546455D01*
X8777268Y-26546455D02*
X8805840Y-26546455D01*
X8805840Y-26546455D02*
X8824887Y-26555978D01*
X8901078Y-26755978D02*
X8910602Y-26746455D01*
X8910602Y-26746455D02*
X8929649Y-26717883D01*
X8929649Y-26717883D02*
X8939173Y-26698836D01*
X8939173Y-26698836D02*
X8948697Y-26670264D01*
X8948697Y-26670264D02*
X8958221Y-26622645D01*
X8958221Y-26622645D02*
X8958221Y-26584550D01*
X8958221Y-26584550D02*
X8948697Y-26536931D01*
X8948697Y-26536931D02*
X8939173Y-26508359D01*
X8939173Y-26508359D02*
X8929649Y-26489312D01*
X8929649Y-26489312D02*
X8910602Y-26460740D01*
X8910602Y-26460740D02*
X8901078Y-26451216D01*
X9262983Y-26755978D02*
X9253459Y-26746455D01*
X9253459Y-26746455D02*
X9234411Y-26717883D01*
X9234411Y-26717883D02*
X9224887Y-26698836D01*
X9224887Y-26698836D02*
X9215364Y-26670264D01*
X9215364Y-26670264D02*
X9205840Y-26622645D01*
X9205840Y-26622645D02*
X9205840Y-26584550D01*
X9205840Y-26584550D02*
X9215364Y-26536931D01*
X9215364Y-26536931D02*
X9224887Y-26508359D01*
X9224887Y-26508359D02*
X9234411Y-26489312D01*
X9234411Y-26489312D02*
X9253459Y-26460740D01*
X9253459Y-26460740D02*
X9262983Y-26451216D01*
X9339173Y-26546455D02*
X9339173Y-26679788D01*
X9339173Y-26565502D02*
X9348697Y-26555978D01*
X9348697Y-26555978D02*
X9367745Y-26546455D01*
X9367745Y-26546455D02*
X9396316Y-26546455D01*
X9396316Y-26546455D02*
X9415364Y-26555978D01*
X9415364Y-26555978D02*
X9424887Y-26575026D01*
X9424887Y-26575026D02*
X9424887Y-26679788D01*
X9548697Y-26679788D02*
X9529649Y-26670264D01*
X9529649Y-26670264D02*
X9520126Y-26660740D01*
X9520126Y-26660740D02*
X9510602Y-26641693D01*
X9510602Y-26641693D02*
X9510602Y-26584550D01*
X9510602Y-26584550D02*
X9520126Y-26565502D01*
X9520126Y-26565502D02*
X9529649Y-26555978D01*
X9529649Y-26555978D02*
X9548697Y-26546455D01*
X9548697Y-26546455D02*
X9577268Y-26546455D01*
X9577268Y-26546455D02*
X9596316Y-26555978D01*
X9596316Y-26555978D02*
X9605840Y-26565502D01*
X9605840Y-26565502D02*
X9615364Y-26584550D01*
X9615364Y-26584550D02*
X9615364Y-26641693D01*
X9615364Y-26641693D02*
X9605840Y-26660740D01*
X9605840Y-26660740D02*
X9596316Y-26670264D01*
X9596316Y-26670264D02*
X9577268Y-26679788D01*
X9577268Y-26679788D02*
X9548697Y-26679788D01*
X9672507Y-26546455D02*
X9748697Y-26546455D01*
X9701078Y-26479788D02*
X9701078Y-26651216D01*
X9701078Y-26651216D02*
X9710602Y-26670264D01*
X9710602Y-26670264D02*
X9729649Y-26679788D01*
X9729649Y-26679788D02*
X9748697Y-26679788D01*
X9967745Y-26546455D02*
X9967745Y-26746455D01*
X9967745Y-26555978D02*
X9986792Y-26546455D01*
X9986792Y-26546455D02*
X10024888Y-26546455D01*
X10024888Y-26546455D02*
X10043935Y-26555978D01*
X10043935Y-26555978D02*
X10053459Y-26565502D01*
X10053459Y-26565502D02*
X10062983Y-26584550D01*
X10062983Y-26584550D02*
X10062983Y-26641693D01*
X10062983Y-26641693D02*
X10053459Y-26660740D01*
X10053459Y-26660740D02*
X10043935Y-26670264D01*
X10043935Y-26670264D02*
X10024888Y-26679788D01*
X10024888Y-26679788D02*
X9986792Y-26679788D01*
X9986792Y-26679788D02*
X9967745Y-26670264D01*
X10177268Y-26679788D02*
X10158221Y-26670264D01*
X10158221Y-26670264D02*
X10148697Y-26651216D01*
X10148697Y-26651216D02*
X10148697Y-26479788D01*
X10339173Y-26679788D02*
X10339173Y-26575026D01*
X10339173Y-26575026D02*
X10329649Y-26555978D01*
X10329649Y-26555978D02*
X10310602Y-26546455D01*
X10310602Y-26546455D02*
X10272507Y-26546455D01*
X10272507Y-26546455D02*
X10253459Y-26555978D01*
X10339173Y-26670264D02*
X10320126Y-26679788D01*
X10320126Y-26679788D02*
X10272507Y-26679788D01*
X10272507Y-26679788D02*
X10253459Y-26670264D01*
X10253459Y-26670264D02*
X10243935Y-26651216D01*
X10243935Y-26651216D02*
X10243935Y-26632169D01*
X10243935Y-26632169D02*
X10253459Y-26613121D01*
X10253459Y-26613121D02*
X10272507Y-26603597D01*
X10272507Y-26603597D02*
X10320126Y-26603597D01*
X10320126Y-26603597D02*
X10339173Y-26594074D01*
X10405840Y-26546455D02*
X10482030Y-26546455D01*
X10434411Y-26479788D02*
X10434411Y-26651216D01*
X10434411Y-26651216D02*
X10443935Y-26670264D01*
X10443935Y-26670264D02*
X10462983Y-26679788D01*
X10462983Y-26679788D02*
X10482030Y-26679788D01*
X10624888Y-26670264D02*
X10605840Y-26679788D01*
X10605840Y-26679788D02*
X10567745Y-26679788D01*
X10567745Y-26679788D02*
X10548697Y-26670264D01*
X10548697Y-26670264D02*
X10539173Y-26651216D01*
X10539173Y-26651216D02*
X10539173Y-26575026D01*
X10539173Y-26575026D02*
X10548697Y-26555978D01*
X10548697Y-26555978D02*
X10567745Y-26546455D01*
X10567745Y-26546455D02*
X10605840Y-26546455D01*
X10605840Y-26546455D02*
X10624888Y-26555978D01*
X10624888Y-26555978D02*
X10634411Y-26575026D01*
X10634411Y-26575026D02*
X10634411Y-26594074D01*
X10634411Y-26594074D02*
X10539173Y-26613121D01*
X10805840Y-26679788D02*
X10805840Y-26479788D01*
X10805840Y-26670264D02*
X10786792Y-26679788D01*
X10786792Y-26679788D02*
X10748697Y-26679788D01*
X10748697Y-26679788D02*
X10729649Y-26670264D01*
X10729649Y-26670264D02*
X10720126Y-26660740D01*
X10720126Y-26660740D02*
X10710602Y-26641693D01*
X10710602Y-26641693D02*
X10710602Y-26584550D01*
X10710602Y-26584550D02*
X10720126Y-26565502D01*
X10720126Y-26565502D02*
X10729649Y-26555978D01*
X10729649Y-26555978D02*
X10748697Y-26546455D01*
X10748697Y-26546455D02*
X10786792Y-26546455D01*
X10786792Y-26546455D02*
X10805840Y-26555978D01*
X10882030Y-26755978D02*
X10891554Y-26746455D01*
X10891554Y-26746455D02*
X10910602Y-26717883D01*
X10910602Y-26717883D02*
X10920126Y-26698836D01*
X10920126Y-26698836D02*
X10929649Y-26670264D01*
X10929649Y-26670264D02*
X10939173Y-26622645D01*
X10939173Y-26622645D02*
X10939173Y-26584550D01*
X10939173Y-26584550D02*
X10929649Y-26536931D01*
X10929649Y-26536931D02*
X10920126Y-26508359D01*
X10920126Y-26508359D02*
X10910602Y-26489312D01*
X10910602Y-26489312D02*
X10891554Y-26460740D01*
X10891554Y-26460740D02*
X10882030Y-26451216D01*
X4096726Y-26979016D02*
X4096726Y-26837593D01*
X3955303Y-26837593D01*
X3955303Y-26979016D01*
X4096726Y-26979016D01*
X4377268Y-26818836D02*
X4386792Y-26809312D01*
X4386792Y-26809312D02*
X4405839Y-26799788D01*
X4405839Y-26799788D02*
X4453458Y-26799788D01*
X4453458Y-26799788D02*
X4472506Y-26809312D01*
X4472506Y-26809312D02*
X4482030Y-26818836D01*
X4482030Y-26818836D02*
X4491554Y-26837883D01*
X4491554Y-26837883D02*
X4491554Y-26856931D01*
X4491554Y-26856931D02*
X4482030Y-26885502D01*
X4482030Y-26885502D02*
X4367744Y-26999788D01*
X4367744Y-26999788D02*
X4491554Y-26999788D01*
X4577268Y-26980740D02*
X4586792Y-26990264D01*
X4586792Y-26990264D02*
X4577268Y-26999788D01*
X4577268Y-26999788D02*
X4567744Y-26990264D01*
X4567744Y-26990264D02*
X4577268Y-26980740D01*
X4577268Y-26980740D02*
X4577268Y-26999788D01*
X4767744Y-26799788D02*
X4672506Y-26799788D01*
X4672506Y-26799788D02*
X4662982Y-26895026D01*
X4662982Y-26895026D02*
X4672506Y-26885502D01*
X4672506Y-26885502D02*
X4691554Y-26875978D01*
X4691554Y-26875978D02*
X4739173Y-26875978D01*
X4739173Y-26875978D02*
X4758220Y-26885502D01*
X4758220Y-26885502D02*
X4767744Y-26895026D01*
X4767744Y-26895026D02*
X4777268Y-26914074D01*
X4777268Y-26914074D02*
X4777268Y-26961693D01*
X4777268Y-26961693D02*
X4767744Y-26980740D01*
X4767744Y-26980740D02*
X4758220Y-26990264D01*
X4758220Y-26990264D02*
X4739173Y-26999788D01*
X4739173Y-26999788D02*
X4691554Y-26999788D01*
X4691554Y-26999788D02*
X4672506Y-26990264D01*
X4672506Y-26990264D02*
X4662982Y-26980740D01*
X4901077Y-26799788D02*
X4920125Y-26799788D01*
X4920125Y-26799788D02*
X4939173Y-26809312D01*
X4939173Y-26809312D02*
X4948697Y-26818836D01*
X4948697Y-26818836D02*
X4958220Y-26837883D01*
X4958220Y-26837883D02*
X4967744Y-26875978D01*
X4967744Y-26875978D02*
X4967744Y-26923597D01*
X4967744Y-26923597D02*
X4958220Y-26961693D01*
X4958220Y-26961693D02*
X4948697Y-26980740D01*
X4948697Y-26980740D02*
X4939173Y-26990264D01*
X4939173Y-26990264D02*
X4920125Y-26999788D01*
X4920125Y-26999788D02*
X4901077Y-26999788D01*
X4901077Y-26999788D02*
X4882030Y-26990264D01*
X4882030Y-26990264D02*
X4872506Y-26980740D01*
X4872506Y-26980740D02*
X4862982Y-26961693D01*
X4862982Y-26961693D02*
X4853458Y-26923597D01*
X4853458Y-26923597D02*
X4853458Y-26875978D01*
X4853458Y-26875978D02*
X4862982Y-26837883D01*
X4862982Y-26837883D02*
X4872506Y-26818836D01*
X4872506Y-26818836D02*
X4882030Y-26809312D01*
X4882030Y-26809312D02*
X4901077Y-26799788D01*
X5091554Y-26799788D02*
X5110601Y-26799788D01*
X5110601Y-26799788D02*
X5129649Y-26809312D01*
X5129649Y-26809312D02*
X5139173Y-26818836D01*
X5139173Y-26818836D02*
X5148697Y-26837883D01*
X5148697Y-26837883D02*
X5158220Y-26875978D01*
X5158220Y-26875978D02*
X5158220Y-26923597D01*
X5158220Y-26923597D02*
X5148697Y-26961693D01*
X5148697Y-26961693D02*
X5139173Y-26980740D01*
X5139173Y-26980740D02*
X5129649Y-26990264D01*
X5129649Y-26990264D02*
X5110601Y-26999788D01*
X5110601Y-26999788D02*
X5091554Y-26999788D01*
X5091554Y-26999788D02*
X5072506Y-26990264D01*
X5072506Y-26990264D02*
X5062982Y-26980740D01*
X5062982Y-26980740D02*
X5053458Y-26961693D01*
X5053458Y-26961693D02*
X5043935Y-26923597D01*
X5043935Y-26923597D02*
X5043935Y-26875978D01*
X5043935Y-26875978D02*
X5053458Y-26837883D01*
X5053458Y-26837883D02*
X5062982Y-26818836D01*
X5062982Y-26818836D02*
X5072506Y-26809312D01*
X5072506Y-26809312D02*
X5091554Y-26799788D01*
X5243935Y-26999788D02*
X5243935Y-26866455D01*
X5243935Y-26885502D02*
X5253458Y-26875978D01*
X5253458Y-26875978D02*
X5272506Y-26866455D01*
X5272506Y-26866455D02*
X5301078Y-26866455D01*
X5301078Y-26866455D02*
X5320125Y-26875978D01*
X5320125Y-26875978D02*
X5329649Y-26895026D01*
X5329649Y-26895026D02*
X5329649Y-26999788D01*
X5329649Y-26895026D02*
X5339173Y-26875978D01*
X5339173Y-26875978D02*
X5358220Y-26866455D01*
X5358220Y-26866455D02*
X5386792Y-26866455D01*
X5386792Y-26866455D02*
X5405839Y-26875978D01*
X5405839Y-26875978D02*
X5415363Y-26895026D01*
X5415363Y-26895026D02*
X5415363Y-26999788D01*
X5510601Y-26999788D02*
X5510601Y-26866455D01*
X5510601Y-26885502D02*
X5520125Y-26875978D01*
X5520125Y-26875978D02*
X5539173Y-26866455D01*
X5539173Y-26866455D02*
X5567744Y-26866455D01*
X5567744Y-26866455D02*
X5586792Y-26875978D01*
X5586792Y-26875978D02*
X5596316Y-26895026D01*
X5596316Y-26895026D02*
X5596316Y-26999788D01*
X5596316Y-26895026D02*
X5605839Y-26875978D01*
X5605839Y-26875978D02*
X5624887Y-26866455D01*
X5624887Y-26866455D02*
X5653458Y-26866455D01*
X5653458Y-26866455D02*
X5672506Y-26875978D01*
X5672506Y-26875978D02*
X5682030Y-26895026D01*
X5682030Y-26895026D02*
X5682030Y-26999788D01*
X6072506Y-26790264D02*
X5901078Y-27047407D01*
X6329649Y-26799788D02*
X6348697Y-26799788D01*
X6348697Y-26799788D02*
X6367744Y-26809312D01*
X6367744Y-26809312D02*
X6377268Y-26818836D01*
X6377268Y-26818836D02*
X6386792Y-26837883D01*
X6386792Y-26837883D02*
X6396316Y-26875978D01*
X6396316Y-26875978D02*
X6396316Y-26923597D01*
X6396316Y-26923597D02*
X6386792Y-26961693D01*
X6386792Y-26961693D02*
X6377268Y-26980740D01*
X6377268Y-26980740D02*
X6367744Y-26990264D01*
X6367744Y-26990264D02*
X6348697Y-26999788D01*
X6348697Y-26999788D02*
X6329649Y-26999788D01*
X6329649Y-26999788D02*
X6310601Y-26990264D01*
X6310601Y-26990264D02*
X6301078Y-26980740D01*
X6301078Y-26980740D02*
X6291554Y-26961693D01*
X6291554Y-26961693D02*
X6282030Y-26923597D01*
X6282030Y-26923597D02*
X6282030Y-26875978D01*
X6282030Y-26875978D02*
X6291554Y-26837883D01*
X6291554Y-26837883D02*
X6301078Y-26818836D01*
X6301078Y-26818836D02*
X6310601Y-26809312D01*
X6310601Y-26809312D02*
X6329649Y-26799788D01*
X6482030Y-26980740D02*
X6491554Y-26990264D01*
X6491554Y-26990264D02*
X6482030Y-26999788D01*
X6482030Y-26999788D02*
X6472506Y-26990264D01*
X6472506Y-26990264D02*
X6482030Y-26980740D01*
X6482030Y-26980740D02*
X6482030Y-26999788D01*
X6615363Y-26799788D02*
X6634411Y-26799788D01*
X6634411Y-26799788D02*
X6653459Y-26809312D01*
X6653459Y-26809312D02*
X6662982Y-26818836D01*
X6662982Y-26818836D02*
X6672506Y-26837883D01*
X6672506Y-26837883D02*
X6682030Y-26875978D01*
X6682030Y-26875978D02*
X6682030Y-26923597D01*
X6682030Y-26923597D02*
X6672506Y-26961693D01*
X6672506Y-26961693D02*
X6662982Y-26980740D01*
X6662982Y-26980740D02*
X6653459Y-26990264D01*
X6653459Y-26990264D02*
X6634411Y-26999788D01*
X6634411Y-26999788D02*
X6615363Y-26999788D01*
X6615363Y-26999788D02*
X6596316Y-26990264D01*
X6596316Y-26990264D02*
X6586792Y-26980740D01*
X6586792Y-26980740D02*
X6577268Y-26961693D01*
X6577268Y-26961693D02*
X6567744Y-26923597D01*
X6567744Y-26923597D02*
X6567744Y-26875978D01*
X6567744Y-26875978D02*
X6577268Y-26837883D01*
X6577268Y-26837883D02*
X6586792Y-26818836D01*
X6586792Y-26818836D02*
X6596316Y-26809312D01*
X6596316Y-26809312D02*
X6615363Y-26799788D01*
X6777268Y-26999788D02*
X6815363Y-26999788D01*
X6815363Y-26999788D02*
X6834411Y-26990264D01*
X6834411Y-26990264D02*
X6843935Y-26980740D01*
X6843935Y-26980740D02*
X6862982Y-26952169D01*
X6862982Y-26952169D02*
X6872506Y-26914074D01*
X6872506Y-26914074D02*
X6872506Y-26837883D01*
X6872506Y-26837883D02*
X6862982Y-26818836D01*
X6862982Y-26818836D02*
X6853459Y-26809312D01*
X6853459Y-26809312D02*
X6834411Y-26799788D01*
X6834411Y-26799788D02*
X6796316Y-26799788D01*
X6796316Y-26799788D02*
X6777268Y-26809312D01*
X6777268Y-26809312D02*
X6767744Y-26818836D01*
X6767744Y-26818836D02*
X6758220Y-26837883D01*
X6758220Y-26837883D02*
X6758220Y-26885502D01*
X6758220Y-26885502D02*
X6767744Y-26904550D01*
X6767744Y-26904550D02*
X6777268Y-26914074D01*
X6777268Y-26914074D02*
X6796316Y-26923597D01*
X6796316Y-26923597D02*
X6834411Y-26923597D01*
X6834411Y-26923597D02*
X6853459Y-26914074D01*
X6853459Y-26914074D02*
X6862982Y-26904550D01*
X6862982Y-26904550D02*
X6872506Y-26885502D01*
X6986792Y-26885502D02*
X6967744Y-26875978D01*
X6967744Y-26875978D02*
X6958220Y-26866455D01*
X6958220Y-26866455D02*
X6948697Y-26847407D01*
X6948697Y-26847407D02*
X6948697Y-26837883D01*
X6948697Y-26837883D02*
X6958220Y-26818836D01*
X6958220Y-26818836D02*
X6967744Y-26809312D01*
X6967744Y-26809312D02*
X6986792Y-26799788D01*
X6986792Y-26799788D02*
X7024887Y-26799788D01*
X7024887Y-26799788D02*
X7043935Y-26809312D01*
X7043935Y-26809312D02*
X7053459Y-26818836D01*
X7053459Y-26818836D02*
X7062982Y-26837883D01*
X7062982Y-26837883D02*
X7062982Y-26847407D01*
X7062982Y-26847407D02*
X7053459Y-26866455D01*
X7053459Y-26866455D02*
X7043935Y-26875978D01*
X7043935Y-26875978D02*
X7024887Y-26885502D01*
X7024887Y-26885502D02*
X6986792Y-26885502D01*
X6986792Y-26885502D02*
X6967744Y-26895026D01*
X6967744Y-26895026D02*
X6958220Y-26904550D01*
X6958220Y-26904550D02*
X6948697Y-26923597D01*
X6948697Y-26923597D02*
X6948697Y-26961693D01*
X6948697Y-26961693D02*
X6958220Y-26980740D01*
X6958220Y-26980740D02*
X6967744Y-26990264D01*
X6967744Y-26990264D02*
X6986792Y-26999788D01*
X6986792Y-26999788D02*
X7024887Y-26999788D01*
X7024887Y-26999788D02*
X7043935Y-26990264D01*
X7043935Y-26990264D02*
X7053459Y-26980740D01*
X7053459Y-26980740D02*
X7062982Y-26961693D01*
X7062982Y-26961693D02*
X7062982Y-26923597D01*
X7062982Y-26923597D02*
X7053459Y-26904550D01*
X7053459Y-26904550D02*
X7043935Y-26895026D01*
X7043935Y-26895026D02*
X7024887Y-26885502D01*
X7234411Y-26866455D02*
X7234411Y-26999788D01*
X7186792Y-26790264D02*
X7139173Y-26933121D01*
X7139173Y-26933121D02*
X7262982Y-26933121D01*
X7329649Y-26799788D02*
X7329649Y-26837883D01*
X7405840Y-26799788D02*
X7405840Y-26837883D01*
X7701078Y-27075978D02*
X7691554Y-27066455D01*
X7691554Y-27066455D02*
X7672506Y-27037883D01*
X7672506Y-27037883D02*
X7662982Y-27018836D01*
X7662982Y-27018836D02*
X7653459Y-26990264D01*
X7653459Y-26990264D02*
X7643935Y-26942645D01*
X7643935Y-26942645D02*
X7643935Y-26904550D01*
X7643935Y-26904550D02*
X7653459Y-26856931D01*
X7653459Y-26856931D02*
X7662982Y-26828359D01*
X7662982Y-26828359D02*
X7672506Y-26809312D01*
X7672506Y-26809312D02*
X7691554Y-26780740D01*
X7691554Y-26780740D02*
X7701078Y-26771216D01*
X7767744Y-26818836D02*
X7777268Y-26809312D01*
X7777268Y-26809312D02*
X7796316Y-26799788D01*
X7796316Y-26799788D02*
X7843935Y-26799788D01*
X7843935Y-26799788D02*
X7862982Y-26809312D01*
X7862982Y-26809312D02*
X7872506Y-26818836D01*
X7872506Y-26818836D02*
X7882030Y-26837883D01*
X7882030Y-26837883D02*
X7882030Y-26856931D01*
X7882030Y-26856931D02*
X7872506Y-26885502D01*
X7872506Y-26885502D02*
X7758221Y-26999788D01*
X7758221Y-26999788D02*
X7882030Y-26999788D01*
X8120125Y-26999788D02*
X8120125Y-26799788D01*
X8205840Y-26999788D02*
X8205840Y-26895026D01*
X8205840Y-26895026D02*
X8196316Y-26875978D01*
X8196316Y-26875978D02*
X8177268Y-26866455D01*
X8177268Y-26866455D02*
X8148697Y-26866455D01*
X8148697Y-26866455D02*
X8129649Y-26875978D01*
X8129649Y-26875978D02*
X8120125Y-26885502D01*
X8329649Y-26999788D02*
X8310602Y-26990264D01*
X8310602Y-26990264D02*
X8301078Y-26980740D01*
X8301078Y-26980740D02*
X8291554Y-26961693D01*
X8291554Y-26961693D02*
X8291554Y-26904550D01*
X8291554Y-26904550D02*
X8301078Y-26885502D01*
X8301078Y-26885502D02*
X8310602Y-26875978D01*
X8310602Y-26875978D02*
X8329649Y-26866455D01*
X8329649Y-26866455D02*
X8358221Y-26866455D01*
X8358221Y-26866455D02*
X8377268Y-26875978D01*
X8377268Y-26875978D02*
X8386792Y-26885502D01*
X8386792Y-26885502D02*
X8396316Y-26904550D01*
X8396316Y-26904550D02*
X8396316Y-26961693D01*
X8396316Y-26961693D02*
X8386792Y-26980740D01*
X8386792Y-26980740D02*
X8377268Y-26990264D01*
X8377268Y-26990264D02*
X8358221Y-26999788D01*
X8358221Y-26999788D02*
X8329649Y-26999788D01*
X8510602Y-26999788D02*
X8491554Y-26990264D01*
X8491554Y-26990264D02*
X8482030Y-26971216D01*
X8482030Y-26971216D02*
X8482030Y-26799788D01*
X8662983Y-26990264D02*
X8643935Y-26999788D01*
X8643935Y-26999788D02*
X8605840Y-26999788D01*
X8605840Y-26999788D02*
X8586792Y-26990264D01*
X8586792Y-26990264D02*
X8577268Y-26971216D01*
X8577268Y-26971216D02*
X8577268Y-26895026D01*
X8577268Y-26895026D02*
X8586792Y-26875978D01*
X8586792Y-26875978D02*
X8605840Y-26866455D01*
X8605840Y-26866455D02*
X8643935Y-26866455D01*
X8643935Y-26866455D02*
X8662983Y-26875978D01*
X8662983Y-26875978D02*
X8672506Y-26895026D01*
X8672506Y-26895026D02*
X8672506Y-26914074D01*
X8672506Y-26914074D02*
X8577268Y-26933121D01*
X8748697Y-26990264D02*
X8767745Y-26999788D01*
X8767745Y-26999788D02*
X8805840Y-26999788D01*
X8805840Y-26999788D02*
X8824887Y-26990264D01*
X8824887Y-26990264D02*
X8834411Y-26971216D01*
X8834411Y-26971216D02*
X8834411Y-26961693D01*
X8834411Y-26961693D02*
X8824887Y-26942645D01*
X8824887Y-26942645D02*
X8805840Y-26933121D01*
X8805840Y-26933121D02*
X8777268Y-26933121D01*
X8777268Y-26933121D02*
X8758221Y-26923597D01*
X8758221Y-26923597D02*
X8748697Y-26904550D01*
X8748697Y-26904550D02*
X8748697Y-26895026D01*
X8748697Y-26895026D02*
X8758221Y-26875978D01*
X8758221Y-26875978D02*
X8777268Y-26866455D01*
X8777268Y-26866455D02*
X8805840Y-26866455D01*
X8805840Y-26866455D02*
X8824887Y-26875978D01*
X8901078Y-27075978D02*
X8910602Y-27066455D01*
X8910602Y-27066455D02*
X8929649Y-27037883D01*
X8929649Y-27037883D02*
X8939173Y-27018836D01*
X8939173Y-27018836D02*
X8948697Y-26990264D01*
X8948697Y-26990264D02*
X8958221Y-26942645D01*
X8958221Y-26942645D02*
X8958221Y-26904550D01*
X8958221Y-26904550D02*
X8948697Y-26856931D01*
X8948697Y-26856931D02*
X8939173Y-26828359D01*
X8939173Y-26828359D02*
X8929649Y-26809312D01*
X8929649Y-26809312D02*
X8910602Y-26780740D01*
X8910602Y-26780740D02*
X8901078Y-26771216D01*
X9262983Y-27075978D02*
X9253459Y-27066455D01*
X9253459Y-27066455D02*
X9234411Y-27037883D01*
X9234411Y-27037883D02*
X9224887Y-27018836D01*
X9224887Y-27018836D02*
X9215364Y-26990264D01*
X9215364Y-26990264D02*
X9205840Y-26942645D01*
X9205840Y-26942645D02*
X9205840Y-26904550D01*
X9205840Y-26904550D02*
X9215364Y-26856931D01*
X9215364Y-26856931D02*
X9224887Y-26828359D01*
X9224887Y-26828359D02*
X9234411Y-26809312D01*
X9234411Y-26809312D02*
X9253459Y-26780740D01*
X9253459Y-26780740D02*
X9262983Y-26771216D01*
X9339173Y-26866455D02*
X9339173Y-26999788D01*
X9339173Y-26885502D02*
X9348697Y-26875978D01*
X9348697Y-26875978D02*
X9367745Y-26866455D01*
X9367745Y-26866455D02*
X9396316Y-26866455D01*
X9396316Y-26866455D02*
X9415364Y-26875978D01*
X9415364Y-26875978D02*
X9424887Y-26895026D01*
X9424887Y-26895026D02*
X9424887Y-26999788D01*
X9548697Y-26999788D02*
X9529649Y-26990264D01*
X9529649Y-26990264D02*
X9520126Y-26980740D01*
X9520126Y-26980740D02*
X9510602Y-26961693D01*
X9510602Y-26961693D02*
X9510602Y-26904550D01*
X9510602Y-26904550D02*
X9520126Y-26885502D01*
X9520126Y-26885502D02*
X9529649Y-26875978D01*
X9529649Y-26875978D02*
X9548697Y-26866455D01*
X9548697Y-26866455D02*
X9577268Y-26866455D01*
X9577268Y-26866455D02*
X9596316Y-26875978D01*
X9596316Y-26875978D02*
X9605840Y-26885502D01*
X9605840Y-26885502D02*
X9615364Y-26904550D01*
X9615364Y-26904550D02*
X9615364Y-26961693D01*
X9615364Y-26961693D02*
X9605840Y-26980740D01*
X9605840Y-26980740D02*
X9596316Y-26990264D01*
X9596316Y-26990264D02*
X9577268Y-26999788D01*
X9577268Y-26999788D02*
X9548697Y-26999788D01*
X9672507Y-26866455D02*
X9748697Y-26866455D01*
X9701078Y-26799788D02*
X9701078Y-26971216D01*
X9701078Y-26971216D02*
X9710602Y-26990264D01*
X9710602Y-26990264D02*
X9729649Y-26999788D01*
X9729649Y-26999788D02*
X9748697Y-26999788D01*
X9967745Y-26866455D02*
X9967745Y-27066455D01*
X9967745Y-26875978D02*
X9986792Y-26866455D01*
X9986792Y-26866455D02*
X10024888Y-26866455D01*
X10024888Y-26866455D02*
X10043935Y-26875978D01*
X10043935Y-26875978D02*
X10053459Y-26885502D01*
X10053459Y-26885502D02*
X10062983Y-26904550D01*
X10062983Y-26904550D02*
X10062983Y-26961693D01*
X10062983Y-26961693D02*
X10053459Y-26980740D01*
X10053459Y-26980740D02*
X10043935Y-26990264D01*
X10043935Y-26990264D02*
X10024888Y-26999788D01*
X10024888Y-26999788D02*
X9986792Y-26999788D01*
X9986792Y-26999788D02*
X9967745Y-26990264D01*
X10177268Y-26999788D02*
X10158221Y-26990264D01*
X10158221Y-26990264D02*
X10148697Y-26971216D01*
X10148697Y-26971216D02*
X10148697Y-26799788D01*
X10339173Y-26999788D02*
X10339173Y-26895026D01*
X10339173Y-26895026D02*
X10329649Y-26875978D01*
X10329649Y-26875978D02*
X10310602Y-26866455D01*
X10310602Y-26866455D02*
X10272507Y-26866455D01*
X10272507Y-26866455D02*
X10253459Y-26875978D01*
X10339173Y-26990264D02*
X10320126Y-26999788D01*
X10320126Y-26999788D02*
X10272507Y-26999788D01*
X10272507Y-26999788D02*
X10253459Y-26990264D01*
X10253459Y-26990264D02*
X10243935Y-26971216D01*
X10243935Y-26971216D02*
X10243935Y-26952169D01*
X10243935Y-26952169D02*
X10253459Y-26933121D01*
X10253459Y-26933121D02*
X10272507Y-26923597D01*
X10272507Y-26923597D02*
X10320126Y-26923597D01*
X10320126Y-26923597D02*
X10339173Y-26914074D01*
X10405840Y-26866455D02*
X10482030Y-26866455D01*
X10434411Y-26799788D02*
X10434411Y-26971216D01*
X10434411Y-26971216D02*
X10443935Y-26990264D01*
X10443935Y-26990264D02*
X10462983Y-26999788D01*
X10462983Y-26999788D02*
X10482030Y-26999788D01*
X10624888Y-26990264D02*
X10605840Y-26999788D01*
X10605840Y-26999788D02*
X10567745Y-26999788D01*
X10567745Y-26999788D02*
X10548697Y-26990264D01*
X10548697Y-26990264D02*
X10539173Y-26971216D01*
X10539173Y-26971216D02*
X10539173Y-26895026D01*
X10539173Y-26895026D02*
X10548697Y-26875978D01*
X10548697Y-26875978D02*
X10567745Y-26866455D01*
X10567745Y-26866455D02*
X10605840Y-26866455D01*
X10605840Y-26866455D02*
X10624888Y-26875978D01*
X10624888Y-26875978D02*
X10634411Y-26895026D01*
X10634411Y-26895026D02*
X10634411Y-26914074D01*
X10634411Y-26914074D02*
X10539173Y-26933121D01*
X10805840Y-26999788D02*
X10805840Y-26799788D01*
X10805840Y-26990264D02*
X10786792Y-26999788D01*
X10786792Y-26999788D02*
X10748697Y-26999788D01*
X10748697Y-26999788D02*
X10729649Y-26990264D01*
X10729649Y-26990264D02*
X10720126Y-26980740D01*
X10720126Y-26980740D02*
X10710602Y-26961693D01*
X10710602Y-26961693D02*
X10710602Y-26904550D01*
X10710602Y-26904550D02*
X10720126Y-26885502D01*
X10720126Y-26885502D02*
X10729649Y-26875978D01*
X10729649Y-26875978D02*
X10748697Y-26866455D01*
X10748697Y-26866455D02*
X10786792Y-26866455D01*
X10786792Y-26866455D02*
X10805840Y-26875978D01*
X10882030Y-27075978D02*
X10891554Y-27066455D01*
X10891554Y-27066455D02*
X10910602Y-27037883D01*
X10910602Y-27037883D02*
X10920126Y-27018836D01*
X10920126Y-27018836D02*
X10929649Y-26990264D01*
X10929649Y-26990264D02*
X10939173Y-26942645D01*
X10939173Y-26942645D02*
X10939173Y-26904550D01*
X10939173Y-26904550D02*
X10929649Y-26856931D01*
X10929649Y-26856931D02*
X10920126Y-26828359D01*
X10920126Y-26828359D02*
X10910602Y-26809312D01*
X10910602Y-26809312D02*
X10891554Y-26780740D01*
X10891554Y-26780740D02*
X10882030Y-26771216D01*
X4026015Y-27328304D02*
X4126015Y-27228304D01*
X4026015Y-27128304D01*
X3926015Y-27228304D01*
X4026015Y-27328304D01*
X4377268Y-27138836D02*
X4386792Y-27129312D01*
X4386792Y-27129312D02*
X4405839Y-27119788D01*
X4405839Y-27119788D02*
X4453458Y-27119788D01*
X4453458Y-27119788D02*
X4472506Y-27129312D01*
X4472506Y-27129312D02*
X4482030Y-27138836D01*
X4482030Y-27138836D02*
X4491554Y-27157883D01*
X4491554Y-27157883D02*
X4491554Y-27176931D01*
X4491554Y-27176931D02*
X4482030Y-27205502D01*
X4482030Y-27205502D02*
X4367744Y-27319788D01*
X4367744Y-27319788D02*
X4491554Y-27319788D01*
X4577268Y-27300740D02*
X4586792Y-27310264D01*
X4586792Y-27310264D02*
X4577268Y-27319788D01*
X4577268Y-27319788D02*
X4567744Y-27310264D01*
X4567744Y-27310264D02*
X4577268Y-27300740D01*
X4577268Y-27300740D02*
X4577268Y-27319788D01*
X4767744Y-27119788D02*
X4672506Y-27119788D01*
X4672506Y-27119788D02*
X4662982Y-27215026D01*
X4662982Y-27215026D02*
X4672506Y-27205502D01*
X4672506Y-27205502D02*
X4691554Y-27195978D01*
X4691554Y-27195978D02*
X4739173Y-27195978D01*
X4739173Y-27195978D02*
X4758220Y-27205502D01*
X4758220Y-27205502D02*
X4767744Y-27215026D01*
X4767744Y-27215026D02*
X4777268Y-27234074D01*
X4777268Y-27234074D02*
X4777268Y-27281693D01*
X4777268Y-27281693D02*
X4767744Y-27300740D01*
X4767744Y-27300740D02*
X4758220Y-27310264D01*
X4758220Y-27310264D02*
X4739173Y-27319788D01*
X4739173Y-27319788D02*
X4691554Y-27319788D01*
X4691554Y-27319788D02*
X4672506Y-27310264D01*
X4672506Y-27310264D02*
X4662982Y-27300740D01*
X4948697Y-27186455D02*
X4948697Y-27319788D01*
X4901077Y-27110264D02*
X4853458Y-27253121D01*
X4853458Y-27253121D02*
X4977268Y-27253121D01*
X5091554Y-27119788D02*
X5110601Y-27119788D01*
X5110601Y-27119788D02*
X5129649Y-27129312D01*
X5129649Y-27129312D02*
X5139173Y-27138836D01*
X5139173Y-27138836D02*
X5148697Y-27157883D01*
X5148697Y-27157883D02*
X5158220Y-27195978D01*
X5158220Y-27195978D02*
X5158220Y-27243597D01*
X5158220Y-27243597D02*
X5148697Y-27281693D01*
X5148697Y-27281693D02*
X5139173Y-27300740D01*
X5139173Y-27300740D02*
X5129649Y-27310264D01*
X5129649Y-27310264D02*
X5110601Y-27319788D01*
X5110601Y-27319788D02*
X5091554Y-27319788D01*
X5091554Y-27319788D02*
X5072506Y-27310264D01*
X5072506Y-27310264D02*
X5062982Y-27300740D01*
X5062982Y-27300740D02*
X5053458Y-27281693D01*
X5053458Y-27281693D02*
X5043935Y-27243597D01*
X5043935Y-27243597D02*
X5043935Y-27195978D01*
X5043935Y-27195978D02*
X5053458Y-27157883D01*
X5053458Y-27157883D02*
X5062982Y-27138836D01*
X5062982Y-27138836D02*
X5072506Y-27129312D01*
X5072506Y-27129312D02*
X5091554Y-27119788D01*
X5243935Y-27319788D02*
X5243935Y-27186455D01*
X5243935Y-27205502D02*
X5253458Y-27195978D01*
X5253458Y-27195978D02*
X5272506Y-27186455D01*
X5272506Y-27186455D02*
X5301078Y-27186455D01*
X5301078Y-27186455D02*
X5320125Y-27195978D01*
X5320125Y-27195978D02*
X5329649Y-27215026D01*
X5329649Y-27215026D02*
X5329649Y-27319788D01*
X5329649Y-27215026D02*
X5339173Y-27195978D01*
X5339173Y-27195978D02*
X5358220Y-27186455D01*
X5358220Y-27186455D02*
X5386792Y-27186455D01*
X5386792Y-27186455D02*
X5405839Y-27195978D01*
X5405839Y-27195978D02*
X5415363Y-27215026D01*
X5415363Y-27215026D02*
X5415363Y-27319788D01*
X5510601Y-27319788D02*
X5510601Y-27186455D01*
X5510601Y-27205502D02*
X5520125Y-27195978D01*
X5520125Y-27195978D02*
X5539173Y-27186455D01*
X5539173Y-27186455D02*
X5567744Y-27186455D01*
X5567744Y-27186455D02*
X5586792Y-27195978D01*
X5586792Y-27195978D02*
X5596316Y-27215026D01*
X5596316Y-27215026D02*
X5596316Y-27319788D01*
X5596316Y-27215026D02*
X5605839Y-27195978D01*
X5605839Y-27195978D02*
X5624887Y-27186455D01*
X5624887Y-27186455D02*
X5653458Y-27186455D01*
X5653458Y-27186455D02*
X5672506Y-27195978D01*
X5672506Y-27195978D02*
X5682030Y-27215026D01*
X5682030Y-27215026D02*
X5682030Y-27319788D01*
X6072506Y-27110264D02*
X5901078Y-27367407D01*
X6329649Y-27119788D02*
X6348697Y-27119788D01*
X6348697Y-27119788D02*
X6367744Y-27129312D01*
X6367744Y-27129312D02*
X6377268Y-27138836D01*
X6377268Y-27138836D02*
X6386792Y-27157883D01*
X6386792Y-27157883D02*
X6396316Y-27195978D01*
X6396316Y-27195978D02*
X6396316Y-27243597D01*
X6396316Y-27243597D02*
X6386792Y-27281693D01*
X6386792Y-27281693D02*
X6377268Y-27300740D01*
X6377268Y-27300740D02*
X6367744Y-27310264D01*
X6367744Y-27310264D02*
X6348697Y-27319788D01*
X6348697Y-27319788D02*
X6329649Y-27319788D01*
X6329649Y-27319788D02*
X6310601Y-27310264D01*
X6310601Y-27310264D02*
X6301078Y-27300740D01*
X6301078Y-27300740D02*
X6291554Y-27281693D01*
X6291554Y-27281693D02*
X6282030Y-27243597D01*
X6282030Y-27243597D02*
X6282030Y-27195978D01*
X6282030Y-27195978D02*
X6291554Y-27157883D01*
X6291554Y-27157883D02*
X6301078Y-27138836D01*
X6301078Y-27138836D02*
X6310601Y-27129312D01*
X6310601Y-27129312D02*
X6329649Y-27119788D01*
X6482030Y-27300740D02*
X6491554Y-27310264D01*
X6491554Y-27310264D02*
X6482030Y-27319788D01*
X6482030Y-27319788D02*
X6472506Y-27310264D01*
X6472506Y-27310264D02*
X6482030Y-27300740D01*
X6482030Y-27300740D02*
X6482030Y-27319788D01*
X6682030Y-27319788D02*
X6567744Y-27319788D01*
X6624887Y-27319788D02*
X6624887Y-27119788D01*
X6624887Y-27119788D02*
X6605839Y-27148359D01*
X6605839Y-27148359D02*
X6586792Y-27167407D01*
X6586792Y-27167407D02*
X6567744Y-27176931D01*
X6805839Y-27119788D02*
X6824887Y-27119788D01*
X6824887Y-27119788D02*
X6843935Y-27129312D01*
X6843935Y-27129312D02*
X6853459Y-27138836D01*
X6853459Y-27138836D02*
X6862982Y-27157883D01*
X6862982Y-27157883D02*
X6872506Y-27195978D01*
X6872506Y-27195978D02*
X6872506Y-27243597D01*
X6872506Y-27243597D02*
X6862982Y-27281693D01*
X6862982Y-27281693D02*
X6853459Y-27300740D01*
X6853459Y-27300740D02*
X6843935Y-27310264D01*
X6843935Y-27310264D02*
X6824887Y-27319788D01*
X6824887Y-27319788D02*
X6805839Y-27319788D01*
X6805839Y-27319788D02*
X6786792Y-27310264D01*
X6786792Y-27310264D02*
X6777268Y-27300740D01*
X6777268Y-27300740D02*
X6767744Y-27281693D01*
X6767744Y-27281693D02*
X6758220Y-27243597D01*
X6758220Y-27243597D02*
X6758220Y-27195978D01*
X6758220Y-27195978D02*
X6767744Y-27157883D01*
X6767744Y-27157883D02*
X6777268Y-27138836D01*
X6777268Y-27138836D02*
X6786792Y-27129312D01*
X6786792Y-27129312D02*
X6805839Y-27119788D01*
X6996316Y-27119788D02*
X7015363Y-27119788D01*
X7015363Y-27119788D02*
X7034411Y-27129312D01*
X7034411Y-27129312D02*
X7043935Y-27138836D01*
X7043935Y-27138836D02*
X7053459Y-27157883D01*
X7053459Y-27157883D02*
X7062982Y-27195978D01*
X7062982Y-27195978D02*
X7062982Y-27243597D01*
X7062982Y-27243597D02*
X7053459Y-27281693D01*
X7053459Y-27281693D02*
X7043935Y-27300740D01*
X7043935Y-27300740D02*
X7034411Y-27310264D01*
X7034411Y-27310264D02*
X7015363Y-27319788D01*
X7015363Y-27319788D02*
X6996316Y-27319788D01*
X6996316Y-27319788D02*
X6977268Y-27310264D01*
X6977268Y-27310264D02*
X6967744Y-27300740D01*
X6967744Y-27300740D02*
X6958220Y-27281693D01*
X6958220Y-27281693D02*
X6948697Y-27243597D01*
X6948697Y-27243597D02*
X6948697Y-27195978D01*
X6948697Y-27195978D02*
X6958220Y-27157883D01*
X6958220Y-27157883D02*
X6967744Y-27138836D01*
X6967744Y-27138836D02*
X6977268Y-27129312D01*
X6977268Y-27129312D02*
X6996316Y-27119788D01*
X7186792Y-27119788D02*
X7205840Y-27119788D01*
X7205840Y-27119788D02*
X7224887Y-27129312D01*
X7224887Y-27129312D02*
X7234411Y-27138836D01*
X7234411Y-27138836D02*
X7243935Y-27157883D01*
X7243935Y-27157883D02*
X7253459Y-27195978D01*
X7253459Y-27195978D02*
X7253459Y-27243597D01*
X7253459Y-27243597D02*
X7243935Y-27281693D01*
X7243935Y-27281693D02*
X7234411Y-27300740D01*
X7234411Y-27300740D02*
X7224887Y-27310264D01*
X7224887Y-27310264D02*
X7205840Y-27319788D01*
X7205840Y-27319788D02*
X7186792Y-27319788D01*
X7186792Y-27319788D02*
X7167744Y-27310264D01*
X7167744Y-27310264D02*
X7158220Y-27300740D01*
X7158220Y-27300740D02*
X7148697Y-27281693D01*
X7148697Y-27281693D02*
X7139173Y-27243597D01*
X7139173Y-27243597D02*
X7139173Y-27195978D01*
X7139173Y-27195978D02*
X7148697Y-27157883D01*
X7148697Y-27157883D02*
X7158220Y-27138836D01*
X7158220Y-27138836D02*
X7167744Y-27129312D01*
X7167744Y-27129312D02*
X7186792Y-27119788D01*
X7329649Y-27119788D02*
X7329649Y-27157883D01*
X7405840Y-27119788D02*
X7405840Y-27157883D01*
X7701078Y-27395978D02*
X7691554Y-27386455D01*
X7691554Y-27386455D02*
X7672506Y-27357883D01*
X7672506Y-27357883D02*
X7662982Y-27338836D01*
X7662982Y-27338836D02*
X7653459Y-27310264D01*
X7653459Y-27310264D02*
X7643935Y-27262645D01*
X7643935Y-27262645D02*
X7643935Y-27224550D01*
X7643935Y-27224550D02*
X7653459Y-27176931D01*
X7653459Y-27176931D02*
X7662982Y-27148359D01*
X7662982Y-27148359D02*
X7672506Y-27129312D01*
X7672506Y-27129312D02*
X7691554Y-27100740D01*
X7691554Y-27100740D02*
X7701078Y-27091216D01*
X7767744Y-27138836D02*
X7777268Y-27129312D01*
X7777268Y-27129312D02*
X7796316Y-27119788D01*
X7796316Y-27119788D02*
X7843935Y-27119788D01*
X7843935Y-27119788D02*
X7862982Y-27129312D01*
X7862982Y-27129312D02*
X7872506Y-27138836D01*
X7872506Y-27138836D02*
X7882030Y-27157883D01*
X7882030Y-27157883D02*
X7882030Y-27176931D01*
X7882030Y-27176931D02*
X7872506Y-27205502D01*
X7872506Y-27205502D02*
X7758221Y-27319788D01*
X7758221Y-27319788D02*
X7882030Y-27319788D01*
X8120125Y-27319788D02*
X8120125Y-27119788D01*
X8205840Y-27319788D02*
X8205840Y-27215026D01*
X8205840Y-27215026D02*
X8196316Y-27195978D01*
X8196316Y-27195978D02*
X8177268Y-27186455D01*
X8177268Y-27186455D02*
X8148697Y-27186455D01*
X8148697Y-27186455D02*
X8129649Y-27195978D01*
X8129649Y-27195978D02*
X8120125Y-27205502D01*
X8329649Y-27319788D02*
X8310602Y-27310264D01*
X8310602Y-27310264D02*
X8301078Y-27300740D01*
X8301078Y-27300740D02*
X8291554Y-27281693D01*
X8291554Y-27281693D02*
X8291554Y-27224550D01*
X8291554Y-27224550D02*
X8301078Y-27205502D01*
X8301078Y-27205502D02*
X8310602Y-27195978D01*
X8310602Y-27195978D02*
X8329649Y-27186455D01*
X8329649Y-27186455D02*
X8358221Y-27186455D01*
X8358221Y-27186455D02*
X8377268Y-27195978D01*
X8377268Y-27195978D02*
X8386792Y-27205502D01*
X8386792Y-27205502D02*
X8396316Y-27224550D01*
X8396316Y-27224550D02*
X8396316Y-27281693D01*
X8396316Y-27281693D02*
X8386792Y-27300740D01*
X8386792Y-27300740D02*
X8377268Y-27310264D01*
X8377268Y-27310264D02*
X8358221Y-27319788D01*
X8358221Y-27319788D02*
X8329649Y-27319788D01*
X8510602Y-27319788D02*
X8491554Y-27310264D01*
X8491554Y-27310264D02*
X8482030Y-27291216D01*
X8482030Y-27291216D02*
X8482030Y-27119788D01*
X8662983Y-27310264D02*
X8643935Y-27319788D01*
X8643935Y-27319788D02*
X8605840Y-27319788D01*
X8605840Y-27319788D02*
X8586792Y-27310264D01*
X8586792Y-27310264D02*
X8577268Y-27291216D01*
X8577268Y-27291216D02*
X8577268Y-27215026D01*
X8577268Y-27215026D02*
X8586792Y-27195978D01*
X8586792Y-27195978D02*
X8605840Y-27186455D01*
X8605840Y-27186455D02*
X8643935Y-27186455D01*
X8643935Y-27186455D02*
X8662983Y-27195978D01*
X8662983Y-27195978D02*
X8672506Y-27215026D01*
X8672506Y-27215026D02*
X8672506Y-27234074D01*
X8672506Y-27234074D02*
X8577268Y-27253121D01*
X8748697Y-27310264D02*
X8767745Y-27319788D01*
X8767745Y-27319788D02*
X8805840Y-27319788D01*
X8805840Y-27319788D02*
X8824887Y-27310264D01*
X8824887Y-27310264D02*
X8834411Y-27291216D01*
X8834411Y-27291216D02*
X8834411Y-27281693D01*
X8834411Y-27281693D02*
X8824887Y-27262645D01*
X8824887Y-27262645D02*
X8805840Y-27253121D01*
X8805840Y-27253121D02*
X8777268Y-27253121D01*
X8777268Y-27253121D02*
X8758221Y-27243597D01*
X8758221Y-27243597D02*
X8748697Y-27224550D01*
X8748697Y-27224550D02*
X8748697Y-27215026D01*
X8748697Y-27215026D02*
X8758221Y-27195978D01*
X8758221Y-27195978D02*
X8777268Y-27186455D01*
X8777268Y-27186455D02*
X8805840Y-27186455D01*
X8805840Y-27186455D02*
X8824887Y-27195978D01*
X8901078Y-27395978D02*
X8910602Y-27386455D01*
X8910602Y-27386455D02*
X8929649Y-27357883D01*
X8929649Y-27357883D02*
X8939173Y-27338836D01*
X8939173Y-27338836D02*
X8948697Y-27310264D01*
X8948697Y-27310264D02*
X8958221Y-27262645D01*
X8958221Y-27262645D02*
X8958221Y-27224550D01*
X8958221Y-27224550D02*
X8948697Y-27176931D01*
X8948697Y-27176931D02*
X8939173Y-27148359D01*
X8939173Y-27148359D02*
X8929649Y-27129312D01*
X8929649Y-27129312D02*
X8910602Y-27100740D01*
X8910602Y-27100740D02*
X8901078Y-27091216D01*
X9262983Y-27395978D02*
X9253459Y-27386455D01*
X9253459Y-27386455D02*
X9234411Y-27357883D01*
X9234411Y-27357883D02*
X9224887Y-27338836D01*
X9224887Y-27338836D02*
X9215364Y-27310264D01*
X9215364Y-27310264D02*
X9205840Y-27262645D01*
X9205840Y-27262645D02*
X9205840Y-27224550D01*
X9205840Y-27224550D02*
X9215364Y-27176931D01*
X9215364Y-27176931D02*
X9224887Y-27148359D01*
X9224887Y-27148359D02*
X9234411Y-27129312D01*
X9234411Y-27129312D02*
X9253459Y-27100740D01*
X9253459Y-27100740D02*
X9262983Y-27091216D01*
X9339173Y-27186455D02*
X9339173Y-27319788D01*
X9339173Y-27205502D02*
X9348697Y-27195978D01*
X9348697Y-27195978D02*
X9367745Y-27186455D01*
X9367745Y-27186455D02*
X9396316Y-27186455D01*
X9396316Y-27186455D02*
X9415364Y-27195978D01*
X9415364Y-27195978D02*
X9424887Y-27215026D01*
X9424887Y-27215026D02*
X9424887Y-27319788D01*
X9548697Y-27319788D02*
X9529649Y-27310264D01*
X9529649Y-27310264D02*
X9520126Y-27300740D01*
X9520126Y-27300740D02*
X9510602Y-27281693D01*
X9510602Y-27281693D02*
X9510602Y-27224550D01*
X9510602Y-27224550D02*
X9520126Y-27205502D01*
X9520126Y-27205502D02*
X9529649Y-27195978D01*
X9529649Y-27195978D02*
X9548697Y-27186455D01*
X9548697Y-27186455D02*
X9577268Y-27186455D01*
X9577268Y-27186455D02*
X9596316Y-27195978D01*
X9596316Y-27195978D02*
X9605840Y-27205502D01*
X9605840Y-27205502D02*
X9615364Y-27224550D01*
X9615364Y-27224550D02*
X9615364Y-27281693D01*
X9615364Y-27281693D02*
X9605840Y-27300740D01*
X9605840Y-27300740D02*
X9596316Y-27310264D01*
X9596316Y-27310264D02*
X9577268Y-27319788D01*
X9577268Y-27319788D02*
X9548697Y-27319788D01*
X9672507Y-27186455D02*
X9748697Y-27186455D01*
X9701078Y-27119788D02*
X9701078Y-27291216D01*
X9701078Y-27291216D02*
X9710602Y-27310264D01*
X9710602Y-27310264D02*
X9729649Y-27319788D01*
X9729649Y-27319788D02*
X9748697Y-27319788D01*
X9967745Y-27186455D02*
X9967745Y-27386455D01*
X9967745Y-27195978D02*
X9986792Y-27186455D01*
X9986792Y-27186455D02*
X10024888Y-27186455D01*
X10024888Y-27186455D02*
X10043935Y-27195978D01*
X10043935Y-27195978D02*
X10053459Y-27205502D01*
X10053459Y-27205502D02*
X10062983Y-27224550D01*
X10062983Y-27224550D02*
X10062983Y-27281693D01*
X10062983Y-27281693D02*
X10053459Y-27300740D01*
X10053459Y-27300740D02*
X10043935Y-27310264D01*
X10043935Y-27310264D02*
X10024888Y-27319788D01*
X10024888Y-27319788D02*
X9986792Y-27319788D01*
X9986792Y-27319788D02*
X9967745Y-27310264D01*
X10177268Y-27319788D02*
X10158221Y-27310264D01*
X10158221Y-27310264D02*
X10148697Y-27291216D01*
X10148697Y-27291216D02*
X10148697Y-27119788D01*
X10339173Y-27319788D02*
X10339173Y-27215026D01*
X10339173Y-27215026D02*
X10329649Y-27195978D01*
X10329649Y-27195978D02*
X10310602Y-27186455D01*
X10310602Y-27186455D02*
X10272507Y-27186455D01*
X10272507Y-27186455D02*
X10253459Y-27195978D01*
X10339173Y-27310264D02*
X10320126Y-27319788D01*
X10320126Y-27319788D02*
X10272507Y-27319788D01*
X10272507Y-27319788D02*
X10253459Y-27310264D01*
X10253459Y-27310264D02*
X10243935Y-27291216D01*
X10243935Y-27291216D02*
X10243935Y-27272169D01*
X10243935Y-27272169D02*
X10253459Y-27253121D01*
X10253459Y-27253121D02*
X10272507Y-27243597D01*
X10272507Y-27243597D02*
X10320126Y-27243597D01*
X10320126Y-27243597D02*
X10339173Y-27234074D01*
X10405840Y-27186455D02*
X10482030Y-27186455D01*
X10434411Y-27119788D02*
X10434411Y-27291216D01*
X10434411Y-27291216D02*
X10443935Y-27310264D01*
X10443935Y-27310264D02*
X10462983Y-27319788D01*
X10462983Y-27319788D02*
X10482030Y-27319788D01*
X10624888Y-27310264D02*
X10605840Y-27319788D01*
X10605840Y-27319788D02*
X10567745Y-27319788D01*
X10567745Y-27319788D02*
X10548697Y-27310264D01*
X10548697Y-27310264D02*
X10539173Y-27291216D01*
X10539173Y-27291216D02*
X10539173Y-27215026D01*
X10539173Y-27215026D02*
X10548697Y-27195978D01*
X10548697Y-27195978D02*
X10567745Y-27186455D01*
X10567745Y-27186455D02*
X10605840Y-27186455D01*
X10605840Y-27186455D02*
X10624888Y-27195978D01*
X10624888Y-27195978D02*
X10634411Y-27215026D01*
X10634411Y-27215026D02*
X10634411Y-27234074D01*
X10634411Y-27234074D02*
X10539173Y-27253121D01*
X10805840Y-27319788D02*
X10805840Y-27119788D01*
X10805840Y-27310264D02*
X10786792Y-27319788D01*
X10786792Y-27319788D02*
X10748697Y-27319788D01*
X10748697Y-27319788D02*
X10729649Y-27310264D01*
X10729649Y-27310264D02*
X10720126Y-27300740D01*
X10720126Y-27300740D02*
X10710602Y-27281693D01*
X10710602Y-27281693D02*
X10710602Y-27224550D01*
X10710602Y-27224550D02*
X10720126Y-27205502D01*
X10720126Y-27205502D02*
X10729649Y-27195978D01*
X10729649Y-27195978D02*
X10748697Y-27186455D01*
X10748697Y-27186455D02*
X10786792Y-27186455D01*
X10786792Y-27186455D02*
X10805840Y-27195978D01*
X10882030Y-27395978D02*
X10891554Y-27386455D01*
X10891554Y-27386455D02*
X10910602Y-27357883D01*
X10910602Y-27357883D02*
X10920126Y-27338836D01*
X10920126Y-27338836D02*
X10929649Y-27310264D01*
X10929649Y-27310264D02*
X10939173Y-27262645D01*
X10939173Y-27262645D02*
X10939173Y-27224550D01*
X10939173Y-27224550D02*
X10929649Y-27176931D01*
X10929649Y-27176931D02*
X10920126Y-27148359D01*
X10920126Y-27148359D02*
X10910602Y-27129312D01*
X10910602Y-27129312D02*
X10891554Y-27100740D01*
X10891554Y-27100740D02*
X10882030Y-27091216D01*
M02*
