M48
; DRILL file {KiCad 8.0.4} date 2024-10-16T17:02:37+1030
; FORMAT={-:-/ absolute / metric / decimal}
; #@! TF.CreationDate,2024-10-16T17:02:37+10:30
; #@! TF.GenerationSoftware,Kicad,Pcbnew,8.0.4
; #@! TF.FileFunction,NonPlated,1,4,NPTH
FMAT,2
METRIC
; #@! TA.AperFunction,NonPlated,NPTH,ComponentDrill
T1C0.970
; #@! TA.AperFunction,NonPlated,NPTH,ComponentDrill
T2C1.270
; #@! TA.AperFunction,NonPlated,NPTH,ComponentDrill
T3C2.410
; #@! TA.AperFunction,NonPlated,NPTH,ComponentDrill
T4C2.500
; #@! TA.AperFunction,NonPlated,NPTH,ComponentDrill
T5C2.540
%
G90
G05
T1
X55.415Y-168.888
X55.415Y-171.428
X57.955Y-168.888
X57.955Y-171.428
X60.495Y-168.888
X60.495Y-171.428
X63.035Y-168.888
X63.035Y-171.428
X65.575Y-168.888
X65.575Y-171.428
X68.115Y-168.888
X68.115Y-171.428
X70.655Y-168.888
X70.655Y-171.428
X73.195Y-168.888
X73.195Y-171.428
X78.415Y-168.888
X78.415Y-171.428
X80.955Y-168.888
X80.955Y-171.428
X83.495Y-168.888
X83.495Y-171.428
X86.035Y-168.888
X86.035Y-171.428
X88.575Y-168.888
X88.575Y-171.428
X91.115Y-168.888
X91.115Y-171.428
X93.655Y-168.888
X93.655Y-171.428
X96.195Y-168.888
X96.195Y-171.428
X101.415Y-168.888
X101.415Y-171.428
X103.955Y-168.888
X103.955Y-171.428
X106.495Y-168.888
X106.495Y-171.428
X109.035Y-168.888
X109.035Y-171.428
X111.575Y-168.888
X111.575Y-171.428
X114.115Y-168.888
X114.115Y-171.428
X116.655Y-168.888
X116.655Y-171.428
X119.195Y-168.888
X119.195Y-171.428
X124.415Y-168.888
X124.415Y-171.428
X126.955Y-168.888
X126.955Y-171.428
X129.495Y-168.888
X129.495Y-171.428
X132.035Y-168.888
X132.035Y-171.428
X134.575Y-168.888
X134.575Y-171.428
X137.115Y-168.888
X137.115Y-171.428
X139.655Y-168.888
X139.655Y-171.428
X142.195Y-168.888
X142.195Y-171.428
T2
X144.081Y-185.086
X144.081Y-194.086
T3
X118.312Y-150.368
X143.612Y-150.368
X151.435Y-160.612
X151.435Y-176.912
T4
X95.758Y-233.274
X95.758Y-251.054
T5
X141.478Y-233.274
X141.478Y-251.054
M30
