%TF.GenerationSoftware,KiCad,Pcbnew,8.0.2*%
%TF.CreationDate,2024-05-16T19:26:28+09:30*%
%TF.ProjectId,power_and_monotoring,706f7765-725f-4616-9e64-5f6d6f6e6f74,rev?*%
%TF.SameCoordinates,Original*%
%TF.FileFunction,Legend,Bot*%
%TF.FilePolarity,Positive*%
%FSLAX46Y46*%
G04 Gerber Fmt 4.6, Leading zero omitted, Abs format (unit mm)*
G04 Created by KiCad (PCBNEW 8.0.2) date 2024-05-16 19:26:28*
%MOMM*%
%LPD*%
G01*
G04 APERTURE LIST*
G04 Aperture macros list*
%AMRoundRect*
0 Rectangle with rounded corners*
0 $1 Rounding radius*
0 $2 $3 $4 $5 $6 $7 $8 $9 X,Y pos of 4 corners*
0 Add a 4 corners polygon primitive as box body*
4,1,4,$2,$3,$4,$5,$6,$7,$8,$9,$2,$3,0*
0 Add four circle primitives for the rounded corners*
1,1,$1+$1,$2,$3*
1,1,$1+$1,$4,$5*
1,1,$1+$1,$6,$7*
1,1,$1+$1,$8,$9*
0 Add four rect primitives between the rounded corners*
20,1,$1+$1,$2,$3,$4,$5,0*
20,1,$1+$1,$4,$5,$6,$7,0*
20,1,$1+$1,$6,$7,$8,$9,0*
20,1,$1+$1,$8,$9,$2,$3,0*%
G04 Aperture macros list end*
%ADD10C,0.150000*%
%ADD11C,0.100000*%
%ADD12C,0.120000*%
%ADD13C,2.780000*%
%ADD14C,2.410000*%
%ADD15C,0.970000*%
%ADD16C,1.240000*%
%ADD17C,3.200000*%
%ADD18C,2.540000*%
%ADD19R,1.600000X1.600000*%
%ADD20C,1.600000*%
%ADD21C,0.800000*%
%ADD22C,6.400000*%
%ADD23R,2.300000X2.300000*%
%ADD24C,2.300000*%
%ADD25C,1.270000*%
%ADD26RoundRect,0.250001X-0.759999X0.499999X-0.759999X-0.499999X0.759999X-0.499999X0.759999X0.499999X0*%
%ADD27O,2.020000X1.500000*%
%ADD28RoundRect,0.250000X-0.450000X0.325000X-0.450000X-0.325000X0.450000X-0.325000X0.450000X0.325000X0*%
%ADD29RoundRect,0.249550X-0.450450X0.325450X-0.450450X-0.325450X0.450450X-0.325450X0.450450X0.325450X0*%
%ADD30R,0.600000X1.550000*%
%ADD31R,0.600000X0.420000*%
%ADD32RoundRect,0.250000X-0.325000X-0.450000X0.325000X-0.450000X0.325000X0.450000X-0.325000X0.450000X0*%
%ADD33RoundRect,0.249550X0.450450X-0.325450X0.450450X0.325450X-0.450450X0.325450X-0.450450X-0.325450X0*%
%ADD34RoundRect,0.250000X0.450000X-0.325000X0.450000X0.325000X-0.450000X0.325000X-0.450000X-0.325000X0*%
%ADD35RoundRect,0.250000X-0.250000X-0.475000X0.250000X-0.475000X0.250000X0.475000X-0.250000X0.475000X0*%
%ADD36RoundRect,0.250000X0.325000X0.450000X-0.325000X0.450000X-0.325000X-0.450000X0.325000X-0.450000X0*%
G04 APERTURE END LIST*
D10*
X145667619Y-241686342D02*
X145191428Y-241353009D01*
X145667619Y-241114914D02*
X144667619Y-241114914D01*
X144667619Y-241114914D02*
X144667619Y-241495866D01*
X144667619Y-241495866D02*
X144715238Y-241591104D01*
X144715238Y-241591104D02*
X144762857Y-241638723D01*
X144762857Y-241638723D02*
X144858095Y-241686342D01*
X144858095Y-241686342D02*
X145000952Y-241686342D01*
X145000952Y-241686342D02*
X145096190Y-241638723D01*
X145096190Y-241638723D02*
X145143809Y-241591104D01*
X145143809Y-241591104D02*
X145191428Y-241495866D01*
X145191428Y-241495866D02*
X145191428Y-241114914D01*
X145000952Y-242543485D02*
X145667619Y-242543485D01*
X144620000Y-242305390D02*
X145334285Y-242067295D01*
X145334285Y-242067295D02*
X145334285Y-242686342D01*
X145096190Y-243210152D02*
X145048571Y-243114914D01*
X145048571Y-243114914D02*
X145000952Y-243067295D01*
X145000952Y-243067295D02*
X144905714Y-243019676D01*
X144905714Y-243019676D02*
X144858095Y-243019676D01*
X144858095Y-243019676D02*
X144762857Y-243067295D01*
X144762857Y-243067295D02*
X144715238Y-243114914D01*
X144715238Y-243114914D02*
X144667619Y-243210152D01*
X144667619Y-243210152D02*
X144667619Y-243400628D01*
X144667619Y-243400628D02*
X144715238Y-243495866D01*
X144715238Y-243495866D02*
X144762857Y-243543485D01*
X144762857Y-243543485D02*
X144858095Y-243591104D01*
X144858095Y-243591104D02*
X144905714Y-243591104D01*
X144905714Y-243591104D02*
X145000952Y-243543485D01*
X145000952Y-243543485D02*
X145048571Y-243495866D01*
X145048571Y-243495866D02*
X145096190Y-243400628D01*
X145096190Y-243400628D02*
X145096190Y-243210152D01*
X145096190Y-243210152D02*
X145143809Y-243114914D01*
X145143809Y-243114914D02*
X145191428Y-243067295D01*
X145191428Y-243067295D02*
X145286666Y-243019676D01*
X145286666Y-243019676D02*
X145477142Y-243019676D01*
X145477142Y-243019676D02*
X145572380Y-243067295D01*
X145572380Y-243067295D02*
X145620000Y-243114914D01*
X145620000Y-243114914D02*
X145667619Y-243210152D01*
X145667619Y-243210152D02*
X145667619Y-243400628D01*
X145667619Y-243400628D02*
X145620000Y-243495866D01*
X145620000Y-243495866D02*
X145572380Y-243543485D01*
X145572380Y-243543485D02*
X145477142Y-243591104D01*
X145477142Y-243591104D02*
X145286666Y-243591104D01*
X145286666Y-243591104D02*
X145191428Y-243543485D01*
X145191428Y-243543485D02*
X145143809Y-243495866D01*
X145143809Y-243495866D02*
X145096190Y-243400628D01*
X73385580Y-233716533D02*
X73433200Y-233668914D01*
X73433200Y-233668914D02*
X73480819Y-233526057D01*
X73480819Y-233526057D02*
X73480819Y-233430819D01*
X73480819Y-233430819D02*
X73433200Y-233287962D01*
X73433200Y-233287962D02*
X73337961Y-233192724D01*
X73337961Y-233192724D02*
X73242723Y-233145105D01*
X73242723Y-233145105D02*
X73052247Y-233097486D01*
X73052247Y-233097486D02*
X72909390Y-233097486D01*
X72909390Y-233097486D02*
X72718914Y-233145105D01*
X72718914Y-233145105D02*
X72623676Y-233192724D01*
X72623676Y-233192724D02*
X72528438Y-233287962D01*
X72528438Y-233287962D02*
X72480819Y-233430819D01*
X72480819Y-233430819D02*
X72480819Y-233526057D01*
X72480819Y-233526057D02*
X72528438Y-233668914D01*
X72528438Y-233668914D02*
X72576057Y-233716533D01*
X72814152Y-234573676D02*
X73480819Y-234573676D01*
X72433200Y-234335581D02*
X73147485Y-234097486D01*
X73147485Y-234097486D02*
X73147485Y-234716533D01*
X118120219Y-240112705D02*
X118929742Y-240112705D01*
X118929742Y-240112705D02*
X119024980Y-240160324D01*
X119024980Y-240160324D02*
X119072600Y-240207943D01*
X119072600Y-240207943D02*
X119120219Y-240303181D01*
X119120219Y-240303181D02*
X119120219Y-240493657D01*
X119120219Y-240493657D02*
X119072600Y-240588895D01*
X119072600Y-240588895D02*
X119024980Y-240636514D01*
X119024980Y-240636514D02*
X118929742Y-240684133D01*
X118929742Y-240684133D02*
X118120219Y-240684133D01*
X119120219Y-241684133D02*
X119120219Y-241112705D01*
X119120219Y-241398419D02*
X118120219Y-241398419D01*
X118120219Y-241398419D02*
X118263076Y-241303181D01*
X118263076Y-241303181D02*
X118358314Y-241207943D01*
X118358314Y-241207943D02*
X118405933Y-241112705D01*
X119120219Y-242636514D02*
X119120219Y-242065086D01*
X119120219Y-242350800D02*
X118120219Y-242350800D01*
X118120219Y-242350800D02*
X118263076Y-242255562D01*
X118263076Y-242255562D02*
X118358314Y-242160324D01*
X118358314Y-242160324D02*
X118405933Y-242065086D01*
D11*
X123704228Y-217839695D02*
X123704228Y-217039695D01*
X123704228Y-217039695D02*
X123513752Y-217039695D01*
X123513752Y-217039695D02*
X123399466Y-217077790D01*
X123399466Y-217077790D02*
X123323276Y-217153980D01*
X123323276Y-217153980D02*
X123285181Y-217230171D01*
X123285181Y-217230171D02*
X123247085Y-217382552D01*
X123247085Y-217382552D02*
X123247085Y-217496838D01*
X123247085Y-217496838D02*
X123285181Y-217649219D01*
X123285181Y-217649219D02*
X123323276Y-217725409D01*
X123323276Y-217725409D02*
X123399466Y-217801600D01*
X123399466Y-217801600D02*
X123513752Y-217839695D01*
X123513752Y-217839695D02*
X123704228Y-217839695D01*
X122980419Y-217039695D02*
X122485181Y-217039695D01*
X122485181Y-217039695D02*
X122751847Y-217344457D01*
X122751847Y-217344457D02*
X122637562Y-217344457D01*
X122637562Y-217344457D02*
X122561371Y-217382552D01*
X122561371Y-217382552D02*
X122523276Y-217420647D01*
X122523276Y-217420647D02*
X122485181Y-217496838D01*
X122485181Y-217496838D02*
X122485181Y-217687314D01*
X122485181Y-217687314D02*
X122523276Y-217763504D01*
X122523276Y-217763504D02*
X122561371Y-217801600D01*
X122561371Y-217801600D02*
X122637562Y-217839695D01*
X122637562Y-217839695D02*
X122866133Y-217839695D01*
X122866133Y-217839695D02*
X122942324Y-217801600D01*
X122942324Y-217801600D02*
X122980419Y-217763504D01*
X121989942Y-217039695D02*
X121913752Y-217039695D01*
X121913752Y-217039695D02*
X121837561Y-217077790D01*
X121837561Y-217077790D02*
X121799466Y-217115885D01*
X121799466Y-217115885D02*
X121761371Y-217192076D01*
X121761371Y-217192076D02*
X121723276Y-217344457D01*
X121723276Y-217344457D02*
X121723276Y-217534933D01*
X121723276Y-217534933D02*
X121761371Y-217687314D01*
X121761371Y-217687314D02*
X121799466Y-217763504D01*
X121799466Y-217763504D02*
X121837561Y-217801600D01*
X121837561Y-217801600D02*
X121913752Y-217839695D01*
X121913752Y-217839695D02*
X121989942Y-217839695D01*
X121989942Y-217839695D02*
X122066133Y-217801600D01*
X122066133Y-217801600D02*
X122104228Y-217763504D01*
X122104228Y-217763504D02*
X122142323Y-217687314D01*
X122142323Y-217687314D02*
X122180419Y-217534933D01*
X122180419Y-217534933D02*
X122180419Y-217344457D01*
X122180419Y-217344457D02*
X122142323Y-217192076D01*
X122142323Y-217192076D02*
X122104228Y-217115885D01*
X122104228Y-217115885D02*
X122066133Y-217077790D01*
X122066133Y-217077790D02*
X121989942Y-217039695D01*
D10*
X147283466Y-237766019D02*
X147616799Y-237289828D01*
X147854894Y-237766019D02*
X147854894Y-236766019D01*
X147854894Y-236766019D02*
X147473942Y-236766019D01*
X147473942Y-236766019D02*
X147378704Y-236813638D01*
X147378704Y-236813638D02*
X147331085Y-236861257D01*
X147331085Y-236861257D02*
X147283466Y-236956495D01*
X147283466Y-236956495D02*
X147283466Y-237099352D01*
X147283466Y-237099352D02*
X147331085Y-237194590D01*
X147331085Y-237194590D02*
X147378704Y-237242209D01*
X147378704Y-237242209D02*
X147473942Y-237289828D01*
X147473942Y-237289828D02*
X147854894Y-237289828D01*
X146712037Y-237194590D02*
X146807275Y-237146971D01*
X146807275Y-237146971D02*
X146854894Y-237099352D01*
X146854894Y-237099352D02*
X146902513Y-237004114D01*
X146902513Y-237004114D02*
X146902513Y-236956495D01*
X146902513Y-236956495D02*
X146854894Y-236861257D01*
X146854894Y-236861257D02*
X146807275Y-236813638D01*
X146807275Y-236813638D02*
X146712037Y-236766019D01*
X146712037Y-236766019D02*
X146521561Y-236766019D01*
X146521561Y-236766019D02*
X146426323Y-236813638D01*
X146426323Y-236813638D02*
X146378704Y-236861257D01*
X146378704Y-236861257D02*
X146331085Y-236956495D01*
X146331085Y-236956495D02*
X146331085Y-237004114D01*
X146331085Y-237004114D02*
X146378704Y-237099352D01*
X146378704Y-237099352D02*
X146426323Y-237146971D01*
X146426323Y-237146971D02*
X146521561Y-237194590D01*
X146521561Y-237194590D02*
X146712037Y-237194590D01*
X146712037Y-237194590D02*
X146807275Y-237242209D01*
X146807275Y-237242209D02*
X146854894Y-237289828D01*
X146854894Y-237289828D02*
X146902513Y-237385066D01*
X146902513Y-237385066D02*
X146902513Y-237575542D01*
X146902513Y-237575542D02*
X146854894Y-237670780D01*
X146854894Y-237670780D02*
X146807275Y-237718400D01*
X146807275Y-237718400D02*
X146712037Y-237766019D01*
X146712037Y-237766019D02*
X146521561Y-237766019D01*
X146521561Y-237766019D02*
X146426323Y-237718400D01*
X146426323Y-237718400D02*
X146378704Y-237670780D01*
X146378704Y-237670780D02*
X146331085Y-237575542D01*
X146331085Y-237575542D02*
X146331085Y-237385066D01*
X146331085Y-237385066D02*
X146378704Y-237289828D01*
X146378704Y-237289828D02*
X146426323Y-237242209D01*
X146426323Y-237242209D02*
X146521561Y-237194590D01*
X159536019Y-246629342D02*
X159059828Y-246296009D01*
X159536019Y-246057914D02*
X158536019Y-246057914D01*
X158536019Y-246057914D02*
X158536019Y-246438866D01*
X158536019Y-246438866D02*
X158583638Y-246534104D01*
X158583638Y-246534104D02*
X158631257Y-246581723D01*
X158631257Y-246581723D02*
X158726495Y-246629342D01*
X158726495Y-246629342D02*
X158869352Y-246629342D01*
X158869352Y-246629342D02*
X158964590Y-246581723D01*
X158964590Y-246581723D02*
X159012209Y-246534104D01*
X159012209Y-246534104D02*
X159059828Y-246438866D01*
X159059828Y-246438866D02*
X159059828Y-246057914D01*
X158869352Y-247486485D02*
X159536019Y-247486485D01*
X158488400Y-247248390D02*
X159202685Y-247010295D01*
X159202685Y-247010295D02*
X159202685Y-247629342D01*
X158536019Y-247915057D02*
X158536019Y-248581723D01*
X158536019Y-248581723D02*
X159536019Y-248153152D01*
D11*
X100065391Y-234968371D02*
X100065391Y-234368371D01*
X100065391Y-234368371D02*
X99922534Y-234368371D01*
X99922534Y-234368371D02*
X99836820Y-234396942D01*
X99836820Y-234396942D02*
X99779677Y-234454085D01*
X99779677Y-234454085D02*
X99751106Y-234511228D01*
X99751106Y-234511228D02*
X99722534Y-234625514D01*
X99722534Y-234625514D02*
X99722534Y-234711228D01*
X99722534Y-234711228D02*
X99751106Y-234825514D01*
X99751106Y-234825514D02*
X99779677Y-234882657D01*
X99779677Y-234882657D02*
X99836820Y-234939800D01*
X99836820Y-234939800D02*
X99922534Y-234968371D01*
X99922534Y-234968371D02*
X100065391Y-234968371D01*
X99493963Y-234425514D02*
X99465391Y-234396942D01*
X99465391Y-234396942D02*
X99408249Y-234368371D01*
X99408249Y-234368371D02*
X99265391Y-234368371D01*
X99265391Y-234368371D02*
X99208249Y-234396942D01*
X99208249Y-234396942D02*
X99179677Y-234425514D01*
X99179677Y-234425514D02*
X99151106Y-234482657D01*
X99151106Y-234482657D02*
X99151106Y-234539800D01*
X99151106Y-234539800D02*
X99179677Y-234625514D01*
X99179677Y-234625514D02*
X99522534Y-234968371D01*
X99522534Y-234968371D02*
X99151106Y-234968371D01*
X98808248Y-234625514D02*
X98865391Y-234596942D01*
X98865391Y-234596942D02*
X98893962Y-234568371D01*
X98893962Y-234568371D02*
X98922534Y-234511228D01*
X98922534Y-234511228D02*
X98922534Y-234482657D01*
X98922534Y-234482657D02*
X98893962Y-234425514D01*
X98893962Y-234425514D02*
X98865391Y-234396942D01*
X98865391Y-234396942D02*
X98808248Y-234368371D01*
X98808248Y-234368371D02*
X98693962Y-234368371D01*
X98693962Y-234368371D02*
X98636820Y-234396942D01*
X98636820Y-234396942D02*
X98608248Y-234425514D01*
X98608248Y-234425514D02*
X98579677Y-234482657D01*
X98579677Y-234482657D02*
X98579677Y-234511228D01*
X98579677Y-234511228D02*
X98608248Y-234568371D01*
X98608248Y-234568371D02*
X98636820Y-234596942D01*
X98636820Y-234596942D02*
X98693962Y-234625514D01*
X98693962Y-234625514D02*
X98808248Y-234625514D01*
X98808248Y-234625514D02*
X98865391Y-234654085D01*
X98865391Y-234654085D02*
X98893962Y-234682657D01*
X98893962Y-234682657D02*
X98922534Y-234739800D01*
X98922534Y-234739800D02*
X98922534Y-234854085D01*
X98922534Y-234854085D02*
X98893962Y-234911228D01*
X98893962Y-234911228D02*
X98865391Y-234939800D01*
X98865391Y-234939800D02*
X98808248Y-234968371D01*
X98808248Y-234968371D02*
X98693962Y-234968371D01*
X98693962Y-234968371D02*
X98636820Y-234939800D01*
X98636820Y-234939800D02*
X98608248Y-234911228D01*
X98608248Y-234911228D02*
X98579677Y-234854085D01*
X98579677Y-234854085D02*
X98579677Y-234739800D01*
X98579677Y-234739800D02*
X98608248Y-234682657D01*
X98608248Y-234682657D02*
X98636820Y-234654085D01*
X98636820Y-234654085D02*
X98693962Y-234625514D01*
X123711848Y-214270995D02*
X123711848Y-213470995D01*
X123711848Y-213470995D02*
X123521372Y-213470995D01*
X123521372Y-213470995D02*
X123407086Y-213509090D01*
X123407086Y-213509090D02*
X123330896Y-213585280D01*
X123330896Y-213585280D02*
X123292801Y-213661471D01*
X123292801Y-213661471D02*
X123254705Y-213813852D01*
X123254705Y-213813852D02*
X123254705Y-213928138D01*
X123254705Y-213928138D02*
X123292801Y-214080519D01*
X123292801Y-214080519D02*
X123330896Y-214156709D01*
X123330896Y-214156709D02*
X123407086Y-214232900D01*
X123407086Y-214232900D02*
X123521372Y-214270995D01*
X123521372Y-214270995D02*
X123711848Y-214270995D01*
X122988039Y-213470995D02*
X122492801Y-213470995D01*
X122492801Y-213470995D02*
X122759467Y-213775757D01*
X122759467Y-213775757D02*
X122645182Y-213775757D01*
X122645182Y-213775757D02*
X122568991Y-213813852D01*
X122568991Y-213813852D02*
X122530896Y-213851947D01*
X122530896Y-213851947D02*
X122492801Y-213928138D01*
X122492801Y-213928138D02*
X122492801Y-214118614D01*
X122492801Y-214118614D02*
X122530896Y-214194804D01*
X122530896Y-214194804D02*
X122568991Y-214232900D01*
X122568991Y-214232900D02*
X122645182Y-214270995D01*
X122645182Y-214270995D02*
X122873753Y-214270995D01*
X122873753Y-214270995D02*
X122949944Y-214232900D01*
X122949944Y-214232900D02*
X122988039Y-214194804D01*
X121730896Y-214270995D02*
X122188039Y-214270995D01*
X121959467Y-214270995D02*
X121959467Y-213470995D01*
X121959467Y-213470995D02*
X122035658Y-213585280D01*
X122035658Y-213585280D02*
X122111848Y-213661471D01*
X122111848Y-213661471D02*
X122188039Y-213699566D01*
D10*
X133715819Y-240011105D02*
X134525342Y-240011105D01*
X134525342Y-240011105D02*
X134620580Y-240058724D01*
X134620580Y-240058724D02*
X134668200Y-240106343D01*
X134668200Y-240106343D02*
X134715819Y-240201581D01*
X134715819Y-240201581D02*
X134715819Y-240392057D01*
X134715819Y-240392057D02*
X134668200Y-240487295D01*
X134668200Y-240487295D02*
X134620580Y-240534914D01*
X134620580Y-240534914D02*
X134525342Y-240582533D01*
X134525342Y-240582533D02*
X133715819Y-240582533D01*
X134715819Y-241582533D02*
X134715819Y-241011105D01*
X134715819Y-241296819D02*
X133715819Y-241296819D01*
X133715819Y-241296819D02*
X133858676Y-241201581D01*
X133858676Y-241201581D02*
X133953914Y-241106343D01*
X133953914Y-241106343D02*
X134001533Y-241011105D01*
X133811057Y-241963486D02*
X133763438Y-242011105D01*
X133763438Y-242011105D02*
X133715819Y-242106343D01*
X133715819Y-242106343D02*
X133715819Y-242344438D01*
X133715819Y-242344438D02*
X133763438Y-242439676D01*
X133763438Y-242439676D02*
X133811057Y-242487295D01*
X133811057Y-242487295D02*
X133906295Y-242534914D01*
X133906295Y-242534914D02*
X134001533Y-242534914D01*
X134001533Y-242534914D02*
X134144390Y-242487295D01*
X134144390Y-242487295D02*
X134715819Y-241915867D01*
X134715819Y-241915867D02*
X134715819Y-242534914D01*
X136324780Y-236847142D02*
X136372400Y-236799523D01*
X136372400Y-236799523D02*
X136420019Y-236656666D01*
X136420019Y-236656666D02*
X136420019Y-236561428D01*
X136420019Y-236561428D02*
X136372400Y-236418571D01*
X136372400Y-236418571D02*
X136277161Y-236323333D01*
X136277161Y-236323333D02*
X136181923Y-236275714D01*
X136181923Y-236275714D02*
X135991447Y-236228095D01*
X135991447Y-236228095D02*
X135848590Y-236228095D01*
X135848590Y-236228095D02*
X135658114Y-236275714D01*
X135658114Y-236275714D02*
X135562876Y-236323333D01*
X135562876Y-236323333D02*
X135467638Y-236418571D01*
X135467638Y-236418571D02*
X135420019Y-236561428D01*
X135420019Y-236561428D02*
X135420019Y-236656666D01*
X135420019Y-236656666D02*
X135467638Y-236799523D01*
X135467638Y-236799523D02*
X135515257Y-236847142D01*
X136420019Y-237799523D02*
X136420019Y-237228095D01*
X136420019Y-237513809D02*
X135420019Y-237513809D01*
X135420019Y-237513809D02*
X135562876Y-237418571D01*
X135562876Y-237418571D02*
X135658114Y-237323333D01*
X135658114Y-237323333D02*
X135705733Y-237228095D01*
X136420019Y-238275714D02*
X136420019Y-238466190D01*
X136420019Y-238466190D02*
X136372400Y-238561428D01*
X136372400Y-238561428D02*
X136324780Y-238609047D01*
X136324780Y-238609047D02*
X136181923Y-238704285D01*
X136181923Y-238704285D02*
X135991447Y-238751904D01*
X135991447Y-238751904D02*
X135610495Y-238751904D01*
X135610495Y-238751904D02*
X135515257Y-238704285D01*
X135515257Y-238704285D02*
X135467638Y-238656666D01*
X135467638Y-238656666D02*
X135420019Y-238561428D01*
X135420019Y-238561428D02*
X135420019Y-238370952D01*
X135420019Y-238370952D02*
X135467638Y-238275714D01*
X135467638Y-238275714D02*
X135515257Y-238228095D01*
X135515257Y-238228095D02*
X135610495Y-238180476D01*
X135610495Y-238180476D02*
X135848590Y-238180476D01*
X135848590Y-238180476D02*
X135943828Y-238228095D01*
X135943828Y-238228095D02*
X135991447Y-238275714D01*
X135991447Y-238275714D02*
X136039066Y-238370952D01*
X136039066Y-238370952D02*
X136039066Y-238561428D01*
X136039066Y-238561428D02*
X135991447Y-238656666D01*
X135991447Y-238656666D02*
X135943828Y-238704285D01*
X135943828Y-238704285D02*
X135848590Y-238751904D01*
X145667619Y-245686342D02*
X145191428Y-245353009D01*
X145667619Y-245114914D02*
X144667619Y-245114914D01*
X144667619Y-245114914D02*
X144667619Y-245495866D01*
X144667619Y-245495866D02*
X144715238Y-245591104D01*
X144715238Y-245591104D02*
X144762857Y-245638723D01*
X144762857Y-245638723D02*
X144858095Y-245686342D01*
X144858095Y-245686342D02*
X145000952Y-245686342D01*
X145000952Y-245686342D02*
X145096190Y-245638723D01*
X145096190Y-245638723D02*
X145143809Y-245591104D01*
X145143809Y-245591104D02*
X145191428Y-245495866D01*
X145191428Y-245495866D02*
X145191428Y-245114914D01*
X145000952Y-246543485D02*
X145667619Y-246543485D01*
X144620000Y-246305390D02*
X145334285Y-246067295D01*
X145334285Y-246067295D02*
X145334285Y-246686342D01*
X145667619Y-247114914D02*
X145667619Y-247305390D01*
X145667619Y-247305390D02*
X145620000Y-247400628D01*
X145620000Y-247400628D02*
X145572380Y-247448247D01*
X145572380Y-247448247D02*
X145429523Y-247543485D01*
X145429523Y-247543485D02*
X145239047Y-247591104D01*
X145239047Y-247591104D02*
X144858095Y-247591104D01*
X144858095Y-247591104D02*
X144762857Y-247543485D01*
X144762857Y-247543485D02*
X144715238Y-247495866D01*
X144715238Y-247495866D02*
X144667619Y-247400628D01*
X144667619Y-247400628D02*
X144667619Y-247210152D01*
X144667619Y-247210152D02*
X144715238Y-247114914D01*
X144715238Y-247114914D02*
X144762857Y-247067295D01*
X144762857Y-247067295D02*
X144858095Y-247019676D01*
X144858095Y-247019676D02*
X145096190Y-247019676D01*
X145096190Y-247019676D02*
X145191428Y-247067295D01*
X145191428Y-247067295D02*
X145239047Y-247114914D01*
X145239047Y-247114914D02*
X145286666Y-247210152D01*
X145286666Y-247210152D02*
X145286666Y-247400628D01*
X145286666Y-247400628D02*
X145239047Y-247495866D01*
X145239047Y-247495866D02*
X145191428Y-247543485D01*
X145191428Y-247543485D02*
X145096190Y-247591104D01*
X101684057Y-225200380D02*
X101731676Y-225248000D01*
X101731676Y-225248000D02*
X101874533Y-225295619D01*
X101874533Y-225295619D02*
X101969771Y-225295619D01*
X101969771Y-225295619D02*
X102112628Y-225248000D01*
X102112628Y-225248000D02*
X102207866Y-225152761D01*
X102207866Y-225152761D02*
X102255485Y-225057523D01*
X102255485Y-225057523D02*
X102303104Y-224867047D01*
X102303104Y-224867047D02*
X102303104Y-224724190D01*
X102303104Y-224724190D02*
X102255485Y-224533714D01*
X102255485Y-224533714D02*
X102207866Y-224438476D01*
X102207866Y-224438476D02*
X102112628Y-224343238D01*
X102112628Y-224343238D02*
X101969771Y-224295619D01*
X101969771Y-224295619D02*
X101874533Y-224295619D01*
X101874533Y-224295619D02*
X101731676Y-224343238D01*
X101731676Y-224343238D02*
X101684057Y-224390857D01*
X100731676Y-225295619D02*
X101303104Y-225295619D01*
X101017390Y-225295619D02*
X101017390Y-224295619D01*
X101017390Y-224295619D02*
X101112628Y-224438476D01*
X101112628Y-224438476D02*
X101207866Y-224533714D01*
X101207866Y-224533714D02*
X101303104Y-224581333D01*
X99874533Y-224628952D02*
X99874533Y-225295619D01*
X100112628Y-224248000D02*
X100350723Y-224962285D01*
X100350723Y-224962285D02*
X99731676Y-224962285D01*
X107896857Y-225153180D02*
X107944476Y-225200800D01*
X107944476Y-225200800D02*
X108087333Y-225248419D01*
X108087333Y-225248419D02*
X108182571Y-225248419D01*
X108182571Y-225248419D02*
X108325428Y-225200800D01*
X108325428Y-225200800D02*
X108420666Y-225105561D01*
X108420666Y-225105561D02*
X108468285Y-225010323D01*
X108468285Y-225010323D02*
X108515904Y-224819847D01*
X108515904Y-224819847D02*
X108515904Y-224676990D01*
X108515904Y-224676990D02*
X108468285Y-224486514D01*
X108468285Y-224486514D02*
X108420666Y-224391276D01*
X108420666Y-224391276D02*
X108325428Y-224296038D01*
X108325428Y-224296038D02*
X108182571Y-224248419D01*
X108182571Y-224248419D02*
X108087333Y-224248419D01*
X108087333Y-224248419D02*
X107944476Y-224296038D01*
X107944476Y-224296038D02*
X107896857Y-224343657D01*
X106944476Y-225248419D02*
X107515904Y-225248419D01*
X107230190Y-225248419D02*
X107230190Y-224248419D01*
X107230190Y-224248419D02*
X107325428Y-224391276D01*
X107325428Y-224391276D02*
X107420666Y-224486514D01*
X107420666Y-224486514D02*
X107515904Y-224534133D01*
X106039714Y-224248419D02*
X106515904Y-224248419D01*
X106515904Y-224248419D02*
X106563523Y-224724609D01*
X106563523Y-224724609D02*
X106515904Y-224676990D01*
X106515904Y-224676990D02*
X106420666Y-224629371D01*
X106420666Y-224629371D02*
X106182571Y-224629371D01*
X106182571Y-224629371D02*
X106087333Y-224676990D01*
X106087333Y-224676990D02*
X106039714Y-224724609D01*
X106039714Y-224724609D02*
X105992095Y-224819847D01*
X105992095Y-224819847D02*
X105992095Y-225057942D01*
X105992095Y-225057942D02*
X106039714Y-225153180D01*
X106039714Y-225153180D02*
X106087333Y-225200800D01*
X106087333Y-225200800D02*
X106182571Y-225248419D01*
X106182571Y-225248419D02*
X106420666Y-225248419D01*
X106420666Y-225248419D02*
X106515904Y-225200800D01*
X106515904Y-225200800D02*
X106563523Y-225153180D01*
X147579266Y-234260819D02*
X147912599Y-233784628D01*
X148150694Y-234260819D02*
X148150694Y-233260819D01*
X148150694Y-233260819D02*
X147769742Y-233260819D01*
X147769742Y-233260819D02*
X147674504Y-233308438D01*
X147674504Y-233308438D02*
X147626885Y-233356057D01*
X147626885Y-233356057D02*
X147579266Y-233451295D01*
X147579266Y-233451295D02*
X147579266Y-233594152D01*
X147579266Y-233594152D02*
X147626885Y-233689390D01*
X147626885Y-233689390D02*
X147674504Y-233737009D01*
X147674504Y-233737009D02*
X147769742Y-233784628D01*
X147769742Y-233784628D02*
X148150694Y-233784628D01*
X146626885Y-234260819D02*
X147198313Y-234260819D01*
X146912599Y-234260819D02*
X146912599Y-233260819D01*
X146912599Y-233260819D02*
X147007837Y-233403676D01*
X147007837Y-233403676D02*
X147103075Y-233498914D01*
X147103075Y-233498914D02*
X147198313Y-233546533D01*
X82681980Y-233767333D02*
X82729600Y-233719714D01*
X82729600Y-233719714D02*
X82777219Y-233576857D01*
X82777219Y-233576857D02*
X82777219Y-233481619D01*
X82777219Y-233481619D02*
X82729600Y-233338762D01*
X82729600Y-233338762D02*
X82634361Y-233243524D01*
X82634361Y-233243524D02*
X82539123Y-233195905D01*
X82539123Y-233195905D02*
X82348647Y-233148286D01*
X82348647Y-233148286D02*
X82205790Y-233148286D01*
X82205790Y-233148286D02*
X82015314Y-233195905D01*
X82015314Y-233195905D02*
X81920076Y-233243524D01*
X81920076Y-233243524D02*
X81824838Y-233338762D01*
X81824838Y-233338762D02*
X81777219Y-233481619D01*
X81777219Y-233481619D02*
X81777219Y-233576857D01*
X81777219Y-233576857D02*
X81824838Y-233719714D01*
X81824838Y-233719714D02*
X81872457Y-233767333D01*
X81777219Y-234672095D02*
X81777219Y-234195905D01*
X81777219Y-234195905D02*
X82253409Y-234148286D01*
X82253409Y-234148286D02*
X82205790Y-234195905D01*
X82205790Y-234195905D02*
X82158171Y-234291143D01*
X82158171Y-234291143D02*
X82158171Y-234529238D01*
X82158171Y-234529238D02*
X82205790Y-234624476D01*
X82205790Y-234624476D02*
X82253409Y-234672095D01*
X82253409Y-234672095D02*
X82348647Y-234719714D01*
X82348647Y-234719714D02*
X82586742Y-234719714D01*
X82586742Y-234719714D02*
X82681980Y-234672095D01*
X82681980Y-234672095D02*
X82729600Y-234624476D01*
X82729600Y-234624476D02*
X82777219Y-234529238D01*
X82777219Y-234529238D02*
X82777219Y-234291143D01*
X82777219Y-234291143D02*
X82729600Y-234195905D01*
X82729600Y-234195905D02*
X82681980Y-234148286D01*
X133434057Y-248968419D02*
X133767390Y-248492228D01*
X134005485Y-248968419D02*
X134005485Y-247968419D01*
X134005485Y-247968419D02*
X133624533Y-247968419D01*
X133624533Y-247968419D02*
X133529295Y-248016038D01*
X133529295Y-248016038D02*
X133481676Y-248063657D01*
X133481676Y-248063657D02*
X133434057Y-248158895D01*
X133434057Y-248158895D02*
X133434057Y-248301752D01*
X133434057Y-248301752D02*
X133481676Y-248396990D01*
X133481676Y-248396990D02*
X133529295Y-248444609D01*
X133529295Y-248444609D02*
X133624533Y-248492228D01*
X133624533Y-248492228D02*
X134005485Y-248492228D01*
X132576914Y-248301752D02*
X132576914Y-248968419D01*
X132815009Y-247920800D02*
X133053104Y-248635085D01*
X133053104Y-248635085D02*
X132434057Y-248635085D01*
X131862628Y-247968419D02*
X131767390Y-247968419D01*
X131767390Y-247968419D02*
X131672152Y-248016038D01*
X131672152Y-248016038D02*
X131624533Y-248063657D01*
X131624533Y-248063657D02*
X131576914Y-248158895D01*
X131576914Y-248158895D02*
X131529295Y-248349371D01*
X131529295Y-248349371D02*
X131529295Y-248587466D01*
X131529295Y-248587466D02*
X131576914Y-248777942D01*
X131576914Y-248777942D02*
X131624533Y-248873180D01*
X131624533Y-248873180D02*
X131672152Y-248920800D01*
X131672152Y-248920800D02*
X131767390Y-248968419D01*
X131767390Y-248968419D02*
X131862628Y-248968419D01*
X131862628Y-248968419D02*
X131957866Y-248920800D01*
X131957866Y-248920800D02*
X132005485Y-248873180D01*
X132005485Y-248873180D02*
X132053104Y-248777942D01*
X132053104Y-248777942D02*
X132100723Y-248587466D01*
X132100723Y-248587466D02*
X132100723Y-248349371D01*
X132100723Y-248349371D02*
X132053104Y-248158895D01*
X132053104Y-248158895D02*
X132005485Y-248063657D01*
X132005485Y-248063657D02*
X131957866Y-248016038D01*
X131957866Y-248016038D02*
X131862628Y-247968419D01*
X95975466Y-239316419D02*
X96308799Y-238840228D01*
X96546894Y-239316419D02*
X96546894Y-238316419D01*
X96546894Y-238316419D02*
X96165942Y-238316419D01*
X96165942Y-238316419D02*
X96070704Y-238364038D01*
X96070704Y-238364038D02*
X96023085Y-238411657D01*
X96023085Y-238411657D02*
X95975466Y-238506895D01*
X95975466Y-238506895D02*
X95975466Y-238649752D01*
X95975466Y-238649752D02*
X96023085Y-238744990D01*
X96023085Y-238744990D02*
X96070704Y-238792609D01*
X96070704Y-238792609D02*
X96165942Y-238840228D01*
X96165942Y-238840228D02*
X96546894Y-238840228D01*
X95118323Y-238649752D02*
X95118323Y-239316419D01*
X95356418Y-238268800D02*
X95594513Y-238983085D01*
X95594513Y-238983085D02*
X94975466Y-238983085D01*
X143930666Y-240763219D02*
X144263999Y-240287028D01*
X144502094Y-240763219D02*
X144502094Y-239763219D01*
X144502094Y-239763219D02*
X144121142Y-239763219D01*
X144121142Y-239763219D02*
X144025904Y-239810838D01*
X144025904Y-239810838D02*
X143978285Y-239858457D01*
X143978285Y-239858457D02*
X143930666Y-239953695D01*
X143930666Y-239953695D02*
X143930666Y-240096552D01*
X143930666Y-240096552D02*
X143978285Y-240191790D01*
X143978285Y-240191790D02*
X144025904Y-240239409D01*
X144025904Y-240239409D02*
X144121142Y-240287028D01*
X144121142Y-240287028D02*
X144502094Y-240287028D01*
X143549713Y-239858457D02*
X143502094Y-239810838D01*
X143502094Y-239810838D02*
X143406856Y-239763219D01*
X143406856Y-239763219D02*
X143168761Y-239763219D01*
X143168761Y-239763219D02*
X143073523Y-239810838D01*
X143073523Y-239810838D02*
X143025904Y-239858457D01*
X143025904Y-239858457D02*
X142978285Y-239953695D01*
X142978285Y-239953695D02*
X142978285Y-240048933D01*
X142978285Y-240048933D02*
X143025904Y-240191790D01*
X143025904Y-240191790D02*
X143597332Y-240763219D01*
X143597332Y-240763219D02*
X142978285Y-240763219D01*
D11*
X101972971Y-229227971D02*
X101972971Y-228627971D01*
X101972971Y-228627971D02*
X101830114Y-228627971D01*
X101830114Y-228627971D02*
X101744400Y-228656542D01*
X101744400Y-228656542D02*
X101687257Y-228713685D01*
X101687257Y-228713685D02*
X101658686Y-228770828D01*
X101658686Y-228770828D02*
X101630114Y-228885114D01*
X101630114Y-228885114D02*
X101630114Y-228970828D01*
X101630114Y-228970828D02*
X101658686Y-229085114D01*
X101658686Y-229085114D02*
X101687257Y-229142257D01*
X101687257Y-229142257D02*
X101744400Y-229199400D01*
X101744400Y-229199400D02*
X101830114Y-229227971D01*
X101830114Y-229227971D02*
X101972971Y-229227971D01*
X101401543Y-228685114D02*
X101372971Y-228656542D01*
X101372971Y-228656542D02*
X101315829Y-228627971D01*
X101315829Y-228627971D02*
X101172971Y-228627971D01*
X101172971Y-228627971D02*
X101115829Y-228656542D01*
X101115829Y-228656542D02*
X101087257Y-228685114D01*
X101087257Y-228685114D02*
X101058686Y-228742257D01*
X101058686Y-228742257D02*
X101058686Y-228799400D01*
X101058686Y-228799400D02*
X101087257Y-228885114D01*
X101087257Y-228885114D02*
X101430114Y-229227971D01*
X101430114Y-229227971D02*
X101058686Y-229227971D01*
X100772971Y-229227971D02*
X100658685Y-229227971D01*
X100658685Y-229227971D02*
X100601542Y-229199400D01*
X100601542Y-229199400D02*
X100572971Y-229170828D01*
X100572971Y-229170828D02*
X100515828Y-229085114D01*
X100515828Y-229085114D02*
X100487257Y-228970828D01*
X100487257Y-228970828D02*
X100487257Y-228742257D01*
X100487257Y-228742257D02*
X100515828Y-228685114D01*
X100515828Y-228685114D02*
X100544400Y-228656542D01*
X100544400Y-228656542D02*
X100601542Y-228627971D01*
X100601542Y-228627971D02*
X100715828Y-228627971D01*
X100715828Y-228627971D02*
X100772971Y-228656542D01*
X100772971Y-228656542D02*
X100801542Y-228685114D01*
X100801542Y-228685114D02*
X100830114Y-228742257D01*
X100830114Y-228742257D02*
X100830114Y-228885114D01*
X100830114Y-228885114D02*
X100801542Y-228942257D01*
X100801542Y-228942257D02*
X100772971Y-228970828D01*
X100772971Y-228970828D02*
X100715828Y-228999400D01*
X100715828Y-228999400D02*
X100601542Y-228999400D01*
X100601542Y-228999400D02*
X100544400Y-228970828D01*
X100544400Y-228970828D02*
X100515828Y-228942257D01*
X100515828Y-228942257D02*
X100487257Y-228885114D01*
D10*
X159536019Y-242629342D02*
X159059828Y-242296009D01*
X159536019Y-242057914D02*
X158536019Y-242057914D01*
X158536019Y-242057914D02*
X158536019Y-242438866D01*
X158536019Y-242438866D02*
X158583638Y-242534104D01*
X158583638Y-242534104D02*
X158631257Y-242581723D01*
X158631257Y-242581723D02*
X158726495Y-242629342D01*
X158726495Y-242629342D02*
X158869352Y-242629342D01*
X158869352Y-242629342D02*
X158964590Y-242581723D01*
X158964590Y-242581723D02*
X159012209Y-242534104D01*
X159012209Y-242534104D02*
X159059828Y-242438866D01*
X159059828Y-242438866D02*
X159059828Y-242057914D01*
X158869352Y-243486485D02*
X159536019Y-243486485D01*
X158488400Y-243248390D02*
X159202685Y-243010295D01*
X159202685Y-243010295D02*
X159202685Y-243629342D01*
X158536019Y-244438866D02*
X158536019Y-244248390D01*
X158536019Y-244248390D02*
X158583638Y-244153152D01*
X158583638Y-244153152D02*
X158631257Y-244105533D01*
X158631257Y-244105533D02*
X158774114Y-244010295D01*
X158774114Y-244010295D02*
X158964590Y-243962676D01*
X158964590Y-243962676D02*
X159345542Y-243962676D01*
X159345542Y-243962676D02*
X159440780Y-244010295D01*
X159440780Y-244010295D02*
X159488400Y-244057914D01*
X159488400Y-244057914D02*
X159536019Y-244153152D01*
X159536019Y-244153152D02*
X159536019Y-244343628D01*
X159536019Y-244343628D02*
X159488400Y-244438866D01*
X159488400Y-244438866D02*
X159440780Y-244486485D01*
X159440780Y-244486485D02*
X159345542Y-244534104D01*
X159345542Y-244534104D02*
X159107447Y-244534104D01*
X159107447Y-244534104D02*
X159012209Y-244486485D01*
X159012209Y-244486485D02*
X158964590Y-244438866D01*
X158964590Y-244438866D02*
X158916971Y-244343628D01*
X158916971Y-244343628D02*
X158916971Y-244153152D01*
X158916971Y-244153152D02*
X158964590Y-244057914D01*
X158964590Y-244057914D02*
X159012209Y-244010295D01*
X159012209Y-244010295D02*
X159107447Y-243962676D01*
X95823066Y-245463219D02*
X96156399Y-244987028D01*
X96394494Y-245463219D02*
X96394494Y-244463219D01*
X96394494Y-244463219D02*
X96013542Y-244463219D01*
X96013542Y-244463219D02*
X95918304Y-244510838D01*
X95918304Y-244510838D02*
X95870685Y-244558457D01*
X95870685Y-244558457D02*
X95823066Y-244653695D01*
X95823066Y-244653695D02*
X95823066Y-244796552D01*
X95823066Y-244796552D02*
X95870685Y-244891790D01*
X95870685Y-244891790D02*
X95918304Y-244939409D01*
X95918304Y-244939409D02*
X96013542Y-244987028D01*
X96013542Y-244987028D02*
X96394494Y-244987028D01*
X94965923Y-244463219D02*
X95156399Y-244463219D01*
X95156399Y-244463219D02*
X95251637Y-244510838D01*
X95251637Y-244510838D02*
X95299256Y-244558457D01*
X95299256Y-244558457D02*
X95394494Y-244701314D01*
X95394494Y-244701314D02*
X95442113Y-244891790D01*
X95442113Y-244891790D02*
X95442113Y-245272742D01*
X95442113Y-245272742D02*
X95394494Y-245367980D01*
X95394494Y-245367980D02*
X95346875Y-245415600D01*
X95346875Y-245415600D02*
X95251637Y-245463219D01*
X95251637Y-245463219D02*
X95061161Y-245463219D01*
X95061161Y-245463219D02*
X94965923Y-245415600D01*
X94965923Y-245415600D02*
X94918304Y-245367980D01*
X94918304Y-245367980D02*
X94870685Y-245272742D01*
X94870685Y-245272742D02*
X94870685Y-245034647D01*
X94870685Y-245034647D02*
X94918304Y-244939409D01*
X94918304Y-244939409D02*
X94965923Y-244891790D01*
X94965923Y-244891790D02*
X95061161Y-244844171D01*
X95061161Y-244844171D02*
X95251637Y-244844171D01*
X95251637Y-244844171D02*
X95346875Y-244891790D01*
X95346875Y-244891790D02*
X95394494Y-244939409D01*
X95394494Y-244939409D02*
X95442113Y-245034647D01*
X120881580Y-236906942D02*
X120929200Y-236859323D01*
X120929200Y-236859323D02*
X120976819Y-236716466D01*
X120976819Y-236716466D02*
X120976819Y-236621228D01*
X120976819Y-236621228D02*
X120929200Y-236478371D01*
X120929200Y-236478371D02*
X120833961Y-236383133D01*
X120833961Y-236383133D02*
X120738723Y-236335514D01*
X120738723Y-236335514D02*
X120548247Y-236287895D01*
X120548247Y-236287895D02*
X120405390Y-236287895D01*
X120405390Y-236287895D02*
X120214914Y-236335514D01*
X120214914Y-236335514D02*
X120119676Y-236383133D01*
X120119676Y-236383133D02*
X120024438Y-236478371D01*
X120024438Y-236478371D02*
X119976819Y-236621228D01*
X119976819Y-236621228D02*
X119976819Y-236716466D01*
X119976819Y-236716466D02*
X120024438Y-236859323D01*
X120024438Y-236859323D02*
X120072057Y-236906942D01*
X120976819Y-237859323D02*
X120976819Y-237287895D01*
X120976819Y-237573609D02*
X119976819Y-237573609D01*
X119976819Y-237573609D02*
X120119676Y-237478371D01*
X120119676Y-237478371D02*
X120214914Y-237383133D01*
X120214914Y-237383133D02*
X120262533Y-237287895D01*
X120405390Y-238430752D02*
X120357771Y-238335514D01*
X120357771Y-238335514D02*
X120310152Y-238287895D01*
X120310152Y-238287895D02*
X120214914Y-238240276D01*
X120214914Y-238240276D02*
X120167295Y-238240276D01*
X120167295Y-238240276D02*
X120072057Y-238287895D01*
X120072057Y-238287895D02*
X120024438Y-238335514D01*
X120024438Y-238335514D02*
X119976819Y-238430752D01*
X119976819Y-238430752D02*
X119976819Y-238621228D01*
X119976819Y-238621228D02*
X120024438Y-238716466D01*
X120024438Y-238716466D02*
X120072057Y-238764085D01*
X120072057Y-238764085D02*
X120167295Y-238811704D01*
X120167295Y-238811704D02*
X120214914Y-238811704D01*
X120214914Y-238811704D02*
X120310152Y-238764085D01*
X120310152Y-238764085D02*
X120357771Y-238716466D01*
X120357771Y-238716466D02*
X120405390Y-238621228D01*
X120405390Y-238621228D02*
X120405390Y-238430752D01*
X120405390Y-238430752D02*
X120453009Y-238335514D01*
X120453009Y-238335514D02*
X120500628Y-238287895D01*
X120500628Y-238287895D02*
X120595866Y-238240276D01*
X120595866Y-238240276D02*
X120786342Y-238240276D01*
X120786342Y-238240276D02*
X120881580Y-238287895D01*
X120881580Y-238287895D02*
X120929200Y-238335514D01*
X120929200Y-238335514D02*
X120976819Y-238430752D01*
X120976819Y-238430752D02*
X120976819Y-238621228D01*
X120976819Y-238621228D02*
X120929200Y-238716466D01*
X120929200Y-238716466D02*
X120881580Y-238764085D01*
X120881580Y-238764085D02*
X120786342Y-238811704D01*
X120786342Y-238811704D02*
X120595866Y-238811704D01*
X120595866Y-238811704D02*
X120500628Y-238764085D01*
X120500628Y-238764085D02*
X120453009Y-238716466D01*
X120453009Y-238716466D02*
X120405390Y-238621228D01*
D12*
%TO.C,R48*%
X146152800Y-242067948D02*
X146152800Y-242590452D01*
X147572800Y-242067948D02*
X147572800Y-242590452D01*
%TO.C,C4*%
X73966000Y-233621948D02*
X73966000Y-234144452D01*
X75386000Y-233621948D02*
X75386000Y-234144452D01*
%TO.C,U11*%
X107175400Y-239925800D02*
X107175400Y-242775800D01*
X107175400Y-242775800D02*
X116865400Y-242775800D01*
X116865400Y-242775800D02*
X117665400Y-241975800D01*
X117665400Y-239925800D02*
X107175400Y-239925800D01*
X117665400Y-241975800D02*
X117665400Y-239925800D01*
%TO.C,D30*%
X122233600Y-218049600D02*
X123333600Y-218049600D01*
X122233600Y-220049600D02*
X122233600Y-218049600D01*
X123333600Y-218049600D02*
X123333600Y-220049600D01*
X123333600Y-220049600D02*
X122233600Y-220049600D01*
X123483600Y-218119600D02*
X123983600Y-218119600D01*
%TO.C,R8*%
X147378052Y-234951200D02*
X146855548Y-234951200D01*
X147378052Y-236371200D02*
X146855548Y-236371200D01*
%TO.C,R47*%
X160021200Y-247010948D02*
X160021200Y-247533452D01*
X161441200Y-247010948D02*
X161441200Y-247533452D01*
%TO.C,D28*%
X98779200Y-235616000D02*
X99879200Y-235616000D01*
X98779200Y-237616000D02*
X98779200Y-235616000D01*
X99879200Y-235616000D02*
X99879200Y-237616000D01*
X99879200Y-237616000D02*
X98779200Y-237616000D01*
X100029200Y-235686000D02*
X100529200Y-235686000D01*
%TO.C,D31*%
X122182800Y-214849200D02*
X123282800Y-214849200D01*
X122182800Y-216849200D02*
X122182800Y-214849200D01*
X123282800Y-214849200D02*
X123282800Y-216849200D01*
X123282800Y-216849200D02*
X122182800Y-216849200D01*
X123432800Y-214919200D02*
X123932800Y-214919200D01*
%TO.C,U12*%
X122771000Y-239824200D02*
X122771000Y-242674200D01*
X122771000Y-242674200D02*
X132461000Y-242674200D01*
X132461000Y-242674200D02*
X133261000Y-241874200D01*
X133261000Y-239824200D02*
X122771000Y-239824200D01*
X133261000Y-241874200D02*
X133261000Y-239824200D01*
%TO.C,C19*%
X133605200Y-237751252D02*
X133605200Y-237228748D01*
X135025200Y-237751252D02*
X135025200Y-237228748D01*
%TO.C,R49*%
X146152800Y-246067948D02*
X146152800Y-246590452D01*
X147572800Y-246067948D02*
X147572800Y-246590452D01*
%TO.C,C14*%
X100830748Y-222480200D02*
X101353252Y-222480200D01*
X100830748Y-223950200D02*
X101353252Y-223950200D01*
%TO.C,C15*%
X106992748Y-222378600D02*
X107515252Y-222378600D01*
X106992748Y-223848600D02*
X107515252Y-223848600D01*
%TO.C,R1*%
X147673852Y-231446000D02*
X147151348Y-231446000D01*
X147673852Y-232866000D02*
X147151348Y-232866000D01*
%TO.C,C5*%
X83262400Y-233672748D02*
X83262400Y-234195252D01*
X84682400Y-233672748D02*
X84682400Y-234195252D01*
%TO.C,R40*%
X129227948Y-247702000D02*
X129750452Y-247702000D01*
X129227948Y-249122000D02*
X129750452Y-249122000D01*
%TO.C,R4*%
X95598348Y-239828000D02*
X96120852Y-239828000D01*
X95598348Y-241248000D02*
X96120852Y-241248000D01*
%TO.C,R2*%
X144025252Y-237948400D02*
X143502748Y-237948400D01*
X144025252Y-239368400D02*
X143502748Y-239368400D01*
%TO.C,D29*%
X100679200Y-225964000D02*
X101779200Y-225964000D01*
X100679200Y-227964000D02*
X100679200Y-225964000D01*
X101779200Y-225964000D02*
X101779200Y-227964000D01*
X101779200Y-227964000D02*
X100679200Y-227964000D01*
X101929200Y-226034000D02*
X102429200Y-226034000D01*
%TO.C,R46*%
X160021200Y-243010948D02*
X160021200Y-243533452D01*
X161441200Y-243010948D02*
X161441200Y-243533452D01*
%TO.C,R6*%
X96070052Y-242368000D02*
X95547548Y-242368000D01*
X96070052Y-243788000D02*
X95547548Y-243788000D01*
%TO.C,C18*%
X118162000Y-237811052D02*
X118162000Y-237288548D01*
X119582000Y-237811052D02*
X119582000Y-237288548D01*
%TD*%
%LPC*%
D13*
%TO.C,F13*%
X102530800Y-193291200D03*
X105930800Y-193291200D03*
X102530800Y-183371200D03*
X105930800Y-183371200D03*
%TD*%
D14*
%TO.C,J7*%
X118312400Y-150368000D03*
X143612400Y-150368000D03*
%TD*%
D15*
%TO.C,J5*%
X124415208Y-168887981D03*
X124415208Y-171427981D03*
X126955208Y-168887981D03*
X126955208Y-171427981D03*
X129495208Y-168887981D03*
X129495208Y-171427981D03*
X132035208Y-168887981D03*
X132035208Y-171427981D03*
X134575208Y-168887981D03*
X134575208Y-171427981D03*
X137115208Y-168887981D03*
X137115208Y-171427981D03*
X139655208Y-168887981D03*
X139655208Y-171427981D03*
X142195208Y-168887981D03*
X142195208Y-171427981D03*
%TD*%
%TO.C,J4*%
X101415208Y-168887981D03*
X101415208Y-171427981D03*
X103955208Y-168887981D03*
X103955208Y-171427981D03*
X106495208Y-168887981D03*
X106495208Y-171427981D03*
X109035208Y-168887981D03*
X109035208Y-171427981D03*
X111575208Y-168887981D03*
X111575208Y-171427981D03*
X114115208Y-168887981D03*
X114115208Y-171427981D03*
X116655208Y-168887981D03*
X116655208Y-171427981D03*
X119195208Y-168887981D03*
X119195208Y-171427981D03*
%TD*%
D13*
%TO.C,F16*%
X52530800Y-193291200D03*
X55930800Y-193291200D03*
X52530800Y-183371200D03*
X55930800Y-183371200D03*
%TD*%
%TO.C,F15*%
X101887600Y-212986000D03*
X105287600Y-212986000D03*
X101887600Y-203066000D03*
X105287600Y-203066000D03*
%TD*%
D16*
%TO.C,RL5*%
X83667600Y-148357690D03*
X83667600Y-145817690D03*
X83667600Y-143277690D03*
%TD*%
D13*
%TO.C,F10*%
X81887600Y-212986000D03*
X85287600Y-212986000D03*
X81887600Y-203066000D03*
X85287600Y-203066000D03*
%TD*%
D15*
%TO.C,J3*%
X78415208Y-168887981D03*
X78415208Y-171427981D03*
X80955208Y-168887981D03*
X80955208Y-171427981D03*
X83495208Y-168887981D03*
X83495208Y-171427981D03*
X86035208Y-168887981D03*
X86035208Y-171427981D03*
X88575208Y-168887981D03*
X88575208Y-171427981D03*
X91115208Y-168887981D03*
X91115208Y-171427981D03*
X93655208Y-168887981D03*
X93655208Y-171427981D03*
X96195208Y-168887981D03*
X96195208Y-171427981D03*
%TD*%
D17*
%TO.C,A1*%
X95758000Y-251053600D03*
D18*
X141478000Y-251053600D03*
D17*
X95758000Y-233273600D03*
D18*
X141478000Y-233273600D03*
D19*
X99568000Y-252323600D03*
D20*
X102108000Y-252323600D03*
X104648000Y-252323600D03*
X107188000Y-252323600D03*
X109728000Y-252323600D03*
X112268000Y-252323600D03*
X114808000Y-252323600D03*
X117348000Y-252323600D03*
X119888000Y-252323600D03*
X122428000Y-252323600D03*
X124968000Y-252323600D03*
X127508000Y-252323600D03*
X130048000Y-252323600D03*
X132588000Y-252323600D03*
X135128000Y-252323600D03*
X137668000Y-252323600D03*
X137668000Y-232003600D03*
X135128000Y-232003600D03*
X132588000Y-232003600D03*
X130048000Y-232003600D03*
X127508000Y-232003600D03*
X124968000Y-232003600D03*
X122428000Y-232003600D03*
X119888000Y-232003600D03*
X117348000Y-232003600D03*
X114808000Y-232003600D03*
X112268000Y-232003600D03*
X109728000Y-232003600D03*
%TD*%
D21*
%TO.C,H4*%
X51905208Y-248157981D03*
X52608152Y-246460925D03*
X52608152Y-249855037D03*
X54305208Y-245757981D03*
D22*
X54305208Y-248157981D03*
D21*
X54305208Y-250557981D03*
X56002264Y-246460925D03*
X56002264Y-249855037D03*
X56705208Y-248157981D03*
%TD*%
D13*
%TO.C,F11*%
X91887600Y-212986000D03*
X95287600Y-212986000D03*
X91887600Y-203066000D03*
X95287600Y-203066000D03*
%TD*%
D23*
%TO.C,K2*%
X52222400Y-221592000D03*
D24*
X62382400Y-221592000D03*
X70002400Y-221592000D03*
X52222400Y-213972000D03*
%TD*%
D16*
%TO.C,RL4*%
X78181200Y-148539200D03*
X78181200Y-145999200D03*
X78181200Y-143459200D03*
%TD*%
D15*
%TO.C,J2*%
X55415208Y-168887981D03*
X55415208Y-171427981D03*
X57955208Y-168887981D03*
X57955208Y-171427981D03*
X60495208Y-168887981D03*
X60495208Y-171427981D03*
X63035208Y-168887981D03*
X63035208Y-171427981D03*
X65575208Y-168887981D03*
X65575208Y-171427981D03*
X68115208Y-168887981D03*
X68115208Y-171427981D03*
X70655208Y-168887981D03*
X70655208Y-171427981D03*
X73195208Y-168887981D03*
X73195208Y-171427981D03*
%TD*%
D21*
%TO.C,H3*%
X51905208Y-145157981D03*
X52608152Y-143460925D03*
X52608152Y-146855037D03*
X54305208Y-142757981D03*
D22*
X54305208Y-145157981D03*
D21*
X54305208Y-147557981D03*
X56002264Y-143460925D03*
X56002264Y-146855037D03*
X56705208Y-145157981D03*
%TD*%
D13*
%TO.C,F3*%
X92530800Y-193291200D03*
X95930800Y-193291200D03*
X92530800Y-183371200D03*
X95930800Y-183371200D03*
%TD*%
%TO.C,F4*%
X112530800Y-193291200D03*
X115930800Y-193291200D03*
X112530800Y-183371200D03*
X115930800Y-183371200D03*
%TD*%
D16*
%TO.C,RL8*%
X95046800Y-148488400D03*
X95046800Y-145948400D03*
X95046800Y-143408400D03*
%TD*%
D21*
%TO.C,H1*%
X151905208Y-145157981D03*
X152608152Y-143460925D03*
X152608152Y-146855037D03*
X154305208Y-142757981D03*
D22*
X154305208Y-145157981D03*
D21*
X154305208Y-147557981D03*
X156002264Y-143460925D03*
X156002264Y-146855037D03*
X156705208Y-145157981D03*
%TD*%
D14*
%TO.C,J6*%
X151434800Y-160612450D03*
X151434800Y-176912450D03*
%TD*%
D13*
%TO.C,F1*%
X72530800Y-193291200D03*
X75930800Y-193291200D03*
X72530800Y-183371200D03*
X75930800Y-183371200D03*
%TD*%
D16*
%TO.C,RL6*%
X89560400Y-148437600D03*
X89560400Y-145897600D03*
X89560400Y-143357600D03*
%TD*%
%TO.C,RL2*%
X67259200Y-148437600D03*
X67259200Y-145897600D03*
X67259200Y-143357600D03*
%TD*%
D21*
%TO.C,H2*%
X151905208Y-248157981D03*
X152608152Y-246460925D03*
X152608152Y-249855037D03*
X154305208Y-245757981D03*
D22*
X154305208Y-248157981D03*
D21*
X154305208Y-250557981D03*
X156002264Y-246460925D03*
X156002264Y-249855037D03*
X156705208Y-248157981D03*
%TD*%
D25*
%TO.C,J1*%
X115752000Y-201822800D03*
X115752000Y-210822800D03*
D26*
X113792000Y-204822800D03*
D27*
X113792000Y-207822800D03*
%TD*%
D16*
%TO.C,RL3*%
X72898000Y-148539200D03*
X72898000Y-145999200D03*
X72898000Y-143459200D03*
%TD*%
D13*
%TO.C,F9*%
X132530800Y-193291200D03*
X135930800Y-193291200D03*
X132530800Y-183371200D03*
X135930800Y-183371200D03*
%TD*%
D16*
%TO.C,RL7*%
X100482400Y-148539200D03*
X100482400Y-145999200D03*
X100482400Y-143459200D03*
%TD*%
D13*
%TO.C,F2*%
X82530800Y-193291200D03*
X85930800Y-193291200D03*
X82530800Y-183371200D03*
X85930800Y-183371200D03*
%TD*%
D23*
%TO.C,K3*%
X52222400Y-234142000D03*
D24*
X62382400Y-234142000D03*
X70002400Y-234142000D03*
X52222400Y-226522000D03*
%TD*%
D13*
%TO.C,F8*%
X122530800Y-193291200D03*
X125930800Y-193291200D03*
X122530800Y-183371200D03*
X125930800Y-183371200D03*
%TD*%
%TO.C,F14*%
X142530800Y-193291200D03*
X145930800Y-193291200D03*
X142530800Y-183371200D03*
X145930800Y-183371200D03*
%TD*%
D23*
%TO.C,K1*%
X52222400Y-209042000D03*
D24*
X62382400Y-209042000D03*
X70002400Y-209042000D03*
X52222400Y-201422000D03*
%TD*%
D13*
%TO.C,F5*%
X62530800Y-193291200D03*
X65930800Y-193291200D03*
X62530800Y-183371200D03*
X65930800Y-183371200D03*
%TD*%
D16*
%TO.C,RL1*%
X61722000Y-148488400D03*
X61722000Y-145948400D03*
X61722000Y-143408400D03*
%TD*%
D28*
%TO.C,R48*%
X146862800Y-241304200D03*
X146862800Y-243354200D03*
%TD*%
D29*
%TO.C,C4*%
X74676000Y-232858200D03*
D28*
X74676000Y-234908200D03*
%TD*%
D30*
%TO.C,U11*%
X116865400Y-244050800D03*
X115595400Y-244050800D03*
X114325400Y-244050800D03*
X113055400Y-244050800D03*
X111785400Y-244050800D03*
X110515400Y-244050800D03*
X109245400Y-244050800D03*
X107975400Y-244050800D03*
X107975400Y-238650800D03*
X109245400Y-238650800D03*
X110515400Y-238650800D03*
X111785400Y-238650800D03*
X113055400Y-238650800D03*
X114325400Y-238650800D03*
X115595400Y-238650800D03*
X116865400Y-238650800D03*
%TD*%
D31*
%TO.C,D30*%
X123733600Y-218399600D03*
X123733600Y-219049600D03*
X123733600Y-219699600D03*
X121833600Y-219699600D03*
X121833600Y-219049600D03*
X121833600Y-218399600D03*
%TD*%
D32*
%TO.C,R8*%
X146091800Y-235661200D03*
X148141800Y-235661200D03*
%TD*%
D28*
%TO.C,R47*%
X160731200Y-246247200D03*
X160731200Y-248297200D03*
%TD*%
D31*
%TO.C,D28*%
X100279200Y-235966000D03*
X100279200Y-236616000D03*
X100279200Y-237266000D03*
X98379200Y-237266000D03*
X98379200Y-236616000D03*
X98379200Y-235966000D03*
%TD*%
%TO.C,D31*%
X123682800Y-215199200D03*
X123682800Y-215849200D03*
X123682800Y-216499200D03*
X121782800Y-216499200D03*
X121782800Y-215849200D03*
X121782800Y-215199200D03*
%TD*%
D30*
%TO.C,U12*%
X132461000Y-243949200D03*
X131191000Y-243949200D03*
X129921000Y-243949200D03*
X128651000Y-243949200D03*
X127381000Y-243949200D03*
X126111000Y-243949200D03*
X124841000Y-243949200D03*
X123571000Y-243949200D03*
X123571000Y-238549200D03*
X124841000Y-238549200D03*
X126111000Y-238549200D03*
X127381000Y-238549200D03*
X128651000Y-238549200D03*
X129921000Y-238549200D03*
X131191000Y-238549200D03*
X132461000Y-238549200D03*
%TD*%
D33*
%TO.C,C19*%
X134315200Y-238515000D03*
D34*
X134315200Y-236465000D03*
%TD*%
D28*
%TO.C,R49*%
X146862800Y-245304200D03*
X146862800Y-247354200D03*
%TD*%
D35*
%TO.C,C14*%
X100142000Y-223215200D03*
X102042000Y-223215200D03*
%TD*%
%TO.C,C15*%
X106304000Y-223113600D03*
X108204000Y-223113600D03*
%TD*%
D32*
%TO.C,R1*%
X146387600Y-232156000D03*
X148437600Y-232156000D03*
%TD*%
D29*
%TO.C,C5*%
X83972400Y-232909000D03*
D28*
X83972400Y-234959000D03*
%TD*%
D32*
%TO.C,R40*%
X128464200Y-248412000D03*
X130514200Y-248412000D03*
%TD*%
%TO.C,R4*%
X94834600Y-240538000D03*
X96884600Y-240538000D03*
%TD*%
%TO.C,R2*%
X142739000Y-238658400D03*
X144789000Y-238658400D03*
%TD*%
D31*
%TO.C,D29*%
X102179200Y-226314000D03*
X102179200Y-226964000D03*
X102179200Y-227614000D03*
X100279200Y-227614000D03*
X100279200Y-226964000D03*
X100279200Y-226314000D03*
%TD*%
D28*
%TO.C,R46*%
X160731200Y-242247200D03*
X160731200Y-244297200D03*
%TD*%
D36*
%TO.C,R6*%
X96833800Y-243078000D03*
X94783800Y-243078000D03*
%TD*%
D33*
%TO.C,C18*%
X118872000Y-238574800D03*
D34*
X118872000Y-236524800D03*
%TD*%
%LPD*%
M02*
