M48
; DRILL file {KiCad 8.0.2} date 2024-05-16T19:26:17+0930
; FORMAT={-:-/ absolute / metric / decimal}
; #@! TF.CreationDate,2024-05-16T19:26:17+09:30
; #@! TF.GenerationSoftware,Kicad,Pcbnew,8.0.2
; #@! TF.FileFunction,Plated,1,2,PTH
FMAT,2
METRIC
; #@! TA.AperFunction,Plated,PTH,ViaDrill
T1C0.400
; #@! TA.AperFunction,Plated,PTH,ComponentDrill
T2C0.500
; #@! TA.AperFunction,Plated,PTH,ComponentDrill
T3C0.740
; #@! TA.AperFunction,Plated,PTH,ViaDrill
T4C0.750
; #@! TA.AperFunction,Plated,PTH,ComponentDrill
T5C0.800
; #@! TA.AperFunction,Plated,PTH,ComponentDrill
T6C1.020
; #@! TA.AperFunction,Plated,PTH,ComponentDrill
T7C1.300
; #@! TA.AperFunction,Plated,PTH,ComponentDrill
T8C1.780
; #@! TA.AperFunction,Plated,PTH,ComponentDrill
T9C3.200
%
G90
G05
T1
X44.235Y-201.648
X44.418Y-176.936
X44.45Y-173.482
X45.635Y-198.425
X46.939Y-132.74
X49.022Y-237.185
X49.473Y-221.336
X49.473Y-223.418
X49.567Y-155.563
X49.666Y-174.072
X51.284Y-159.742
X51.41Y-175.26
X51.472Y-223.418
X51.613Y-204.724
X51.664Y-239.573
X52.031Y-155.06
X52.36Y-169.231
X52.476Y-174.854
X52.578Y-133.045
X52.73Y-160.274
X53.43Y-159.004
X53.492Y-168.707
X53.631Y-204.893
X53.714Y-207.172
X53.899Y-203.556
X54.102Y-161.747
X54.508Y-214.986
X55.169Y-252.335
X55.766Y-158.078
X57.138Y-156.706
X57.506Y-159.715
X57.541Y-199.542
X57.76Y-170.231
X59.03Y-200.914
X61.93Y-172.872
X62.027Y-198.679
X62.535Y-153.416
X64.008Y-162.662
X64.211Y-180.438
X64.465Y-251.866
X65.532Y-245.516
X66.7Y-153.67
X68.326Y-140.868
X68.529Y-231.14
X68.732Y-248.92
X69.139Y-252.066
X69.191Y-135.737
X69.444Y-139.802
X69.698Y-170.129
X70.086Y-162.668
X70.753Y-156.261
X70.863Y-247.853
X71.933Y-167.386
X72.492Y-137.058
X72.746Y-235.255
X72.746Y-239.334
X72.836Y-229.356
X72.847Y-197.917
X73.101Y-252.335
X73.355Y-157.734
X73.508Y-240.081
X74.219Y-206.096
X74.32Y-217.17
X74.332Y-164.643
X74.422Y-213.208
X74.473Y-135.89
X74.473Y-200.558
X74.715Y-239.307
X74.719Y-229.413
X75.247Y-240.753
X75.731Y-156.26
X75.911Y-232.492
X76.037Y-235.047
X76.131Y-163.068
X76.131Y-164.49
X76.251Y-244.958
X76.302Y-246.38
X76.302Y-251.917
X76.344Y-229.252
X76.522Y-233.561
X76.615Y-166.779
X76.81Y-222.199
X77.224Y-169.741
X77.514Y-226.104
X77.638Y-227.958
X77.673Y-152.451
X77.673Y-153.862
X78.029Y-233.793
X78.13Y-179.019
X78.223Y-162.001
X78.283Y-138.176
X78.339Y-220.015
X78.339Y-221.386
X78.339Y-225.266
X78.345Y-227.252
X78.435Y-235.192
X78.588Y-236.728
X78.623Y-164.948
X78.664Y-214.249
X78.808Y-232.593
X79.045Y-201.727
X79.062Y-226.534
X79.437Y-208.977
X79.807Y-244.348
X79.959Y-184.15
X80.138Y-223.571
X80.315Y-239.471
X80.366Y-143.256
X80.569Y-158.039
X80.837Y-219.71
X81.483Y-220.929
X81.585Y-156.26
X81.788Y-162.668
X82.61Y-240.59
X82.664Y-245.274
X82.855Y-137.668
X83.261Y-226.974
X83.35Y-218.782
X83.719Y-231.953
X83.972Y-205.791
X84.024Y-246.633
X84.074Y-166.014
X84.226Y-177.546
X84.408Y-162.996
X84.785Y-169.621
X84.836Y-139.413
X84.882Y-244.302
X85.0Y-148.031
X85.0Y-151.232
X85.09Y-229.413
X85.293Y-241.656
X85.293Y-243.302
X85.446Y-227.635
X85.547Y-232.816
X86.196Y-233.578
X86.399Y-149.962
X86.817Y-234.493
X86.97Y-143.137
X87.274Y-178.562
X87.579Y-218.44
X87.999Y-225.413
X88.24Y-243.992
X88.556Y-245.89
X88.811Y-166.065
X89.916Y-237.084
X89.967Y-150.058
X90.373Y-241.351
X90.435Y-230.734
X90.435Y-232.004
X90.61Y-176.546
X90.983Y-147.168
X91.491Y-166.053
X91.643Y-164.254
X91.835Y-227.838
X91.846Y-230.734
X91.987Y-156.312
X92.304Y-232.258
X92.354Y-247.142
X92.405Y-224.942
X92.456Y-175.729
X92.456Y-241.859
X92.516Y-163.767
X92.862Y-222.453
X93.269Y-138.481
X93.523Y-179.578
X94.793Y-170.078
X94.89Y-172.8
X94.894Y-166.675
X94.94Y-175.029
X95.098Y-223.012
X97.282Y-180.899
X97.536Y-168.085
X97.536Y-174.6
X97.621Y-202.997
X98.38Y-228.416
X98.4Y-201.27
X98.45Y-157.785
X98.654Y-137.314
X98.958Y-135.788
X99.06Y-224.079
X99.873Y-229.21
X100.178Y-231.394
X100.33Y-163.855
X101.213Y-200.418
X101.498Y-228.244
X101.956Y-225.095
X102.565Y-216.713
X102.632Y-175.614
X102.87Y-166.268
X103.327Y-199.695
X103.683Y-138.714
X103.683Y-205.08
X103.804Y-174.443
X105.207Y-174.515
X105.757Y-164.254
X105.766Y-159.106
X105.969Y-139.413
X106.426Y-206.451
X106.782Y-224.536
X107.34Y-160.677
X107.391Y-230.327
X107.391Y-236.728
X107.455Y-240.627
X107.899Y-143.137
X107.899Y-164.654
X108.001Y-220.878
X109.068Y-214.986
X109.322Y-204.368
X109.576Y-174.915
X109.83Y-138.613
X109.88Y-223.114
X109.982Y-216.256
X110.236Y-236.83
X111.202Y-236.572
X111.911Y-235.867
X112.674Y-213.106
X112.767Y-235.352
X113.335Y-216.611
X113.449Y-212.077
X113.66Y-174.915
X113.69Y-152.502
X113.894Y-144.413
X114.249Y-161.377
X114.402Y-176.378
X115.011Y-212.7
X115.329Y-217.513
X115.519Y-161.442
X115.683Y-242.265
X115.722Y-176.546
X115.824Y-247.142
X116.383Y-217.576
X116.383Y-237.084
X116.891Y-216.408
X117.082Y-242.265
X117.246Y-213.055
X117.348Y-235.204
X118.059Y-234.544
X118.059Y-245.11
X118.11Y-202.54
X118.343Y-153.259
X118.974Y-229.21
X119.163Y-141.542
X119.532Y-160.576
X120.091Y-235.001
X120.198Y-179.624
X120.606Y-164.853
X120.701Y-214.986
X120.752Y-217.627
X120.994Y-159.563
X121.339Y-174.242
X121.856Y-156.579
X121.883Y-158.584
X122.123Y-142.24
X122.276Y-175.311
X122.428Y-245.72
X122.653Y-143.088
X123.342Y-217.424
X123.37Y-162.177
X123.527Y-170.332
X123.802Y-159.892
X125.826Y-225.862
X127.406Y-142.939
X127.406Y-240.03
X127.864Y-246.532
X128.27Y-202.286
X128.626Y-162.103
X129.794Y-142.646
X129.794Y-224.485
X130.099Y-164.275
X130.861Y-246.482
X131.064Y-176.568
X131.79Y-177.968
X132.283Y-162.052
X132.69Y-141.871
X133.045Y-166.053
X133.147Y-140.97
X133.756Y-240.589
X134.976Y-138.328
X135.791Y-141.471
X136.347Y-162.154
X137.109Y-236.474
X139.04Y-139.903
X139.192Y-141.071
X140.208Y-138.005
X141.326Y-140.106
X141.427Y-238.19
X141.63Y-236.677
X142.24Y-139.407
X142.646Y-153.721
X142.9Y-164.654
X143.51Y-232.664
X143.526Y-145.272
X143.839Y-140.868
X144.069Y-208.28
X144.323Y-175.717
X144.475Y-235.407
X144.831Y-163.728
X145.237Y-144.47
X145.542Y-233.731
X146.299Y-144.173
X147.299Y-144.159
X148.082Y-140.671
X148.247Y-176.568
X148.467Y-144.489
X148.895Y-164.686
X148.946Y-143.612
X148.996Y-236.677
X149.047Y-239.014
X149.25Y-174.549
X149.322Y-173.36
X149.454Y-232.969
X149.454Y-242.011
X150.927Y-140.074
X152.959Y-165.087
X154.026Y-172.872
X155.296Y-228.752
X155.905Y-140.474
X156.261Y-242.976
X156.362Y-218.389
X157.023Y-160.426
X158.801Y-241.249
X158.902Y-140.919
X159.085Y-157.577
X159.111Y-179.984
X159.511Y-158.481
X159.903Y-159.524
X160.02Y-143.612
X160.311Y-162.103
X160.311Y-163.17
X160.311Y-165.405
X160.311Y-167.792
X160.711Y-196.249
X161.015Y-197.215
X161.089Y-139.356
X161.354Y-216.47
X161.501Y-236.231
X161.606Y-227.889
X161.696Y-140.564
X161.911Y-198.425
X161.911Y-200.711
X161.95Y-237.185
X162.408Y-206.502
X162.408Y-241.96
X162.611Y-154.381
T2
X51.905Y-145.158
X51.905Y-248.158
X52.608Y-143.461
X52.608Y-146.855
X52.608Y-246.461
X52.608Y-249.855
X54.305Y-142.758
X54.305Y-147.558
X54.305Y-245.758
X54.305Y-250.558
X56.002Y-143.461
X56.002Y-146.855
X56.002Y-246.461
X56.002Y-249.855
X56.705Y-145.158
X56.705Y-248.158
X151.905Y-145.158
X151.905Y-248.158
X152.608Y-143.461
X152.608Y-146.855
X152.608Y-246.461
X152.608Y-249.855
X154.305Y-142.758
X154.305Y-147.558
X154.305Y-245.758
X154.305Y-250.558
X156.002Y-143.461
X156.002Y-146.855
X156.002Y-246.461
X156.002Y-249.855
X156.705Y-145.158
X156.705Y-248.158
T3
X61.722Y-143.408
X61.722Y-145.948
X61.722Y-148.488
X67.259Y-143.358
X67.259Y-145.898
X67.259Y-148.438
X72.898Y-143.459
X72.898Y-145.999
X72.898Y-148.539
X78.181Y-143.459
X78.181Y-145.999
X78.181Y-148.539
X83.668Y-143.278
X83.668Y-145.818
X83.668Y-148.358
X89.56Y-143.358
X89.56Y-145.898
X89.56Y-148.438
X95.047Y-143.408
X95.047Y-145.948
X95.047Y-148.488
X100.482Y-143.459
X100.482Y-145.999
X100.482Y-148.539
T4
X51.664Y-179.273
X52.426Y-177.14
X54.305Y-179.375
X55.16Y-177.591
X70.307Y-187.808
X70.815Y-175.463
X70.815Y-189.382
X71.933Y-188.163
X72.746Y-178.003
X73.0Y-175.92
T5
X99.568Y-252.324
X102.108Y-252.324
X104.648Y-252.324
X107.188Y-252.324
X109.728Y-232.004
X109.728Y-252.324
X112.268Y-232.004
X112.268Y-252.324
X114.808Y-232.004
X114.808Y-252.324
X117.348Y-232.004
X117.348Y-252.324
X119.888Y-232.004
X119.888Y-252.324
X122.428Y-232.004
X122.428Y-252.324
X124.968Y-232.004
X124.968Y-252.324
X127.508Y-232.004
X127.508Y-252.324
X130.048Y-232.004
X130.048Y-252.324
X132.588Y-232.004
X132.588Y-252.324
X135.128Y-232.004
X135.128Y-252.324
X137.668Y-232.004
X137.668Y-252.324
T6
X113.792Y-204.823
X113.792Y-207.823
T7
X52.222Y-201.422
X52.222Y-209.042
X52.222Y-213.972
X52.222Y-221.592
X52.222Y-226.522
X52.222Y-234.142
X62.382Y-209.042
X62.382Y-221.592
X62.382Y-234.142
X70.002Y-209.042
X70.002Y-221.592
X70.002Y-234.142
T8
X52.531Y-183.371
X52.531Y-193.291
X55.931Y-183.371
X55.931Y-193.291
X62.531Y-183.371
X62.531Y-193.291
X65.931Y-183.371
X65.931Y-193.291
X72.531Y-183.371
X72.531Y-193.291
X75.931Y-183.371
X75.931Y-193.291
X81.888Y-203.066
X81.888Y-212.986
X82.531Y-183.371
X82.531Y-193.291
X85.288Y-203.066
X85.288Y-212.986
X85.931Y-183.371
X85.931Y-193.291
X91.888Y-203.066
X91.888Y-212.986
X92.531Y-183.371
X92.531Y-193.291
X95.288Y-203.066
X95.288Y-212.986
X95.931Y-183.371
X95.931Y-193.291
X101.888Y-203.066
X101.888Y-212.986
X102.531Y-183.371
X102.531Y-193.291
X105.288Y-203.066
X105.288Y-212.986
X105.931Y-183.371
X105.931Y-193.291
X112.531Y-183.371
X112.531Y-193.291
X115.931Y-183.371
X115.931Y-193.291
X122.531Y-183.371
X122.531Y-193.291
X125.931Y-183.371
X125.931Y-193.291
X132.531Y-183.371
X132.531Y-193.291
X135.931Y-183.371
X135.931Y-193.291
X142.531Y-183.371
X142.531Y-193.291
X145.931Y-183.371
X145.931Y-193.291
T9
X54.305Y-145.158
X54.305Y-248.158
X154.305Y-145.158
X154.305Y-248.158
M30
