%TF.GenerationSoftware,KiCad,Pcbnew,8.0.2*%
%TF.CreationDate,2024-05-16T19:26:19+09:30*%
%TF.ProjectId,power_and_monotoring,706f7765-725f-4616-9e64-5f6d6f6e6f74,rev?*%
%TF.SameCoordinates,Original*%
%TF.FileFunction,Drillmap*%
%TF.FilePolarity,Positive*%
%FSLAX45Y45*%
G04 Gerber Fmt 4.5, Leading zero omitted, Abs format (unit mm)*
G04 Created by KiCad (PCBNEW 8.0.2) date 2024-05-16 19:26:19*
%MOMM*%
%LPD*%
G01*
G04 APERTURE LIST*
%ADD10C,0.100000*%
%ADD11C,0.200000*%
%ADD12C,0.102000*%
%ADD13C,0.130000*%
%ADD14C,0.178000*%
%ADD15C,0.320000*%
G04 APERTURE END LIST*
D10*
X16330027Y-24815304D02*
G75*
G02*
X15731027Y-25415307I-599507J-496D01*
G01*
X15431027Y-25415304D02*
X4731015Y-25415304D01*
X15730532Y-12979680D02*
G75*
G02*
X16330540Y-13578680I508J-599500D01*
G01*
X4131015Y-24816304D02*
X4131520Y-13579680D01*
X4731015Y-25415304D02*
G75*
G02*
X4131016Y-24816304I-495J599504D01*
G01*
X4730520Y-12979680D02*
X15730532Y-12979680D01*
X15731027Y-25415304D02*
X15431027Y-25415304D01*
X16330532Y-13578680D02*
X16330027Y-24815304D01*
X4131520Y-13579680D02*
G75*
G02*
X4730520Y-12979680I599506J494D01*
G01*
D11*
D10*
X4403490Y-20144762D02*
X4443490Y-20184762D01*
X4443490Y-20144762D02*
X4403490Y-20184762D01*
X4421840Y-17673640D02*
X4461840Y-17713640D01*
X4461840Y-17673640D02*
X4421840Y-17713640D01*
X4425000Y-17328200D02*
X4465000Y-17368200D01*
X4465000Y-17328200D02*
X4425000Y-17368200D01*
X4543490Y-19822480D02*
X4583490Y-19862480D01*
X4583490Y-19822480D02*
X4543490Y-19862480D01*
X4673920Y-13254040D02*
X4713920Y-13294040D01*
X4713920Y-13254040D02*
X4673920Y-13294040D01*
X4882200Y-23698520D02*
X4922200Y-23738520D01*
X4922200Y-23698520D02*
X4882200Y-23738520D01*
X4927290Y-22113560D02*
X4967290Y-22153560D01*
X4967290Y-22113560D02*
X4927290Y-22153560D01*
X4927290Y-22321840D02*
X4967290Y-22361840D01*
X4967290Y-22321840D02*
X4927290Y-22361840D01*
X4936742Y-15536298D02*
X4976742Y-15576298D01*
X4976742Y-15536298D02*
X4936742Y-15576298D01*
X4946590Y-17387190D02*
X4986590Y-17427190D01*
X4986590Y-17387190D02*
X4946590Y-17427190D01*
X5108360Y-15954160D02*
X5148360Y-15994160D01*
X5148360Y-15954160D02*
X5108360Y-15994160D01*
X5120960Y-17506000D02*
X5160960Y-17546000D01*
X5160960Y-17506000D02*
X5120960Y-17546000D01*
X5127190Y-22321840D02*
X5167190Y-22361840D01*
X5167190Y-22321840D02*
X5127190Y-22361840D01*
X5141280Y-20452400D02*
X5181280Y-20492400D01*
X5181280Y-20452400D02*
X5141280Y-20492400D01*
X5146360Y-23937280D02*
X5186360Y-23977280D01*
X5186360Y-23937280D02*
X5146360Y-23977280D01*
X5183090Y-15486026D02*
X5223090Y-15526026D01*
X5223090Y-15486026D02*
X5183090Y-15526026D01*
X5216040Y-16903130D02*
X5256040Y-16943130D01*
X5256040Y-16903130D02*
X5216040Y-16943130D01*
X5227640Y-17465360D02*
X5267640Y-17505360D01*
X5267640Y-17465360D02*
X5227640Y-17505360D01*
X5237800Y-13284520D02*
X5277800Y-13324520D01*
X5277800Y-13284520D02*
X5237800Y-13324520D01*
X5253040Y-16007400D02*
X5293040Y-16047400D01*
X5293040Y-16007400D02*
X5253040Y-16047400D01*
X5322990Y-15880400D02*
X5362990Y-15920400D01*
X5362990Y-15880400D02*
X5322990Y-15920400D01*
X5329240Y-16850680D02*
X5369240Y-16890680D01*
X5369240Y-16850680D02*
X5329240Y-16890680D01*
X5343118Y-20469290D02*
X5383118Y-20509290D01*
X5383118Y-20469290D02*
X5343118Y-20509290D01*
X5351418Y-20697208D02*
X5391418Y-20737208D01*
X5391418Y-20697208D02*
X5351418Y-20737208D01*
X5369880Y-20335560D02*
X5409880Y-20375560D01*
X5409880Y-20335560D02*
X5369880Y-20375560D01*
X5390200Y-16154720D02*
X5430200Y-16194720D01*
X5430200Y-16154720D02*
X5390200Y-16194720D01*
X5430840Y-21478560D02*
X5470840Y-21518560D01*
X5470840Y-21478560D02*
X5430840Y-21518560D01*
X5496880Y-25213530D02*
X5536880Y-25253530D01*
X5536880Y-25213530D02*
X5496880Y-25253530D01*
X5556638Y-15787758D02*
X5596638Y-15827758D01*
X5596638Y-15787758D02*
X5556638Y-15827758D01*
X5693798Y-15650598D02*
X5733798Y-15690598D01*
X5733798Y-15650598D02*
X5693798Y-15690598D01*
X5730560Y-15951520D02*
X5770560Y-15991520D01*
X5770560Y-15951520D02*
X5730560Y-15991520D01*
X5734130Y-19934240D02*
X5774130Y-19974240D01*
X5774130Y-19934240D02*
X5734130Y-19974240D01*
X5755960Y-17003080D02*
X5795960Y-17043080D01*
X5795960Y-17003080D02*
X5755960Y-17043080D01*
X5882960Y-20071400D02*
X5922960Y-20111400D01*
X5922960Y-20071400D02*
X5882960Y-20111400D01*
X6173021Y-17267240D02*
X6213021Y-17307240D01*
X6213021Y-17267240D02*
X6173021Y-17307240D01*
X6182680Y-19847880D02*
X6222680Y-19887880D01*
X6222680Y-19847880D02*
X6182680Y-19887880D01*
X6233480Y-15321600D02*
X6273480Y-15361600D01*
X6273480Y-15321600D02*
X6233480Y-15361600D01*
X6380800Y-16246160D02*
X6420800Y-16286160D01*
X6420800Y-16246160D02*
X6380800Y-16286160D01*
X6401120Y-18023750D02*
X6441120Y-18063750D01*
X6441120Y-18023750D02*
X6401120Y-18063750D01*
X6426520Y-25166640D02*
X6466520Y-25206640D01*
X6466520Y-25166640D02*
X6426520Y-25206640D01*
X6533200Y-24531640D02*
X6573200Y-24571640D01*
X6573200Y-24531640D02*
X6533200Y-24571640D01*
X6650040Y-15347000D02*
X6690040Y-15387000D01*
X6690040Y-15347000D02*
X6650040Y-15387000D01*
X6812600Y-14066840D02*
X6852600Y-14106840D01*
X6852600Y-14066840D02*
X6812600Y-14106840D01*
X6832920Y-23094000D02*
X6872920Y-23134000D01*
X6872920Y-23094000D02*
X6832920Y-23134000D01*
X6853240Y-24872000D02*
X6893240Y-24912000D01*
X6893240Y-24872000D02*
X6853240Y-24912000D01*
X6893880Y-25186640D02*
X6933880Y-25226640D01*
X6933880Y-25186640D02*
X6893880Y-25226640D01*
X6899060Y-13553660D02*
X6939060Y-13593660D01*
X6939060Y-13553660D02*
X6899060Y-13593660D01*
X6924360Y-13960160D02*
X6964360Y-14000160D01*
X6964360Y-13960160D02*
X6924360Y-14000160D01*
X6949760Y-16992920D02*
X6989760Y-17032920D01*
X6989760Y-16992920D02*
X6949760Y-17032920D01*
X6988636Y-16246800D02*
X7028636Y-16286800D01*
X7028636Y-16246800D02*
X6988636Y-16286800D01*
X7055270Y-15606080D02*
X7095270Y-15646080D01*
X7095270Y-15606080D02*
X7055270Y-15646080D01*
X7066340Y-24765320D02*
X7106340Y-24805320D01*
X7106340Y-24765320D02*
X7066340Y-24805320D01*
X7173280Y-16718600D02*
X7213280Y-16758600D01*
X7213280Y-16718600D02*
X7173280Y-16758600D01*
X7229160Y-13685840D02*
X7269160Y-13725840D01*
X7269160Y-13685840D02*
X7229160Y-13725840D01*
X7254560Y-23505480D02*
X7294560Y-23545480D01*
X7294560Y-23505480D02*
X7254560Y-23545480D01*
X7254560Y-23913370D02*
X7294560Y-23953370D01*
X7294560Y-23913370D02*
X7254560Y-23953370D01*
X7263575Y-22915611D02*
X7303575Y-22955611D01*
X7303575Y-22915611D02*
X7263575Y-22955611D01*
X7264720Y-19771680D02*
X7304720Y-19811680D01*
X7304720Y-19771680D02*
X7264720Y-19811680D01*
X7290120Y-25213530D02*
X7330120Y-25253530D01*
X7330120Y-25213530D02*
X7290120Y-25253530D01*
X7315520Y-15753400D02*
X7355520Y-15793400D01*
X7355520Y-15753400D02*
X7315520Y-15793400D01*
X7330760Y-23988080D02*
X7370760Y-24028080D01*
X7370760Y-23988080D02*
X7330760Y-24028080D01*
X7401880Y-20589560D02*
X7441880Y-20629560D01*
X7441880Y-20589560D02*
X7401880Y-20629560D01*
X7412040Y-21697000D02*
X7452040Y-21737000D01*
X7452040Y-21697000D02*
X7412040Y-21737000D01*
X7413210Y-16444280D02*
X7453210Y-16484280D01*
X7453210Y-16444280D02*
X7413210Y-16484280D01*
X7422200Y-21300760D02*
X7462200Y-21340760D01*
X7462200Y-21300760D02*
X7422200Y-21340760D01*
X7427280Y-13569000D02*
X7467280Y-13609000D01*
X7467280Y-13569000D02*
X7427280Y-13609000D01*
X7427280Y-20035840D02*
X7467280Y-20075840D01*
X7467280Y-20035840D02*
X7427280Y-20075840D01*
X7451478Y-23910678D02*
X7491478Y-23950678D01*
X7491478Y-23910678D02*
X7451478Y-23950678D01*
X7451920Y-22921280D02*
X7491920Y-22961280D01*
X7491920Y-22921280D02*
X7451920Y-22961280D01*
X7504682Y-24055322D02*
X7544682Y-24095322D01*
X7544682Y-24055322D02*
X7504682Y-24095322D01*
X7553110Y-15606030D02*
X7593110Y-15646030D01*
X7593110Y-15606030D02*
X7553110Y-15646030D01*
X7571095Y-23229185D02*
X7611095Y-23269185D01*
X7611095Y-23229185D02*
X7571095Y-23269185D01*
X7583721Y-23484686D02*
X7623721Y-23524686D01*
X7623721Y-23484686D02*
X7583721Y-23524686D01*
X7593110Y-16286800D02*
X7633110Y-16326800D01*
X7633110Y-16286800D02*
X7593110Y-16326800D01*
X7593110Y-16429040D02*
X7633110Y-16469040D01*
X7633110Y-16429040D02*
X7593110Y-16469040D01*
X7605080Y-24475760D02*
X7645080Y-24515760D01*
X7645080Y-24475760D02*
X7605080Y-24515760D01*
X7610160Y-24618000D02*
X7650160Y-24658000D01*
X7650160Y-24618000D02*
X7610160Y-24658000D01*
X7610160Y-25171720D02*
X7650160Y-25211720D01*
X7650160Y-25171720D02*
X7610160Y-25211720D01*
X7614412Y-22905212D02*
X7654412Y-22945212D01*
X7654412Y-22905212D02*
X7614412Y-22945212D01*
X7632192Y-23336128D02*
X7672192Y-23376128D01*
X7672192Y-23336128D02*
X7632192Y-23376128D01*
X7641506Y-16657899D02*
X7681506Y-16697899D01*
X7681506Y-16657899D02*
X7641506Y-16697899D01*
X7660960Y-22199920D02*
X7700960Y-22239920D01*
X7700960Y-22199920D02*
X7660960Y-22239920D01*
X7702417Y-16954085D02*
X7742417Y-16994085D01*
X7742417Y-16954085D02*
X7702417Y-16994085D01*
X7731388Y-22590388D02*
X7771388Y-22630388D01*
X7771388Y-22590388D02*
X7731388Y-22630388D01*
X7743795Y-22775830D02*
X7783795Y-22815830D01*
X7783795Y-22775830D02*
X7743795Y-22815830D01*
X7747320Y-15225080D02*
X7787320Y-15265080D01*
X7787320Y-15225080D02*
X7747320Y-15265080D01*
X7747320Y-15366150D02*
X7787320Y-15406150D01*
X7787320Y-15366150D02*
X7747320Y-15406150D01*
X7782880Y-23359330D02*
X7822880Y-23399330D01*
X7822880Y-23359330D02*
X7782880Y-23399330D01*
X7793040Y-17881920D02*
X7833040Y-17921920D01*
X7833040Y-17881920D02*
X7793040Y-17921920D01*
X7802270Y-16180120D02*
X7842270Y-16220120D01*
X7842270Y-16180120D02*
X7802270Y-16220120D01*
X7808280Y-13797600D02*
X7848280Y-13837600D01*
X7848280Y-13797600D02*
X7808280Y-13837600D01*
X7813884Y-21981480D02*
X7853884Y-22021480D01*
X7853884Y-21981480D02*
X7813884Y-22021480D01*
X7813884Y-22118640D02*
X7853884Y-22158640D01*
X7853884Y-22118640D02*
X7813884Y-22158640D01*
X7813884Y-22506568D02*
X7853884Y-22546568D01*
X7853884Y-22506568D02*
X7813884Y-22546568D01*
X7814470Y-22705154D02*
X7854470Y-22745154D01*
X7854470Y-22705154D02*
X7814470Y-22745154D01*
X7823520Y-23499230D02*
X7863520Y-23539230D01*
X7863520Y-23499230D02*
X7823520Y-23539230D01*
X7838760Y-23652800D02*
X7878760Y-23692800D01*
X7878760Y-23652800D02*
X7838760Y-23692800D01*
X7842270Y-16474760D02*
X7882270Y-16514760D01*
X7882270Y-16474760D02*
X7842270Y-16514760D01*
X7846380Y-21404900D02*
X7886380Y-21444900D01*
X7886380Y-21404900D02*
X7846380Y-21444900D01*
X7860807Y-23239338D02*
X7900807Y-23279338D01*
X7900807Y-23239338D02*
X7860807Y-23279338D01*
X7884480Y-20152680D02*
X7924480Y-20192680D01*
X7924480Y-20152680D02*
X7884480Y-20192680D01*
X7886192Y-22633432D02*
X7926192Y-22673432D01*
X7926192Y-22633432D02*
X7886192Y-22673432D01*
X7923676Y-20877676D02*
X7963676Y-20917676D01*
X7963676Y-20877676D02*
X7923676Y-20917676D01*
X7960680Y-24414800D02*
X8000680Y-24454800D01*
X8000680Y-24414800D02*
X7960680Y-24454800D01*
X7975920Y-18395000D02*
X8015920Y-18435000D01*
X8015920Y-18395000D02*
X7975920Y-18435000D01*
X7993784Y-22337080D02*
X8033784Y-22377080D01*
X8033784Y-22337080D02*
X7993784Y-22377080D01*
X8011480Y-23927120D02*
X8051480Y-23967120D01*
X8051480Y-23927120D02*
X8011480Y-23967120D01*
X8016560Y-14305600D02*
X8056560Y-14345600D01*
X8056560Y-14305600D02*
X8016560Y-14345600D01*
X8036880Y-15783880D02*
X8076880Y-15823880D01*
X8076880Y-15783880D02*
X8036880Y-15823880D01*
X8063734Y-21951000D02*
X8103734Y-21991000D01*
X8103734Y-21951000D02*
X8063734Y-21991000D01*
X8128320Y-22072920D02*
X8168320Y-22112920D01*
X8168320Y-22072920D02*
X8128320Y-22112920D01*
X8138480Y-15606030D02*
X8178480Y-15646030D01*
X8178480Y-15606030D02*
X8138480Y-15646030D01*
X8158800Y-16246800D02*
X8198800Y-16286800D01*
X8198800Y-16246800D02*
X8158800Y-16286800D01*
X8241023Y-24038969D02*
X8281023Y-24078969D01*
X8281023Y-24038969D02*
X8241023Y-24078969D01*
X8246450Y-24507425D02*
X8286450Y-24547425D01*
X8286450Y-24507425D02*
X8246450Y-24547425D01*
X8265480Y-13746800D02*
X8305480Y-13786800D01*
X8305480Y-13746800D02*
X8265480Y-13786800D01*
X8306120Y-22677440D02*
X8346120Y-22717440D01*
X8346120Y-22677440D02*
X8306120Y-22717440D01*
X8314951Y-21858231D02*
X8354951Y-21898231D01*
X8354951Y-21858231D02*
X8314951Y-21898231D01*
X8351920Y-23175280D02*
X8391920Y-23215280D01*
X8391920Y-23175280D02*
X8351920Y-23215280D01*
X8377240Y-20559080D02*
X8417240Y-20599080D01*
X8417240Y-20559080D02*
X8377240Y-20599080D01*
X8382408Y-24643312D02*
X8422408Y-24683312D01*
X8422408Y-24643312D02*
X8382408Y-24683312D01*
X8387400Y-16581440D02*
X8427400Y-16621440D01*
X8427400Y-16581440D02*
X8387400Y-16621440D01*
X8402640Y-17734600D02*
X8442640Y-17774600D01*
X8442640Y-17734600D02*
X8402640Y-17774600D01*
X8420817Y-16279577D02*
X8460817Y-16319577D01*
X8460817Y-16279577D02*
X8420817Y-16319577D01*
X8458520Y-16942120D02*
X8498520Y-16982120D01*
X8498520Y-16942120D02*
X8458520Y-16982120D01*
X8463600Y-13921330D02*
X8503600Y-13961330D01*
X8503600Y-13921330D02*
X8463600Y-13961330D01*
X8468194Y-24410206D02*
X8508194Y-24450206D01*
X8508194Y-24410206D02*
X8468194Y-24450206D01*
X8480010Y-14783120D02*
X8520010Y-14823120D01*
X8520010Y-14783120D02*
X8480010Y-14823120D01*
X8480010Y-15103160D02*
X8520010Y-15143160D01*
X8520010Y-15103160D02*
X8480010Y-15143160D01*
X8489000Y-22921280D02*
X8529000Y-22961280D01*
X8529000Y-22921280D02*
X8489000Y-22961280D01*
X8509320Y-24145560D02*
X8549320Y-24185560D01*
X8549320Y-24145560D02*
X8509320Y-24185560D01*
X8509320Y-24310207D02*
X8549320Y-24350207D01*
X8549320Y-24310207D02*
X8509320Y-24350207D01*
X8524560Y-22743480D02*
X8564560Y-22783480D01*
X8564560Y-22743480D02*
X8524560Y-22783480D01*
X8534720Y-23261640D02*
X8574720Y-23301640D01*
X8574720Y-23261640D02*
X8534720Y-23301640D01*
X8599640Y-23337840D02*
X8639640Y-23377840D01*
X8639640Y-23337840D02*
X8599640Y-23377840D01*
X8619910Y-14976160D02*
X8659910Y-15016160D01*
X8659910Y-14976160D02*
X8619910Y-15016160D01*
X8661720Y-23429280D02*
X8701720Y-23469280D01*
X8701720Y-23429280D02*
X8661720Y-23469280D01*
X8676960Y-14293710D02*
X8716960Y-14333710D01*
X8716960Y-14293710D02*
X8676960Y-14333710D01*
X8707440Y-17836200D02*
X8747440Y-17876200D01*
X8747440Y-17836200D02*
X8707440Y-17876200D01*
X8737920Y-21824000D02*
X8777920Y-21864000D01*
X8777920Y-21824000D02*
X8737920Y-21864000D01*
X8779875Y-22521275D02*
X8819875Y-22561275D01*
X8819875Y-22521275D02*
X8779875Y-22561275D01*
X8803960Y-24379240D02*
X8843960Y-24419240D01*
X8843960Y-24379240D02*
X8803960Y-24419240D01*
X8835616Y-24569014D02*
X8875616Y-24609014D01*
X8875616Y-24569014D02*
X8835616Y-24609014D01*
X8861071Y-16586520D02*
X8901071Y-16626520D01*
X8901071Y-16586520D02*
X8861071Y-16626520D01*
X8971600Y-23688360D02*
X9011600Y-23728360D01*
X9011600Y-23688360D02*
X8971600Y-23728360D01*
X8976680Y-14985760D02*
X9016680Y-15025760D01*
X9016680Y-14985760D02*
X8976680Y-15025760D01*
X9017320Y-24115080D02*
X9057320Y-24155080D01*
X9057320Y-24115080D02*
X9017320Y-24155080D01*
X9023520Y-23053360D02*
X9063520Y-23093360D01*
X9063520Y-23053360D02*
X9023520Y-23093360D01*
X9023520Y-23180360D02*
X9063520Y-23220360D01*
X9063520Y-23180360D02*
X9023520Y-23220360D01*
X9040971Y-17634650D02*
X9080971Y-17674650D01*
X9080971Y-17634650D02*
X9040971Y-17674650D01*
X9078280Y-14696760D02*
X9118280Y-14736760D01*
X9118280Y-14696760D02*
X9078280Y-14736760D01*
X9129080Y-16585350D02*
X9169080Y-16625350D01*
X9169080Y-16585350D02*
X9129080Y-16625350D01*
X9144320Y-16405450D02*
X9184320Y-16445450D01*
X9184320Y-16405450D02*
X9144320Y-16445450D01*
X9163520Y-22763800D02*
X9203520Y-22803800D01*
X9203520Y-22763800D02*
X9163520Y-22803800D01*
X9164640Y-23053360D02*
X9204640Y-23093360D01*
X9204640Y-23053360D02*
X9164640Y-23093360D01*
X9178710Y-15611160D02*
X9218710Y-15651160D01*
X9218710Y-15611160D02*
X9178710Y-15651160D01*
X9210360Y-23205760D02*
X9250360Y-23245760D01*
X9250360Y-23205760D02*
X9210360Y-23245760D01*
X9215440Y-24694200D02*
X9255440Y-24734200D01*
X9255440Y-24694200D02*
X9215440Y-24734200D01*
X9220520Y-22474240D02*
X9260520Y-22514240D01*
X9260520Y-22474240D02*
X9220520Y-22514240D01*
X9225600Y-17552890D02*
X9265600Y-17592890D01*
X9265600Y-17552890D02*
X9225600Y-17592890D01*
X9225600Y-24165880D02*
X9265600Y-24205880D01*
X9265600Y-24165880D02*
X9225600Y-24205880D01*
X9231603Y-16356750D02*
X9271603Y-16396750D01*
X9271603Y-16356750D02*
X9231603Y-16396750D01*
X9266240Y-22225320D02*
X9306240Y-22265320D01*
X9306240Y-22225320D02*
X9266240Y-22265320D01*
X9306880Y-13828080D02*
X9346880Y-13868080D01*
X9346880Y-13828080D02*
X9306880Y-13868080D01*
X9332280Y-17937800D02*
X9372280Y-17977800D01*
X9372280Y-17937800D02*
X9332280Y-17977800D01*
X9459280Y-16987840D02*
X9499280Y-17027840D01*
X9499280Y-16987840D02*
X9459280Y-17027840D01*
X9468971Y-17260010D02*
X9508971Y-17300010D01*
X9508971Y-17260010D02*
X9468971Y-17300010D01*
X9469440Y-16647480D02*
X9509440Y-16687480D01*
X9509440Y-16647480D02*
X9469440Y-16687480D01*
X9474030Y-17482940D02*
X9514030Y-17522940D01*
X9514030Y-17482940D02*
X9474030Y-17522940D01*
X9489760Y-22281200D02*
X9529760Y-22321200D01*
X9529760Y-22281200D02*
X9489760Y-22321200D01*
X9708200Y-18069880D02*
X9748200Y-18109880D01*
X9748200Y-18069880D02*
X9708200Y-18109880D01*
X9733600Y-16788550D02*
X9773600Y-16828550D01*
X9773600Y-16788550D02*
X9733600Y-16828550D01*
X9733600Y-17439960D02*
X9773600Y-17479960D01*
X9773600Y-17439960D02*
X9733600Y-17479960D01*
X9742080Y-20279680D02*
X9782080Y-20319680D01*
X9782080Y-20279680D02*
X9742080Y-20319680D01*
X9818034Y-22821606D02*
X9858034Y-22861606D01*
X9858034Y-22821606D02*
X9818034Y-22861606D01*
X9819960Y-20106960D02*
X9859960Y-20146960D01*
X9859960Y-20106960D02*
X9819960Y-20146960D01*
X9825040Y-15758480D02*
X9865040Y-15798480D01*
X9865040Y-15758480D02*
X9825040Y-15798480D01*
X9845360Y-13711430D02*
X9885360Y-13751430D01*
X9885360Y-13711430D02*
X9845360Y-13751430D01*
X9875840Y-13558840D02*
X9915840Y-13598840D01*
X9915840Y-13558840D02*
X9875840Y-13598840D01*
X9886000Y-22387880D02*
X9926000Y-22427880D01*
X9926000Y-22387880D02*
X9886000Y-22427880D01*
X9967280Y-22900960D02*
X10007280Y-22940960D01*
X10007280Y-22900960D02*
X9967280Y-22940960D01*
X9997760Y-23119400D02*
X10037760Y-23159400D01*
X10037760Y-23119400D02*
X9997760Y-23159400D01*
X10013000Y-16365450D02*
X10053000Y-16405450D01*
X10053000Y-16365450D02*
X10013000Y-16405450D01*
X10101251Y-20021770D02*
X10141251Y-20061770D01*
X10141251Y-20021770D02*
X10101251Y-20061770D01*
X10129840Y-22804440D02*
X10169840Y-22844440D01*
X10169840Y-22804440D02*
X10129840Y-22844440D01*
X10175560Y-22489480D02*
X10215560Y-22529480D01*
X10215560Y-22489480D02*
X10175560Y-22529480D01*
X10236520Y-21651280D02*
X10276520Y-21691280D01*
X10276520Y-21651280D02*
X10236520Y-21691280D01*
X10243248Y-17541421D02*
X10283248Y-17581421D01*
X10283248Y-17541421D02*
X10243248Y-17581421D01*
X10267000Y-16606840D02*
X10307000Y-16646840D01*
X10307000Y-16606840D02*
X10267000Y-16646840D01*
X10312720Y-19949480D02*
X10352720Y-19989480D01*
X10352720Y-19949480D02*
X10312720Y-19989480D01*
X10348280Y-13851380D02*
X10388280Y-13891380D01*
X10388280Y-13851380D02*
X10348280Y-13891380D01*
X10348280Y-20487960D02*
X10388280Y-20527960D01*
X10388280Y-20487960D02*
X10348280Y-20527960D01*
X10360397Y-17424273D02*
X10400397Y-17464273D01*
X10400397Y-17424273D02*
X10360397Y-17464273D01*
X10500680Y-17431471D02*
X10540680Y-17471471D01*
X10540680Y-17431471D02*
X10500680Y-17471471D01*
X10555678Y-16405450D02*
X10595678Y-16445450D01*
X10595678Y-16405450D02*
X10555678Y-16445450D01*
X10556560Y-15890560D02*
X10596560Y-15930560D01*
X10596560Y-15890560D02*
X10556560Y-15930560D01*
X10576880Y-13921330D02*
X10616880Y-13961330D01*
X10616880Y-13921330D02*
X10576880Y-13961330D01*
X10622600Y-20625120D02*
X10662600Y-20665120D01*
X10662600Y-20625120D02*
X10622600Y-20665120D01*
X10658160Y-22433600D02*
X10698160Y-22473600D01*
X10698160Y-22433600D02*
X10658160Y-22473600D01*
X10714040Y-16047750D02*
X10754040Y-16087750D01*
X10754040Y-16047750D02*
X10714040Y-16087750D01*
X10719120Y-23012720D02*
X10759120Y-23052720D01*
X10759120Y-23012720D02*
X10719120Y-23052720D01*
X10719120Y-23652800D02*
X10759120Y-23692800D01*
X10759120Y-23652800D02*
X10719120Y-23692800D01*
X10725503Y-24042657D02*
X10765503Y-24082657D01*
X10765503Y-24042657D02*
X10725503Y-24082657D01*
X10769920Y-14293710D02*
X10809920Y-14333710D01*
X10809920Y-14293710D02*
X10769920Y-14333710D01*
X10769920Y-16445450D02*
X10809920Y-16485450D01*
X10809920Y-16445450D02*
X10769920Y-16485450D01*
X10780080Y-22067840D02*
X10820080Y-22107840D01*
X10820080Y-22067840D02*
X10780080Y-22107840D01*
X10886760Y-21478550D02*
X10926760Y-21518550D01*
X10926760Y-21478550D02*
X10886760Y-21518550D01*
X10912160Y-20416840D02*
X10952160Y-20456840D01*
X10952160Y-20416840D02*
X10912160Y-20456840D01*
X10937560Y-17471471D02*
X10977560Y-17511471D01*
X10977560Y-17471471D02*
X10937560Y-17511471D01*
X10962960Y-13841330D02*
X11002960Y-13881330D01*
X11002960Y-13841330D02*
X10962960Y-13881330D01*
X10968040Y-22291360D02*
X11008040Y-22331360D01*
X11008040Y-22291360D02*
X10968040Y-22331360D01*
X10978200Y-21605560D02*
X11018200Y-21645560D01*
X11018200Y-21605560D02*
X10978200Y-21645560D01*
X11003600Y-23662960D02*
X11043600Y-23702960D01*
X11043600Y-23662960D02*
X11003600Y-23702960D01*
X11100175Y-23637207D02*
X11140175Y-23677207D01*
X11140175Y-23637207D02*
X11100175Y-23677207D01*
X11171059Y-23566739D02*
X11211059Y-23606739D01*
X11211059Y-23566739D02*
X11171059Y-23606739D01*
X11247440Y-21290600D02*
X11287440Y-21330600D01*
X11287440Y-21290600D02*
X11247440Y-21330600D01*
X11256671Y-23515158D02*
X11296671Y-23555158D01*
X11296671Y-23515158D02*
X11256671Y-23555158D01*
X11313480Y-21641120D02*
X11353480Y-21681120D01*
X11353480Y-21641120D02*
X11313480Y-21681120D01*
X11324942Y-21187698D02*
X11364942Y-21227698D01*
X11364942Y-21187698D02*
X11324942Y-21227698D01*
X11346022Y-17471471D02*
X11386022Y-17511471D01*
X11386022Y-17471471D02*
X11346022Y-17511471D01*
X11349040Y-15230160D02*
X11389040Y-15270160D01*
X11389040Y-15230160D02*
X11349040Y-15270160D01*
X11369360Y-14421270D02*
X11409360Y-14461270D01*
X11409360Y-14421270D02*
X11369360Y-14461270D01*
X11404920Y-16117700D02*
X11444920Y-16157700D01*
X11444920Y-16117700D02*
X11404920Y-16157700D01*
X11420160Y-17617760D02*
X11460160Y-17657760D01*
X11460160Y-17617760D02*
X11420160Y-17657760D01*
X11481120Y-21249960D02*
X11521120Y-21289960D01*
X11521120Y-21249960D02*
X11481120Y-21289960D01*
X11512902Y-21731258D02*
X11552902Y-21771258D01*
X11552902Y-21731258D02*
X11512902Y-21771258D01*
X11531920Y-16124240D02*
X11571920Y-16164240D01*
X11571920Y-16124240D02*
X11531920Y-16164240D01*
X11548330Y-24206520D02*
X11588330Y-24246520D01*
X11588330Y-24206520D02*
X11548330Y-24246520D01*
X11552240Y-17634600D02*
X11592240Y-17674600D01*
X11592240Y-17634600D02*
X11552240Y-17674600D01*
X11562400Y-24694200D02*
X11602400Y-24734200D01*
X11602400Y-24694200D02*
X11562400Y-24734200D01*
X11618280Y-21737640D02*
X11658280Y-21777640D01*
X11658280Y-21737640D02*
X11618280Y-21777640D01*
X11618280Y-23688360D02*
X11658280Y-23728360D01*
X11658280Y-23688360D02*
X11618280Y-23728360D01*
X11669080Y-21620800D02*
X11709080Y-21660800D01*
X11709080Y-21620800D02*
X11669080Y-21660800D01*
X11688230Y-24206520D02*
X11728230Y-24246520D01*
X11728230Y-24206520D02*
X11688230Y-24246520D01*
X11704640Y-21285520D02*
X11744640Y-21325520D01*
X11744640Y-21285520D02*
X11704640Y-21325520D01*
X11714800Y-23500400D02*
X11754800Y-23540400D01*
X11754800Y-23500400D02*
X11714800Y-23540400D01*
X11785920Y-23434360D02*
X11825920Y-23474360D01*
X11825920Y-23434360D02*
X11785920Y-23474360D01*
X11785920Y-24491000D02*
X11825920Y-24531000D01*
X11825920Y-24491000D02*
X11785920Y-24531000D01*
X11791000Y-20233960D02*
X11831000Y-20273960D01*
X11831000Y-20233960D02*
X11791000Y-20273960D01*
X11814281Y-15305871D02*
X11854281Y-15345871D01*
X11854281Y-15305871D02*
X11814281Y-15345871D01*
X11877360Y-22900960D02*
X11917360Y-22940960D01*
X11917360Y-22900960D02*
X11877360Y-22940960D01*
X11896342Y-14134218D02*
X11936342Y-14174218D01*
X11936342Y-14134218D02*
X11896342Y-14174218D01*
X11933240Y-16037650D02*
X11973240Y-16077650D01*
X11973240Y-16037650D02*
X11933240Y-16077650D01*
X11989120Y-23480080D02*
X12029120Y-23520080D01*
X12029120Y-23480080D02*
X11989120Y-23520080D01*
X11999771Y-17942389D02*
X12039771Y-17982389D01*
X12039771Y-17942389D02*
X11999771Y-17982389D01*
X12040560Y-16465350D02*
X12080560Y-16505350D01*
X12080560Y-16465350D02*
X12040560Y-16505350D01*
X12050080Y-21478560D02*
X12090080Y-21518560D01*
X12090080Y-21478560D02*
X12050080Y-21518560D01*
X12055160Y-21742720D02*
X12095160Y-21782720D01*
X12095160Y-21742720D02*
X12055160Y-21782720D01*
X12079440Y-15936280D02*
X12119440Y-15976280D01*
X12119440Y-15936280D02*
X12079440Y-15976280D01*
X12113923Y-17404192D02*
X12153923Y-17444192D01*
X12153923Y-17404192D02*
X12113923Y-17444192D01*
X12165582Y-15637898D02*
X12205582Y-15677898D01*
X12205582Y-15637898D02*
X12165582Y-15677898D01*
X12168258Y-15838422D02*
X12208258Y-15878422D01*
X12208258Y-15838422D02*
X12168258Y-15878422D01*
X12192320Y-14204000D02*
X12232320Y-14244000D01*
X12232320Y-14204000D02*
X12192320Y-14244000D01*
X12207560Y-17511080D02*
X12247560Y-17551080D01*
X12247560Y-17511080D02*
X12207560Y-17551080D01*
X12222800Y-24551960D02*
X12262800Y-24591960D01*
X12262800Y-24551960D02*
X12222800Y-24591960D01*
X12245293Y-14288758D02*
X12285293Y-14328758D01*
X12285293Y-14288758D02*
X12245293Y-14328758D01*
X12314240Y-21722400D02*
X12354240Y-21762400D01*
X12354240Y-21722400D02*
X12314240Y-21762400D01*
X12316984Y-16197700D02*
X12356984Y-16237700D01*
X12356984Y-16197700D02*
X12316984Y-16237700D01*
X12332750Y-17013240D02*
X12372750Y-17053240D01*
X12372750Y-17013240D02*
X12332750Y-17053240D01*
X12360176Y-15969210D02*
X12400176Y-16009210D01*
X12400176Y-15969210D02*
X12360176Y-16009210D01*
X12562611Y-22566229D02*
X12602611Y-22606229D01*
X12602611Y-22566229D02*
X12562611Y-22606229D01*
X12720640Y-14273950D02*
X12760640Y-14313950D01*
X12760640Y-14273950D02*
X12720640Y-14313950D01*
X12720640Y-23983000D02*
X12760640Y-24023000D01*
X12760640Y-23983000D02*
X12720640Y-24023000D01*
X12766360Y-24633240D02*
X12806360Y-24673240D01*
X12806360Y-24633240D02*
X12766360Y-24673240D01*
X12807000Y-20208560D02*
X12847000Y-20248560D01*
X12847000Y-20208560D02*
X12807000Y-20248560D01*
X12842560Y-16190280D02*
X12882560Y-16230280D01*
X12882560Y-16190280D02*
X12842560Y-16230280D01*
X12959400Y-14244640D02*
X12999400Y-14284640D01*
X12999400Y-14244640D02*
X12959400Y-14284640D01*
X12959400Y-22428520D02*
X12999400Y-22468520D01*
X12999400Y-22428520D02*
X12959400Y-22468520D01*
X12989880Y-16407550D02*
X13029880Y-16447550D01*
X13029880Y-16407550D02*
X12989880Y-16447550D01*
X13066080Y-24628160D02*
X13106080Y-24668160D01*
X13106080Y-24628160D02*
X13066080Y-24668160D01*
X13086400Y-17636800D02*
X13126400Y-17676800D01*
X13126400Y-17636800D02*
X13086400Y-17676800D01*
X13159042Y-17776762D02*
X13199042Y-17816762D01*
X13199042Y-17776762D02*
X13159042Y-17816762D01*
X13208320Y-16185200D02*
X13248320Y-16225200D01*
X13248320Y-16185200D02*
X13208320Y-16225200D01*
X13248960Y-14167110D02*
X13288960Y-14207110D01*
X13288960Y-14167110D02*
X13248960Y-14207110D01*
X13284520Y-16585350D02*
X13324520Y-16625350D01*
X13324520Y-16585350D02*
X13284520Y-16625350D01*
X13294680Y-14077000D02*
X13334680Y-14117000D01*
X13334680Y-14077000D02*
X13294680Y-14117000D01*
X13355640Y-24038880D02*
X13395640Y-24078880D01*
X13395640Y-24038880D02*
X13355640Y-24078880D01*
X13477560Y-13812840D02*
X13517560Y-13852840D01*
X13517560Y-13812840D02*
X13477560Y-13852840D01*
X13559069Y-14127110D02*
X13599069Y-14167110D01*
X13599069Y-14127110D02*
X13559069Y-14167110D01*
X13614720Y-16195360D02*
X13654720Y-16235360D01*
X13654720Y-16195360D02*
X13614720Y-16235360D01*
X13690920Y-23627400D02*
X13730920Y-23667400D01*
X13730920Y-23627400D02*
X13690920Y-23667400D01*
X13883960Y-13970320D02*
X13923960Y-14010320D01*
X13923960Y-13970320D02*
X13883960Y-14010320D01*
X13899200Y-14087110D02*
X13939200Y-14127110D01*
X13939200Y-14087110D02*
X13899200Y-14127110D01*
X14000800Y-13780500D02*
X14040800Y-13820500D01*
X14040800Y-13780500D02*
X14000800Y-13820500D01*
X14112560Y-13990640D02*
X14152560Y-14030640D01*
X14152560Y-13990640D02*
X14112560Y-14030640D01*
X14122720Y-23799000D02*
X14162720Y-23839000D01*
X14162720Y-23799000D02*
X14122720Y-23839000D01*
X14143040Y-23647720D02*
X14183040Y-23687720D01*
X14183040Y-23647720D02*
X14143040Y-23687720D01*
X14204000Y-13920690D02*
X14244000Y-13960690D01*
X14244000Y-13920690D02*
X14204000Y-13960690D01*
X14244640Y-15352080D02*
X14284640Y-15392080D01*
X14284640Y-15352080D02*
X14244640Y-15392080D01*
X14270040Y-16445400D02*
X14310040Y-16485400D01*
X14310040Y-16445400D02*
X14270040Y-16485400D01*
X14331000Y-23246400D02*
X14371000Y-23286400D01*
X14371000Y-23246400D02*
X14331000Y-23286400D01*
X14332648Y-14507152D02*
X14372648Y-14547152D01*
X14372648Y-14507152D02*
X14332648Y-14547152D01*
X14363920Y-14066840D02*
X14403920Y-14106840D01*
X14403920Y-14066840D02*
X14363920Y-14106840D01*
X14386880Y-20808000D02*
X14426880Y-20848000D01*
X14426880Y-20808000D02*
X14386880Y-20848000D01*
X14412280Y-17551720D02*
X14452280Y-17591720D01*
X14452280Y-17551720D02*
X14412280Y-17591720D01*
X14427520Y-23520720D02*
X14467520Y-23560720D01*
X14467520Y-23520720D02*
X14427520Y-23560720D01*
X14463080Y-16352840D02*
X14503080Y-16392840D01*
X14503080Y-16352840D02*
X14463080Y-16392840D01*
X14503720Y-14427010D02*
X14543720Y-14467010D01*
X14543720Y-14427010D02*
X14503720Y-14467010D01*
X14534200Y-23353080D02*
X14574200Y-23393080D01*
X14574200Y-23353080D02*
X14534200Y-23393080D01*
X14609918Y-14397253D02*
X14649918Y-14437253D01*
X14649918Y-14397253D02*
X14609918Y-14437253D01*
X14709859Y-14395897D02*
X14749859Y-14435897D01*
X14749859Y-14395897D02*
X14709859Y-14435897D01*
X14788200Y-14047110D02*
X14828200Y-14087110D01*
X14828200Y-14047110D02*
X14788200Y-14087110D01*
X14804720Y-17636800D02*
X14844720Y-17676800D01*
X14844720Y-17636800D02*
X14804720Y-17676800D01*
X14826663Y-14428887D02*
X14866663Y-14468887D01*
X14866663Y-14428887D02*
X14826663Y-14468887D01*
X14869480Y-16448650D02*
X14909480Y-16488650D01*
X14909480Y-16448650D02*
X14869480Y-16488650D01*
X14874560Y-14341160D02*
X14914560Y-14381160D01*
X14914560Y-14341160D02*
X14874560Y-14381160D01*
X14879640Y-23647720D02*
X14919640Y-23687720D01*
X14919640Y-23647720D02*
X14879640Y-23687720D01*
X14884720Y-23881400D02*
X14924720Y-23921400D01*
X14924720Y-23881400D02*
X14884720Y-23921400D01*
X14905040Y-17434880D02*
X14945040Y-17474880D01*
X14945040Y-17434880D02*
X14905040Y-17474880D01*
X14912160Y-17316000D02*
X14952160Y-17356000D01*
X14952160Y-17316000D02*
X14912160Y-17356000D01*
X14925360Y-23276880D02*
X14965360Y-23316880D01*
X14965360Y-23276880D02*
X14925360Y-23316880D01*
X14925360Y-24181120D02*
X14965360Y-24221120D01*
X14965360Y-24181120D02*
X14925360Y-24221120D01*
X15072680Y-13987370D02*
X15112680Y-14027370D01*
X15112680Y-13987370D02*
X15072680Y-14027370D01*
X15275880Y-16488650D02*
X15315880Y-16528650D01*
X15315880Y-16488650D02*
X15275880Y-16528650D01*
X15382560Y-17267240D02*
X15422560Y-17307240D01*
X15422560Y-17267240D02*
X15382560Y-17307240D01*
X15509560Y-22855240D02*
X15549560Y-22895240D01*
X15549560Y-22855240D02*
X15509560Y-22895240D01*
X15570520Y-14027370D02*
X15610520Y-14067370D01*
X15610520Y-14027370D02*
X15570520Y-14067370D01*
X15606080Y-24277640D02*
X15646080Y-24317640D01*
X15646080Y-24277640D02*
X15606080Y-24317640D01*
X15616240Y-21818920D02*
X15656240Y-21858920D01*
X15656240Y-21818920D02*
X15616240Y-21858920D01*
X15682280Y-16022640D02*
X15722280Y-16062640D01*
X15722280Y-16022640D02*
X15682280Y-16062640D01*
X15860080Y-24104920D02*
X15900080Y-24144920D01*
X15900080Y-24104920D02*
X15860080Y-24144920D01*
X15870240Y-14071920D02*
X15910240Y-14111920D01*
X15910240Y-14071920D02*
X15870240Y-14111920D01*
X15888527Y-15737717D02*
X15928527Y-15777717D01*
X15928527Y-15737717D02*
X15888527Y-15777717D01*
X15891130Y-17978440D02*
X15931130Y-18018440D01*
X15931130Y-17978440D02*
X15891130Y-18018440D01*
X15931130Y-15828133D02*
X15971130Y-15868133D01*
X15971130Y-15828133D02*
X15931130Y-15868133D01*
X15970299Y-15932387D02*
X16010299Y-15972387D01*
X16010299Y-15932387D02*
X15970299Y-15972387D01*
X15982000Y-14341160D02*
X16022000Y-14381160D01*
X16022000Y-14341160D02*
X15982000Y-14381160D01*
X16011130Y-16190280D02*
X16051130Y-16230280D01*
X16051130Y-16190280D02*
X16011130Y-16230280D01*
X16011130Y-16296960D02*
X16051130Y-16336960D01*
X16051130Y-16296960D02*
X16011130Y-16336960D01*
X16011130Y-16520480D02*
X16051130Y-16560480D01*
X16051130Y-16520480D02*
X16011130Y-16560480D01*
X16011130Y-16759240D02*
X16051130Y-16799240D01*
X16051130Y-16759240D02*
X16011130Y-16799240D01*
X16051130Y-19604903D02*
X16091130Y-19644903D01*
X16091130Y-19604903D02*
X16051130Y-19644903D01*
X16081490Y-19701546D02*
X16121490Y-19741546D01*
X16121490Y-19701546D02*
X16081490Y-19741546D01*
X16088908Y-13915610D02*
X16128908Y-13955610D01*
X16128908Y-13915610D02*
X16088908Y-13955610D01*
X16115400Y-21627050D02*
X16155400Y-21667050D01*
X16155400Y-21627050D02*
X16115400Y-21667050D01*
X16130103Y-23603083D02*
X16170103Y-23643083D01*
X16170103Y-23603083D02*
X16130103Y-23643083D01*
X16140650Y-22768880D02*
X16180650Y-22808880D01*
X16180650Y-22768880D02*
X16140650Y-22808880D01*
X16149640Y-14036360D02*
X16189640Y-14076360D01*
X16189640Y-14036360D02*
X16149640Y-14076360D01*
X16171130Y-19822480D02*
X16211130Y-19862480D01*
X16211130Y-19822480D02*
X16171130Y-19862480D01*
X16171130Y-20051080D02*
X16211130Y-20091080D01*
X16211130Y-20051080D02*
X16171130Y-20091080D01*
X16175040Y-23698520D02*
X16215040Y-23738520D01*
X16215040Y-23698520D02*
X16175040Y-23738520D01*
X16220760Y-20630200D02*
X16260760Y-20670200D01*
X16260760Y-20630200D02*
X16220760Y-20670200D01*
X16220760Y-24176040D02*
X16260760Y-24216040D01*
X16260760Y-24176040D02*
X16220760Y-24216040D01*
X16241080Y-15418120D02*
X16281080Y-15458120D01*
X16281080Y-15418120D02*
X16241080Y-15458120D01*
X5215521Y-14515798D02*
G75*
G02*
X5165521Y-14515798I-25000J0D01*
G01*
X5165521Y-14515798D02*
G75*
G02*
X5215521Y-14515798I25000J0D01*
G01*
X5215521Y-24815798D02*
G75*
G02*
X5165521Y-24815798I-25000J0D01*
G01*
X5165521Y-24815798D02*
G75*
G02*
X5215521Y-24815798I25000J0D01*
G01*
X5285815Y-14346092D02*
G75*
G02*
X5235815Y-14346092I-25000J0D01*
G01*
X5235815Y-14346092D02*
G75*
G02*
X5285815Y-14346092I25000J0D01*
G01*
X5285815Y-14685504D02*
G75*
G02*
X5235815Y-14685504I-25000J0D01*
G01*
X5235815Y-14685504D02*
G75*
G02*
X5285815Y-14685504I25000J0D01*
G01*
X5285815Y-24646092D02*
G75*
G02*
X5235815Y-24646092I-25000J0D01*
G01*
X5235815Y-24646092D02*
G75*
G02*
X5285815Y-24646092I25000J0D01*
G01*
X5285815Y-24985504D02*
G75*
G02*
X5235815Y-24985504I-25000J0D01*
G01*
X5235815Y-24985504D02*
G75*
G02*
X5285815Y-24985504I25000J0D01*
G01*
X5455521Y-14275798D02*
G75*
G02*
X5405521Y-14275798I-25000J0D01*
G01*
X5405521Y-14275798D02*
G75*
G02*
X5455521Y-14275798I25000J0D01*
G01*
X5455521Y-14755798D02*
G75*
G02*
X5405521Y-14755798I-25000J0D01*
G01*
X5405521Y-14755798D02*
G75*
G02*
X5455521Y-14755798I25000J0D01*
G01*
X5455521Y-24575798D02*
G75*
G02*
X5405521Y-24575798I-25000J0D01*
G01*
X5405521Y-24575798D02*
G75*
G02*
X5455521Y-24575798I25000J0D01*
G01*
X5455521Y-25055798D02*
G75*
G02*
X5405521Y-25055798I-25000J0D01*
G01*
X5405521Y-25055798D02*
G75*
G02*
X5455521Y-25055798I25000J0D01*
G01*
X5625226Y-14346092D02*
G75*
G02*
X5575226Y-14346092I-25000J0D01*
G01*
X5575226Y-14346092D02*
G75*
G02*
X5625226Y-14346092I25000J0D01*
G01*
X5625226Y-14685504D02*
G75*
G02*
X5575226Y-14685504I-25000J0D01*
G01*
X5575226Y-14685504D02*
G75*
G02*
X5625226Y-14685504I25000J0D01*
G01*
X5625226Y-24646092D02*
G75*
G02*
X5575226Y-24646092I-25000J0D01*
G01*
X5575226Y-24646092D02*
G75*
G02*
X5625226Y-24646092I25000J0D01*
G01*
X5625226Y-24985504D02*
G75*
G02*
X5575226Y-24985504I-25000J0D01*
G01*
X5575226Y-24985504D02*
G75*
G02*
X5625226Y-24985504I25000J0D01*
G01*
X5695521Y-14515798D02*
G75*
G02*
X5645521Y-14515798I-25000J0D01*
G01*
X5645521Y-14515798D02*
G75*
G02*
X5695521Y-14515798I25000J0D01*
G01*
X5695521Y-24815798D02*
G75*
G02*
X5645521Y-24815798I-25000J0D01*
G01*
X5645521Y-24815798D02*
G75*
G02*
X5695521Y-24815798I25000J0D01*
G01*
X15215521Y-14515798D02*
G75*
G02*
X15165521Y-14515798I-25000J0D01*
G01*
X15165521Y-14515798D02*
G75*
G02*
X15215521Y-14515798I25000J0D01*
G01*
X15215521Y-24815798D02*
G75*
G02*
X15165521Y-24815798I-25000J0D01*
G01*
X15165521Y-24815798D02*
G75*
G02*
X15215521Y-24815798I25000J0D01*
G01*
X15285815Y-14346092D02*
G75*
G02*
X15235815Y-14346092I-25000J0D01*
G01*
X15235815Y-14346092D02*
G75*
G02*
X15285815Y-14346092I25000J0D01*
G01*
X15285815Y-14685504D02*
G75*
G02*
X15235815Y-14685504I-25000J0D01*
G01*
X15235815Y-14685504D02*
G75*
G02*
X15285815Y-14685504I25000J0D01*
G01*
X15285815Y-24646092D02*
G75*
G02*
X15235815Y-24646092I-25000J0D01*
G01*
X15235815Y-24646092D02*
G75*
G02*
X15285815Y-24646092I25000J0D01*
G01*
X15285815Y-24985504D02*
G75*
G02*
X15235815Y-24985504I-25000J0D01*
G01*
X15235815Y-24985504D02*
G75*
G02*
X15285815Y-24985504I25000J0D01*
G01*
X15455521Y-14275798D02*
G75*
G02*
X15405521Y-14275798I-25000J0D01*
G01*
X15405521Y-14275798D02*
G75*
G02*
X15455521Y-14275798I25000J0D01*
G01*
X15455521Y-14755798D02*
G75*
G02*
X15405521Y-14755798I-25000J0D01*
G01*
X15405521Y-14755798D02*
G75*
G02*
X15455521Y-14755798I25000J0D01*
G01*
X15455521Y-24575798D02*
G75*
G02*
X15405521Y-24575798I-25000J0D01*
G01*
X15405521Y-24575798D02*
G75*
G02*
X15455521Y-24575798I25000J0D01*
G01*
X15455521Y-25055798D02*
G75*
G02*
X15405521Y-25055798I-25000J0D01*
G01*
X15405521Y-25055798D02*
G75*
G02*
X15455521Y-25055798I25000J0D01*
G01*
X15625226Y-14346092D02*
G75*
G02*
X15575226Y-14346092I-25000J0D01*
G01*
X15575226Y-14346092D02*
G75*
G02*
X15625226Y-14346092I25000J0D01*
G01*
X15625226Y-14685504D02*
G75*
G02*
X15575226Y-14685504I-25000J0D01*
G01*
X15575226Y-14685504D02*
G75*
G02*
X15625226Y-14685504I25000J0D01*
G01*
X15625226Y-24646092D02*
G75*
G02*
X15575226Y-24646092I-25000J0D01*
G01*
X15575226Y-24646092D02*
G75*
G02*
X15625226Y-24646092I25000J0D01*
G01*
X15625226Y-24985504D02*
G75*
G02*
X15575226Y-24985504I-25000J0D01*
G01*
X15575226Y-24985504D02*
G75*
G02*
X15625226Y-24985504I25000J0D01*
G01*
X15695521Y-14515798D02*
G75*
G02*
X15645521Y-14515798I-25000J0D01*
G01*
X15645521Y-14515798D02*
G75*
G02*
X15695521Y-14515798I25000J0D01*
G01*
X15695521Y-24815798D02*
G75*
G02*
X15645521Y-24815798I-25000J0D01*
G01*
X15645521Y-24815798D02*
G75*
G02*
X15695521Y-24815798I25000J0D01*
G01*
X6172200Y-14303840D02*
X6172200Y-14377840D01*
X6135200Y-14340840D02*
X6209200Y-14340840D01*
X6172200Y-14557840D02*
X6172200Y-14631840D01*
X6135200Y-14594840D02*
X6209200Y-14594840D01*
X6172200Y-14811840D02*
X6172200Y-14885840D01*
X6135200Y-14848840D02*
X6209200Y-14848840D01*
X6725920Y-14298760D02*
X6725920Y-14372760D01*
X6688920Y-14335760D02*
X6762920Y-14335760D01*
X6725920Y-14552760D02*
X6725920Y-14626760D01*
X6688920Y-14589760D02*
X6762920Y-14589760D01*
X6725920Y-14806760D02*
X6725920Y-14880760D01*
X6688920Y-14843760D02*
X6762920Y-14843760D01*
X7289800Y-14308920D02*
X7289800Y-14382920D01*
X7252800Y-14345920D02*
X7326800Y-14345920D01*
X7289800Y-14562920D02*
X7289800Y-14636920D01*
X7252800Y-14599920D02*
X7326800Y-14599920D01*
X7289800Y-14816920D02*
X7289800Y-14890920D01*
X7252800Y-14853920D02*
X7326800Y-14853920D01*
X7818120Y-14308920D02*
X7818120Y-14382920D01*
X7781120Y-14345920D02*
X7855120Y-14345920D01*
X7818120Y-14562920D02*
X7818120Y-14636920D01*
X7781120Y-14599920D02*
X7855120Y-14599920D01*
X7818120Y-14816920D02*
X7818120Y-14890920D01*
X7781120Y-14853920D02*
X7855120Y-14853920D01*
X8366760Y-14290769D02*
X8366760Y-14364769D01*
X8329760Y-14327769D02*
X8403760Y-14327769D01*
X8366760Y-14544769D02*
X8366760Y-14618769D01*
X8329760Y-14581769D02*
X8403760Y-14581769D01*
X8366760Y-14798769D02*
X8366760Y-14872769D01*
X8329760Y-14835769D02*
X8403760Y-14835769D01*
X8956040Y-14298760D02*
X8956040Y-14372760D01*
X8919040Y-14335760D02*
X8993040Y-14335760D01*
X8956040Y-14552760D02*
X8956040Y-14626760D01*
X8919040Y-14589760D02*
X8993040Y-14589760D01*
X8956040Y-14806760D02*
X8956040Y-14880760D01*
X8919040Y-14843760D02*
X8993040Y-14843760D01*
X9504680Y-14303840D02*
X9504680Y-14377840D01*
X9467680Y-14340840D02*
X9541680Y-14340840D01*
X9504680Y-14557840D02*
X9504680Y-14631840D01*
X9467680Y-14594840D02*
X9541680Y-14594840D01*
X9504680Y-14811840D02*
X9504680Y-14885840D01*
X9467680Y-14848840D02*
X9541680Y-14848840D01*
X10048240Y-14308920D02*
X10048240Y-14382920D01*
X10011240Y-14345920D02*
X10085240Y-14345920D01*
X10048240Y-14562920D02*
X10048240Y-14636920D01*
X10011240Y-14599920D02*
X10085240Y-14599920D01*
X10048240Y-14816920D02*
X10048240Y-14890920D01*
X10011240Y-14853920D02*
X10085240Y-14853920D01*
X5192877Y-17953837D02*
X5192877Y-17900803D01*
X5139843Y-17900803D01*
X5139843Y-17953837D01*
X5192877Y-17953837D01*
X5269077Y-17740477D02*
X5269077Y-17687443D01*
X5216043Y-17687443D01*
X5216043Y-17740477D01*
X5269077Y-17740477D01*
X5457037Y-17963997D02*
X5457037Y-17910963D01*
X5404003Y-17910963D01*
X5404003Y-17963997D01*
X5457037Y-17963997D01*
X5542476Y-17785575D02*
X5542476Y-17732541D01*
X5489442Y-17732541D01*
X5489442Y-17785575D01*
X5542476Y-17785575D01*
X7057237Y-18807277D02*
X7057237Y-18754243D01*
X7004203Y-18754243D01*
X7004203Y-18807277D01*
X7057237Y-18807277D01*
X7108037Y-17572837D02*
X7108037Y-17519803D01*
X7055003Y-17519803D01*
X7055003Y-17572837D01*
X7108037Y-17572837D01*
X7108037Y-18964757D02*
X7108037Y-18911723D01*
X7055003Y-18911723D01*
X7055003Y-18964757D01*
X7108037Y-18964757D01*
X7219797Y-18842837D02*
X7219797Y-18789803D01*
X7166763Y-18789803D01*
X7166763Y-18842837D01*
X7219797Y-18842837D01*
X7301077Y-17826837D02*
X7301077Y-17773803D01*
X7248043Y-17773803D01*
X7248043Y-17826837D01*
X7301077Y-17826837D01*
X7326477Y-17618557D02*
X7326477Y-17565523D01*
X7273443Y-17565523D01*
X7273443Y-17618557D01*
X7326477Y-17618557D01*
X9956800Y-25272360D02*
X9996800Y-25232360D01*
X9956800Y-25192360D01*
X9916800Y-25232360D01*
X9956800Y-25272360D01*
X10210800Y-25272360D02*
X10250800Y-25232360D01*
X10210800Y-25192360D01*
X10170800Y-25232360D01*
X10210800Y-25272360D01*
X10464800Y-25272360D02*
X10504800Y-25232360D01*
X10464800Y-25192360D01*
X10424800Y-25232360D01*
X10464800Y-25272360D01*
X10718800Y-25272360D02*
X10758800Y-25232360D01*
X10718800Y-25192360D01*
X10678800Y-25232360D01*
X10718800Y-25272360D01*
X10972800Y-23240360D02*
X11012800Y-23200360D01*
X10972800Y-23160360D01*
X10932800Y-23200360D01*
X10972800Y-23240360D01*
X10972800Y-25272360D02*
X11012800Y-25232360D01*
X10972800Y-25192360D01*
X10932800Y-25232360D01*
X10972800Y-25272360D01*
X11226800Y-23240360D02*
X11266800Y-23200360D01*
X11226800Y-23160360D01*
X11186800Y-23200360D01*
X11226800Y-23240360D01*
X11226800Y-25272360D02*
X11266800Y-25232360D01*
X11226800Y-25192360D01*
X11186800Y-25232360D01*
X11226800Y-25272360D01*
X11480800Y-23240360D02*
X11520800Y-23200360D01*
X11480800Y-23160360D01*
X11440800Y-23200360D01*
X11480800Y-23240360D01*
X11480800Y-25272360D02*
X11520800Y-25232360D01*
X11480800Y-25192360D01*
X11440800Y-25232360D01*
X11480800Y-25272360D01*
X11734800Y-23240360D02*
X11774800Y-23200360D01*
X11734800Y-23160360D01*
X11694800Y-23200360D01*
X11734800Y-23240360D01*
X11734800Y-25272360D02*
X11774800Y-25232360D01*
X11734800Y-25192360D01*
X11694800Y-25232360D01*
X11734800Y-25272360D01*
X11988800Y-23240360D02*
X12028800Y-23200360D01*
X11988800Y-23160360D01*
X11948800Y-23200360D01*
X11988800Y-23240360D01*
X11988800Y-25272360D02*
X12028800Y-25232360D01*
X11988800Y-25192360D01*
X11948800Y-25232360D01*
X11988800Y-25272360D01*
X12242800Y-23240360D02*
X12282800Y-23200360D01*
X12242800Y-23160360D01*
X12202800Y-23200360D01*
X12242800Y-23240360D01*
X12242800Y-25272360D02*
X12282800Y-25232360D01*
X12242800Y-25192360D01*
X12202800Y-25232360D01*
X12242800Y-25272360D01*
X12496800Y-23240360D02*
X12536800Y-23200360D01*
X12496800Y-23160360D01*
X12456800Y-23200360D01*
X12496800Y-23240360D01*
X12496800Y-25272360D02*
X12536800Y-25232360D01*
X12496800Y-25192360D01*
X12456800Y-25232360D01*
X12496800Y-25272360D01*
X12750800Y-23240360D02*
X12790800Y-23200360D01*
X12750800Y-23160360D01*
X12710800Y-23200360D01*
X12750800Y-23240360D01*
X12750800Y-25272360D02*
X12790800Y-25232360D01*
X12750800Y-25192360D01*
X12710800Y-25232360D01*
X12750800Y-25272360D01*
X13004800Y-23240360D02*
X13044800Y-23200360D01*
X13004800Y-23160360D01*
X12964800Y-23200360D01*
X13004800Y-23240360D01*
X13004800Y-25272360D02*
X13044800Y-25232360D01*
X13004800Y-25192360D01*
X12964800Y-25232360D01*
X13004800Y-25272360D01*
X13258800Y-23240360D02*
X13298800Y-23200360D01*
X13258800Y-23160360D01*
X13218800Y-23200360D01*
X13258800Y-23240360D01*
X13258800Y-25272360D02*
X13298800Y-25232360D01*
X13258800Y-25192360D01*
X13218800Y-25232360D01*
X13258800Y-25272360D01*
X13512800Y-23240360D02*
X13552800Y-23200360D01*
X13512800Y-23160360D01*
X13472800Y-23200360D01*
X13512800Y-23240360D01*
X13512800Y-25272360D02*
X13552800Y-25232360D01*
X13512800Y-25192360D01*
X13472800Y-25232360D01*
X13512800Y-25272360D01*
X13766800Y-23240360D02*
X13806800Y-23200360D01*
X13766800Y-23160360D01*
X13726800Y-23200360D01*
X13766800Y-23240360D01*
X13766800Y-25272360D02*
X13806800Y-25232360D01*
X13766800Y-25192360D01*
X13726800Y-25232360D01*
X13766800Y-25272360D01*
D12*
X11328200Y-20431280D02*
X11430200Y-20533280D01*
X11430200Y-20431280D02*
X11328200Y-20533280D01*
X11430200Y-20482280D02*
G75*
G02*
X11328200Y-20482280I-51000J0D01*
G01*
X11328200Y-20482280D02*
G75*
G02*
X11430200Y-20482280I51000J0D01*
G01*
X11328200Y-20731280D02*
X11430200Y-20833280D01*
X11430200Y-20731280D02*
X11328200Y-20833280D01*
X11430200Y-20782280D02*
G75*
G02*
X11328200Y-20782280I-51000J0D01*
G01*
X11328200Y-20782280D02*
G75*
G02*
X11430200Y-20782280I51000J0D01*
G01*
D13*
X5157240Y-20077200D02*
X5287240Y-20207200D01*
X5287240Y-20077200D02*
X5157240Y-20207200D01*
X5222240Y-20077200D02*
X5222240Y-20207200D01*
X5157240Y-20142200D02*
X5287240Y-20142200D01*
X5157240Y-20839200D02*
X5287240Y-20969200D01*
X5287240Y-20839200D02*
X5157240Y-20969200D01*
X5222240Y-20839200D02*
X5222240Y-20969200D01*
X5157240Y-20904200D02*
X5287240Y-20904200D01*
X5157240Y-21332200D02*
X5287240Y-21462200D01*
X5287240Y-21332200D02*
X5157240Y-21462200D01*
X5222240Y-21332200D02*
X5222240Y-21462200D01*
X5157240Y-21397200D02*
X5287240Y-21397200D01*
X5157240Y-22094200D02*
X5287240Y-22224200D01*
X5287240Y-22094200D02*
X5157240Y-22224200D01*
X5222240Y-22094200D02*
X5222240Y-22224200D01*
X5157240Y-22159200D02*
X5287240Y-22159200D01*
X5157240Y-22587200D02*
X5287240Y-22717200D01*
X5287240Y-22587200D02*
X5157240Y-22717200D01*
X5222240Y-22587200D02*
X5222240Y-22717200D01*
X5157240Y-22652200D02*
X5287240Y-22652200D01*
X5157240Y-23349200D02*
X5287240Y-23479200D01*
X5287240Y-23349200D02*
X5157240Y-23479200D01*
X5222240Y-23349200D02*
X5222240Y-23479200D01*
X5157240Y-23414200D02*
X5287240Y-23414200D01*
X6173240Y-20839200D02*
X6303240Y-20969200D01*
X6303240Y-20839200D02*
X6173240Y-20969200D01*
X6238240Y-20839200D02*
X6238240Y-20969200D01*
X6173240Y-20904200D02*
X6303240Y-20904200D01*
X6173240Y-22094200D02*
X6303240Y-22224200D01*
X6303240Y-22094200D02*
X6173240Y-22224200D01*
X6238240Y-22094200D02*
X6238240Y-22224200D01*
X6173240Y-22159200D02*
X6303240Y-22159200D01*
X6173240Y-23349200D02*
X6303240Y-23479200D01*
X6303240Y-23349200D02*
X6173240Y-23479200D01*
X6238240Y-23349200D02*
X6238240Y-23479200D01*
X6173240Y-23414200D02*
X6303240Y-23414200D01*
X6935240Y-20839200D02*
X7065240Y-20969200D01*
X7065240Y-20839200D02*
X6935240Y-20969200D01*
X7000240Y-20839200D02*
X7000240Y-20969200D01*
X6935240Y-20904200D02*
X7065240Y-20904200D01*
X6935240Y-22094200D02*
X7065240Y-22224200D01*
X7065240Y-22094200D02*
X6935240Y-22224200D01*
X7000240Y-22094200D02*
X7000240Y-22224200D01*
X6935240Y-22159200D02*
X7065240Y-22159200D01*
X6935240Y-23349200D02*
X7065240Y-23479200D01*
X7065240Y-23349200D02*
X6935240Y-23479200D01*
X7000240Y-23349200D02*
X7000240Y-23479200D01*
X6935240Y-23414200D02*
X7065240Y-23414200D01*
D14*
X5164080Y-18248120D02*
X5342080Y-18426120D01*
X5342080Y-18248120D02*
X5164080Y-18426120D01*
X5316013Y-18400053D02*
X5316013Y-18274187D01*
X5190147Y-18274187D01*
X5190147Y-18400053D01*
X5316013Y-18400053D01*
X5164080Y-19240120D02*
X5342080Y-19418120D01*
X5342080Y-19240120D02*
X5164080Y-19418120D01*
X5316013Y-19392053D02*
X5316013Y-19266187D01*
X5190147Y-19266187D01*
X5190147Y-19392053D01*
X5316013Y-19392053D01*
X5504080Y-18248120D02*
X5682080Y-18426120D01*
X5682080Y-18248120D02*
X5504080Y-18426120D01*
X5656013Y-18400053D02*
X5656013Y-18274187D01*
X5530147Y-18274187D01*
X5530147Y-18400053D01*
X5656013Y-18400053D01*
X5504080Y-19240120D02*
X5682080Y-19418120D01*
X5682080Y-19240120D02*
X5504080Y-19418120D01*
X5656013Y-19392053D02*
X5656013Y-19266187D01*
X5530147Y-19266187D01*
X5530147Y-19392053D01*
X5656013Y-19392053D01*
X6164080Y-18248120D02*
X6342080Y-18426120D01*
X6342080Y-18248120D02*
X6164080Y-18426120D01*
X6316013Y-18400053D02*
X6316013Y-18274187D01*
X6190147Y-18274187D01*
X6190147Y-18400053D01*
X6316013Y-18400053D01*
X6164080Y-19240120D02*
X6342080Y-19418120D01*
X6342080Y-19240120D02*
X6164080Y-19418120D01*
X6316013Y-19392053D02*
X6316013Y-19266187D01*
X6190147Y-19266187D01*
X6190147Y-19392053D01*
X6316013Y-19392053D01*
X6504080Y-18248120D02*
X6682080Y-18426120D01*
X6682080Y-18248120D02*
X6504080Y-18426120D01*
X6656013Y-18400053D02*
X6656013Y-18274187D01*
X6530147Y-18274187D01*
X6530147Y-18400053D01*
X6656013Y-18400053D01*
X6504080Y-19240120D02*
X6682080Y-19418120D01*
X6682080Y-19240120D02*
X6504080Y-19418120D01*
X6656013Y-19392053D02*
X6656013Y-19266187D01*
X6530147Y-19266187D01*
X6530147Y-19392053D01*
X6656013Y-19392053D01*
X7164080Y-18248120D02*
X7342080Y-18426120D01*
X7342080Y-18248120D02*
X7164080Y-18426120D01*
X7316013Y-18400053D02*
X7316013Y-18274187D01*
X7190147Y-18274187D01*
X7190147Y-18400053D01*
X7316013Y-18400053D01*
X7164080Y-19240120D02*
X7342080Y-19418120D01*
X7342080Y-19240120D02*
X7164080Y-19418120D01*
X7316013Y-19392053D02*
X7316013Y-19266187D01*
X7190147Y-19266187D01*
X7190147Y-19392053D01*
X7316013Y-19392053D01*
X7504080Y-18248120D02*
X7682080Y-18426120D01*
X7682080Y-18248120D02*
X7504080Y-18426120D01*
X7656013Y-18400053D02*
X7656013Y-18274187D01*
X7530147Y-18274187D01*
X7530147Y-18400053D01*
X7656013Y-18400053D01*
X7504080Y-19240120D02*
X7682080Y-19418120D01*
X7682080Y-19240120D02*
X7504080Y-19418120D01*
X7656013Y-19392053D02*
X7656013Y-19266187D01*
X7530147Y-19266187D01*
X7530147Y-19392053D01*
X7656013Y-19392053D01*
X8099760Y-20217600D02*
X8277760Y-20395600D01*
X8277760Y-20217600D02*
X8099760Y-20395600D01*
X8251693Y-20369533D02*
X8251693Y-20243667D01*
X8125827Y-20243667D01*
X8125827Y-20369533D01*
X8251693Y-20369533D01*
X8099760Y-21209600D02*
X8277760Y-21387600D01*
X8277760Y-21209600D02*
X8099760Y-21387600D01*
X8251693Y-21361533D02*
X8251693Y-21235667D01*
X8125827Y-21235667D01*
X8125827Y-21361533D01*
X8251693Y-21361533D01*
X8164080Y-18248120D02*
X8342080Y-18426120D01*
X8342080Y-18248120D02*
X8164080Y-18426120D01*
X8316013Y-18400053D02*
X8316013Y-18274187D01*
X8190147Y-18274187D01*
X8190147Y-18400053D01*
X8316013Y-18400053D01*
X8164080Y-19240120D02*
X8342080Y-19418120D01*
X8342080Y-19240120D02*
X8164080Y-19418120D01*
X8316013Y-19392053D02*
X8316013Y-19266187D01*
X8190147Y-19266187D01*
X8190147Y-19392053D01*
X8316013Y-19392053D01*
X8439760Y-20217600D02*
X8617760Y-20395600D01*
X8617760Y-20217600D02*
X8439760Y-20395600D01*
X8591693Y-20369533D02*
X8591693Y-20243667D01*
X8465827Y-20243667D01*
X8465827Y-20369533D01*
X8591693Y-20369533D01*
X8439760Y-21209600D02*
X8617760Y-21387600D01*
X8617760Y-21209600D02*
X8439760Y-21387600D01*
X8591693Y-21361533D02*
X8591693Y-21235667D01*
X8465827Y-21235667D01*
X8465827Y-21361533D01*
X8591693Y-21361533D01*
X8504080Y-18248120D02*
X8682080Y-18426120D01*
X8682080Y-18248120D02*
X8504080Y-18426120D01*
X8656013Y-18400053D02*
X8656013Y-18274187D01*
X8530147Y-18274187D01*
X8530147Y-18400053D01*
X8656013Y-18400053D01*
X8504080Y-19240120D02*
X8682080Y-19418120D01*
X8682080Y-19240120D02*
X8504080Y-19418120D01*
X8656013Y-19392053D02*
X8656013Y-19266187D01*
X8530147Y-19266187D01*
X8530147Y-19392053D01*
X8656013Y-19392053D01*
X9099760Y-20217600D02*
X9277760Y-20395600D01*
X9277760Y-20217600D02*
X9099760Y-20395600D01*
X9251693Y-20369533D02*
X9251693Y-20243667D01*
X9125827Y-20243667D01*
X9125827Y-20369533D01*
X9251693Y-20369533D01*
X9099760Y-21209600D02*
X9277760Y-21387600D01*
X9277760Y-21209600D02*
X9099760Y-21387600D01*
X9251693Y-21361533D02*
X9251693Y-21235667D01*
X9125827Y-21235667D01*
X9125827Y-21361533D01*
X9251693Y-21361533D01*
X9164080Y-18248120D02*
X9342080Y-18426120D01*
X9342080Y-18248120D02*
X9164080Y-18426120D01*
X9316013Y-18400053D02*
X9316013Y-18274187D01*
X9190147Y-18274187D01*
X9190147Y-18400053D01*
X9316013Y-18400053D01*
X9164080Y-19240120D02*
X9342080Y-19418120D01*
X9342080Y-19240120D02*
X9164080Y-19418120D01*
X9316013Y-19392053D02*
X9316013Y-19266187D01*
X9190147Y-19266187D01*
X9190147Y-19392053D01*
X9316013Y-19392053D01*
X9439760Y-20217600D02*
X9617760Y-20395600D01*
X9617760Y-20217600D02*
X9439760Y-20395600D01*
X9591693Y-20369533D02*
X9591693Y-20243667D01*
X9465827Y-20243667D01*
X9465827Y-20369533D01*
X9591693Y-20369533D01*
X9439760Y-21209600D02*
X9617760Y-21387600D01*
X9617760Y-21209600D02*
X9439760Y-21387600D01*
X9591693Y-21361533D02*
X9591693Y-21235667D01*
X9465827Y-21235667D01*
X9465827Y-21361533D01*
X9591693Y-21361533D01*
X9504080Y-18248120D02*
X9682080Y-18426120D01*
X9682080Y-18248120D02*
X9504080Y-18426120D01*
X9656013Y-18400053D02*
X9656013Y-18274187D01*
X9530147Y-18274187D01*
X9530147Y-18400053D01*
X9656013Y-18400053D01*
X9504080Y-19240120D02*
X9682080Y-19418120D01*
X9682080Y-19240120D02*
X9504080Y-19418120D01*
X9656013Y-19392053D02*
X9656013Y-19266187D01*
X9530147Y-19266187D01*
X9530147Y-19392053D01*
X9656013Y-19392053D01*
X10099760Y-20217600D02*
X10277760Y-20395600D01*
X10277760Y-20217600D02*
X10099760Y-20395600D01*
X10251693Y-20369533D02*
X10251693Y-20243667D01*
X10125827Y-20243667D01*
X10125827Y-20369533D01*
X10251693Y-20369533D01*
X10099760Y-21209600D02*
X10277760Y-21387600D01*
X10277760Y-21209600D02*
X10099760Y-21387600D01*
X10251693Y-21361533D02*
X10251693Y-21235667D01*
X10125827Y-21235667D01*
X10125827Y-21361533D01*
X10251693Y-21361533D01*
X10164080Y-18248120D02*
X10342080Y-18426120D01*
X10342080Y-18248120D02*
X10164080Y-18426120D01*
X10316013Y-18400053D02*
X10316013Y-18274187D01*
X10190147Y-18274187D01*
X10190147Y-18400053D01*
X10316013Y-18400053D01*
X10164080Y-19240120D02*
X10342080Y-19418120D01*
X10342080Y-19240120D02*
X10164080Y-19418120D01*
X10316013Y-19392053D02*
X10316013Y-19266187D01*
X10190147Y-19266187D01*
X10190147Y-19392053D01*
X10316013Y-19392053D01*
X10439760Y-20217600D02*
X10617760Y-20395600D01*
X10617760Y-20217600D02*
X10439760Y-20395600D01*
X10591693Y-20369533D02*
X10591693Y-20243667D01*
X10465827Y-20243667D01*
X10465827Y-20369533D01*
X10591693Y-20369533D01*
X10439760Y-21209600D02*
X10617760Y-21387600D01*
X10617760Y-21209600D02*
X10439760Y-21387600D01*
X10591693Y-21361533D02*
X10591693Y-21235667D01*
X10465827Y-21235667D01*
X10465827Y-21361533D01*
X10591693Y-21361533D01*
X10504080Y-18248120D02*
X10682080Y-18426120D01*
X10682080Y-18248120D02*
X10504080Y-18426120D01*
X10656013Y-18400053D02*
X10656013Y-18274187D01*
X10530147Y-18274187D01*
X10530147Y-18400053D01*
X10656013Y-18400053D01*
X10504080Y-19240120D02*
X10682080Y-19418120D01*
X10682080Y-19240120D02*
X10504080Y-19418120D01*
X10656013Y-19392053D02*
X10656013Y-19266187D01*
X10530147Y-19266187D01*
X10530147Y-19392053D01*
X10656013Y-19392053D01*
X11164080Y-18248120D02*
X11342080Y-18426120D01*
X11342080Y-18248120D02*
X11164080Y-18426120D01*
X11316013Y-18400053D02*
X11316013Y-18274187D01*
X11190147Y-18274187D01*
X11190147Y-18400053D01*
X11316013Y-18400053D01*
X11164080Y-19240120D02*
X11342080Y-19418120D01*
X11342080Y-19240120D02*
X11164080Y-19418120D01*
X11316013Y-19392053D02*
X11316013Y-19266187D01*
X11190147Y-19266187D01*
X11190147Y-19392053D01*
X11316013Y-19392053D01*
X11504080Y-18248120D02*
X11682080Y-18426120D01*
X11682080Y-18248120D02*
X11504080Y-18426120D01*
X11656013Y-18400053D02*
X11656013Y-18274187D01*
X11530147Y-18274187D01*
X11530147Y-18400053D01*
X11656013Y-18400053D01*
X11504080Y-19240120D02*
X11682080Y-19418120D01*
X11682080Y-19240120D02*
X11504080Y-19418120D01*
X11656013Y-19392053D02*
X11656013Y-19266187D01*
X11530147Y-19266187D01*
X11530147Y-19392053D01*
X11656013Y-19392053D01*
X12164080Y-18248120D02*
X12342080Y-18426120D01*
X12342080Y-18248120D02*
X12164080Y-18426120D01*
X12316013Y-18400053D02*
X12316013Y-18274187D01*
X12190147Y-18274187D01*
X12190147Y-18400053D01*
X12316013Y-18400053D01*
X12164080Y-19240120D02*
X12342080Y-19418120D01*
X12342080Y-19240120D02*
X12164080Y-19418120D01*
X12316013Y-19392053D02*
X12316013Y-19266187D01*
X12190147Y-19266187D01*
X12190147Y-19392053D01*
X12316013Y-19392053D01*
X12504080Y-18248120D02*
X12682080Y-18426120D01*
X12682080Y-18248120D02*
X12504080Y-18426120D01*
X12656013Y-18400053D02*
X12656013Y-18274187D01*
X12530147Y-18274187D01*
X12530147Y-18400053D01*
X12656013Y-18400053D01*
X12504080Y-19240120D02*
X12682080Y-19418120D01*
X12682080Y-19240120D02*
X12504080Y-19418120D01*
X12656013Y-19392053D02*
X12656013Y-19266187D01*
X12530147Y-19266187D01*
X12530147Y-19392053D01*
X12656013Y-19392053D01*
X13164080Y-18248120D02*
X13342080Y-18426120D01*
X13342080Y-18248120D02*
X13164080Y-18426120D01*
X13316013Y-18400053D02*
X13316013Y-18274187D01*
X13190147Y-18274187D01*
X13190147Y-18400053D01*
X13316013Y-18400053D01*
X13164080Y-19240120D02*
X13342080Y-19418120D01*
X13342080Y-19240120D02*
X13164080Y-19418120D01*
X13316013Y-19392053D02*
X13316013Y-19266187D01*
X13190147Y-19266187D01*
X13190147Y-19392053D01*
X13316013Y-19392053D01*
X13504080Y-18248120D02*
X13682080Y-18426120D01*
X13682080Y-18248120D02*
X13504080Y-18426120D01*
X13656013Y-18400053D02*
X13656013Y-18274187D01*
X13530147Y-18274187D01*
X13530147Y-18400053D01*
X13656013Y-18400053D01*
X13504080Y-19240120D02*
X13682080Y-19418120D01*
X13682080Y-19240120D02*
X13504080Y-19418120D01*
X13656013Y-19392053D02*
X13656013Y-19266187D01*
X13530147Y-19266187D01*
X13530147Y-19392053D01*
X13656013Y-19392053D01*
X14164080Y-18248120D02*
X14342080Y-18426120D01*
X14342080Y-18248120D02*
X14164080Y-18426120D01*
X14316013Y-18400053D02*
X14316013Y-18274187D01*
X14190147Y-18274187D01*
X14190147Y-18400053D01*
X14316013Y-18400053D01*
X14164080Y-19240120D02*
X14342080Y-19418120D01*
X14342080Y-19240120D02*
X14164080Y-19418120D01*
X14316013Y-19392053D02*
X14316013Y-19266187D01*
X14190147Y-19266187D01*
X14190147Y-19392053D01*
X14316013Y-19392053D01*
X14504080Y-18248120D02*
X14682080Y-18426120D01*
X14682080Y-18248120D02*
X14504080Y-18426120D01*
X14656013Y-18400053D02*
X14656013Y-18274187D01*
X14530147Y-18274187D01*
X14530147Y-18400053D01*
X14656013Y-18400053D01*
X14504080Y-19240120D02*
X14682080Y-19418120D01*
X14682080Y-19240120D02*
X14504080Y-19418120D01*
X14656013Y-19392053D02*
X14656013Y-19266187D01*
X14530147Y-19266187D01*
X14530147Y-19392053D01*
X14656013Y-19392053D01*
D15*
X5270521Y-14355798D02*
X5590521Y-14675798D01*
X5590521Y-14355798D02*
X5270521Y-14675798D01*
X5430521Y-14675798D02*
X5590521Y-14515798D01*
X5430521Y-14355798D01*
X5270521Y-14515798D01*
X5430521Y-14675798D01*
X5270521Y-24655798D02*
X5590521Y-24975798D01*
X5590521Y-24655798D02*
X5270521Y-24975798D01*
X5430521Y-24975798D02*
X5590521Y-24815798D01*
X5430521Y-24655798D01*
X5270521Y-24815798D01*
X5430521Y-24975798D01*
X15270521Y-14355798D02*
X15590521Y-14675798D01*
X15590521Y-14355798D02*
X15270521Y-14675798D01*
X15430521Y-14675798D02*
X15590521Y-14515798D01*
X15430521Y-14355798D01*
X15270521Y-14515798D01*
X15430521Y-14675798D01*
X15270521Y-24655798D02*
X15590521Y-24975798D01*
X15590521Y-24655798D02*
X15270521Y-24975798D01*
X15430521Y-24975798D02*
X15590521Y-24815798D01*
X15430521Y-24655798D01*
X15270521Y-24815798D01*
X15430521Y-24975798D01*
D11*
X4386792Y-25731788D02*
X4386792Y-25531788D01*
X4386792Y-25531788D02*
X4434411Y-25531788D01*
X4434411Y-25531788D02*
X4462982Y-25541312D01*
X4462982Y-25541312D02*
X4482030Y-25560359D01*
X4482030Y-25560359D02*
X4491554Y-25579407D01*
X4491554Y-25579407D02*
X4501077Y-25617502D01*
X4501077Y-25617502D02*
X4501077Y-25646074D01*
X4501077Y-25646074D02*
X4491554Y-25684169D01*
X4491554Y-25684169D02*
X4482030Y-25703216D01*
X4482030Y-25703216D02*
X4462982Y-25722264D01*
X4462982Y-25722264D02*
X4434411Y-25731788D01*
X4434411Y-25731788D02*
X4386792Y-25731788D01*
X4586792Y-25731788D02*
X4586792Y-25598455D01*
X4586792Y-25636550D02*
X4596316Y-25617502D01*
X4596316Y-25617502D02*
X4605839Y-25607978D01*
X4605839Y-25607978D02*
X4624887Y-25598455D01*
X4624887Y-25598455D02*
X4643935Y-25598455D01*
X4710601Y-25731788D02*
X4710601Y-25598455D01*
X4710601Y-25531788D02*
X4701077Y-25541312D01*
X4701077Y-25541312D02*
X4710601Y-25550836D01*
X4710601Y-25550836D02*
X4720125Y-25541312D01*
X4720125Y-25541312D02*
X4710601Y-25531788D01*
X4710601Y-25531788D02*
X4710601Y-25550836D01*
X4834411Y-25731788D02*
X4815363Y-25722264D01*
X4815363Y-25722264D02*
X4805839Y-25703216D01*
X4805839Y-25703216D02*
X4805839Y-25531788D01*
X4939173Y-25731788D02*
X4920125Y-25722264D01*
X4920125Y-25722264D02*
X4910601Y-25703216D01*
X4910601Y-25703216D02*
X4910601Y-25531788D01*
X5167744Y-25731788D02*
X5167744Y-25531788D01*
X5167744Y-25531788D02*
X5234411Y-25674645D01*
X5234411Y-25674645D02*
X5301077Y-25531788D01*
X5301077Y-25531788D02*
X5301077Y-25731788D01*
X5482030Y-25731788D02*
X5482030Y-25627026D01*
X5482030Y-25627026D02*
X5472506Y-25607978D01*
X5472506Y-25607978D02*
X5453458Y-25598455D01*
X5453458Y-25598455D02*
X5415363Y-25598455D01*
X5415363Y-25598455D02*
X5396316Y-25607978D01*
X5482030Y-25722264D02*
X5462982Y-25731788D01*
X5462982Y-25731788D02*
X5415363Y-25731788D01*
X5415363Y-25731788D02*
X5396316Y-25722264D01*
X5396316Y-25722264D02*
X5386792Y-25703216D01*
X5386792Y-25703216D02*
X5386792Y-25684169D01*
X5386792Y-25684169D02*
X5396316Y-25665121D01*
X5396316Y-25665121D02*
X5415363Y-25655597D01*
X5415363Y-25655597D02*
X5462982Y-25655597D01*
X5462982Y-25655597D02*
X5482030Y-25646074D01*
X5577268Y-25598455D02*
X5577268Y-25798455D01*
X5577268Y-25607978D02*
X5596315Y-25598455D01*
X5596315Y-25598455D02*
X5634411Y-25598455D01*
X5634411Y-25598455D02*
X5653458Y-25607978D01*
X5653458Y-25607978D02*
X5662982Y-25617502D01*
X5662982Y-25617502D02*
X5672506Y-25636550D01*
X5672506Y-25636550D02*
X5672506Y-25693693D01*
X5672506Y-25693693D02*
X5662982Y-25712740D01*
X5662982Y-25712740D02*
X5653458Y-25722264D01*
X5653458Y-25722264D02*
X5634411Y-25731788D01*
X5634411Y-25731788D02*
X5596315Y-25731788D01*
X5596315Y-25731788D02*
X5577268Y-25722264D01*
X5758220Y-25712740D02*
X5767744Y-25722264D01*
X5767744Y-25722264D02*
X5758220Y-25731788D01*
X5758220Y-25731788D02*
X5748696Y-25722264D01*
X5748696Y-25722264D02*
X5758220Y-25712740D01*
X5758220Y-25712740D02*
X5758220Y-25731788D01*
X5758220Y-25607978D02*
X5767744Y-25617502D01*
X5767744Y-25617502D02*
X5758220Y-25627026D01*
X5758220Y-25627026D02*
X5748696Y-25617502D01*
X5748696Y-25617502D02*
X5758220Y-25607978D01*
X5758220Y-25607978D02*
X5758220Y-25627026D01*
D10*
X4086015Y-26040304D02*
X4126015Y-26080304D01*
X4126015Y-26040304D02*
X4086015Y-26080304D01*
D11*
X4424887Y-25951788D02*
X4443935Y-25951788D01*
X4443935Y-25951788D02*
X4462982Y-25961312D01*
X4462982Y-25961312D02*
X4472506Y-25970836D01*
X4472506Y-25970836D02*
X4482030Y-25989883D01*
X4482030Y-25989883D02*
X4491554Y-26027978D01*
X4491554Y-26027978D02*
X4491554Y-26075597D01*
X4491554Y-26075597D02*
X4482030Y-26113693D01*
X4482030Y-26113693D02*
X4472506Y-26132740D01*
X4472506Y-26132740D02*
X4462982Y-26142264D01*
X4462982Y-26142264D02*
X4443935Y-26151788D01*
X4443935Y-26151788D02*
X4424887Y-26151788D01*
X4424887Y-26151788D02*
X4405839Y-26142264D01*
X4405839Y-26142264D02*
X4396316Y-26132740D01*
X4396316Y-26132740D02*
X4386792Y-26113693D01*
X4386792Y-26113693D02*
X4377268Y-26075597D01*
X4377268Y-26075597D02*
X4377268Y-26027978D01*
X4377268Y-26027978D02*
X4386792Y-25989883D01*
X4386792Y-25989883D02*
X4396316Y-25970836D01*
X4396316Y-25970836D02*
X4405839Y-25961312D01*
X4405839Y-25961312D02*
X4424887Y-25951788D01*
X4577268Y-26132740D02*
X4586792Y-26142264D01*
X4586792Y-26142264D02*
X4577268Y-26151788D01*
X4577268Y-26151788D02*
X4567744Y-26142264D01*
X4567744Y-26142264D02*
X4577268Y-26132740D01*
X4577268Y-26132740D02*
X4577268Y-26151788D01*
X4758220Y-26018455D02*
X4758220Y-26151788D01*
X4710601Y-25942264D02*
X4662982Y-26085121D01*
X4662982Y-26085121D02*
X4786792Y-26085121D01*
X4901077Y-25951788D02*
X4920125Y-25951788D01*
X4920125Y-25951788D02*
X4939173Y-25961312D01*
X4939173Y-25961312D02*
X4948697Y-25970836D01*
X4948697Y-25970836D02*
X4958220Y-25989883D01*
X4958220Y-25989883D02*
X4967744Y-26027978D01*
X4967744Y-26027978D02*
X4967744Y-26075597D01*
X4967744Y-26075597D02*
X4958220Y-26113693D01*
X4958220Y-26113693D02*
X4948697Y-26132740D01*
X4948697Y-26132740D02*
X4939173Y-26142264D01*
X4939173Y-26142264D02*
X4920125Y-26151788D01*
X4920125Y-26151788D02*
X4901077Y-26151788D01*
X4901077Y-26151788D02*
X4882030Y-26142264D01*
X4882030Y-26142264D02*
X4872506Y-26132740D01*
X4872506Y-26132740D02*
X4862982Y-26113693D01*
X4862982Y-26113693D02*
X4853458Y-26075597D01*
X4853458Y-26075597D02*
X4853458Y-26027978D01*
X4853458Y-26027978D02*
X4862982Y-25989883D01*
X4862982Y-25989883D02*
X4872506Y-25970836D01*
X4872506Y-25970836D02*
X4882030Y-25961312D01*
X4882030Y-25961312D02*
X4901077Y-25951788D01*
X5091554Y-25951788D02*
X5110601Y-25951788D01*
X5110601Y-25951788D02*
X5129649Y-25961312D01*
X5129649Y-25961312D02*
X5139173Y-25970836D01*
X5139173Y-25970836D02*
X5148697Y-25989883D01*
X5148697Y-25989883D02*
X5158220Y-26027978D01*
X5158220Y-26027978D02*
X5158220Y-26075597D01*
X5158220Y-26075597D02*
X5148697Y-26113693D01*
X5148697Y-26113693D02*
X5139173Y-26132740D01*
X5139173Y-26132740D02*
X5129649Y-26142264D01*
X5129649Y-26142264D02*
X5110601Y-26151788D01*
X5110601Y-26151788D02*
X5091554Y-26151788D01*
X5091554Y-26151788D02*
X5072506Y-26142264D01*
X5072506Y-26142264D02*
X5062982Y-26132740D01*
X5062982Y-26132740D02*
X5053458Y-26113693D01*
X5053458Y-26113693D02*
X5043935Y-26075597D01*
X5043935Y-26075597D02*
X5043935Y-26027978D01*
X5043935Y-26027978D02*
X5053458Y-25989883D01*
X5053458Y-25989883D02*
X5062982Y-25970836D01*
X5062982Y-25970836D02*
X5072506Y-25961312D01*
X5072506Y-25961312D02*
X5091554Y-25951788D01*
X5243935Y-26151788D02*
X5243935Y-26018455D01*
X5243935Y-26037502D02*
X5253458Y-26027978D01*
X5253458Y-26027978D02*
X5272506Y-26018455D01*
X5272506Y-26018455D02*
X5301078Y-26018455D01*
X5301078Y-26018455D02*
X5320125Y-26027978D01*
X5320125Y-26027978D02*
X5329649Y-26047026D01*
X5329649Y-26047026D02*
X5329649Y-26151788D01*
X5329649Y-26047026D02*
X5339173Y-26027978D01*
X5339173Y-26027978D02*
X5358220Y-26018455D01*
X5358220Y-26018455D02*
X5386792Y-26018455D01*
X5386792Y-26018455D02*
X5405839Y-26027978D01*
X5405839Y-26027978D02*
X5415363Y-26047026D01*
X5415363Y-26047026D02*
X5415363Y-26151788D01*
X5510601Y-26151788D02*
X5510601Y-26018455D01*
X5510601Y-26037502D02*
X5520125Y-26027978D01*
X5520125Y-26027978D02*
X5539173Y-26018455D01*
X5539173Y-26018455D02*
X5567744Y-26018455D01*
X5567744Y-26018455D02*
X5586792Y-26027978D01*
X5586792Y-26027978D02*
X5596316Y-26047026D01*
X5596316Y-26047026D02*
X5596316Y-26151788D01*
X5596316Y-26047026D02*
X5605839Y-26027978D01*
X5605839Y-26027978D02*
X5624887Y-26018455D01*
X5624887Y-26018455D02*
X5653458Y-26018455D01*
X5653458Y-26018455D02*
X5672506Y-26027978D01*
X5672506Y-26027978D02*
X5682030Y-26047026D01*
X5682030Y-26047026D02*
X5682030Y-26151788D01*
X6072506Y-25942264D02*
X5901078Y-26199407D01*
X6329649Y-25951788D02*
X6348697Y-25951788D01*
X6348697Y-25951788D02*
X6367744Y-25961312D01*
X6367744Y-25961312D02*
X6377268Y-25970836D01*
X6377268Y-25970836D02*
X6386792Y-25989883D01*
X6386792Y-25989883D02*
X6396316Y-26027978D01*
X6396316Y-26027978D02*
X6396316Y-26075597D01*
X6396316Y-26075597D02*
X6386792Y-26113693D01*
X6386792Y-26113693D02*
X6377268Y-26132740D01*
X6377268Y-26132740D02*
X6367744Y-26142264D01*
X6367744Y-26142264D02*
X6348697Y-26151788D01*
X6348697Y-26151788D02*
X6329649Y-26151788D01*
X6329649Y-26151788D02*
X6310601Y-26142264D01*
X6310601Y-26142264D02*
X6301078Y-26132740D01*
X6301078Y-26132740D02*
X6291554Y-26113693D01*
X6291554Y-26113693D02*
X6282030Y-26075597D01*
X6282030Y-26075597D02*
X6282030Y-26027978D01*
X6282030Y-26027978D02*
X6291554Y-25989883D01*
X6291554Y-25989883D02*
X6301078Y-25970836D01*
X6301078Y-25970836D02*
X6310601Y-25961312D01*
X6310601Y-25961312D02*
X6329649Y-25951788D01*
X6482030Y-26132740D02*
X6491554Y-26142264D01*
X6491554Y-26142264D02*
X6482030Y-26151788D01*
X6482030Y-26151788D02*
X6472506Y-26142264D01*
X6472506Y-26142264D02*
X6482030Y-26132740D01*
X6482030Y-26132740D02*
X6482030Y-26151788D01*
X6615363Y-25951788D02*
X6634411Y-25951788D01*
X6634411Y-25951788D02*
X6653459Y-25961312D01*
X6653459Y-25961312D02*
X6662982Y-25970836D01*
X6662982Y-25970836D02*
X6672506Y-25989883D01*
X6672506Y-25989883D02*
X6682030Y-26027978D01*
X6682030Y-26027978D02*
X6682030Y-26075597D01*
X6682030Y-26075597D02*
X6672506Y-26113693D01*
X6672506Y-26113693D02*
X6662982Y-26132740D01*
X6662982Y-26132740D02*
X6653459Y-26142264D01*
X6653459Y-26142264D02*
X6634411Y-26151788D01*
X6634411Y-26151788D02*
X6615363Y-26151788D01*
X6615363Y-26151788D02*
X6596316Y-26142264D01*
X6596316Y-26142264D02*
X6586792Y-26132740D01*
X6586792Y-26132740D02*
X6577268Y-26113693D01*
X6577268Y-26113693D02*
X6567744Y-26075597D01*
X6567744Y-26075597D02*
X6567744Y-26027978D01*
X6567744Y-26027978D02*
X6577268Y-25989883D01*
X6577268Y-25989883D02*
X6586792Y-25970836D01*
X6586792Y-25970836D02*
X6596316Y-25961312D01*
X6596316Y-25961312D02*
X6615363Y-25951788D01*
X6872506Y-26151788D02*
X6758220Y-26151788D01*
X6815363Y-26151788D02*
X6815363Y-25951788D01*
X6815363Y-25951788D02*
X6796316Y-25980359D01*
X6796316Y-25980359D02*
X6777268Y-25999407D01*
X6777268Y-25999407D02*
X6758220Y-26008931D01*
X7053459Y-25951788D02*
X6958220Y-25951788D01*
X6958220Y-25951788D02*
X6948697Y-26047026D01*
X6948697Y-26047026D02*
X6958220Y-26037502D01*
X6958220Y-26037502D02*
X6977268Y-26027978D01*
X6977268Y-26027978D02*
X7024887Y-26027978D01*
X7024887Y-26027978D02*
X7043935Y-26037502D01*
X7043935Y-26037502D02*
X7053459Y-26047026D01*
X7053459Y-26047026D02*
X7062982Y-26066074D01*
X7062982Y-26066074D02*
X7062982Y-26113693D01*
X7062982Y-26113693D02*
X7053459Y-26132740D01*
X7053459Y-26132740D02*
X7043935Y-26142264D01*
X7043935Y-26142264D02*
X7024887Y-26151788D01*
X7024887Y-26151788D02*
X6977268Y-26151788D01*
X6977268Y-26151788D02*
X6958220Y-26142264D01*
X6958220Y-26142264D02*
X6948697Y-26132740D01*
X7129649Y-25951788D02*
X7262982Y-25951788D01*
X7262982Y-25951788D02*
X7177268Y-26151788D01*
X7329649Y-25951788D02*
X7329649Y-25989883D01*
X7405840Y-25951788D02*
X7405840Y-25989883D01*
X7701078Y-26227978D02*
X7691554Y-26218455D01*
X7691554Y-26218455D02*
X7672506Y-26189883D01*
X7672506Y-26189883D02*
X7662982Y-26170836D01*
X7662982Y-26170836D02*
X7653459Y-26142264D01*
X7653459Y-26142264D02*
X7643935Y-26094645D01*
X7643935Y-26094645D02*
X7643935Y-26056550D01*
X7643935Y-26056550D02*
X7653459Y-26008931D01*
X7653459Y-26008931D02*
X7662982Y-25980359D01*
X7662982Y-25980359D02*
X7672506Y-25961312D01*
X7672506Y-25961312D02*
X7691554Y-25932740D01*
X7691554Y-25932740D02*
X7701078Y-25923216D01*
X7758221Y-25951788D02*
X7882030Y-25951788D01*
X7882030Y-25951788D02*
X7815363Y-26027978D01*
X7815363Y-26027978D02*
X7843935Y-26027978D01*
X7843935Y-26027978D02*
X7862982Y-26037502D01*
X7862982Y-26037502D02*
X7872506Y-26047026D01*
X7872506Y-26047026D02*
X7882030Y-26066074D01*
X7882030Y-26066074D02*
X7882030Y-26113693D01*
X7882030Y-26113693D02*
X7872506Y-26132740D01*
X7872506Y-26132740D02*
X7862982Y-26142264D01*
X7862982Y-26142264D02*
X7843935Y-26151788D01*
X7843935Y-26151788D02*
X7786792Y-26151788D01*
X7786792Y-26151788D02*
X7767744Y-26142264D01*
X7767744Y-26142264D02*
X7758221Y-26132740D01*
X8053459Y-26018455D02*
X8053459Y-26151788D01*
X8005840Y-25942264D02*
X7958221Y-26085121D01*
X7958221Y-26085121D02*
X8082030Y-26085121D01*
X8243935Y-26018455D02*
X8243935Y-26151788D01*
X8196316Y-25942264D02*
X8148697Y-26085121D01*
X8148697Y-26085121D02*
X8272506Y-26085121D01*
X8501078Y-26151788D02*
X8501078Y-25951788D01*
X8586792Y-26151788D02*
X8586792Y-26047026D01*
X8586792Y-26047026D02*
X8577268Y-26027978D01*
X8577268Y-26027978D02*
X8558221Y-26018455D01*
X8558221Y-26018455D02*
X8529649Y-26018455D01*
X8529649Y-26018455D02*
X8510602Y-26027978D01*
X8510602Y-26027978D02*
X8501078Y-26037502D01*
X8710602Y-26151788D02*
X8691554Y-26142264D01*
X8691554Y-26142264D02*
X8682030Y-26132740D01*
X8682030Y-26132740D02*
X8672506Y-26113693D01*
X8672506Y-26113693D02*
X8672506Y-26056550D01*
X8672506Y-26056550D02*
X8682030Y-26037502D01*
X8682030Y-26037502D02*
X8691554Y-26027978D01*
X8691554Y-26027978D02*
X8710602Y-26018455D01*
X8710602Y-26018455D02*
X8739173Y-26018455D01*
X8739173Y-26018455D02*
X8758221Y-26027978D01*
X8758221Y-26027978D02*
X8767745Y-26037502D01*
X8767745Y-26037502D02*
X8777268Y-26056550D01*
X8777268Y-26056550D02*
X8777268Y-26113693D01*
X8777268Y-26113693D02*
X8767745Y-26132740D01*
X8767745Y-26132740D02*
X8758221Y-26142264D01*
X8758221Y-26142264D02*
X8739173Y-26151788D01*
X8739173Y-26151788D02*
X8710602Y-26151788D01*
X8891554Y-26151788D02*
X8872506Y-26142264D01*
X8872506Y-26142264D02*
X8862983Y-26123216D01*
X8862983Y-26123216D02*
X8862983Y-25951788D01*
X9043935Y-26142264D02*
X9024887Y-26151788D01*
X9024887Y-26151788D02*
X8986792Y-26151788D01*
X8986792Y-26151788D02*
X8967745Y-26142264D01*
X8967745Y-26142264D02*
X8958221Y-26123216D01*
X8958221Y-26123216D02*
X8958221Y-26047026D01*
X8958221Y-26047026D02*
X8967745Y-26027978D01*
X8967745Y-26027978D02*
X8986792Y-26018455D01*
X8986792Y-26018455D02*
X9024887Y-26018455D01*
X9024887Y-26018455D02*
X9043935Y-26027978D01*
X9043935Y-26027978D02*
X9053459Y-26047026D01*
X9053459Y-26047026D02*
X9053459Y-26066074D01*
X9053459Y-26066074D02*
X8958221Y-26085121D01*
X9129649Y-26142264D02*
X9148697Y-26151788D01*
X9148697Y-26151788D02*
X9186792Y-26151788D01*
X9186792Y-26151788D02*
X9205840Y-26142264D01*
X9205840Y-26142264D02*
X9215364Y-26123216D01*
X9215364Y-26123216D02*
X9215364Y-26113693D01*
X9215364Y-26113693D02*
X9205840Y-26094645D01*
X9205840Y-26094645D02*
X9186792Y-26085121D01*
X9186792Y-26085121D02*
X9158221Y-26085121D01*
X9158221Y-26085121D02*
X9139173Y-26075597D01*
X9139173Y-26075597D02*
X9129649Y-26056550D01*
X9129649Y-26056550D02*
X9129649Y-26047026D01*
X9129649Y-26047026D02*
X9139173Y-26027978D01*
X9139173Y-26027978D02*
X9158221Y-26018455D01*
X9158221Y-26018455D02*
X9186792Y-26018455D01*
X9186792Y-26018455D02*
X9205840Y-26027978D01*
X9282030Y-26227978D02*
X9291554Y-26218455D01*
X9291554Y-26218455D02*
X9310602Y-26189883D01*
X9310602Y-26189883D02*
X9320126Y-26170836D01*
X9320126Y-26170836D02*
X9329649Y-26142264D01*
X9329649Y-26142264D02*
X9339173Y-26094645D01*
X9339173Y-26094645D02*
X9339173Y-26056550D01*
X9339173Y-26056550D02*
X9329649Y-26008931D01*
X9329649Y-26008931D02*
X9320126Y-25980359D01*
X9320126Y-25980359D02*
X9310602Y-25961312D01*
X9310602Y-25961312D02*
X9291554Y-25932740D01*
X9291554Y-25932740D02*
X9282030Y-25923216D01*
D10*
X4126015Y-26324304D02*
G75*
G02*
X4076015Y-26324304I-25000J0D01*
G01*
X4076015Y-26324304D02*
G75*
G02*
X4126015Y-26324304I25000J0D01*
G01*
D11*
X4424887Y-26215788D02*
X4443935Y-26215788D01*
X4443935Y-26215788D02*
X4462982Y-26225312D01*
X4462982Y-26225312D02*
X4472506Y-26234836D01*
X4472506Y-26234836D02*
X4482030Y-26253883D01*
X4482030Y-26253883D02*
X4491554Y-26291978D01*
X4491554Y-26291978D02*
X4491554Y-26339597D01*
X4491554Y-26339597D02*
X4482030Y-26377693D01*
X4482030Y-26377693D02*
X4472506Y-26396740D01*
X4472506Y-26396740D02*
X4462982Y-26406264D01*
X4462982Y-26406264D02*
X4443935Y-26415788D01*
X4443935Y-26415788D02*
X4424887Y-26415788D01*
X4424887Y-26415788D02*
X4405839Y-26406264D01*
X4405839Y-26406264D02*
X4396316Y-26396740D01*
X4396316Y-26396740D02*
X4386792Y-26377693D01*
X4386792Y-26377693D02*
X4377268Y-26339597D01*
X4377268Y-26339597D02*
X4377268Y-26291978D01*
X4377268Y-26291978D02*
X4386792Y-26253883D01*
X4386792Y-26253883D02*
X4396316Y-26234836D01*
X4396316Y-26234836D02*
X4405839Y-26225312D01*
X4405839Y-26225312D02*
X4424887Y-26215788D01*
X4577268Y-26396740D02*
X4586792Y-26406264D01*
X4586792Y-26406264D02*
X4577268Y-26415788D01*
X4577268Y-26415788D02*
X4567744Y-26406264D01*
X4567744Y-26406264D02*
X4577268Y-26396740D01*
X4577268Y-26396740D02*
X4577268Y-26415788D01*
X4767744Y-26215788D02*
X4672506Y-26215788D01*
X4672506Y-26215788D02*
X4662982Y-26311026D01*
X4662982Y-26311026D02*
X4672506Y-26301502D01*
X4672506Y-26301502D02*
X4691554Y-26291978D01*
X4691554Y-26291978D02*
X4739173Y-26291978D01*
X4739173Y-26291978D02*
X4758220Y-26301502D01*
X4758220Y-26301502D02*
X4767744Y-26311026D01*
X4767744Y-26311026D02*
X4777268Y-26330074D01*
X4777268Y-26330074D02*
X4777268Y-26377693D01*
X4777268Y-26377693D02*
X4767744Y-26396740D01*
X4767744Y-26396740D02*
X4758220Y-26406264D01*
X4758220Y-26406264D02*
X4739173Y-26415788D01*
X4739173Y-26415788D02*
X4691554Y-26415788D01*
X4691554Y-26415788D02*
X4672506Y-26406264D01*
X4672506Y-26406264D02*
X4662982Y-26396740D01*
X4901077Y-26215788D02*
X4920125Y-26215788D01*
X4920125Y-26215788D02*
X4939173Y-26225312D01*
X4939173Y-26225312D02*
X4948697Y-26234836D01*
X4948697Y-26234836D02*
X4958220Y-26253883D01*
X4958220Y-26253883D02*
X4967744Y-26291978D01*
X4967744Y-26291978D02*
X4967744Y-26339597D01*
X4967744Y-26339597D02*
X4958220Y-26377693D01*
X4958220Y-26377693D02*
X4948697Y-26396740D01*
X4948697Y-26396740D02*
X4939173Y-26406264D01*
X4939173Y-26406264D02*
X4920125Y-26415788D01*
X4920125Y-26415788D02*
X4901077Y-26415788D01*
X4901077Y-26415788D02*
X4882030Y-26406264D01*
X4882030Y-26406264D02*
X4872506Y-26396740D01*
X4872506Y-26396740D02*
X4862982Y-26377693D01*
X4862982Y-26377693D02*
X4853458Y-26339597D01*
X4853458Y-26339597D02*
X4853458Y-26291978D01*
X4853458Y-26291978D02*
X4862982Y-26253883D01*
X4862982Y-26253883D02*
X4872506Y-26234836D01*
X4872506Y-26234836D02*
X4882030Y-26225312D01*
X4882030Y-26225312D02*
X4901077Y-26215788D01*
X5091554Y-26215788D02*
X5110601Y-26215788D01*
X5110601Y-26215788D02*
X5129649Y-26225312D01*
X5129649Y-26225312D02*
X5139173Y-26234836D01*
X5139173Y-26234836D02*
X5148697Y-26253883D01*
X5148697Y-26253883D02*
X5158220Y-26291978D01*
X5158220Y-26291978D02*
X5158220Y-26339597D01*
X5158220Y-26339597D02*
X5148697Y-26377693D01*
X5148697Y-26377693D02*
X5139173Y-26396740D01*
X5139173Y-26396740D02*
X5129649Y-26406264D01*
X5129649Y-26406264D02*
X5110601Y-26415788D01*
X5110601Y-26415788D02*
X5091554Y-26415788D01*
X5091554Y-26415788D02*
X5072506Y-26406264D01*
X5072506Y-26406264D02*
X5062982Y-26396740D01*
X5062982Y-26396740D02*
X5053458Y-26377693D01*
X5053458Y-26377693D02*
X5043935Y-26339597D01*
X5043935Y-26339597D02*
X5043935Y-26291978D01*
X5043935Y-26291978D02*
X5053458Y-26253883D01*
X5053458Y-26253883D02*
X5062982Y-26234836D01*
X5062982Y-26234836D02*
X5072506Y-26225312D01*
X5072506Y-26225312D02*
X5091554Y-26215788D01*
X5243935Y-26415788D02*
X5243935Y-26282455D01*
X5243935Y-26301502D02*
X5253458Y-26291978D01*
X5253458Y-26291978D02*
X5272506Y-26282455D01*
X5272506Y-26282455D02*
X5301078Y-26282455D01*
X5301078Y-26282455D02*
X5320125Y-26291978D01*
X5320125Y-26291978D02*
X5329649Y-26311026D01*
X5329649Y-26311026D02*
X5329649Y-26415788D01*
X5329649Y-26311026D02*
X5339173Y-26291978D01*
X5339173Y-26291978D02*
X5358220Y-26282455D01*
X5358220Y-26282455D02*
X5386792Y-26282455D01*
X5386792Y-26282455D02*
X5405839Y-26291978D01*
X5405839Y-26291978D02*
X5415363Y-26311026D01*
X5415363Y-26311026D02*
X5415363Y-26415788D01*
X5510601Y-26415788D02*
X5510601Y-26282455D01*
X5510601Y-26301502D02*
X5520125Y-26291978D01*
X5520125Y-26291978D02*
X5539173Y-26282455D01*
X5539173Y-26282455D02*
X5567744Y-26282455D01*
X5567744Y-26282455D02*
X5586792Y-26291978D01*
X5586792Y-26291978D02*
X5596316Y-26311026D01*
X5596316Y-26311026D02*
X5596316Y-26415788D01*
X5596316Y-26311026D02*
X5605839Y-26291978D01*
X5605839Y-26291978D02*
X5624887Y-26282455D01*
X5624887Y-26282455D02*
X5653458Y-26282455D01*
X5653458Y-26282455D02*
X5672506Y-26291978D01*
X5672506Y-26291978D02*
X5682030Y-26311026D01*
X5682030Y-26311026D02*
X5682030Y-26415788D01*
X6072506Y-26206264D02*
X5901078Y-26463407D01*
X6329649Y-26215788D02*
X6348697Y-26215788D01*
X6348697Y-26215788D02*
X6367744Y-26225312D01*
X6367744Y-26225312D02*
X6377268Y-26234836D01*
X6377268Y-26234836D02*
X6386792Y-26253883D01*
X6386792Y-26253883D02*
X6396316Y-26291978D01*
X6396316Y-26291978D02*
X6396316Y-26339597D01*
X6396316Y-26339597D02*
X6386792Y-26377693D01*
X6386792Y-26377693D02*
X6377268Y-26396740D01*
X6377268Y-26396740D02*
X6367744Y-26406264D01*
X6367744Y-26406264D02*
X6348697Y-26415788D01*
X6348697Y-26415788D02*
X6329649Y-26415788D01*
X6329649Y-26415788D02*
X6310601Y-26406264D01*
X6310601Y-26406264D02*
X6301078Y-26396740D01*
X6301078Y-26396740D02*
X6291554Y-26377693D01*
X6291554Y-26377693D02*
X6282030Y-26339597D01*
X6282030Y-26339597D02*
X6282030Y-26291978D01*
X6282030Y-26291978D02*
X6291554Y-26253883D01*
X6291554Y-26253883D02*
X6301078Y-26234836D01*
X6301078Y-26234836D02*
X6310601Y-26225312D01*
X6310601Y-26225312D02*
X6329649Y-26215788D01*
X6482030Y-26396740D02*
X6491554Y-26406264D01*
X6491554Y-26406264D02*
X6482030Y-26415788D01*
X6482030Y-26415788D02*
X6472506Y-26406264D01*
X6472506Y-26406264D02*
X6482030Y-26396740D01*
X6482030Y-26396740D02*
X6482030Y-26415788D01*
X6615363Y-26215788D02*
X6634411Y-26215788D01*
X6634411Y-26215788D02*
X6653459Y-26225312D01*
X6653459Y-26225312D02*
X6662982Y-26234836D01*
X6662982Y-26234836D02*
X6672506Y-26253883D01*
X6672506Y-26253883D02*
X6682030Y-26291978D01*
X6682030Y-26291978D02*
X6682030Y-26339597D01*
X6682030Y-26339597D02*
X6672506Y-26377693D01*
X6672506Y-26377693D02*
X6662982Y-26396740D01*
X6662982Y-26396740D02*
X6653459Y-26406264D01*
X6653459Y-26406264D02*
X6634411Y-26415788D01*
X6634411Y-26415788D02*
X6615363Y-26415788D01*
X6615363Y-26415788D02*
X6596316Y-26406264D01*
X6596316Y-26406264D02*
X6586792Y-26396740D01*
X6586792Y-26396740D02*
X6577268Y-26377693D01*
X6577268Y-26377693D02*
X6567744Y-26339597D01*
X6567744Y-26339597D02*
X6567744Y-26291978D01*
X6567744Y-26291978D02*
X6577268Y-26253883D01*
X6577268Y-26253883D02*
X6586792Y-26234836D01*
X6586792Y-26234836D02*
X6596316Y-26225312D01*
X6596316Y-26225312D02*
X6615363Y-26215788D01*
X6872506Y-26415788D02*
X6758220Y-26415788D01*
X6815363Y-26415788D02*
X6815363Y-26215788D01*
X6815363Y-26215788D02*
X6796316Y-26244359D01*
X6796316Y-26244359D02*
X6777268Y-26263407D01*
X6777268Y-26263407D02*
X6758220Y-26272931D01*
X6967744Y-26415788D02*
X7005839Y-26415788D01*
X7005839Y-26415788D02*
X7024887Y-26406264D01*
X7024887Y-26406264D02*
X7034411Y-26396740D01*
X7034411Y-26396740D02*
X7053459Y-26368169D01*
X7053459Y-26368169D02*
X7062982Y-26330074D01*
X7062982Y-26330074D02*
X7062982Y-26253883D01*
X7062982Y-26253883D02*
X7053459Y-26234836D01*
X7053459Y-26234836D02*
X7043935Y-26225312D01*
X7043935Y-26225312D02*
X7024887Y-26215788D01*
X7024887Y-26215788D02*
X6986792Y-26215788D01*
X6986792Y-26215788D02*
X6967744Y-26225312D01*
X6967744Y-26225312D02*
X6958220Y-26234836D01*
X6958220Y-26234836D02*
X6948697Y-26253883D01*
X6948697Y-26253883D02*
X6948697Y-26301502D01*
X6948697Y-26301502D02*
X6958220Y-26320550D01*
X6958220Y-26320550D02*
X6967744Y-26330074D01*
X6967744Y-26330074D02*
X6986792Y-26339597D01*
X6986792Y-26339597D02*
X7024887Y-26339597D01*
X7024887Y-26339597D02*
X7043935Y-26330074D01*
X7043935Y-26330074D02*
X7053459Y-26320550D01*
X7053459Y-26320550D02*
X7062982Y-26301502D01*
X7129649Y-26215788D02*
X7262982Y-26215788D01*
X7262982Y-26215788D02*
X7177268Y-26415788D01*
X7329649Y-26215788D02*
X7329649Y-26253883D01*
X7405840Y-26215788D02*
X7405840Y-26253883D01*
X7701078Y-26491978D02*
X7691554Y-26482455D01*
X7691554Y-26482455D02*
X7672506Y-26453883D01*
X7672506Y-26453883D02*
X7662982Y-26434836D01*
X7662982Y-26434836D02*
X7653459Y-26406264D01*
X7653459Y-26406264D02*
X7643935Y-26358645D01*
X7643935Y-26358645D02*
X7643935Y-26320550D01*
X7643935Y-26320550D02*
X7653459Y-26272931D01*
X7653459Y-26272931D02*
X7662982Y-26244359D01*
X7662982Y-26244359D02*
X7672506Y-26225312D01*
X7672506Y-26225312D02*
X7691554Y-26196740D01*
X7691554Y-26196740D02*
X7701078Y-26187216D01*
X7758221Y-26215788D02*
X7882030Y-26215788D01*
X7882030Y-26215788D02*
X7815363Y-26291978D01*
X7815363Y-26291978D02*
X7843935Y-26291978D01*
X7843935Y-26291978D02*
X7862982Y-26301502D01*
X7862982Y-26301502D02*
X7872506Y-26311026D01*
X7872506Y-26311026D02*
X7882030Y-26330074D01*
X7882030Y-26330074D02*
X7882030Y-26377693D01*
X7882030Y-26377693D02*
X7872506Y-26396740D01*
X7872506Y-26396740D02*
X7862982Y-26406264D01*
X7862982Y-26406264D02*
X7843935Y-26415788D01*
X7843935Y-26415788D02*
X7786792Y-26415788D01*
X7786792Y-26415788D02*
X7767744Y-26406264D01*
X7767744Y-26406264D02*
X7758221Y-26396740D01*
X7958221Y-26234836D02*
X7967744Y-26225312D01*
X7967744Y-26225312D02*
X7986792Y-26215788D01*
X7986792Y-26215788D02*
X8034411Y-26215788D01*
X8034411Y-26215788D02*
X8053459Y-26225312D01*
X8053459Y-26225312D02*
X8062982Y-26234836D01*
X8062982Y-26234836D02*
X8072506Y-26253883D01*
X8072506Y-26253883D02*
X8072506Y-26272931D01*
X8072506Y-26272931D02*
X8062982Y-26301502D01*
X8062982Y-26301502D02*
X7948697Y-26415788D01*
X7948697Y-26415788D02*
X8072506Y-26415788D01*
X8310602Y-26415788D02*
X8310602Y-26215788D01*
X8396316Y-26415788D02*
X8396316Y-26311026D01*
X8396316Y-26311026D02*
X8386792Y-26291978D01*
X8386792Y-26291978D02*
X8367744Y-26282455D01*
X8367744Y-26282455D02*
X8339173Y-26282455D01*
X8339173Y-26282455D02*
X8320125Y-26291978D01*
X8320125Y-26291978D02*
X8310602Y-26301502D01*
X8520125Y-26415788D02*
X8501078Y-26406264D01*
X8501078Y-26406264D02*
X8491554Y-26396740D01*
X8491554Y-26396740D02*
X8482030Y-26377693D01*
X8482030Y-26377693D02*
X8482030Y-26320550D01*
X8482030Y-26320550D02*
X8491554Y-26301502D01*
X8491554Y-26301502D02*
X8501078Y-26291978D01*
X8501078Y-26291978D02*
X8520125Y-26282455D01*
X8520125Y-26282455D02*
X8548697Y-26282455D01*
X8548697Y-26282455D02*
X8567745Y-26291978D01*
X8567745Y-26291978D02*
X8577268Y-26301502D01*
X8577268Y-26301502D02*
X8586792Y-26320550D01*
X8586792Y-26320550D02*
X8586792Y-26377693D01*
X8586792Y-26377693D02*
X8577268Y-26396740D01*
X8577268Y-26396740D02*
X8567745Y-26406264D01*
X8567745Y-26406264D02*
X8548697Y-26415788D01*
X8548697Y-26415788D02*
X8520125Y-26415788D01*
X8701078Y-26415788D02*
X8682030Y-26406264D01*
X8682030Y-26406264D02*
X8672506Y-26387216D01*
X8672506Y-26387216D02*
X8672506Y-26215788D01*
X8853459Y-26406264D02*
X8834411Y-26415788D01*
X8834411Y-26415788D02*
X8796316Y-26415788D01*
X8796316Y-26415788D02*
X8777268Y-26406264D01*
X8777268Y-26406264D02*
X8767745Y-26387216D01*
X8767745Y-26387216D02*
X8767745Y-26311026D01*
X8767745Y-26311026D02*
X8777268Y-26291978D01*
X8777268Y-26291978D02*
X8796316Y-26282455D01*
X8796316Y-26282455D02*
X8834411Y-26282455D01*
X8834411Y-26282455D02*
X8853459Y-26291978D01*
X8853459Y-26291978D02*
X8862983Y-26311026D01*
X8862983Y-26311026D02*
X8862983Y-26330074D01*
X8862983Y-26330074D02*
X8767745Y-26349121D01*
X8939173Y-26406264D02*
X8958221Y-26415788D01*
X8958221Y-26415788D02*
X8996316Y-26415788D01*
X8996316Y-26415788D02*
X9015364Y-26406264D01*
X9015364Y-26406264D02*
X9024887Y-26387216D01*
X9024887Y-26387216D02*
X9024887Y-26377693D01*
X9024887Y-26377693D02*
X9015364Y-26358645D01*
X9015364Y-26358645D02*
X8996316Y-26349121D01*
X8996316Y-26349121D02*
X8967745Y-26349121D01*
X8967745Y-26349121D02*
X8948697Y-26339597D01*
X8948697Y-26339597D02*
X8939173Y-26320550D01*
X8939173Y-26320550D02*
X8939173Y-26311026D01*
X8939173Y-26311026D02*
X8948697Y-26291978D01*
X8948697Y-26291978D02*
X8967745Y-26282455D01*
X8967745Y-26282455D02*
X8996316Y-26282455D01*
X8996316Y-26282455D02*
X9015364Y-26291978D01*
X9091554Y-26491978D02*
X9101078Y-26482455D01*
X9101078Y-26482455D02*
X9120126Y-26453883D01*
X9120126Y-26453883D02*
X9129649Y-26434836D01*
X9129649Y-26434836D02*
X9139173Y-26406264D01*
X9139173Y-26406264D02*
X9148697Y-26358645D01*
X9148697Y-26358645D02*
X9148697Y-26320550D01*
X9148697Y-26320550D02*
X9139173Y-26272931D01*
X9139173Y-26272931D02*
X9129649Y-26244359D01*
X9129649Y-26244359D02*
X9120126Y-26225312D01*
X9120126Y-26225312D02*
X9101078Y-26196740D01*
X9101078Y-26196740D02*
X9091554Y-26187216D01*
D10*
X4089015Y-26551304D02*
X4089015Y-26625304D01*
X4052015Y-26588304D02*
X4126015Y-26588304D01*
D11*
X4424887Y-26479788D02*
X4443935Y-26479788D01*
X4443935Y-26479788D02*
X4462982Y-26489312D01*
X4462982Y-26489312D02*
X4472506Y-26498836D01*
X4472506Y-26498836D02*
X4482030Y-26517883D01*
X4482030Y-26517883D02*
X4491554Y-26555978D01*
X4491554Y-26555978D02*
X4491554Y-26603597D01*
X4491554Y-26603597D02*
X4482030Y-26641693D01*
X4482030Y-26641693D02*
X4472506Y-26660740D01*
X4472506Y-26660740D02*
X4462982Y-26670264D01*
X4462982Y-26670264D02*
X4443935Y-26679788D01*
X4443935Y-26679788D02*
X4424887Y-26679788D01*
X4424887Y-26679788D02*
X4405839Y-26670264D01*
X4405839Y-26670264D02*
X4396316Y-26660740D01*
X4396316Y-26660740D02*
X4386792Y-26641693D01*
X4386792Y-26641693D02*
X4377268Y-26603597D01*
X4377268Y-26603597D02*
X4377268Y-26555978D01*
X4377268Y-26555978D02*
X4386792Y-26517883D01*
X4386792Y-26517883D02*
X4396316Y-26498836D01*
X4396316Y-26498836D02*
X4405839Y-26489312D01*
X4405839Y-26489312D02*
X4424887Y-26479788D01*
X4577268Y-26660740D02*
X4586792Y-26670264D01*
X4586792Y-26670264D02*
X4577268Y-26679788D01*
X4577268Y-26679788D02*
X4567744Y-26670264D01*
X4567744Y-26670264D02*
X4577268Y-26660740D01*
X4577268Y-26660740D02*
X4577268Y-26679788D01*
X4653458Y-26479788D02*
X4786792Y-26479788D01*
X4786792Y-26479788D02*
X4701077Y-26679788D01*
X4948697Y-26546455D02*
X4948697Y-26679788D01*
X4901077Y-26470264D02*
X4853458Y-26613121D01*
X4853458Y-26613121D02*
X4977268Y-26613121D01*
X5091554Y-26479788D02*
X5110601Y-26479788D01*
X5110601Y-26479788D02*
X5129649Y-26489312D01*
X5129649Y-26489312D02*
X5139173Y-26498836D01*
X5139173Y-26498836D02*
X5148697Y-26517883D01*
X5148697Y-26517883D02*
X5158220Y-26555978D01*
X5158220Y-26555978D02*
X5158220Y-26603597D01*
X5158220Y-26603597D02*
X5148697Y-26641693D01*
X5148697Y-26641693D02*
X5139173Y-26660740D01*
X5139173Y-26660740D02*
X5129649Y-26670264D01*
X5129649Y-26670264D02*
X5110601Y-26679788D01*
X5110601Y-26679788D02*
X5091554Y-26679788D01*
X5091554Y-26679788D02*
X5072506Y-26670264D01*
X5072506Y-26670264D02*
X5062982Y-26660740D01*
X5062982Y-26660740D02*
X5053458Y-26641693D01*
X5053458Y-26641693D02*
X5043935Y-26603597D01*
X5043935Y-26603597D02*
X5043935Y-26555978D01*
X5043935Y-26555978D02*
X5053458Y-26517883D01*
X5053458Y-26517883D02*
X5062982Y-26498836D01*
X5062982Y-26498836D02*
X5072506Y-26489312D01*
X5072506Y-26489312D02*
X5091554Y-26479788D01*
X5243935Y-26679788D02*
X5243935Y-26546455D01*
X5243935Y-26565502D02*
X5253458Y-26555978D01*
X5253458Y-26555978D02*
X5272506Y-26546455D01*
X5272506Y-26546455D02*
X5301078Y-26546455D01*
X5301078Y-26546455D02*
X5320125Y-26555978D01*
X5320125Y-26555978D02*
X5329649Y-26575026D01*
X5329649Y-26575026D02*
X5329649Y-26679788D01*
X5329649Y-26575026D02*
X5339173Y-26555978D01*
X5339173Y-26555978D02*
X5358220Y-26546455D01*
X5358220Y-26546455D02*
X5386792Y-26546455D01*
X5386792Y-26546455D02*
X5405839Y-26555978D01*
X5405839Y-26555978D02*
X5415363Y-26575026D01*
X5415363Y-26575026D02*
X5415363Y-26679788D01*
X5510601Y-26679788D02*
X5510601Y-26546455D01*
X5510601Y-26565502D02*
X5520125Y-26555978D01*
X5520125Y-26555978D02*
X5539173Y-26546455D01*
X5539173Y-26546455D02*
X5567744Y-26546455D01*
X5567744Y-26546455D02*
X5586792Y-26555978D01*
X5586792Y-26555978D02*
X5596316Y-26575026D01*
X5596316Y-26575026D02*
X5596316Y-26679788D01*
X5596316Y-26575026D02*
X5605839Y-26555978D01*
X5605839Y-26555978D02*
X5624887Y-26546455D01*
X5624887Y-26546455D02*
X5653458Y-26546455D01*
X5653458Y-26546455D02*
X5672506Y-26555978D01*
X5672506Y-26555978D02*
X5682030Y-26575026D01*
X5682030Y-26575026D02*
X5682030Y-26679788D01*
X6072506Y-26470264D02*
X5901078Y-26727407D01*
X6329649Y-26479788D02*
X6348697Y-26479788D01*
X6348697Y-26479788D02*
X6367744Y-26489312D01*
X6367744Y-26489312D02*
X6377268Y-26498836D01*
X6377268Y-26498836D02*
X6386792Y-26517883D01*
X6386792Y-26517883D02*
X6396316Y-26555978D01*
X6396316Y-26555978D02*
X6396316Y-26603597D01*
X6396316Y-26603597D02*
X6386792Y-26641693D01*
X6386792Y-26641693D02*
X6377268Y-26660740D01*
X6377268Y-26660740D02*
X6367744Y-26670264D01*
X6367744Y-26670264D02*
X6348697Y-26679788D01*
X6348697Y-26679788D02*
X6329649Y-26679788D01*
X6329649Y-26679788D02*
X6310601Y-26670264D01*
X6310601Y-26670264D02*
X6301078Y-26660740D01*
X6301078Y-26660740D02*
X6291554Y-26641693D01*
X6291554Y-26641693D02*
X6282030Y-26603597D01*
X6282030Y-26603597D02*
X6282030Y-26555978D01*
X6282030Y-26555978D02*
X6291554Y-26517883D01*
X6291554Y-26517883D02*
X6301078Y-26498836D01*
X6301078Y-26498836D02*
X6310601Y-26489312D01*
X6310601Y-26489312D02*
X6329649Y-26479788D01*
X6482030Y-26660740D02*
X6491554Y-26670264D01*
X6491554Y-26670264D02*
X6482030Y-26679788D01*
X6482030Y-26679788D02*
X6472506Y-26670264D01*
X6472506Y-26670264D02*
X6482030Y-26660740D01*
X6482030Y-26660740D02*
X6482030Y-26679788D01*
X6615363Y-26479788D02*
X6634411Y-26479788D01*
X6634411Y-26479788D02*
X6653459Y-26489312D01*
X6653459Y-26489312D02*
X6662982Y-26498836D01*
X6662982Y-26498836D02*
X6672506Y-26517883D01*
X6672506Y-26517883D02*
X6682030Y-26555978D01*
X6682030Y-26555978D02*
X6682030Y-26603597D01*
X6682030Y-26603597D02*
X6672506Y-26641693D01*
X6672506Y-26641693D02*
X6662982Y-26660740D01*
X6662982Y-26660740D02*
X6653459Y-26670264D01*
X6653459Y-26670264D02*
X6634411Y-26679788D01*
X6634411Y-26679788D02*
X6615363Y-26679788D01*
X6615363Y-26679788D02*
X6596316Y-26670264D01*
X6596316Y-26670264D02*
X6586792Y-26660740D01*
X6586792Y-26660740D02*
X6577268Y-26641693D01*
X6577268Y-26641693D02*
X6567744Y-26603597D01*
X6567744Y-26603597D02*
X6567744Y-26555978D01*
X6567744Y-26555978D02*
X6577268Y-26517883D01*
X6577268Y-26517883D02*
X6586792Y-26498836D01*
X6586792Y-26498836D02*
X6596316Y-26489312D01*
X6596316Y-26489312D02*
X6615363Y-26479788D01*
X6758220Y-26498836D02*
X6767744Y-26489312D01*
X6767744Y-26489312D02*
X6786792Y-26479788D01*
X6786792Y-26479788D02*
X6834411Y-26479788D01*
X6834411Y-26479788D02*
X6853459Y-26489312D01*
X6853459Y-26489312D02*
X6862982Y-26498836D01*
X6862982Y-26498836D02*
X6872506Y-26517883D01*
X6872506Y-26517883D02*
X6872506Y-26536931D01*
X6872506Y-26536931D02*
X6862982Y-26565502D01*
X6862982Y-26565502D02*
X6748697Y-26679788D01*
X6748697Y-26679788D02*
X6872506Y-26679788D01*
X6967744Y-26679788D02*
X7005839Y-26679788D01*
X7005839Y-26679788D02*
X7024887Y-26670264D01*
X7024887Y-26670264D02*
X7034411Y-26660740D01*
X7034411Y-26660740D02*
X7053459Y-26632169D01*
X7053459Y-26632169D02*
X7062982Y-26594074D01*
X7062982Y-26594074D02*
X7062982Y-26517883D01*
X7062982Y-26517883D02*
X7053459Y-26498836D01*
X7053459Y-26498836D02*
X7043935Y-26489312D01*
X7043935Y-26489312D02*
X7024887Y-26479788D01*
X7024887Y-26479788D02*
X6986792Y-26479788D01*
X6986792Y-26479788D02*
X6967744Y-26489312D01*
X6967744Y-26489312D02*
X6958220Y-26498836D01*
X6958220Y-26498836D02*
X6948697Y-26517883D01*
X6948697Y-26517883D02*
X6948697Y-26565502D01*
X6948697Y-26565502D02*
X6958220Y-26584550D01*
X6958220Y-26584550D02*
X6967744Y-26594074D01*
X6967744Y-26594074D02*
X6986792Y-26603597D01*
X6986792Y-26603597D02*
X7024887Y-26603597D01*
X7024887Y-26603597D02*
X7043935Y-26594074D01*
X7043935Y-26594074D02*
X7053459Y-26584550D01*
X7053459Y-26584550D02*
X7062982Y-26565502D01*
X7253459Y-26679788D02*
X7139173Y-26679788D01*
X7196316Y-26679788D02*
X7196316Y-26479788D01*
X7196316Y-26479788D02*
X7177268Y-26508359D01*
X7177268Y-26508359D02*
X7158220Y-26527407D01*
X7158220Y-26527407D02*
X7139173Y-26536931D01*
X7329649Y-26479788D02*
X7329649Y-26517883D01*
X7405840Y-26479788D02*
X7405840Y-26517883D01*
X7701078Y-26755978D02*
X7691554Y-26746455D01*
X7691554Y-26746455D02*
X7672506Y-26717883D01*
X7672506Y-26717883D02*
X7662982Y-26698836D01*
X7662982Y-26698836D02*
X7653459Y-26670264D01*
X7653459Y-26670264D02*
X7643935Y-26622645D01*
X7643935Y-26622645D02*
X7643935Y-26584550D01*
X7643935Y-26584550D02*
X7653459Y-26536931D01*
X7653459Y-26536931D02*
X7662982Y-26508359D01*
X7662982Y-26508359D02*
X7672506Y-26489312D01*
X7672506Y-26489312D02*
X7691554Y-26460740D01*
X7691554Y-26460740D02*
X7701078Y-26451216D01*
X7767744Y-26498836D02*
X7777268Y-26489312D01*
X7777268Y-26489312D02*
X7796316Y-26479788D01*
X7796316Y-26479788D02*
X7843935Y-26479788D01*
X7843935Y-26479788D02*
X7862982Y-26489312D01*
X7862982Y-26489312D02*
X7872506Y-26498836D01*
X7872506Y-26498836D02*
X7882030Y-26517883D01*
X7882030Y-26517883D02*
X7882030Y-26536931D01*
X7882030Y-26536931D02*
X7872506Y-26565502D01*
X7872506Y-26565502D02*
X7758221Y-26679788D01*
X7758221Y-26679788D02*
X7882030Y-26679788D01*
X8053459Y-26546455D02*
X8053459Y-26679788D01*
X8005840Y-26470264D02*
X7958221Y-26613121D01*
X7958221Y-26613121D02*
X8082030Y-26613121D01*
X8310602Y-26679788D02*
X8310602Y-26479788D01*
X8396316Y-26679788D02*
X8396316Y-26575026D01*
X8396316Y-26575026D02*
X8386792Y-26555978D01*
X8386792Y-26555978D02*
X8367744Y-26546455D01*
X8367744Y-26546455D02*
X8339173Y-26546455D01*
X8339173Y-26546455D02*
X8320125Y-26555978D01*
X8320125Y-26555978D02*
X8310602Y-26565502D01*
X8520125Y-26679788D02*
X8501078Y-26670264D01*
X8501078Y-26670264D02*
X8491554Y-26660740D01*
X8491554Y-26660740D02*
X8482030Y-26641693D01*
X8482030Y-26641693D02*
X8482030Y-26584550D01*
X8482030Y-26584550D02*
X8491554Y-26565502D01*
X8491554Y-26565502D02*
X8501078Y-26555978D01*
X8501078Y-26555978D02*
X8520125Y-26546455D01*
X8520125Y-26546455D02*
X8548697Y-26546455D01*
X8548697Y-26546455D02*
X8567745Y-26555978D01*
X8567745Y-26555978D02*
X8577268Y-26565502D01*
X8577268Y-26565502D02*
X8586792Y-26584550D01*
X8586792Y-26584550D02*
X8586792Y-26641693D01*
X8586792Y-26641693D02*
X8577268Y-26660740D01*
X8577268Y-26660740D02*
X8567745Y-26670264D01*
X8567745Y-26670264D02*
X8548697Y-26679788D01*
X8548697Y-26679788D02*
X8520125Y-26679788D01*
X8701078Y-26679788D02*
X8682030Y-26670264D01*
X8682030Y-26670264D02*
X8672506Y-26651216D01*
X8672506Y-26651216D02*
X8672506Y-26479788D01*
X8853459Y-26670264D02*
X8834411Y-26679788D01*
X8834411Y-26679788D02*
X8796316Y-26679788D01*
X8796316Y-26679788D02*
X8777268Y-26670264D01*
X8777268Y-26670264D02*
X8767745Y-26651216D01*
X8767745Y-26651216D02*
X8767745Y-26575026D01*
X8767745Y-26575026D02*
X8777268Y-26555978D01*
X8777268Y-26555978D02*
X8796316Y-26546455D01*
X8796316Y-26546455D02*
X8834411Y-26546455D01*
X8834411Y-26546455D02*
X8853459Y-26555978D01*
X8853459Y-26555978D02*
X8862983Y-26575026D01*
X8862983Y-26575026D02*
X8862983Y-26594074D01*
X8862983Y-26594074D02*
X8767745Y-26613121D01*
X8939173Y-26670264D02*
X8958221Y-26679788D01*
X8958221Y-26679788D02*
X8996316Y-26679788D01*
X8996316Y-26679788D02*
X9015364Y-26670264D01*
X9015364Y-26670264D02*
X9024887Y-26651216D01*
X9024887Y-26651216D02*
X9024887Y-26641693D01*
X9024887Y-26641693D02*
X9015364Y-26622645D01*
X9015364Y-26622645D02*
X8996316Y-26613121D01*
X8996316Y-26613121D02*
X8967745Y-26613121D01*
X8967745Y-26613121D02*
X8948697Y-26603597D01*
X8948697Y-26603597D02*
X8939173Y-26584550D01*
X8939173Y-26584550D02*
X8939173Y-26575026D01*
X8939173Y-26575026D02*
X8948697Y-26555978D01*
X8948697Y-26555978D02*
X8967745Y-26546455D01*
X8967745Y-26546455D02*
X8996316Y-26546455D01*
X8996316Y-26546455D02*
X9015364Y-26555978D01*
X9091554Y-26755978D02*
X9101078Y-26746455D01*
X9101078Y-26746455D02*
X9120126Y-26717883D01*
X9120126Y-26717883D02*
X9129649Y-26698836D01*
X9129649Y-26698836D02*
X9139173Y-26670264D01*
X9139173Y-26670264D02*
X9148697Y-26622645D01*
X9148697Y-26622645D02*
X9148697Y-26584550D01*
X9148697Y-26584550D02*
X9139173Y-26536931D01*
X9139173Y-26536931D02*
X9129649Y-26508359D01*
X9129649Y-26508359D02*
X9120126Y-26489312D01*
X9120126Y-26489312D02*
X9101078Y-26460740D01*
X9101078Y-26460740D02*
X9091554Y-26451216D01*
D10*
X4115032Y-26878821D02*
X4115032Y-26825787D01*
X4061998Y-26825787D01*
X4061998Y-26878821D01*
X4115032Y-26878821D01*
D11*
X4424887Y-26743788D02*
X4443935Y-26743788D01*
X4443935Y-26743788D02*
X4462982Y-26753312D01*
X4462982Y-26753312D02*
X4472506Y-26762836D01*
X4472506Y-26762836D02*
X4482030Y-26781883D01*
X4482030Y-26781883D02*
X4491554Y-26819978D01*
X4491554Y-26819978D02*
X4491554Y-26867597D01*
X4491554Y-26867597D02*
X4482030Y-26905693D01*
X4482030Y-26905693D02*
X4472506Y-26924740D01*
X4472506Y-26924740D02*
X4462982Y-26934264D01*
X4462982Y-26934264D02*
X4443935Y-26943788D01*
X4443935Y-26943788D02*
X4424887Y-26943788D01*
X4424887Y-26943788D02*
X4405839Y-26934264D01*
X4405839Y-26934264D02*
X4396316Y-26924740D01*
X4396316Y-26924740D02*
X4386792Y-26905693D01*
X4386792Y-26905693D02*
X4377268Y-26867597D01*
X4377268Y-26867597D02*
X4377268Y-26819978D01*
X4377268Y-26819978D02*
X4386792Y-26781883D01*
X4386792Y-26781883D02*
X4396316Y-26762836D01*
X4396316Y-26762836D02*
X4405839Y-26753312D01*
X4405839Y-26753312D02*
X4424887Y-26743788D01*
X4577268Y-26924740D02*
X4586792Y-26934264D01*
X4586792Y-26934264D02*
X4577268Y-26943788D01*
X4577268Y-26943788D02*
X4567744Y-26934264D01*
X4567744Y-26934264D02*
X4577268Y-26924740D01*
X4577268Y-26924740D02*
X4577268Y-26943788D01*
X4653458Y-26743788D02*
X4786792Y-26743788D01*
X4786792Y-26743788D02*
X4701077Y-26943788D01*
X4958220Y-26743788D02*
X4862982Y-26743788D01*
X4862982Y-26743788D02*
X4853458Y-26839026D01*
X4853458Y-26839026D02*
X4862982Y-26829502D01*
X4862982Y-26829502D02*
X4882030Y-26819978D01*
X4882030Y-26819978D02*
X4929649Y-26819978D01*
X4929649Y-26819978D02*
X4948697Y-26829502D01*
X4948697Y-26829502D02*
X4958220Y-26839026D01*
X4958220Y-26839026D02*
X4967744Y-26858074D01*
X4967744Y-26858074D02*
X4967744Y-26905693D01*
X4967744Y-26905693D02*
X4958220Y-26924740D01*
X4958220Y-26924740D02*
X4948697Y-26934264D01*
X4948697Y-26934264D02*
X4929649Y-26943788D01*
X4929649Y-26943788D02*
X4882030Y-26943788D01*
X4882030Y-26943788D02*
X4862982Y-26934264D01*
X4862982Y-26934264D02*
X4853458Y-26924740D01*
X5091554Y-26743788D02*
X5110601Y-26743788D01*
X5110601Y-26743788D02*
X5129649Y-26753312D01*
X5129649Y-26753312D02*
X5139173Y-26762836D01*
X5139173Y-26762836D02*
X5148697Y-26781883D01*
X5148697Y-26781883D02*
X5158220Y-26819978D01*
X5158220Y-26819978D02*
X5158220Y-26867597D01*
X5158220Y-26867597D02*
X5148697Y-26905693D01*
X5148697Y-26905693D02*
X5139173Y-26924740D01*
X5139173Y-26924740D02*
X5129649Y-26934264D01*
X5129649Y-26934264D02*
X5110601Y-26943788D01*
X5110601Y-26943788D02*
X5091554Y-26943788D01*
X5091554Y-26943788D02*
X5072506Y-26934264D01*
X5072506Y-26934264D02*
X5062982Y-26924740D01*
X5062982Y-26924740D02*
X5053458Y-26905693D01*
X5053458Y-26905693D02*
X5043935Y-26867597D01*
X5043935Y-26867597D02*
X5043935Y-26819978D01*
X5043935Y-26819978D02*
X5053458Y-26781883D01*
X5053458Y-26781883D02*
X5062982Y-26762836D01*
X5062982Y-26762836D02*
X5072506Y-26753312D01*
X5072506Y-26753312D02*
X5091554Y-26743788D01*
X5243935Y-26943788D02*
X5243935Y-26810455D01*
X5243935Y-26829502D02*
X5253458Y-26819978D01*
X5253458Y-26819978D02*
X5272506Y-26810455D01*
X5272506Y-26810455D02*
X5301078Y-26810455D01*
X5301078Y-26810455D02*
X5320125Y-26819978D01*
X5320125Y-26819978D02*
X5329649Y-26839026D01*
X5329649Y-26839026D02*
X5329649Y-26943788D01*
X5329649Y-26839026D02*
X5339173Y-26819978D01*
X5339173Y-26819978D02*
X5358220Y-26810455D01*
X5358220Y-26810455D02*
X5386792Y-26810455D01*
X5386792Y-26810455D02*
X5405839Y-26819978D01*
X5405839Y-26819978D02*
X5415363Y-26839026D01*
X5415363Y-26839026D02*
X5415363Y-26943788D01*
X5510601Y-26943788D02*
X5510601Y-26810455D01*
X5510601Y-26829502D02*
X5520125Y-26819978D01*
X5520125Y-26819978D02*
X5539173Y-26810455D01*
X5539173Y-26810455D02*
X5567744Y-26810455D01*
X5567744Y-26810455D02*
X5586792Y-26819978D01*
X5586792Y-26819978D02*
X5596316Y-26839026D01*
X5596316Y-26839026D02*
X5596316Y-26943788D01*
X5596316Y-26839026D02*
X5605839Y-26819978D01*
X5605839Y-26819978D02*
X5624887Y-26810455D01*
X5624887Y-26810455D02*
X5653458Y-26810455D01*
X5653458Y-26810455D02*
X5672506Y-26819978D01*
X5672506Y-26819978D02*
X5682030Y-26839026D01*
X5682030Y-26839026D02*
X5682030Y-26943788D01*
X6072506Y-26734264D02*
X5901078Y-26991407D01*
X6329649Y-26743788D02*
X6348697Y-26743788D01*
X6348697Y-26743788D02*
X6367744Y-26753312D01*
X6367744Y-26753312D02*
X6377268Y-26762836D01*
X6377268Y-26762836D02*
X6386792Y-26781883D01*
X6386792Y-26781883D02*
X6396316Y-26819978D01*
X6396316Y-26819978D02*
X6396316Y-26867597D01*
X6396316Y-26867597D02*
X6386792Y-26905693D01*
X6386792Y-26905693D02*
X6377268Y-26924740D01*
X6377268Y-26924740D02*
X6367744Y-26934264D01*
X6367744Y-26934264D02*
X6348697Y-26943788D01*
X6348697Y-26943788D02*
X6329649Y-26943788D01*
X6329649Y-26943788D02*
X6310601Y-26934264D01*
X6310601Y-26934264D02*
X6301078Y-26924740D01*
X6301078Y-26924740D02*
X6291554Y-26905693D01*
X6291554Y-26905693D02*
X6282030Y-26867597D01*
X6282030Y-26867597D02*
X6282030Y-26819978D01*
X6282030Y-26819978D02*
X6291554Y-26781883D01*
X6291554Y-26781883D02*
X6301078Y-26762836D01*
X6301078Y-26762836D02*
X6310601Y-26753312D01*
X6310601Y-26753312D02*
X6329649Y-26743788D01*
X6482030Y-26924740D02*
X6491554Y-26934264D01*
X6491554Y-26934264D02*
X6482030Y-26943788D01*
X6482030Y-26943788D02*
X6472506Y-26934264D01*
X6472506Y-26934264D02*
X6482030Y-26924740D01*
X6482030Y-26924740D02*
X6482030Y-26943788D01*
X6615363Y-26743788D02*
X6634411Y-26743788D01*
X6634411Y-26743788D02*
X6653459Y-26753312D01*
X6653459Y-26753312D02*
X6662982Y-26762836D01*
X6662982Y-26762836D02*
X6672506Y-26781883D01*
X6672506Y-26781883D02*
X6682030Y-26819978D01*
X6682030Y-26819978D02*
X6682030Y-26867597D01*
X6682030Y-26867597D02*
X6672506Y-26905693D01*
X6672506Y-26905693D02*
X6662982Y-26924740D01*
X6662982Y-26924740D02*
X6653459Y-26934264D01*
X6653459Y-26934264D02*
X6634411Y-26943788D01*
X6634411Y-26943788D02*
X6615363Y-26943788D01*
X6615363Y-26943788D02*
X6596316Y-26934264D01*
X6596316Y-26934264D02*
X6586792Y-26924740D01*
X6586792Y-26924740D02*
X6577268Y-26905693D01*
X6577268Y-26905693D02*
X6567744Y-26867597D01*
X6567744Y-26867597D02*
X6567744Y-26819978D01*
X6567744Y-26819978D02*
X6577268Y-26781883D01*
X6577268Y-26781883D02*
X6586792Y-26762836D01*
X6586792Y-26762836D02*
X6596316Y-26753312D01*
X6596316Y-26753312D02*
X6615363Y-26743788D01*
X6758220Y-26762836D02*
X6767744Y-26753312D01*
X6767744Y-26753312D02*
X6786792Y-26743788D01*
X6786792Y-26743788D02*
X6834411Y-26743788D01*
X6834411Y-26743788D02*
X6853459Y-26753312D01*
X6853459Y-26753312D02*
X6862982Y-26762836D01*
X6862982Y-26762836D02*
X6872506Y-26781883D01*
X6872506Y-26781883D02*
X6872506Y-26800931D01*
X6872506Y-26800931D02*
X6862982Y-26829502D01*
X6862982Y-26829502D02*
X6748697Y-26943788D01*
X6748697Y-26943788D02*
X6872506Y-26943788D01*
X6967744Y-26943788D02*
X7005839Y-26943788D01*
X7005839Y-26943788D02*
X7024887Y-26934264D01*
X7024887Y-26934264D02*
X7034411Y-26924740D01*
X7034411Y-26924740D02*
X7053459Y-26896169D01*
X7053459Y-26896169D02*
X7062982Y-26858074D01*
X7062982Y-26858074D02*
X7062982Y-26781883D01*
X7062982Y-26781883D02*
X7053459Y-26762836D01*
X7053459Y-26762836D02*
X7043935Y-26753312D01*
X7043935Y-26753312D02*
X7024887Y-26743788D01*
X7024887Y-26743788D02*
X6986792Y-26743788D01*
X6986792Y-26743788D02*
X6967744Y-26753312D01*
X6967744Y-26753312D02*
X6958220Y-26762836D01*
X6958220Y-26762836D02*
X6948697Y-26781883D01*
X6948697Y-26781883D02*
X6948697Y-26829502D01*
X6948697Y-26829502D02*
X6958220Y-26848550D01*
X6958220Y-26848550D02*
X6967744Y-26858074D01*
X6967744Y-26858074D02*
X6986792Y-26867597D01*
X6986792Y-26867597D02*
X7024887Y-26867597D01*
X7024887Y-26867597D02*
X7043935Y-26858074D01*
X7043935Y-26858074D02*
X7053459Y-26848550D01*
X7053459Y-26848550D02*
X7062982Y-26829502D01*
X7243935Y-26743788D02*
X7148697Y-26743788D01*
X7148697Y-26743788D02*
X7139173Y-26839026D01*
X7139173Y-26839026D02*
X7148697Y-26829502D01*
X7148697Y-26829502D02*
X7167744Y-26819978D01*
X7167744Y-26819978D02*
X7215363Y-26819978D01*
X7215363Y-26819978D02*
X7234411Y-26829502D01*
X7234411Y-26829502D02*
X7243935Y-26839026D01*
X7243935Y-26839026D02*
X7253459Y-26858074D01*
X7253459Y-26858074D02*
X7253459Y-26905693D01*
X7253459Y-26905693D02*
X7243935Y-26924740D01*
X7243935Y-26924740D02*
X7234411Y-26934264D01*
X7234411Y-26934264D02*
X7215363Y-26943788D01*
X7215363Y-26943788D02*
X7167744Y-26943788D01*
X7167744Y-26943788D02*
X7148697Y-26934264D01*
X7148697Y-26934264D02*
X7139173Y-26924740D01*
X7329649Y-26743788D02*
X7329649Y-26781883D01*
X7405840Y-26743788D02*
X7405840Y-26781883D01*
X7701078Y-27019978D02*
X7691554Y-27010455D01*
X7691554Y-27010455D02*
X7672506Y-26981883D01*
X7672506Y-26981883D02*
X7662982Y-26962836D01*
X7662982Y-26962836D02*
X7653459Y-26934264D01*
X7653459Y-26934264D02*
X7643935Y-26886645D01*
X7643935Y-26886645D02*
X7643935Y-26848550D01*
X7643935Y-26848550D02*
X7653459Y-26800931D01*
X7653459Y-26800931D02*
X7662982Y-26772359D01*
X7662982Y-26772359D02*
X7672506Y-26753312D01*
X7672506Y-26753312D02*
X7691554Y-26724740D01*
X7691554Y-26724740D02*
X7701078Y-26715216D01*
X7882030Y-26943788D02*
X7767744Y-26943788D01*
X7824887Y-26943788D02*
X7824887Y-26743788D01*
X7824887Y-26743788D02*
X7805840Y-26772359D01*
X7805840Y-26772359D02*
X7786792Y-26791407D01*
X7786792Y-26791407D02*
X7767744Y-26800931D01*
X8005840Y-26743788D02*
X8024887Y-26743788D01*
X8024887Y-26743788D02*
X8043935Y-26753312D01*
X8043935Y-26753312D02*
X8053459Y-26762836D01*
X8053459Y-26762836D02*
X8062982Y-26781883D01*
X8062982Y-26781883D02*
X8072506Y-26819978D01*
X8072506Y-26819978D02*
X8072506Y-26867597D01*
X8072506Y-26867597D02*
X8062982Y-26905693D01*
X8062982Y-26905693D02*
X8053459Y-26924740D01*
X8053459Y-26924740D02*
X8043935Y-26934264D01*
X8043935Y-26934264D02*
X8024887Y-26943788D01*
X8024887Y-26943788D02*
X8005840Y-26943788D01*
X8005840Y-26943788D02*
X7986792Y-26934264D01*
X7986792Y-26934264D02*
X7977268Y-26924740D01*
X7977268Y-26924740D02*
X7967744Y-26905693D01*
X7967744Y-26905693D02*
X7958221Y-26867597D01*
X7958221Y-26867597D02*
X7958221Y-26819978D01*
X7958221Y-26819978D02*
X7967744Y-26781883D01*
X7967744Y-26781883D02*
X7977268Y-26762836D01*
X7977268Y-26762836D02*
X7986792Y-26753312D01*
X7986792Y-26753312D02*
X8005840Y-26743788D01*
X8310602Y-26943788D02*
X8310602Y-26743788D01*
X8396316Y-26943788D02*
X8396316Y-26839026D01*
X8396316Y-26839026D02*
X8386792Y-26819978D01*
X8386792Y-26819978D02*
X8367744Y-26810455D01*
X8367744Y-26810455D02*
X8339173Y-26810455D01*
X8339173Y-26810455D02*
X8320125Y-26819978D01*
X8320125Y-26819978D02*
X8310602Y-26829502D01*
X8520125Y-26943788D02*
X8501078Y-26934264D01*
X8501078Y-26934264D02*
X8491554Y-26924740D01*
X8491554Y-26924740D02*
X8482030Y-26905693D01*
X8482030Y-26905693D02*
X8482030Y-26848550D01*
X8482030Y-26848550D02*
X8491554Y-26829502D01*
X8491554Y-26829502D02*
X8501078Y-26819978D01*
X8501078Y-26819978D02*
X8520125Y-26810455D01*
X8520125Y-26810455D02*
X8548697Y-26810455D01*
X8548697Y-26810455D02*
X8567745Y-26819978D01*
X8567745Y-26819978D02*
X8577268Y-26829502D01*
X8577268Y-26829502D02*
X8586792Y-26848550D01*
X8586792Y-26848550D02*
X8586792Y-26905693D01*
X8586792Y-26905693D02*
X8577268Y-26924740D01*
X8577268Y-26924740D02*
X8567745Y-26934264D01*
X8567745Y-26934264D02*
X8548697Y-26943788D01*
X8548697Y-26943788D02*
X8520125Y-26943788D01*
X8701078Y-26943788D02*
X8682030Y-26934264D01*
X8682030Y-26934264D02*
X8672506Y-26915216D01*
X8672506Y-26915216D02*
X8672506Y-26743788D01*
X8853459Y-26934264D02*
X8834411Y-26943788D01*
X8834411Y-26943788D02*
X8796316Y-26943788D01*
X8796316Y-26943788D02*
X8777268Y-26934264D01*
X8777268Y-26934264D02*
X8767745Y-26915216D01*
X8767745Y-26915216D02*
X8767745Y-26839026D01*
X8767745Y-26839026D02*
X8777268Y-26819978D01*
X8777268Y-26819978D02*
X8796316Y-26810455D01*
X8796316Y-26810455D02*
X8834411Y-26810455D01*
X8834411Y-26810455D02*
X8853459Y-26819978D01*
X8853459Y-26819978D02*
X8862983Y-26839026D01*
X8862983Y-26839026D02*
X8862983Y-26858074D01*
X8862983Y-26858074D02*
X8767745Y-26877121D01*
X8939173Y-26934264D02*
X8958221Y-26943788D01*
X8958221Y-26943788D02*
X8996316Y-26943788D01*
X8996316Y-26943788D02*
X9015364Y-26934264D01*
X9015364Y-26934264D02*
X9024887Y-26915216D01*
X9024887Y-26915216D02*
X9024887Y-26905693D01*
X9024887Y-26905693D02*
X9015364Y-26886645D01*
X9015364Y-26886645D02*
X8996316Y-26877121D01*
X8996316Y-26877121D02*
X8967745Y-26877121D01*
X8967745Y-26877121D02*
X8948697Y-26867597D01*
X8948697Y-26867597D02*
X8939173Y-26848550D01*
X8939173Y-26848550D02*
X8939173Y-26839026D01*
X8939173Y-26839026D02*
X8948697Y-26819978D01*
X8948697Y-26819978D02*
X8967745Y-26810455D01*
X8967745Y-26810455D02*
X8996316Y-26810455D01*
X8996316Y-26810455D02*
X9015364Y-26819978D01*
X9091554Y-27019978D02*
X9101078Y-27010455D01*
X9101078Y-27010455D02*
X9120126Y-26981883D01*
X9120126Y-26981883D02*
X9129649Y-26962836D01*
X9129649Y-26962836D02*
X9139173Y-26934264D01*
X9139173Y-26934264D02*
X9148697Y-26886645D01*
X9148697Y-26886645D02*
X9148697Y-26848550D01*
X9148697Y-26848550D02*
X9139173Y-26800931D01*
X9139173Y-26800931D02*
X9129649Y-26772359D01*
X9129649Y-26772359D02*
X9120126Y-26753312D01*
X9120126Y-26753312D02*
X9101078Y-26724740D01*
X9101078Y-26724740D02*
X9091554Y-26715216D01*
D10*
X4086015Y-27156304D02*
X4126015Y-27116304D01*
X4086015Y-27076304D01*
X4046015Y-27116304D01*
X4086015Y-27156304D01*
D11*
X4424887Y-27007788D02*
X4443935Y-27007788D01*
X4443935Y-27007788D02*
X4462982Y-27017312D01*
X4462982Y-27017312D02*
X4472506Y-27026836D01*
X4472506Y-27026836D02*
X4482030Y-27045883D01*
X4482030Y-27045883D02*
X4491554Y-27083978D01*
X4491554Y-27083978D02*
X4491554Y-27131597D01*
X4491554Y-27131597D02*
X4482030Y-27169693D01*
X4482030Y-27169693D02*
X4472506Y-27188740D01*
X4472506Y-27188740D02*
X4462982Y-27198264D01*
X4462982Y-27198264D02*
X4443935Y-27207788D01*
X4443935Y-27207788D02*
X4424887Y-27207788D01*
X4424887Y-27207788D02*
X4405839Y-27198264D01*
X4405839Y-27198264D02*
X4396316Y-27188740D01*
X4396316Y-27188740D02*
X4386792Y-27169693D01*
X4386792Y-27169693D02*
X4377268Y-27131597D01*
X4377268Y-27131597D02*
X4377268Y-27083978D01*
X4377268Y-27083978D02*
X4386792Y-27045883D01*
X4386792Y-27045883D02*
X4396316Y-27026836D01*
X4396316Y-27026836D02*
X4405839Y-27017312D01*
X4405839Y-27017312D02*
X4424887Y-27007788D01*
X4577268Y-27188740D02*
X4586792Y-27198264D01*
X4586792Y-27198264D02*
X4577268Y-27207788D01*
X4577268Y-27207788D02*
X4567744Y-27198264D01*
X4567744Y-27198264D02*
X4577268Y-27188740D01*
X4577268Y-27188740D02*
X4577268Y-27207788D01*
X4701077Y-27093502D02*
X4682030Y-27083978D01*
X4682030Y-27083978D02*
X4672506Y-27074455D01*
X4672506Y-27074455D02*
X4662982Y-27055407D01*
X4662982Y-27055407D02*
X4662982Y-27045883D01*
X4662982Y-27045883D02*
X4672506Y-27026836D01*
X4672506Y-27026836D02*
X4682030Y-27017312D01*
X4682030Y-27017312D02*
X4701077Y-27007788D01*
X4701077Y-27007788D02*
X4739173Y-27007788D01*
X4739173Y-27007788D02*
X4758220Y-27017312D01*
X4758220Y-27017312D02*
X4767744Y-27026836D01*
X4767744Y-27026836D02*
X4777268Y-27045883D01*
X4777268Y-27045883D02*
X4777268Y-27055407D01*
X4777268Y-27055407D02*
X4767744Y-27074455D01*
X4767744Y-27074455D02*
X4758220Y-27083978D01*
X4758220Y-27083978D02*
X4739173Y-27093502D01*
X4739173Y-27093502D02*
X4701077Y-27093502D01*
X4701077Y-27093502D02*
X4682030Y-27103026D01*
X4682030Y-27103026D02*
X4672506Y-27112550D01*
X4672506Y-27112550D02*
X4662982Y-27131597D01*
X4662982Y-27131597D02*
X4662982Y-27169693D01*
X4662982Y-27169693D02*
X4672506Y-27188740D01*
X4672506Y-27188740D02*
X4682030Y-27198264D01*
X4682030Y-27198264D02*
X4701077Y-27207788D01*
X4701077Y-27207788D02*
X4739173Y-27207788D01*
X4739173Y-27207788D02*
X4758220Y-27198264D01*
X4758220Y-27198264D02*
X4767744Y-27188740D01*
X4767744Y-27188740D02*
X4777268Y-27169693D01*
X4777268Y-27169693D02*
X4777268Y-27131597D01*
X4777268Y-27131597D02*
X4767744Y-27112550D01*
X4767744Y-27112550D02*
X4758220Y-27103026D01*
X4758220Y-27103026D02*
X4739173Y-27093502D01*
X4901077Y-27007788D02*
X4920125Y-27007788D01*
X4920125Y-27007788D02*
X4939173Y-27017312D01*
X4939173Y-27017312D02*
X4948697Y-27026836D01*
X4948697Y-27026836D02*
X4958220Y-27045883D01*
X4958220Y-27045883D02*
X4967744Y-27083978D01*
X4967744Y-27083978D02*
X4967744Y-27131597D01*
X4967744Y-27131597D02*
X4958220Y-27169693D01*
X4958220Y-27169693D02*
X4948697Y-27188740D01*
X4948697Y-27188740D02*
X4939173Y-27198264D01*
X4939173Y-27198264D02*
X4920125Y-27207788D01*
X4920125Y-27207788D02*
X4901077Y-27207788D01*
X4901077Y-27207788D02*
X4882030Y-27198264D01*
X4882030Y-27198264D02*
X4872506Y-27188740D01*
X4872506Y-27188740D02*
X4862982Y-27169693D01*
X4862982Y-27169693D02*
X4853458Y-27131597D01*
X4853458Y-27131597D02*
X4853458Y-27083978D01*
X4853458Y-27083978D02*
X4862982Y-27045883D01*
X4862982Y-27045883D02*
X4872506Y-27026836D01*
X4872506Y-27026836D02*
X4882030Y-27017312D01*
X4882030Y-27017312D02*
X4901077Y-27007788D01*
X5091554Y-27007788D02*
X5110601Y-27007788D01*
X5110601Y-27007788D02*
X5129649Y-27017312D01*
X5129649Y-27017312D02*
X5139173Y-27026836D01*
X5139173Y-27026836D02*
X5148697Y-27045883D01*
X5148697Y-27045883D02*
X5158220Y-27083978D01*
X5158220Y-27083978D02*
X5158220Y-27131597D01*
X5158220Y-27131597D02*
X5148697Y-27169693D01*
X5148697Y-27169693D02*
X5139173Y-27188740D01*
X5139173Y-27188740D02*
X5129649Y-27198264D01*
X5129649Y-27198264D02*
X5110601Y-27207788D01*
X5110601Y-27207788D02*
X5091554Y-27207788D01*
X5091554Y-27207788D02*
X5072506Y-27198264D01*
X5072506Y-27198264D02*
X5062982Y-27188740D01*
X5062982Y-27188740D02*
X5053458Y-27169693D01*
X5053458Y-27169693D02*
X5043935Y-27131597D01*
X5043935Y-27131597D02*
X5043935Y-27083978D01*
X5043935Y-27083978D02*
X5053458Y-27045883D01*
X5053458Y-27045883D02*
X5062982Y-27026836D01*
X5062982Y-27026836D02*
X5072506Y-27017312D01*
X5072506Y-27017312D02*
X5091554Y-27007788D01*
X5243935Y-27207788D02*
X5243935Y-27074455D01*
X5243935Y-27093502D02*
X5253458Y-27083978D01*
X5253458Y-27083978D02*
X5272506Y-27074455D01*
X5272506Y-27074455D02*
X5301078Y-27074455D01*
X5301078Y-27074455D02*
X5320125Y-27083978D01*
X5320125Y-27083978D02*
X5329649Y-27103026D01*
X5329649Y-27103026D02*
X5329649Y-27207788D01*
X5329649Y-27103026D02*
X5339173Y-27083978D01*
X5339173Y-27083978D02*
X5358220Y-27074455D01*
X5358220Y-27074455D02*
X5386792Y-27074455D01*
X5386792Y-27074455D02*
X5405839Y-27083978D01*
X5405839Y-27083978D02*
X5415363Y-27103026D01*
X5415363Y-27103026D02*
X5415363Y-27207788D01*
X5510601Y-27207788D02*
X5510601Y-27074455D01*
X5510601Y-27093502D02*
X5520125Y-27083978D01*
X5520125Y-27083978D02*
X5539173Y-27074455D01*
X5539173Y-27074455D02*
X5567744Y-27074455D01*
X5567744Y-27074455D02*
X5586792Y-27083978D01*
X5586792Y-27083978D02*
X5596316Y-27103026D01*
X5596316Y-27103026D02*
X5596316Y-27207788D01*
X5596316Y-27103026D02*
X5605839Y-27083978D01*
X5605839Y-27083978D02*
X5624887Y-27074455D01*
X5624887Y-27074455D02*
X5653458Y-27074455D01*
X5653458Y-27074455D02*
X5672506Y-27083978D01*
X5672506Y-27083978D02*
X5682030Y-27103026D01*
X5682030Y-27103026D02*
X5682030Y-27207788D01*
X6072506Y-26998264D02*
X5901078Y-27255407D01*
X6329649Y-27007788D02*
X6348697Y-27007788D01*
X6348697Y-27007788D02*
X6367744Y-27017312D01*
X6367744Y-27017312D02*
X6377268Y-27026836D01*
X6377268Y-27026836D02*
X6386792Y-27045883D01*
X6386792Y-27045883D02*
X6396316Y-27083978D01*
X6396316Y-27083978D02*
X6396316Y-27131597D01*
X6396316Y-27131597D02*
X6386792Y-27169693D01*
X6386792Y-27169693D02*
X6377268Y-27188740D01*
X6377268Y-27188740D02*
X6367744Y-27198264D01*
X6367744Y-27198264D02*
X6348697Y-27207788D01*
X6348697Y-27207788D02*
X6329649Y-27207788D01*
X6329649Y-27207788D02*
X6310601Y-27198264D01*
X6310601Y-27198264D02*
X6301078Y-27188740D01*
X6301078Y-27188740D02*
X6291554Y-27169693D01*
X6291554Y-27169693D02*
X6282030Y-27131597D01*
X6282030Y-27131597D02*
X6282030Y-27083978D01*
X6282030Y-27083978D02*
X6291554Y-27045883D01*
X6291554Y-27045883D02*
X6301078Y-27026836D01*
X6301078Y-27026836D02*
X6310601Y-27017312D01*
X6310601Y-27017312D02*
X6329649Y-27007788D01*
X6482030Y-27188740D02*
X6491554Y-27198264D01*
X6491554Y-27198264D02*
X6482030Y-27207788D01*
X6482030Y-27207788D02*
X6472506Y-27198264D01*
X6472506Y-27198264D02*
X6482030Y-27188740D01*
X6482030Y-27188740D02*
X6482030Y-27207788D01*
X6615363Y-27007788D02*
X6634411Y-27007788D01*
X6634411Y-27007788D02*
X6653459Y-27017312D01*
X6653459Y-27017312D02*
X6662982Y-27026836D01*
X6662982Y-27026836D02*
X6672506Y-27045883D01*
X6672506Y-27045883D02*
X6682030Y-27083978D01*
X6682030Y-27083978D02*
X6682030Y-27131597D01*
X6682030Y-27131597D02*
X6672506Y-27169693D01*
X6672506Y-27169693D02*
X6662982Y-27188740D01*
X6662982Y-27188740D02*
X6653459Y-27198264D01*
X6653459Y-27198264D02*
X6634411Y-27207788D01*
X6634411Y-27207788D02*
X6615363Y-27207788D01*
X6615363Y-27207788D02*
X6596316Y-27198264D01*
X6596316Y-27198264D02*
X6586792Y-27188740D01*
X6586792Y-27188740D02*
X6577268Y-27169693D01*
X6577268Y-27169693D02*
X6567744Y-27131597D01*
X6567744Y-27131597D02*
X6567744Y-27083978D01*
X6567744Y-27083978D02*
X6577268Y-27045883D01*
X6577268Y-27045883D02*
X6586792Y-27026836D01*
X6586792Y-27026836D02*
X6596316Y-27017312D01*
X6596316Y-27017312D02*
X6615363Y-27007788D01*
X6748697Y-27007788D02*
X6872506Y-27007788D01*
X6872506Y-27007788D02*
X6805839Y-27083978D01*
X6805839Y-27083978D02*
X6834411Y-27083978D01*
X6834411Y-27083978D02*
X6853459Y-27093502D01*
X6853459Y-27093502D02*
X6862982Y-27103026D01*
X6862982Y-27103026D02*
X6872506Y-27122074D01*
X6872506Y-27122074D02*
X6872506Y-27169693D01*
X6872506Y-27169693D02*
X6862982Y-27188740D01*
X6862982Y-27188740D02*
X6853459Y-27198264D01*
X6853459Y-27198264D02*
X6834411Y-27207788D01*
X6834411Y-27207788D02*
X6777268Y-27207788D01*
X6777268Y-27207788D02*
X6758220Y-27198264D01*
X6758220Y-27198264D02*
X6748697Y-27188740D01*
X7062982Y-27207788D02*
X6948697Y-27207788D01*
X7005839Y-27207788D02*
X7005839Y-27007788D01*
X7005839Y-27007788D02*
X6986792Y-27036359D01*
X6986792Y-27036359D02*
X6967744Y-27055407D01*
X6967744Y-27055407D02*
X6948697Y-27064931D01*
X7243935Y-27007788D02*
X7148697Y-27007788D01*
X7148697Y-27007788D02*
X7139173Y-27103026D01*
X7139173Y-27103026D02*
X7148697Y-27093502D01*
X7148697Y-27093502D02*
X7167744Y-27083978D01*
X7167744Y-27083978D02*
X7215363Y-27083978D01*
X7215363Y-27083978D02*
X7234411Y-27093502D01*
X7234411Y-27093502D02*
X7243935Y-27103026D01*
X7243935Y-27103026D02*
X7253459Y-27122074D01*
X7253459Y-27122074D02*
X7253459Y-27169693D01*
X7253459Y-27169693D02*
X7243935Y-27188740D01*
X7243935Y-27188740D02*
X7234411Y-27198264D01*
X7234411Y-27198264D02*
X7215363Y-27207788D01*
X7215363Y-27207788D02*
X7167744Y-27207788D01*
X7167744Y-27207788D02*
X7148697Y-27198264D01*
X7148697Y-27198264D02*
X7139173Y-27188740D01*
X7329649Y-27007788D02*
X7329649Y-27045883D01*
X7405840Y-27007788D02*
X7405840Y-27045883D01*
X7701078Y-27283978D02*
X7691554Y-27274455D01*
X7691554Y-27274455D02*
X7672506Y-27245883D01*
X7672506Y-27245883D02*
X7662982Y-27226836D01*
X7662982Y-27226836D02*
X7653459Y-27198264D01*
X7653459Y-27198264D02*
X7643935Y-27150645D01*
X7643935Y-27150645D02*
X7643935Y-27112550D01*
X7643935Y-27112550D02*
X7653459Y-27064931D01*
X7653459Y-27064931D02*
X7662982Y-27036359D01*
X7662982Y-27036359D02*
X7672506Y-27017312D01*
X7672506Y-27017312D02*
X7691554Y-26988740D01*
X7691554Y-26988740D02*
X7701078Y-26979216D01*
X7767744Y-27026836D02*
X7777268Y-27017312D01*
X7777268Y-27017312D02*
X7796316Y-27007788D01*
X7796316Y-27007788D02*
X7843935Y-27007788D01*
X7843935Y-27007788D02*
X7862982Y-27017312D01*
X7862982Y-27017312D02*
X7872506Y-27026836D01*
X7872506Y-27026836D02*
X7882030Y-27045883D01*
X7882030Y-27045883D02*
X7882030Y-27064931D01*
X7882030Y-27064931D02*
X7872506Y-27093502D01*
X7872506Y-27093502D02*
X7758221Y-27207788D01*
X7758221Y-27207788D02*
X7882030Y-27207788D01*
X7996316Y-27093502D02*
X7977268Y-27083978D01*
X7977268Y-27083978D02*
X7967744Y-27074455D01*
X7967744Y-27074455D02*
X7958221Y-27055407D01*
X7958221Y-27055407D02*
X7958221Y-27045883D01*
X7958221Y-27045883D02*
X7967744Y-27026836D01*
X7967744Y-27026836D02*
X7977268Y-27017312D01*
X7977268Y-27017312D02*
X7996316Y-27007788D01*
X7996316Y-27007788D02*
X8034411Y-27007788D01*
X8034411Y-27007788D02*
X8053459Y-27017312D01*
X8053459Y-27017312D02*
X8062982Y-27026836D01*
X8062982Y-27026836D02*
X8072506Y-27045883D01*
X8072506Y-27045883D02*
X8072506Y-27055407D01*
X8072506Y-27055407D02*
X8062982Y-27074455D01*
X8062982Y-27074455D02*
X8053459Y-27083978D01*
X8053459Y-27083978D02*
X8034411Y-27093502D01*
X8034411Y-27093502D02*
X7996316Y-27093502D01*
X7996316Y-27093502D02*
X7977268Y-27103026D01*
X7977268Y-27103026D02*
X7967744Y-27112550D01*
X7967744Y-27112550D02*
X7958221Y-27131597D01*
X7958221Y-27131597D02*
X7958221Y-27169693D01*
X7958221Y-27169693D02*
X7967744Y-27188740D01*
X7967744Y-27188740D02*
X7977268Y-27198264D01*
X7977268Y-27198264D02*
X7996316Y-27207788D01*
X7996316Y-27207788D02*
X8034411Y-27207788D01*
X8034411Y-27207788D02*
X8053459Y-27198264D01*
X8053459Y-27198264D02*
X8062982Y-27188740D01*
X8062982Y-27188740D02*
X8072506Y-27169693D01*
X8072506Y-27169693D02*
X8072506Y-27131597D01*
X8072506Y-27131597D02*
X8062982Y-27112550D01*
X8062982Y-27112550D02*
X8053459Y-27103026D01*
X8053459Y-27103026D02*
X8034411Y-27093502D01*
X8310602Y-27207788D02*
X8310602Y-27007788D01*
X8396316Y-27207788D02*
X8396316Y-27103026D01*
X8396316Y-27103026D02*
X8386792Y-27083978D01*
X8386792Y-27083978D02*
X8367744Y-27074455D01*
X8367744Y-27074455D02*
X8339173Y-27074455D01*
X8339173Y-27074455D02*
X8320125Y-27083978D01*
X8320125Y-27083978D02*
X8310602Y-27093502D01*
X8520125Y-27207788D02*
X8501078Y-27198264D01*
X8501078Y-27198264D02*
X8491554Y-27188740D01*
X8491554Y-27188740D02*
X8482030Y-27169693D01*
X8482030Y-27169693D02*
X8482030Y-27112550D01*
X8482030Y-27112550D02*
X8491554Y-27093502D01*
X8491554Y-27093502D02*
X8501078Y-27083978D01*
X8501078Y-27083978D02*
X8520125Y-27074455D01*
X8520125Y-27074455D02*
X8548697Y-27074455D01*
X8548697Y-27074455D02*
X8567745Y-27083978D01*
X8567745Y-27083978D02*
X8577268Y-27093502D01*
X8577268Y-27093502D02*
X8586792Y-27112550D01*
X8586792Y-27112550D02*
X8586792Y-27169693D01*
X8586792Y-27169693D02*
X8577268Y-27188740D01*
X8577268Y-27188740D02*
X8567745Y-27198264D01*
X8567745Y-27198264D02*
X8548697Y-27207788D01*
X8548697Y-27207788D02*
X8520125Y-27207788D01*
X8701078Y-27207788D02*
X8682030Y-27198264D01*
X8682030Y-27198264D02*
X8672506Y-27179216D01*
X8672506Y-27179216D02*
X8672506Y-27007788D01*
X8853459Y-27198264D02*
X8834411Y-27207788D01*
X8834411Y-27207788D02*
X8796316Y-27207788D01*
X8796316Y-27207788D02*
X8777268Y-27198264D01*
X8777268Y-27198264D02*
X8767745Y-27179216D01*
X8767745Y-27179216D02*
X8767745Y-27103026D01*
X8767745Y-27103026D02*
X8777268Y-27083978D01*
X8777268Y-27083978D02*
X8796316Y-27074455D01*
X8796316Y-27074455D02*
X8834411Y-27074455D01*
X8834411Y-27074455D02*
X8853459Y-27083978D01*
X8853459Y-27083978D02*
X8862983Y-27103026D01*
X8862983Y-27103026D02*
X8862983Y-27122074D01*
X8862983Y-27122074D02*
X8767745Y-27141121D01*
X8939173Y-27198264D02*
X8958221Y-27207788D01*
X8958221Y-27207788D02*
X8996316Y-27207788D01*
X8996316Y-27207788D02*
X9015364Y-27198264D01*
X9015364Y-27198264D02*
X9024887Y-27179216D01*
X9024887Y-27179216D02*
X9024887Y-27169693D01*
X9024887Y-27169693D02*
X9015364Y-27150645D01*
X9015364Y-27150645D02*
X8996316Y-27141121D01*
X8996316Y-27141121D02*
X8967745Y-27141121D01*
X8967745Y-27141121D02*
X8948697Y-27131597D01*
X8948697Y-27131597D02*
X8939173Y-27112550D01*
X8939173Y-27112550D02*
X8939173Y-27103026D01*
X8939173Y-27103026D02*
X8948697Y-27083978D01*
X8948697Y-27083978D02*
X8967745Y-27074455D01*
X8967745Y-27074455D02*
X8996316Y-27074455D01*
X8996316Y-27074455D02*
X9015364Y-27083978D01*
X9091554Y-27283978D02*
X9101078Y-27274455D01*
X9101078Y-27274455D02*
X9120126Y-27245883D01*
X9120126Y-27245883D02*
X9129649Y-27226836D01*
X9129649Y-27226836D02*
X9139173Y-27198264D01*
X9139173Y-27198264D02*
X9148697Y-27150645D01*
X9148697Y-27150645D02*
X9148697Y-27112550D01*
X9148697Y-27112550D02*
X9139173Y-27064931D01*
X9139173Y-27064931D02*
X9129649Y-27036359D01*
X9129649Y-27036359D02*
X9120126Y-27017312D01*
X9120126Y-27017312D02*
X9101078Y-26988740D01*
X9101078Y-26988740D02*
X9091554Y-26979216D01*
D12*
X4024015Y-27329304D02*
X4126015Y-27431304D01*
X4126015Y-27329304D02*
X4024015Y-27431304D01*
X4126015Y-27380304D02*
G75*
G02*
X4024015Y-27380304I-51000J0D01*
G01*
X4024015Y-27380304D02*
G75*
G02*
X4126015Y-27380304I51000J0D01*
G01*
D11*
X4491554Y-27471788D02*
X4377268Y-27471788D01*
X4434411Y-27471788D02*
X4434411Y-27271788D01*
X4434411Y-27271788D02*
X4415363Y-27300359D01*
X4415363Y-27300359D02*
X4396316Y-27319407D01*
X4396316Y-27319407D02*
X4377268Y-27328931D01*
X4577268Y-27452740D02*
X4586792Y-27462264D01*
X4586792Y-27462264D02*
X4577268Y-27471788D01*
X4577268Y-27471788D02*
X4567744Y-27462264D01*
X4567744Y-27462264D02*
X4577268Y-27452740D01*
X4577268Y-27452740D02*
X4577268Y-27471788D01*
X4710601Y-27271788D02*
X4729649Y-27271788D01*
X4729649Y-27271788D02*
X4748697Y-27281312D01*
X4748697Y-27281312D02*
X4758220Y-27290836D01*
X4758220Y-27290836D02*
X4767744Y-27309883D01*
X4767744Y-27309883D02*
X4777268Y-27347978D01*
X4777268Y-27347978D02*
X4777268Y-27395597D01*
X4777268Y-27395597D02*
X4767744Y-27433693D01*
X4767744Y-27433693D02*
X4758220Y-27452740D01*
X4758220Y-27452740D02*
X4748697Y-27462264D01*
X4748697Y-27462264D02*
X4729649Y-27471788D01*
X4729649Y-27471788D02*
X4710601Y-27471788D01*
X4710601Y-27471788D02*
X4691554Y-27462264D01*
X4691554Y-27462264D02*
X4682030Y-27452740D01*
X4682030Y-27452740D02*
X4672506Y-27433693D01*
X4672506Y-27433693D02*
X4662982Y-27395597D01*
X4662982Y-27395597D02*
X4662982Y-27347978D01*
X4662982Y-27347978D02*
X4672506Y-27309883D01*
X4672506Y-27309883D02*
X4682030Y-27290836D01*
X4682030Y-27290836D02*
X4691554Y-27281312D01*
X4691554Y-27281312D02*
X4710601Y-27271788D01*
X4853458Y-27290836D02*
X4862982Y-27281312D01*
X4862982Y-27281312D02*
X4882030Y-27271788D01*
X4882030Y-27271788D02*
X4929649Y-27271788D01*
X4929649Y-27271788D02*
X4948697Y-27281312D01*
X4948697Y-27281312D02*
X4958220Y-27290836D01*
X4958220Y-27290836D02*
X4967744Y-27309883D01*
X4967744Y-27309883D02*
X4967744Y-27328931D01*
X4967744Y-27328931D02*
X4958220Y-27357502D01*
X4958220Y-27357502D02*
X4843935Y-27471788D01*
X4843935Y-27471788D02*
X4967744Y-27471788D01*
X5091554Y-27271788D02*
X5110601Y-27271788D01*
X5110601Y-27271788D02*
X5129649Y-27281312D01*
X5129649Y-27281312D02*
X5139173Y-27290836D01*
X5139173Y-27290836D02*
X5148697Y-27309883D01*
X5148697Y-27309883D02*
X5158220Y-27347978D01*
X5158220Y-27347978D02*
X5158220Y-27395597D01*
X5158220Y-27395597D02*
X5148697Y-27433693D01*
X5148697Y-27433693D02*
X5139173Y-27452740D01*
X5139173Y-27452740D02*
X5129649Y-27462264D01*
X5129649Y-27462264D02*
X5110601Y-27471788D01*
X5110601Y-27471788D02*
X5091554Y-27471788D01*
X5091554Y-27471788D02*
X5072506Y-27462264D01*
X5072506Y-27462264D02*
X5062982Y-27452740D01*
X5062982Y-27452740D02*
X5053458Y-27433693D01*
X5053458Y-27433693D02*
X5043935Y-27395597D01*
X5043935Y-27395597D02*
X5043935Y-27347978D01*
X5043935Y-27347978D02*
X5053458Y-27309883D01*
X5053458Y-27309883D02*
X5062982Y-27290836D01*
X5062982Y-27290836D02*
X5072506Y-27281312D01*
X5072506Y-27281312D02*
X5091554Y-27271788D01*
X5243935Y-27471788D02*
X5243935Y-27338455D01*
X5243935Y-27357502D02*
X5253458Y-27347978D01*
X5253458Y-27347978D02*
X5272506Y-27338455D01*
X5272506Y-27338455D02*
X5301078Y-27338455D01*
X5301078Y-27338455D02*
X5320125Y-27347978D01*
X5320125Y-27347978D02*
X5329649Y-27367026D01*
X5329649Y-27367026D02*
X5329649Y-27471788D01*
X5329649Y-27367026D02*
X5339173Y-27347978D01*
X5339173Y-27347978D02*
X5358220Y-27338455D01*
X5358220Y-27338455D02*
X5386792Y-27338455D01*
X5386792Y-27338455D02*
X5405839Y-27347978D01*
X5405839Y-27347978D02*
X5415363Y-27367026D01*
X5415363Y-27367026D02*
X5415363Y-27471788D01*
X5510601Y-27471788D02*
X5510601Y-27338455D01*
X5510601Y-27357502D02*
X5520125Y-27347978D01*
X5520125Y-27347978D02*
X5539173Y-27338455D01*
X5539173Y-27338455D02*
X5567744Y-27338455D01*
X5567744Y-27338455D02*
X5586792Y-27347978D01*
X5586792Y-27347978D02*
X5596316Y-27367026D01*
X5596316Y-27367026D02*
X5596316Y-27471788D01*
X5596316Y-27367026D02*
X5605839Y-27347978D01*
X5605839Y-27347978D02*
X5624887Y-27338455D01*
X5624887Y-27338455D02*
X5653458Y-27338455D01*
X5653458Y-27338455D02*
X5672506Y-27347978D01*
X5672506Y-27347978D02*
X5682030Y-27367026D01*
X5682030Y-27367026D02*
X5682030Y-27471788D01*
X6072506Y-27262264D02*
X5901078Y-27519407D01*
X6329649Y-27271788D02*
X6348697Y-27271788D01*
X6348697Y-27271788D02*
X6367744Y-27281312D01*
X6367744Y-27281312D02*
X6377268Y-27290836D01*
X6377268Y-27290836D02*
X6386792Y-27309883D01*
X6386792Y-27309883D02*
X6396316Y-27347978D01*
X6396316Y-27347978D02*
X6396316Y-27395597D01*
X6396316Y-27395597D02*
X6386792Y-27433693D01*
X6386792Y-27433693D02*
X6377268Y-27452740D01*
X6377268Y-27452740D02*
X6367744Y-27462264D01*
X6367744Y-27462264D02*
X6348697Y-27471788D01*
X6348697Y-27471788D02*
X6329649Y-27471788D01*
X6329649Y-27471788D02*
X6310601Y-27462264D01*
X6310601Y-27462264D02*
X6301078Y-27452740D01*
X6301078Y-27452740D02*
X6291554Y-27433693D01*
X6291554Y-27433693D02*
X6282030Y-27395597D01*
X6282030Y-27395597D02*
X6282030Y-27347978D01*
X6282030Y-27347978D02*
X6291554Y-27309883D01*
X6291554Y-27309883D02*
X6301078Y-27290836D01*
X6301078Y-27290836D02*
X6310601Y-27281312D01*
X6310601Y-27281312D02*
X6329649Y-27271788D01*
X6482030Y-27452740D02*
X6491554Y-27462264D01*
X6491554Y-27462264D02*
X6482030Y-27471788D01*
X6482030Y-27471788D02*
X6472506Y-27462264D01*
X6472506Y-27462264D02*
X6482030Y-27452740D01*
X6482030Y-27452740D02*
X6482030Y-27471788D01*
X6615363Y-27271788D02*
X6634411Y-27271788D01*
X6634411Y-27271788D02*
X6653459Y-27281312D01*
X6653459Y-27281312D02*
X6662982Y-27290836D01*
X6662982Y-27290836D02*
X6672506Y-27309883D01*
X6672506Y-27309883D02*
X6682030Y-27347978D01*
X6682030Y-27347978D02*
X6682030Y-27395597D01*
X6682030Y-27395597D02*
X6672506Y-27433693D01*
X6672506Y-27433693D02*
X6662982Y-27452740D01*
X6662982Y-27452740D02*
X6653459Y-27462264D01*
X6653459Y-27462264D02*
X6634411Y-27471788D01*
X6634411Y-27471788D02*
X6615363Y-27471788D01*
X6615363Y-27471788D02*
X6596316Y-27462264D01*
X6596316Y-27462264D02*
X6586792Y-27452740D01*
X6586792Y-27452740D02*
X6577268Y-27433693D01*
X6577268Y-27433693D02*
X6567744Y-27395597D01*
X6567744Y-27395597D02*
X6567744Y-27347978D01*
X6567744Y-27347978D02*
X6577268Y-27309883D01*
X6577268Y-27309883D02*
X6586792Y-27290836D01*
X6586792Y-27290836D02*
X6596316Y-27281312D01*
X6596316Y-27281312D02*
X6615363Y-27271788D01*
X6853459Y-27338455D02*
X6853459Y-27471788D01*
X6805839Y-27262264D02*
X6758220Y-27405121D01*
X6758220Y-27405121D02*
X6882030Y-27405121D01*
X6996316Y-27271788D02*
X7015363Y-27271788D01*
X7015363Y-27271788D02*
X7034411Y-27281312D01*
X7034411Y-27281312D02*
X7043935Y-27290836D01*
X7043935Y-27290836D02*
X7053459Y-27309883D01*
X7053459Y-27309883D02*
X7062982Y-27347978D01*
X7062982Y-27347978D02*
X7062982Y-27395597D01*
X7062982Y-27395597D02*
X7053459Y-27433693D01*
X7053459Y-27433693D02*
X7043935Y-27452740D01*
X7043935Y-27452740D02*
X7034411Y-27462264D01*
X7034411Y-27462264D02*
X7015363Y-27471788D01*
X7015363Y-27471788D02*
X6996316Y-27471788D01*
X6996316Y-27471788D02*
X6977268Y-27462264D01*
X6977268Y-27462264D02*
X6967744Y-27452740D01*
X6967744Y-27452740D02*
X6958220Y-27433693D01*
X6958220Y-27433693D02*
X6948697Y-27395597D01*
X6948697Y-27395597D02*
X6948697Y-27347978D01*
X6948697Y-27347978D02*
X6958220Y-27309883D01*
X6958220Y-27309883D02*
X6967744Y-27290836D01*
X6967744Y-27290836D02*
X6977268Y-27281312D01*
X6977268Y-27281312D02*
X6996316Y-27271788D01*
X7139173Y-27290836D02*
X7148697Y-27281312D01*
X7148697Y-27281312D02*
X7167744Y-27271788D01*
X7167744Y-27271788D02*
X7215363Y-27271788D01*
X7215363Y-27271788D02*
X7234411Y-27281312D01*
X7234411Y-27281312D02*
X7243935Y-27290836D01*
X7243935Y-27290836D02*
X7253459Y-27309883D01*
X7253459Y-27309883D02*
X7253459Y-27328931D01*
X7253459Y-27328931D02*
X7243935Y-27357502D01*
X7243935Y-27357502D02*
X7129649Y-27471788D01*
X7129649Y-27471788D02*
X7253459Y-27471788D01*
X7329649Y-27271788D02*
X7329649Y-27309883D01*
X7405840Y-27271788D02*
X7405840Y-27309883D01*
X7701078Y-27547978D02*
X7691554Y-27538455D01*
X7691554Y-27538455D02*
X7672506Y-27509883D01*
X7672506Y-27509883D02*
X7662982Y-27490836D01*
X7662982Y-27490836D02*
X7653459Y-27462264D01*
X7653459Y-27462264D02*
X7643935Y-27414645D01*
X7643935Y-27414645D02*
X7643935Y-27376550D01*
X7643935Y-27376550D02*
X7653459Y-27328931D01*
X7653459Y-27328931D02*
X7662982Y-27300359D01*
X7662982Y-27300359D02*
X7672506Y-27281312D01*
X7672506Y-27281312D02*
X7691554Y-27252740D01*
X7691554Y-27252740D02*
X7701078Y-27243216D01*
X7767744Y-27290836D02*
X7777268Y-27281312D01*
X7777268Y-27281312D02*
X7796316Y-27271788D01*
X7796316Y-27271788D02*
X7843935Y-27271788D01*
X7843935Y-27271788D02*
X7862982Y-27281312D01*
X7862982Y-27281312D02*
X7872506Y-27290836D01*
X7872506Y-27290836D02*
X7882030Y-27309883D01*
X7882030Y-27309883D02*
X7882030Y-27328931D01*
X7882030Y-27328931D02*
X7872506Y-27357502D01*
X7872506Y-27357502D02*
X7758221Y-27471788D01*
X7758221Y-27471788D02*
X7882030Y-27471788D01*
X8120125Y-27471788D02*
X8120125Y-27271788D01*
X8205840Y-27471788D02*
X8205840Y-27367026D01*
X8205840Y-27367026D02*
X8196316Y-27347978D01*
X8196316Y-27347978D02*
X8177268Y-27338455D01*
X8177268Y-27338455D02*
X8148697Y-27338455D01*
X8148697Y-27338455D02*
X8129649Y-27347978D01*
X8129649Y-27347978D02*
X8120125Y-27357502D01*
X8329649Y-27471788D02*
X8310602Y-27462264D01*
X8310602Y-27462264D02*
X8301078Y-27452740D01*
X8301078Y-27452740D02*
X8291554Y-27433693D01*
X8291554Y-27433693D02*
X8291554Y-27376550D01*
X8291554Y-27376550D02*
X8301078Y-27357502D01*
X8301078Y-27357502D02*
X8310602Y-27347978D01*
X8310602Y-27347978D02*
X8329649Y-27338455D01*
X8329649Y-27338455D02*
X8358221Y-27338455D01*
X8358221Y-27338455D02*
X8377268Y-27347978D01*
X8377268Y-27347978D02*
X8386792Y-27357502D01*
X8386792Y-27357502D02*
X8396316Y-27376550D01*
X8396316Y-27376550D02*
X8396316Y-27433693D01*
X8396316Y-27433693D02*
X8386792Y-27452740D01*
X8386792Y-27452740D02*
X8377268Y-27462264D01*
X8377268Y-27462264D02*
X8358221Y-27471788D01*
X8358221Y-27471788D02*
X8329649Y-27471788D01*
X8510602Y-27471788D02*
X8491554Y-27462264D01*
X8491554Y-27462264D02*
X8482030Y-27443216D01*
X8482030Y-27443216D02*
X8482030Y-27271788D01*
X8662983Y-27462264D02*
X8643935Y-27471788D01*
X8643935Y-27471788D02*
X8605840Y-27471788D01*
X8605840Y-27471788D02*
X8586792Y-27462264D01*
X8586792Y-27462264D02*
X8577268Y-27443216D01*
X8577268Y-27443216D02*
X8577268Y-27367026D01*
X8577268Y-27367026D02*
X8586792Y-27347978D01*
X8586792Y-27347978D02*
X8605840Y-27338455D01*
X8605840Y-27338455D02*
X8643935Y-27338455D01*
X8643935Y-27338455D02*
X8662983Y-27347978D01*
X8662983Y-27347978D02*
X8672506Y-27367026D01*
X8672506Y-27367026D02*
X8672506Y-27386074D01*
X8672506Y-27386074D02*
X8577268Y-27405121D01*
X8748697Y-27462264D02*
X8767745Y-27471788D01*
X8767745Y-27471788D02*
X8805840Y-27471788D01*
X8805840Y-27471788D02*
X8824887Y-27462264D01*
X8824887Y-27462264D02*
X8834411Y-27443216D01*
X8834411Y-27443216D02*
X8834411Y-27433693D01*
X8834411Y-27433693D02*
X8824887Y-27414645D01*
X8824887Y-27414645D02*
X8805840Y-27405121D01*
X8805840Y-27405121D02*
X8777268Y-27405121D01*
X8777268Y-27405121D02*
X8758221Y-27395597D01*
X8758221Y-27395597D02*
X8748697Y-27376550D01*
X8748697Y-27376550D02*
X8748697Y-27367026D01*
X8748697Y-27367026D02*
X8758221Y-27347978D01*
X8758221Y-27347978D02*
X8777268Y-27338455D01*
X8777268Y-27338455D02*
X8805840Y-27338455D01*
X8805840Y-27338455D02*
X8824887Y-27347978D01*
X8901078Y-27547978D02*
X8910602Y-27538455D01*
X8910602Y-27538455D02*
X8929649Y-27509883D01*
X8929649Y-27509883D02*
X8939173Y-27490836D01*
X8939173Y-27490836D02*
X8948697Y-27462264D01*
X8948697Y-27462264D02*
X8958221Y-27414645D01*
X8958221Y-27414645D02*
X8958221Y-27376550D01*
X8958221Y-27376550D02*
X8948697Y-27328931D01*
X8948697Y-27328931D02*
X8939173Y-27300359D01*
X8939173Y-27300359D02*
X8929649Y-27281312D01*
X8929649Y-27281312D02*
X8910602Y-27252740D01*
X8910602Y-27252740D02*
X8901078Y-27243216D01*
D13*
X3996015Y-27579304D02*
X4126015Y-27709304D01*
X4126015Y-27579304D02*
X3996015Y-27709304D01*
X4061015Y-27579304D02*
X4061015Y-27709304D01*
X3996015Y-27644304D02*
X4126015Y-27644304D01*
D11*
X4491554Y-27735788D02*
X4377268Y-27735788D01*
X4434411Y-27735788D02*
X4434411Y-27535788D01*
X4434411Y-27535788D02*
X4415363Y-27564359D01*
X4415363Y-27564359D02*
X4396316Y-27583407D01*
X4396316Y-27583407D02*
X4377268Y-27592931D01*
X4577268Y-27716740D02*
X4586792Y-27726264D01*
X4586792Y-27726264D02*
X4577268Y-27735788D01*
X4577268Y-27735788D02*
X4567744Y-27726264D01*
X4567744Y-27726264D02*
X4577268Y-27716740D01*
X4577268Y-27716740D02*
X4577268Y-27735788D01*
X4653458Y-27535788D02*
X4777268Y-27535788D01*
X4777268Y-27535788D02*
X4710601Y-27611978D01*
X4710601Y-27611978D02*
X4739173Y-27611978D01*
X4739173Y-27611978D02*
X4758220Y-27621502D01*
X4758220Y-27621502D02*
X4767744Y-27631026D01*
X4767744Y-27631026D02*
X4777268Y-27650074D01*
X4777268Y-27650074D02*
X4777268Y-27697693D01*
X4777268Y-27697693D02*
X4767744Y-27716740D01*
X4767744Y-27716740D02*
X4758220Y-27726264D01*
X4758220Y-27726264D02*
X4739173Y-27735788D01*
X4739173Y-27735788D02*
X4682030Y-27735788D01*
X4682030Y-27735788D02*
X4662982Y-27726264D01*
X4662982Y-27726264D02*
X4653458Y-27716740D01*
X4901077Y-27535788D02*
X4920125Y-27535788D01*
X4920125Y-27535788D02*
X4939173Y-27545312D01*
X4939173Y-27545312D02*
X4948697Y-27554836D01*
X4948697Y-27554836D02*
X4958220Y-27573883D01*
X4958220Y-27573883D02*
X4967744Y-27611978D01*
X4967744Y-27611978D02*
X4967744Y-27659597D01*
X4967744Y-27659597D02*
X4958220Y-27697693D01*
X4958220Y-27697693D02*
X4948697Y-27716740D01*
X4948697Y-27716740D02*
X4939173Y-27726264D01*
X4939173Y-27726264D02*
X4920125Y-27735788D01*
X4920125Y-27735788D02*
X4901077Y-27735788D01*
X4901077Y-27735788D02*
X4882030Y-27726264D01*
X4882030Y-27726264D02*
X4872506Y-27716740D01*
X4872506Y-27716740D02*
X4862982Y-27697693D01*
X4862982Y-27697693D02*
X4853458Y-27659597D01*
X4853458Y-27659597D02*
X4853458Y-27611978D01*
X4853458Y-27611978D02*
X4862982Y-27573883D01*
X4862982Y-27573883D02*
X4872506Y-27554836D01*
X4872506Y-27554836D02*
X4882030Y-27545312D01*
X4882030Y-27545312D02*
X4901077Y-27535788D01*
X5091554Y-27535788D02*
X5110601Y-27535788D01*
X5110601Y-27535788D02*
X5129649Y-27545312D01*
X5129649Y-27545312D02*
X5139173Y-27554836D01*
X5139173Y-27554836D02*
X5148697Y-27573883D01*
X5148697Y-27573883D02*
X5158220Y-27611978D01*
X5158220Y-27611978D02*
X5158220Y-27659597D01*
X5158220Y-27659597D02*
X5148697Y-27697693D01*
X5148697Y-27697693D02*
X5139173Y-27716740D01*
X5139173Y-27716740D02*
X5129649Y-27726264D01*
X5129649Y-27726264D02*
X5110601Y-27735788D01*
X5110601Y-27735788D02*
X5091554Y-27735788D01*
X5091554Y-27735788D02*
X5072506Y-27726264D01*
X5072506Y-27726264D02*
X5062982Y-27716740D01*
X5062982Y-27716740D02*
X5053458Y-27697693D01*
X5053458Y-27697693D02*
X5043935Y-27659597D01*
X5043935Y-27659597D02*
X5043935Y-27611978D01*
X5043935Y-27611978D02*
X5053458Y-27573883D01*
X5053458Y-27573883D02*
X5062982Y-27554836D01*
X5062982Y-27554836D02*
X5072506Y-27545312D01*
X5072506Y-27545312D02*
X5091554Y-27535788D01*
X5243935Y-27735788D02*
X5243935Y-27602455D01*
X5243935Y-27621502D02*
X5253458Y-27611978D01*
X5253458Y-27611978D02*
X5272506Y-27602455D01*
X5272506Y-27602455D02*
X5301078Y-27602455D01*
X5301078Y-27602455D02*
X5320125Y-27611978D01*
X5320125Y-27611978D02*
X5329649Y-27631026D01*
X5329649Y-27631026D02*
X5329649Y-27735788D01*
X5329649Y-27631026D02*
X5339173Y-27611978D01*
X5339173Y-27611978D02*
X5358220Y-27602455D01*
X5358220Y-27602455D02*
X5386792Y-27602455D01*
X5386792Y-27602455D02*
X5405839Y-27611978D01*
X5405839Y-27611978D02*
X5415363Y-27631026D01*
X5415363Y-27631026D02*
X5415363Y-27735788D01*
X5510601Y-27735788D02*
X5510601Y-27602455D01*
X5510601Y-27621502D02*
X5520125Y-27611978D01*
X5520125Y-27611978D02*
X5539173Y-27602455D01*
X5539173Y-27602455D02*
X5567744Y-27602455D01*
X5567744Y-27602455D02*
X5586792Y-27611978D01*
X5586792Y-27611978D02*
X5596316Y-27631026D01*
X5596316Y-27631026D02*
X5596316Y-27735788D01*
X5596316Y-27631026D02*
X5605839Y-27611978D01*
X5605839Y-27611978D02*
X5624887Y-27602455D01*
X5624887Y-27602455D02*
X5653458Y-27602455D01*
X5653458Y-27602455D02*
X5672506Y-27611978D01*
X5672506Y-27611978D02*
X5682030Y-27631026D01*
X5682030Y-27631026D02*
X5682030Y-27735788D01*
X6072506Y-27526264D02*
X5901078Y-27783407D01*
X6329649Y-27535788D02*
X6348697Y-27535788D01*
X6348697Y-27535788D02*
X6367744Y-27545312D01*
X6367744Y-27545312D02*
X6377268Y-27554836D01*
X6377268Y-27554836D02*
X6386792Y-27573883D01*
X6386792Y-27573883D02*
X6396316Y-27611978D01*
X6396316Y-27611978D02*
X6396316Y-27659597D01*
X6396316Y-27659597D02*
X6386792Y-27697693D01*
X6386792Y-27697693D02*
X6377268Y-27716740D01*
X6377268Y-27716740D02*
X6367744Y-27726264D01*
X6367744Y-27726264D02*
X6348697Y-27735788D01*
X6348697Y-27735788D02*
X6329649Y-27735788D01*
X6329649Y-27735788D02*
X6310601Y-27726264D01*
X6310601Y-27726264D02*
X6301078Y-27716740D01*
X6301078Y-27716740D02*
X6291554Y-27697693D01*
X6291554Y-27697693D02*
X6282030Y-27659597D01*
X6282030Y-27659597D02*
X6282030Y-27611978D01*
X6282030Y-27611978D02*
X6291554Y-27573883D01*
X6291554Y-27573883D02*
X6301078Y-27554836D01*
X6301078Y-27554836D02*
X6310601Y-27545312D01*
X6310601Y-27545312D02*
X6329649Y-27535788D01*
X6482030Y-27716740D02*
X6491554Y-27726264D01*
X6491554Y-27726264D02*
X6482030Y-27735788D01*
X6482030Y-27735788D02*
X6472506Y-27726264D01*
X6472506Y-27726264D02*
X6482030Y-27716740D01*
X6482030Y-27716740D02*
X6482030Y-27735788D01*
X6615363Y-27535788D02*
X6634411Y-27535788D01*
X6634411Y-27535788D02*
X6653459Y-27545312D01*
X6653459Y-27545312D02*
X6662982Y-27554836D01*
X6662982Y-27554836D02*
X6672506Y-27573883D01*
X6672506Y-27573883D02*
X6682030Y-27611978D01*
X6682030Y-27611978D02*
X6682030Y-27659597D01*
X6682030Y-27659597D02*
X6672506Y-27697693D01*
X6672506Y-27697693D02*
X6662982Y-27716740D01*
X6662982Y-27716740D02*
X6653459Y-27726264D01*
X6653459Y-27726264D02*
X6634411Y-27735788D01*
X6634411Y-27735788D02*
X6615363Y-27735788D01*
X6615363Y-27735788D02*
X6596316Y-27726264D01*
X6596316Y-27726264D02*
X6586792Y-27716740D01*
X6586792Y-27716740D02*
X6577268Y-27697693D01*
X6577268Y-27697693D02*
X6567744Y-27659597D01*
X6567744Y-27659597D02*
X6567744Y-27611978D01*
X6567744Y-27611978D02*
X6577268Y-27573883D01*
X6577268Y-27573883D02*
X6586792Y-27554836D01*
X6586792Y-27554836D02*
X6596316Y-27545312D01*
X6596316Y-27545312D02*
X6615363Y-27535788D01*
X6862982Y-27535788D02*
X6767744Y-27535788D01*
X6767744Y-27535788D02*
X6758220Y-27631026D01*
X6758220Y-27631026D02*
X6767744Y-27621502D01*
X6767744Y-27621502D02*
X6786792Y-27611978D01*
X6786792Y-27611978D02*
X6834411Y-27611978D01*
X6834411Y-27611978D02*
X6853459Y-27621502D01*
X6853459Y-27621502D02*
X6862982Y-27631026D01*
X6862982Y-27631026D02*
X6872506Y-27650074D01*
X6872506Y-27650074D02*
X6872506Y-27697693D01*
X6872506Y-27697693D02*
X6862982Y-27716740D01*
X6862982Y-27716740D02*
X6853459Y-27726264D01*
X6853459Y-27726264D02*
X6834411Y-27735788D01*
X6834411Y-27735788D02*
X6786792Y-27735788D01*
X6786792Y-27735788D02*
X6767744Y-27726264D01*
X6767744Y-27726264D02*
X6758220Y-27716740D01*
X7062982Y-27735788D02*
X6948697Y-27735788D01*
X7005839Y-27735788D02*
X7005839Y-27535788D01*
X7005839Y-27535788D02*
X6986792Y-27564359D01*
X6986792Y-27564359D02*
X6967744Y-27583407D01*
X6967744Y-27583407D02*
X6948697Y-27592931D01*
X7139173Y-27554836D02*
X7148697Y-27545312D01*
X7148697Y-27545312D02*
X7167744Y-27535788D01*
X7167744Y-27535788D02*
X7215363Y-27535788D01*
X7215363Y-27535788D02*
X7234411Y-27545312D01*
X7234411Y-27545312D02*
X7243935Y-27554836D01*
X7243935Y-27554836D02*
X7253459Y-27573883D01*
X7253459Y-27573883D02*
X7253459Y-27592931D01*
X7253459Y-27592931D02*
X7243935Y-27621502D01*
X7243935Y-27621502D02*
X7129649Y-27735788D01*
X7129649Y-27735788D02*
X7253459Y-27735788D01*
X7329649Y-27535788D02*
X7329649Y-27573883D01*
X7405840Y-27535788D02*
X7405840Y-27573883D01*
X7701078Y-27811978D02*
X7691554Y-27802455D01*
X7691554Y-27802455D02*
X7672506Y-27773883D01*
X7672506Y-27773883D02*
X7662982Y-27754836D01*
X7662982Y-27754836D02*
X7653459Y-27726264D01*
X7653459Y-27726264D02*
X7643935Y-27678645D01*
X7643935Y-27678645D02*
X7643935Y-27640550D01*
X7643935Y-27640550D02*
X7653459Y-27592931D01*
X7653459Y-27592931D02*
X7662982Y-27564359D01*
X7662982Y-27564359D02*
X7672506Y-27545312D01*
X7672506Y-27545312D02*
X7691554Y-27516740D01*
X7691554Y-27516740D02*
X7701078Y-27507216D01*
X7882030Y-27735788D02*
X7767744Y-27735788D01*
X7824887Y-27735788D02*
X7824887Y-27535788D01*
X7824887Y-27535788D02*
X7805840Y-27564359D01*
X7805840Y-27564359D02*
X7786792Y-27583407D01*
X7786792Y-27583407D02*
X7767744Y-27592931D01*
X7958221Y-27554836D02*
X7967744Y-27545312D01*
X7967744Y-27545312D02*
X7986792Y-27535788D01*
X7986792Y-27535788D02*
X8034411Y-27535788D01*
X8034411Y-27535788D02*
X8053459Y-27545312D01*
X8053459Y-27545312D02*
X8062982Y-27554836D01*
X8062982Y-27554836D02*
X8072506Y-27573883D01*
X8072506Y-27573883D02*
X8072506Y-27592931D01*
X8072506Y-27592931D02*
X8062982Y-27621502D01*
X8062982Y-27621502D02*
X7948697Y-27735788D01*
X7948697Y-27735788D02*
X8072506Y-27735788D01*
X8310602Y-27735788D02*
X8310602Y-27535788D01*
X8396316Y-27735788D02*
X8396316Y-27631026D01*
X8396316Y-27631026D02*
X8386792Y-27611978D01*
X8386792Y-27611978D02*
X8367744Y-27602455D01*
X8367744Y-27602455D02*
X8339173Y-27602455D01*
X8339173Y-27602455D02*
X8320125Y-27611978D01*
X8320125Y-27611978D02*
X8310602Y-27621502D01*
X8520125Y-27735788D02*
X8501078Y-27726264D01*
X8501078Y-27726264D02*
X8491554Y-27716740D01*
X8491554Y-27716740D02*
X8482030Y-27697693D01*
X8482030Y-27697693D02*
X8482030Y-27640550D01*
X8482030Y-27640550D02*
X8491554Y-27621502D01*
X8491554Y-27621502D02*
X8501078Y-27611978D01*
X8501078Y-27611978D02*
X8520125Y-27602455D01*
X8520125Y-27602455D02*
X8548697Y-27602455D01*
X8548697Y-27602455D02*
X8567745Y-27611978D01*
X8567745Y-27611978D02*
X8577268Y-27621502D01*
X8577268Y-27621502D02*
X8586792Y-27640550D01*
X8586792Y-27640550D02*
X8586792Y-27697693D01*
X8586792Y-27697693D02*
X8577268Y-27716740D01*
X8577268Y-27716740D02*
X8567745Y-27726264D01*
X8567745Y-27726264D02*
X8548697Y-27735788D01*
X8548697Y-27735788D02*
X8520125Y-27735788D01*
X8701078Y-27735788D02*
X8682030Y-27726264D01*
X8682030Y-27726264D02*
X8672506Y-27707216D01*
X8672506Y-27707216D02*
X8672506Y-27535788D01*
X8853459Y-27726264D02*
X8834411Y-27735788D01*
X8834411Y-27735788D02*
X8796316Y-27735788D01*
X8796316Y-27735788D02*
X8777268Y-27726264D01*
X8777268Y-27726264D02*
X8767745Y-27707216D01*
X8767745Y-27707216D02*
X8767745Y-27631026D01*
X8767745Y-27631026D02*
X8777268Y-27611978D01*
X8777268Y-27611978D02*
X8796316Y-27602455D01*
X8796316Y-27602455D02*
X8834411Y-27602455D01*
X8834411Y-27602455D02*
X8853459Y-27611978D01*
X8853459Y-27611978D02*
X8862983Y-27631026D01*
X8862983Y-27631026D02*
X8862983Y-27650074D01*
X8862983Y-27650074D02*
X8767745Y-27669121D01*
X8939173Y-27726264D02*
X8958221Y-27735788D01*
X8958221Y-27735788D02*
X8996316Y-27735788D01*
X8996316Y-27735788D02*
X9015364Y-27726264D01*
X9015364Y-27726264D02*
X9024887Y-27707216D01*
X9024887Y-27707216D02*
X9024887Y-27697693D01*
X9024887Y-27697693D02*
X9015364Y-27678645D01*
X9015364Y-27678645D02*
X8996316Y-27669121D01*
X8996316Y-27669121D02*
X8967745Y-27669121D01*
X8967745Y-27669121D02*
X8948697Y-27659597D01*
X8948697Y-27659597D02*
X8939173Y-27640550D01*
X8939173Y-27640550D02*
X8939173Y-27631026D01*
X8939173Y-27631026D02*
X8948697Y-27611978D01*
X8948697Y-27611978D02*
X8967745Y-27602455D01*
X8967745Y-27602455D02*
X8996316Y-27602455D01*
X8996316Y-27602455D02*
X9015364Y-27611978D01*
X9091554Y-27811978D02*
X9101078Y-27802455D01*
X9101078Y-27802455D02*
X9120126Y-27773883D01*
X9120126Y-27773883D02*
X9129649Y-27754836D01*
X9129649Y-27754836D02*
X9139173Y-27726264D01*
X9139173Y-27726264D02*
X9148697Y-27678645D01*
X9148697Y-27678645D02*
X9148697Y-27640550D01*
X9148697Y-27640550D02*
X9139173Y-27592931D01*
X9139173Y-27592931D02*
X9129649Y-27564359D01*
X9129649Y-27564359D02*
X9120126Y-27545312D01*
X9120126Y-27545312D02*
X9101078Y-27516740D01*
X9101078Y-27516740D02*
X9091554Y-27507216D01*
D14*
X3948015Y-27819304D02*
X4126015Y-27997304D01*
X4126015Y-27819304D02*
X3948015Y-27997304D01*
X4099948Y-27971237D02*
X4099948Y-27845371D01*
X3974082Y-27845371D01*
X3974082Y-27971237D01*
X4099948Y-27971237D01*
D11*
X4491554Y-27999788D02*
X4377268Y-27999788D01*
X4434411Y-27999788D02*
X4434411Y-27799788D01*
X4434411Y-27799788D02*
X4415363Y-27828359D01*
X4415363Y-27828359D02*
X4396316Y-27847407D01*
X4396316Y-27847407D02*
X4377268Y-27856931D01*
X4577268Y-27980740D02*
X4586792Y-27990264D01*
X4586792Y-27990264D02*
X4577268Y-27999788D01*
X4577268Y-27999788D02*
X4567744Y-27990264D01*
X4567744Y-27990264D02*
X4577268Y-27980740D01*
X4577268Y-27980740D02*
X4577268Y-27999788D01*
X4653458Y-27799788D02*
X4786792Y-27799788D01*
X4786792Y-27799788D02*
X4701077Y-27999788D01*
X4891554Y-27885502D02*
X4872506Y-27875978D01*
X4872506Y-27875978D02*
X4862982Y-27866455D01*
X4862982Y-27866455D02*
X4853458Y-27847407D01*
X4853458Y-27847407D02*
X4853458Y-27837883D01*
X4853458Y-27837883D02*
X4862982Y-27818836D01*
X4862982Y-27818836D02*
X4872506Y-27809312D01*
X4872506Y-27809312D02*
X4891554Y-27799788D01*
X4891554Y-27799788D02*
X4929649Y-27799788D01*
X4929649Y-27799788D02*
X4948697Y-27809312D01*
X4948697Y-27809312D02*
X4958220Y-27818836D01*
X4958220Y-27818836D02*
X4967744Y-27837883D01*
X4967744Y-27837883D02*
X4967744Y-27847407D01*
X4967744Y-27847407D02*
X4958220Y-27866455D01*
X4958220Y-27866455D02*
X4948697Y-27875978D01*
X4948697Y-27875978D02*
X4929649Y-27885502D01*
X4929649Y-27885502D02*
X4891554Y-27885502D01*
X4891554Y-27885502D02*
X4872506Y-27895026D01*
X4872506Y-27895026D02*
X4862982Y-27904550D01*
X4862982Y-27904550D02*
X4853458Y-27923597D01*
X4853458Y-27923597D02*
X4853458Y-27961693D01*
X4853458Y-27961693D02*
X4862982Y-27980740D01*
X4862982Y-27980740D02*
X4872506Y-27990264D01*
X4872506Y-27990264D02*
X4891554Y-27999788D01*
X4891554Y-27999788D02*
X4929649Y-27999788D01*
X4929649Y-27999788D02*
X4948697Y-27990264D01*
X4948697Y-27990264D02*
X4958220Y-27980740D01*
X4958220Y-27980740D02*
X4967744Y-27961693D01*
X4967744Y-27961693D02*
X4967744Y-27923597D01*
X4967744Y-27923597D02*
X4958220Y-27904550D01*
X4958220Y-27904550D02*
X4948697Y-27895026D01*
X4948697Y-27895026D02*
X4929649Y-27885502D01*
X5091554Y-27799788D02*
X5110601Y-27799788D01*
X5110601Y-27799788D02*
X5129649Y-27809312D01*
X5129649Y-27809312D02*
X5139173Y-27818836D01*
X5139173Y-27818836D02*
X5148697Y-27837883D01*
X5148697Y-27837883D02*
X5158220Y-27875978D01*
X5158220Y-27875978D02*
X5158220Y-27923597D01*
X5158220Y-27923597D02*
X5148697Y-27961693D01*
X5148697Y-27961693D02*
X5139173Y-27980740D01*
X5139173Y-27980740D02*
X5129649Y-27990264D01*
X5129649Y-27990264D02*
X5110601Y-27999788D01*
X5110601Y-27999788D02*
X5091554Y-27999788D01*
X5091554Y-27999788D02*
X5072506Y-27990264D01*
X5072506Y-27990264D02*
X5062982Y-27980740D01*
X5062982Y-27980740D02*
X5053458Y-27961693D01*
X5053458Y-27961693D02*
X5043935Y-27923597D01*
X5043935Y-27923597D02*
X5043935Y-27875978D01*
X5043935Y-27875978D02*
X5053458Y-27837883D01*
X5053458Y-27837883D02*
X5062982Y-27818836D01*
X5062982Y-27818836D02*
X5072506Y-27809312D01*
X5072506Y-27809312D02*
X5091554Y-27799788D01*
X5243935Y-27999788D02*
X5243935Y-27866455D01*
X5243935Y-27885502D02*
X5253458Y-27875978D01*
X5253458Y-27875978D02*
X5272506Y-27866455D01*
X5272506Y-27866455D02*
X5301078Y-27866455D01*
X5301078Y-27866455D02*
X5320125Y-27875978D01*
X5320125Y-27875978D02*
X5329649Y-27895026D01*
X5329649Y-27895026D02*
X5329649Y-27999788D01*
X5329649Y-27895026D02*
X5339173Y-27875978D01*
X5339173Y-27875978D02*
X5358220Y-27866455D01*
X5358220Y-27866455D02*
X5386792Y-27866455D01*
X5386792Y-27866455D02*
X5405839Y-27875978D01*
X5405839Y-27875978D02*
X5415363Y-27895026D01*
X5415363Y-27895026D02*
X5415363Y-27999788D01*
X5510601Y-27999788D02*
X5510601Y-27866455D01*
X5510601Y-27885502D02*
X5520125Y-27875978D01*
X5520125Y-27875978D02*
X5539173Y-27866455D01*
X5539173Y-27866455D02*
X5567744Y-27866455D01*
X5567744Y-27866455D02*
X5586792Y-27875978D01*
X5586792Y-27875978D02*
X5596316Y-27895026D01*
X5596316Y-27895026D02*
X5596316Y-27999788D01*
X5596316Y-27895026D02*
X5605839Y-27875978D01*
X5605839Y-27875978D02*
X5624887Y-27866455D01*
X5624887Y-27866455D02*
X5653458Y-27866455D01*
X5653458Y-27866455D02*
X5672506Y-27875978D01*
X5672506Y-27875978D02*
X5682030Y-27895026D01*
X5682030Y-27895026D02*
X5682030Y-27999788D01*
X6072506Y-27790264D02*
X5901078Y-28047407D01*
X6329649Y-27799788D02*
X6348697Y-27799788D01*
X6348697Y-27799788D02*
X6367744Y-27809312D01*
X6367744Y-27809312D02*
X6377268Y-27818836D01*
X6377268Y-27818836D02*
X6386792Y-27837883D01*
X6386792Y-27837883D02*
X6396316Y-27875978D01*
X6396316Y-27875978D02*
X6396316Y-27923597D01*
X6396316Y-27923597D02*
X6386792Y-27961693D01*
X6386792Y-27961693D02*
X6377268Y-27980740D01*
X6377268Y-27980740D02*
X6367744Y-27990264D01*
X6367744Y-27990264D02*
X6348697Y-27999788D01*
X6348697Y-27999788D02*
X6329649Y-27999788D01*
X6329649Y-27999788D02*
X6310601Y-27990264D01*
X6310601Y-27990264D02*
X6301078Y-27980740D01*
X6301078Y-27980740D02*
X6291554Y-27961693D01*
X6291554Y-27961693D02*
X6282030Y-27923597D01*
X6282030Y-27923597D02*
X6282030Y-27875978D01*
X6282030Y-27875978D02*
X6291554Y-27837883D01*
X6291554Y-27837883D02*
X6301078Y-27818836D01*
X6301078Y-27818836D02*
X6310601Y-27809312D01*
X6310601Y-27809312D02*
X6329649Y-27799788D01*
X6482030Y-27980740D02*
X6491554Y-27990264D01*
X6491554Y-27990264D02*
X6482030Y-27999788D01*
X6482030Y-27999788D02*
X6472506Y-27990264D01*
X6472506Y-27990264D02*
X6482030Y-27980740D01*
X6482030Y-27980740D02*
X6482030Y-27999788D01*
X6615363Y-27799788D02*
X6634411Y-27799788D01*
X6634411Y-27799788D02*
X6653459Y-27809312D01*
X6653459Y-27809312D02*
X6662982Y-27818836D01*
X6662982Y-27818836D02*
X6672506Y-27837883D01*
X6672506Y-27837883D02*
X6682030Y-27875978D01*
X6682030Y-27875978D02*
X6682030Y-27923597D01*
X6682030Y-27923597D02*
X6672506Y-27961693D01*
X6672506Y-27961693D02*
X6662982Y-27980740D01*
X6662982Y-27980740D02*
X6653459Y-27990264D01*
X6653459Y-27990264D02*
X6634411Y-27999788D01*
X6634411Y-27999788D02*
X6615363Y-27999788D01*
X6615363Y-27999788D02*
X6596316Y-27990264D01*
X6596316Y-27990264D02*
X6586792Y-27980740D01*
X6586792Y-27980740D02*
X6577268Y-27961693D01*
X6577268Y-27961693D02*
X6567744Y-27923597D01*
X6567744Y-27923597D02*
X6567744Y-27875978D01*
X6567744Y-27875978D02*
X6577268Y-27837883D01*
X6577268Y-27837883D02*
X6586792Y-27818836D01*
X6586792Y-27818836D02*
X6596316Y-27809312D01*
X6596316Y-27809312D02*
X6615363Y-27799788D01*
X6748697Y-27799788D02*
X6882030Y-27799788D01*
X6882030Y-27799788D02*
X6796316Y-27999788D01*
X6996316Y-27799788D02*
X7015363Y-27799788D01*
X7015363Y-27799788D02*
X7034411Y-27809312D01*
X7034411Y-27809312D02*
X7043935Y-27818836D01*
X7043935Y-27818836D02*
X7053459Y-27837883D01*
X7053459Y-27837883D02*
X7062982Y-27875978D01*
X7062982Y-27875978D02*
X7062982Y-27923597D01*
X7062982Y-27923597D02*
X7053459Y-27961693D01*
X7053459Y-27961693D02*
X7043935Y-27980740D01*
X7043935Y-27980740D02*
X7034411Y-27990264D01*
X7034411Y-27990264D02*
X7015363Y-27999788D01*
X7015363Y-27999788D02*
X6996316Y-27999788D01*
X6996316Y-27999788D02*
X6977268Y-27990264D01*
X6977268Y-27990264D02*
X6967744Y-27980740D01*
X6967744Y-27980740D02*
X6958220Y-27961693D01*
X6958220Y-27961693D02*
X6948697Y-27923597D01*
X6948697Y-27923597D02*
X6948697Y-27875978D01*
X6948697Y-27875978D02*
X6958220Y-27837883D01*
X6958220Y-27837883D02*
X6967744Y-27818836D01*
X6967744Y-27818836D02*
X6977268Y-27809312D01*
X6977268Y-27809312D02*
X6996316Y-27799788D01*
X7253459Y-27999788D02*
X7139173Y-27999788D01*
X7196316Y-27999788D02*
X7196316Y-27799788D01*
X7196316Y-27799788D02*
X7177268Y-27828359D01*
X7177268Y-27828359D02*
X7158220Y-27847407D01*
X7158220Y-27847407D02*
X7139173Y-27856931D01*
X7329649Y-27799788D02*
X7329649Y-27837883D01*
X7405840Y-27799788D02*
X7405840Y-27837883D01*
X7701078Y-28075978D02*
X7691554Y-28066455D01*
X7691554Y-28066455D02*
X7672506Y-28037883D01*
X7672506Y-28037883D02*
X7662982Y-28018836D01*
X7662982Y-28018836D02*
X7653459Y-27990264D01*
X7653459Y-27990264D02*
X7643935Y-27942645D01*
X7643935Y-27942645D02*
X7643935Y-27904550D01*
X7643935Y-27904550D02*
X7653459Y-27856931D01*
X7653459Y-27856931D02*
X7662982Y-27828359D01*
X7662982Y-27828359D02*
X7672506Y-27809312D01*
X7672506Y-27809312D02*
X7691554Y-27780740D01*
X7691554Y-27780740D02*
X7701078Y-27771216D01*
X7872506Y-27799788D02*
X7777268Y-27799788D01*
X7777268Y-27799788D02*
X7767744Y-27895026D01*
X7767744Y-27895026D02*
X7777268Y-27885502D01*
X7777268Y-27885502D02*
X7796316Y-27875978D01*
X7796316Y-27875978D02*
X7843935Y-27875978D01*
X7843935Y-27875978D02*
X7862982Y-27885502D01*
X7862982Y-27885502D02*
X7872506Y-27895026D01*
X7872506Y-27895026D02*
X7882030Y-27914074D01*
X7882030Y-27914074D02*
X7882030Y-27961693D01*
X7882030Y-27961693D02*
X7872506Y-27980740D01*
X7872506Y-27980740D02*
X7862982Y-27990264D01*
X7862982Y-27990264D02*
X7843935Y-27999788D01*
X7843935Y-27999788D02*
X7796316Y-27999788D01*
X7796316Y-27999788D02*
X7777268Y-27990264D01*
X7777268Y-27990264D02*
X7767744Y-27980740D01*
X7958221Y-27818836D02*
X7967744Y-27809312D01*
X7967744Y-27809312D02*
X7986792Y-27799788D01*
X7986792Y-27799788D02*
X8034411Y-27799788D01*
X8034411Y-27799788D02*
X8053459Y-27809312D01*
X8053459Y-27809312D02*
X8062982Y-27818836D01*
X8062982Y-27818836D02*
X8072506Y-27837883D01*
X8072506Y-27837883D02*
X8072506Y-27856931D01*
X8072506Y-27856931D02*
X8062982Y-27885502D01*
X8062982Y-27885502D02*
X7948697Y-27999788D01*
X7948697Y-27999788D02*
X8072506Y-27999788D01*
X8310602Y-27999788D02*
X8310602Y-27799788D01*
X8396316Y-27999788D02*
X8396316Y-27895026D01*
X8396316Y-27895026D02*
X8386792Y-27875978D01*
X8386792Y-27875978D02*
X8367744Y-27866455D01*
X8367744Y-27866455D02*
X8339173Y-27866455D01*
X8339173Y-27866455D02*
X8320125Y-27875978D01*
X8320125Y-27875978D02*
X8310602Y-27885502D01*
X8520125Y-27999788D02*
X8501078Y-27990264D01*
X8501078Y-27990264D02*
X8491554Y-27980740D01*
X8491554Y-27980740D02*
X8482030Y-27961693D01*
X8482030Y-27961693D02*
X8482030Y-27904550D01*
X8482030Y-27904550D02*
X8491554Y-27885502D01*
X8491554Y-27885502D02*
X8501078Y-27875978D01*
X8501078Y-27875978D02*
X8520125Y-27866455D01*
X8520125Y-27866455D02*
X8548697Y-27866455D01*
X8548697Y-27866455D02*
X8567745Y-27875978D01*
X8567745Y-27875978D02*
X8577268Y-27885502D01*
X8577268Y-27885502D02*
X8586792Y-27904550D01*
X8586792Y-27904550D02*
X8586792Y-27961693D01*
X8586792Y-27961693D02*
X8577268Y-27980740D01*
X8577268Y-27980740D02*
X8567745Y-27990264D01*
X8567745Y-27990264D02*
X8548697Y-27999788D01*
X8548697Y-27999788D02*
X8520125Y-27999788D01*
X8701078Y-27999788D02*
X8682030Y-27990264D01*
X8682030Y-27990264D02*
X8672506Y-27971216D01*
X8672506Y-27971216D02*
X8672506Y-27799788D01*
X8853459Y-27990264D02*
X8834411Y-27999788D01*
X8834411Y-27999788D02*
X8796316Y-27999788D01*
X8796316Y-27999788D02*
X8777268Y-27990264D01*
X8777268Y-27990264D02*
X8767745Y-27971216D01*
X8767745Y-27971216D02*
X8767745Y-27895026D01*
X8767745Y-27895026D02*
X8777268Y-27875978D01*
X8777268Y-27875978D02*
X8796316Y-27866455D01*
X8796316Y-27866455D02*
X8834411Y-27866455D01*
X8834411Y-27866455D02*
X8853459Y-27875978D01*
X8853459Y-27875978D02*
X8862983Y-27895026D01*
X8862983Y-27895026D02*
X8862983Y-27914074D01*
X8862983Y-27914074D02*
X8767745Y-27933121D01*
X8939173Y-27990264D02*
X8958221Y-27999788D01*
X8958221Y-27999788D02*
X8996316Y-27999788D01*
X8996316Y-27999788D02*
X9015364Y-27990264D01*
X9015364Y-27990264D02*
X9024887Y-27971216D01*
X9024887Y-27971216D02*
X9024887Y-27961693D01*
X9024887Y-27961693D02*
X9015364Y-27942645D01*
X9015364Y-27942645D02*
X8996316Y-27933121D01*
X8996316Y-27933121D02*
X8967745Y-27933121D01*
X8967745Y-27933121D02*
X8948697Y-27923597D01*
X8948697Y-27923597D02*
X8939173Y-27904550D01*
X8939173Y-27904550D02*
X8939173Y-27895026D01*
X8939173Y-27895026D02*
X8948697Y-27875978D01*
X8948697Y-27875978D02*
X8967745Y-27866455D01*
X8967745Y-27866455D02*
X8996316Y-27866455D01*
X8996316Y-27866455D02*
X9015364Y-27875978D01*
X9091554Y-28075978D02*
X9101078Y-28066455D01*
X9101078Y-28066455D02*
X9120126Y-28037883D01*
X9120126Y-28037883D02*
X9129649Y-28018836D01*
X9129649Y-28018836D02*
X9139173Y-27990264D01*
X9139173Y-27990264D02*
X9148697Y-27942645D01*
X9148697Y-27942645D02*
X9148697Y-27904550D01*
X9148697Y-27904550D02*
X9139173Y-27856931D01*
X9139173Y-27856931D02*
X9129649Y-27828359D01*
X9129649Y-27828359D02*
X9120126Y-27809312D01*
X9120126Y-27809312D02*
X9101078Y-27780740D01*
X9101078Y-27780740D02*
X9091554Y-27771216D01*
X3926015Y-28106304D02*
X4126015Y-28306304D01*
X4126015Y-28106304D02*
X3926015Y-28306304D01*
X4026015Y-28306304D02*
X4126015Y-28206304D01*
X4026015Y-28106304D01*
X3926015Y-28206304D01*
X4026015Y-28306304D01*
X4367744Y-28097788D02*
X4491554Y-28097788D01*
X4491554Y-28097788D02*
X4424887Y-28173978D01*
X4424887Y-28173978D02*
X4453458Y-28173978D01*
X4453458Y-28173978D02*
X4472506Y-28183502D01*
X4472506Y-28183502D02*
X4482030Y-28193026D01*
X4482030Y-28193026D02*
X4491554Y-28212074D01*
X4491554Y-28212074D02*
X4491554Y-28259693D01*
X4491554Y-28259693D02*
X4482030Y-28278740D01*
X4482030Y-28278740D02*
X4472506Y-28288264D01*
X4472506Y-28288264D02*
X4453458Y-28297788D01*
X4453458Y-28297788D02*
X4396316Y-28297788D01*
X4396316Y-28297788D02*
X4377268Y-28288264D01*
X4377268Y-28288264D02*
X4367744Y-28278740D01*
X4577268Y-28278740D02*
X4586792Y-28288264D01*
X4586792Y-28288264D02*
X4577268Y-28297788D01*
X4577268Y-28297788D02*
X4567744Y-28288264D01*
X4567744Y-28288264D02*
X4577268Y-28278740D01*
X4577268Y-28278740D02*
X4577268Y-28297788D01*
X4662982Y-28116836D02*
X4672506Y-28107312D01*
X4672506Y-28107312D02*
X4691554Y-28097788D01*
X4691554Y-28097788D02*
X4739173Y-28097788D01*
X4739173Y-28097788D02*
X4758220Y-28107312D01*
X4758220Y-28107312D02*
X4767744Y-28116836D01*
X4767744Y-28116836D02*
X4777268Y-28135883D01*
X4777268Y-28135883D02*
X4777268Y-28154931D01*
X4777268Y-28154931D02*
X4767744Y-28183502D01*
X4767744Y-28183502D02*
X4653458Y-28297788D01*
X4653458Y-28297788D02*
X4777268Y-28297788D01*
X4901077Y-28097788D02*
X4920125Y-28097788D01*
X4920125Y-28097788D02*
X4939173Y-28107312D01*
X4939173Y-28107312D02*
X4948697Y-28116836D01*
X4948697Y-28116836D02*
X4958220Y-28135883D01*
X4958220Y-28135883D02*
X4967744Y-28173978D01*
X4967744Y-28173978D02*
X4967744Y-28221597D01*
X4967744Y-28221597D02*
X4958220Y-28259693D01*
X4958220Y-28259693D02*
X4948697Y-28278740D01*
X4948697Y-28278740D02*
X4939173Y-28288264D01*
X4939173Y-28288264D02*
X4920125Y-28297788D01*
X4920125Y-28297788D02*
X4901077Y-28297788D01*
X4901077Y-28297788D02*
X4882030Y-28288264D01*
X4882030Y-28288264D02*
X4872506Y-28278740D01*
X4872506Y-28278740D02*
X4862982Y-28259693D01*
X4862982Y-28259693D02*
X4853458Y-28221597D01*
X4853458Y-28221597D02*
X4853458Y-28173978D01*
X4853458Y-28173978D02*
X4862982Y-28135883D01*
X4862982Y-28135883D02*
X4872506Y-28116836D01*
X4872506Y-28116836D02*
X4882030Y-28107312D01*
X4882030Y-28107312D02*
X4901077Y-28097788D01*
X5091554Y-28097788D02*
X5110601Y-28097788D01*
X5110601Y-28097788D02*
X5129649Y-28107312D01*
X5129649Y-28107312D02*
X5139173Y-28116836D01*
X5139173Y-28116836D02*
X5148697Y-28135883D01*
X5148697Y-28135883D02*
X5158220Y-28173978D01*
X5158220Y-28173978D02*
X5158220Y-28221597D01*
X5158220Y-28221597D02*
X5148697Y-28259693D01*
X5148697Y-28259693D02*
X5139173Y-28278740D01*
X5139173Y-28278740D02*
X5129649Y-28288264D01*
X5129649Y-28288264D02*
X5110601Y-28297788D01*
X5110601Y-28297788D02*
X5091554Y-28297788D01*
X5091554Y-28297788D02*
X5072506Y-28288264D01*
X5072506Y-28288264D02*
X5062982Y-28278740D01*
X5062982Y-28278740D02*
X5053458Y-28259693D01*
X5053458Y-28259693D02*
X5043935Y-28221597D01*
X5043935Y-28221597D02*
X5043935Y-28173978D01*
X5043935Y-28173978D02*
X5053458Y-28135883D01*
X5053458Y-28135883D02*
X5062982Y-28116836D01*
X5062982Y-28116836D02*
X5072506Y-28107312D01*
X5072506Y-28107312D02*
X5091554Y-28097788D01*
X5243935Y-28297788D02*
X5243935Y-28164455D01*
X5243935Y-28183502D02*
X5253458Y-28173978D01*
X5253458Y-28173978D02*
X5272506Y-28164455D01*
X5272506Y-28164455D02*
X5301078Y-28164455D01*
X5301078Y-28164455D02*
X5320125Y-28173978D01*
X5320125Y-28173978D02*
X5329649Y-28193026D01*
X5329649Y-28193026D02*
X5329649Y-28297788D01*
X5329649Y-28193026D02*
X5339173Y-28173978D01*
X5339173Y-28173978D02*
X5358220Y-28164455D01*
X5358220Y-28164455D02*
X5386792Y-28164455D01*
X5386792Y-28164455D02*
X5405839Y-28173978D01*
X5405839Y-28173978D02*
X5415363Y-28193026D01*
X5415363Y-28193026D02*
X5415363Y-28297788D01*
X5510601Y-28297788D02*
X5510601Y-28164455D01*
X5510601Y-28183502D02*
X5520125Y-28173978D01*
X5520125Y-28173978D02*
X5539173Y-28164455D01*
X5539173Y-28164455D02*
X5567744Y-28164455D01*
X5567744Y-28164455D02*
X5586792Y-28173978D01*
X5586792Y-28173978D02*
X5596316Y-28193026D01*
X5596316Y-28193026D02*
X5596316Y-28297788D01*
X5596316Y-28193026D02*
X5605839Y-28173978D01*
X5605839Y-28173978D02*
X5624887Y-28164455D01*
X5624887Y-28164455D02*
X5653458Y-28164455D01*
X5653458Y-28164455D02*
X5672506Y-28173978D01*
X5672506Y-28173978D02*
X5682030Y-28193026D01*
X5682030Y-28193026D02*
X5682030Y-28297788D01*
X6072506Y-28088264D02*
X5901078Y-28345407D01*
X6329649Y-28097788D02*
X6348697Y-28097788D01*
X6348697Y-28097788D02*
X6367744Y-28107312D01*
X6367744Y-28107312D02*
X6377268Y-28116836D01*
X6377268Y-28116836D02*
X6386792Y-28135883D01*
X6386792Y-28135883D02*
X6396316Y-28173978D01*
X6396316Y-28173978D02*
X6396316Y-28221597D01*
X6396316Y-28221597D02*
X6386792Y-28259693D01*
X6386792Y-28259693D02*
X6377268Y-28278740D01*
X6377268Y-28278740D02*
X6367744Y-28288264D01*
X6367744Y-28288264D02*
X6348697Y-28297788D01*
X6348697Y-28297788D02*
X6329649Y-28297788D01*
X6329649Y-28297788D02*
X6310601Y-28288264D01*
X6310601Y-28288264D02*
X6301078Y-28278740D01*
X6301078Y-28278740D02*
X6291554Y-28259693D01*
X6291554Y-28259693D02*
X6282030Y-28221597D01*
X6282030Y-28221597D02*
X6282030Y-28173978D01*
X6282030Y-28173978D02*
X6291554Y-28135883D01*
X6291554Y-28135883D02*
X6301078Y-28116836D01*
X6301078Y-28116836D02*
X6310601Y-28107312D01*
X6310601Y-28107312D02*
X6329649Y-28097788D01*
X6482030Y-28278740D02*
X6491554Y-28288264D01*
X6491554Y-28288264D02*
X6482030Y-28297788D01*
X6482030Y-28297788D02*
X6472506Y-28288264D01*
X6472506Y-28288264D02*
X6482030Y-28278740D01*
X6482030Y-28278740D02*
X6482030Y-28297788D01*
X6682030Y-28297788D02*
X6567744Y-28297788D01*
X6624887Y-28297788D02*
X6624887Y-28097788D01*
X6624887Y-28097788D02*
X6605839Y-28126359D01*
X6605839Y-28126359D02*
X6586792Y-28145407D01*
X6586792Y-28145407D02*
X6567744Y-28154931D01*
X6758220Y-28116836D02*
X6767744Y-28107312D01*
X6767744Y-28107312D02*
X6786792Y-28097788D01*
X6786792Y-28097788D02*
X6834411Y-28097788D01*
X6834411Y-28097788D02*
X6853459Y-28107312D01*
X6853459Y-28107312D02*
X6862982Y-28116836D01*
X6862982Y-28116836D02*
X6872506Y-28135883D01*
X6872506Y-28135883D02*
X6872506Y-28154931D01*
X6872506Y-28154931D02*
X6862982Y-28183502D01*
X6862982Y-28183502D02*
X6748697Y-28297788D01*
X6748697Y-28297788D02*
X6872506Y-28297788D01*
X7043935Y-28097788D02*
X7005839Y-28097788D01*
X7005839Y-28097788D02*
X6986792Y-28107312D01*
X6986792Y-28107312D02*
X6977268Y-28116836D01*
X6977268Y-28116836D02*
X6958220Y-28145407D01*
X6958220Y-28145407D02*
X6948697Y-28183502D01*
X6948697Y-28183502D02*
X6948697Y-28259693D01*
X6948697Y-28259693D02*
X6958220Y-28278740D01*
X6958220Y-28278740D02*
X6967744Y-28288264D01*
X6967744Y-28288264D02*
X6986792Y-28297788D01*
X6986792Y-28297788D02*
X7024887Y-28297788D01*
X7024887Y-28297788D02*
X7043935Y-28288264D01*
X7043935Y-28288264D02*
X7053459Y-28278740D01*
X7053459Y-28278740D02*
X7062982Y-28259693D01*
X7062982Y-28259693D02*
X7062982Y-28212074D01*
X7062982Y-28212074D02*
X7053459Y-28193026D01*
X7053459Y-28193026D02*
X7043935Y-28183502D01*
X7043935Y-28183502D02*
X7024887Y-28173978D01*
X7024887Y-28173978D02*
X6986792Y-28173978D01*
X6986792Y-28173978D02*
X6967744Y-28183502D01*
X6967744Y-28183502D02*
X6958220Y-28193026D01*
X6958220Y-28193026D02*
X6948697Y-28212074D01*
X7186792Y-28097788D02*
X7205840Y-28097788D01*
X7205840Y-28097788D02*
X7224887Y-28107312D01*
X7224887Y-28107312D02*
X7234411Y-28116836D01*
X7234411Y-28116836D02*
X7243935Y-28135883D01*
X7243935Y-28135883D02*
X7253459Y-28173978D01*
X7253459Y-28173978D02*
X7253459Y-28221597D01*
X7253459Y-28221597D02*
X7243935Y-28259693D01*
X7243935Y-28259693D02*
X7234411Y-28278740D01*
X7234411Y-28278740D02*
X7224887Y-28288264D01*
X7224887Y-28288264D02*
X7205840Y-28297788D01*
X7205840Y-28297788D02*
X7186792Y-28297788D01*
X7186792Y-28297788D02*
X7167744Y-28288264D01*
X7167744Y-28288264D02*
X7158220Y-28278740D01*
X7158220Y-28278740D02*
X7148697Y-28259693D01*
X7148697Y-28259693D02*
X7139173Y-28221597D01*
X7139173Y-28221597D02*
X7139173Y-28173978D01*
X7139173Y-28173978D02*
X7148697Y-28135883D01*
X7148697Y-28135883D02*
X7158220Y-28116836D01*
X7158220Y-28116836D02*
X7167744Y-28107312D01*
X7167744Y-28107312D02*
X7186792Y-28097788D01*
X7329649Y-28097788D02*
X7329649Y-28135883D01*
X7405840Y-28097788D02*
X7405840Y-28135883D01*
X7701078Y-28373978D02*
X7691554Y-28364455D01*
X7691554Y-28364455D02*
X7672506Y-28335883D01*
X7672506Y-28335883D02*
X7662982Y-28316836D01*
X7662982Y-28316836D02*
X7653459Y-28288264D01*
X7653459Y-28288264D02*
X7643935Y-28240645D01*
X7643935Y-28240645D02*
X7643935Y-28202550D01*
X7643935Y-28202550D02*
X7653459Y-28154931D01*
X7653459Y-28154931D02*
X7662982Y-28126359D01*
X7662982Y-28126359D02*
X7672506Y-28107312D01*
X7672506Y-28107312D02*
X7691554Y-28078740D01*
X7691554Y-28078740D02*
X7701078Y-28069216D01*
X7862982Y-28164455D02*
X7862982Y-28297788D01*
X7815363Y-28088264D02*
X7767744Y-28231121D01*
X7767744Y-28231121D02*
X7891554Y-28231121D01*
X8120125Y-28297788D02*
X8120125Y-28097788D01*
X8205840Y-28297788D02*
X8205840Y-28193026D01*
X8205840Y-28193026D02*
X8196316Y-28173978D01*
X8196316Y-28173978D02*
X8177268Y-28164455D01*
X8177268Y-28164455D02*
X8148697Y-28164455D01*
X8148697Y-28164455D02*
X8129649Y-28173978D01*
X8129649Y-28173978D02*
X8120125Y-28183502D01*
X8329649Y-28297788D02*
X8310602Y-28288264D01*
X8310602Y-28288264D02*
X8301078Y-28278740D01*
X8301078Y-28278740D02*
X8291554Y-28259693D01*
X8291554Y-28259693D02*
X8291554Y-28202550D01*
X8291554Y-28202550D02*
X8301078Y-28183502D01*
X8301078Y-28183502D02*
X8310602Y-28173978D01*
X8310602Y-28173978D02*
X8329649Y-28164455D01*
X8329649Y-28164455D02*
X8358221Y-28164455D01*
X8358221Y-28164455D02*
X8377268Y-28173978D01*
X8377268Y-28173978D02*
X8386792Y-28183502D01*
X8386792Y-28183502D02*
X8396316Y-28202550D01*
X8396316Y-28202550D02*
X8396316Y-28259693D01*
X8396316Y-28259693D02*
X8386792Y-28278740D01*
X8386792Y-28278740D02*
X8377268Y-28288264D01*
X8377268Y-28288264D02*
X8358221Y-28297788D01*
X8358221Y-28297788D02*
X8329649Y-28297788D01*
X8510602Y-28297788D02*
X8491554Y-28288264D01*
X8491554Y-28288264D02*
X8482030Y-28269216D01*
X8482030Y-28269216D02*
X8482030Y-28097788D01*
X8662983Y-28288264D02*
X8643935Y-28297788D01*
X8643935Y-28297788D02*
X8605840Y-28297788D01*
X8605840Y-28297788D02*
X8586792Y-28288264D01*
X8586792Y-28288264D02*
X8577268Y-28269216D01*
X8577268Y-28269216D02*
X8577268Y-28193026D01*
X8577268Y-28193026D02*
X8586792Y-28173978D01*
X8586792Y-28173978D02*
X8605840Y-28164455D01*
X8605840Y-28164455D02*
X8643935Y-28164455D01*
X8643935Y-28164455D02*
X8662983Y-28173978D01*
X8662983Y-28173978D02*
X8672506Y-28193026D01*
X8672506Y-28193026D02*
X8672506Y-28212074D01*
X8672506Y-28212074D02*
X8577268Y-28231121D01*
X8748697Y-28288264D02*
X8767745Y-28297788D01*
X8767745Y-28297788D02*
X8805840Y-28297788D01*
X8805840Y-28297788D02*
X8824887Y-28288264D01*
X8824887Y-28288264D02*
X8834411Y-28269216D01*
X8834411Y-28269216D02*
X8834411Y-28259693D01*
X8834411Y-28259693D02*
X8824887Y-28240645D01*
X8824887Y-28240645D02*
X8805840Y-28231121D01*
X8805840Y-28231121D02*
X8777268Y-28231121D01*
X8777268Y-28231121D02*
X8758221Y-28221597D01*
X8758221Y-28221597D02*
X8748697Y-28202550D01*
X8748697Y-28202550D02*
X8748697Y-28193026D01*
X8748697Y-28193026D02*
X8758221Y-28173978D01*
X8758221Y-28173978D02*
X8777268Y-28164455D01*
X8777268Y-28164455D02*
X8805840Y-28164455D01*
X8805840Y-28164455D02*
X8824887Y-28173978D01*
X8901078Y-28373978D02*
X8910602Y-28364455D01*
X8910602Y-28364455D02*
X8929649Y-28335883D01*
X8929649Y-28335883D02*
X8939173Y-28316836D01*
X8939173Y-28316836D02*
X8948697Y-28288264D01*
X8948697Y-28288264D02*
X8958221Y-28240645D01*
X8958221Y-28240645D02*
X8958221Y-28202550D01*
X8958221Y-28202550D02*
X8948697Y-28154931D01*
X8948697Y-28154931D02*
X8939173Y-28126359D01*
X8939173Y-28126359D02*
X8929649Y-28107312D01*
X8929649Y-28107312D02*
X8910602Y-28078740D01*
X8910602Y-28078740D02*
X8901078Y-28069216D01*
M02*
