%TF.GenerationSoftware,KiCad,Pcbnew,8.0.2*%
%TF.CreationDate,2024-05-16T19:26:28+09:30*%
%TF.ProjectId,power_and_monotoring,706f7765-725f-4616-9e64-5f6d6f6e6f74,rev?*%
%TF.SameCoordinates,Original*%
%TF.FileFunction,Paste,Bot*%
%TF.FilePolarity,Positive*%
%FSLAX46Y46*%
G04 Gerber Fmt 4.6, Leading zero omitted, Abs format (unit mm)*
G04 Created by KiCad (PCBNEW 8.0.2) date 2024-05-16 19:26:28*
%MOMM*%
%LPD*%
G01*
G04 APERTURE LIST*
G04 Aperture macros list*
%AMRoundRect*
0 Rectangle with rounded corners*
0 $1 Rounding radius*
0 $2 $3 $4 $5 $6 $7 $8 $9 X,Y pos of 4 corners*
0 Add a 4 corners polygon primitive as box body*
4,1,4,$2,$3,$4,$5,$6,$7,$8,$9,$2,$3,0*
0 Add four circle primitives for the rounded corners*
1,1,$1+$1,$2,$3*
1,1,$1+$1,$4,$5*
1,1,$1+$1,$6,$7*
1,1,$1+$1,$8,$9*
0 Add four rect primitives between the rounded corners*
20,1,$1+$1,$2,$3,$4,$5,0*
20,1,$1+$1,$4,$5,$6,$7,0*
20,1,$1+$1,$6,$7,$8,$9,0*
20,1,$1+$1,$8,$9,$2,$3,0*%
G04 Aperture macros list end*
%ADD10RoundRect,0.250000X-0.450000X0.325000X-0.450000X-0.325000X0.450000X-0.325000X0.450000X0.325000X0*%
%ADD11RoundRect,0.249550X-0.450450X0.325450X-0.450450X-0.325450X0.450450X-0.325450X0.450450X0.325450X0*%
%ADD12R,0.600000X1.550000*%
%ADD13R,0.600000X0.420000*%
%ADD14RoundRect,0.250000X-0.325000X-0.450000X0.325000X-0.450000X0.325000X0.450000X-0.325000X0.450000X0*%
%ADD15RoundRect,0.249550X0.450450X-0.325450X0.450450X0.325450X-0.450450X0.325450X-0.450450X-0.325450X0*%
%ADD16RoundRect,0.250000X0.450000X-0.325000X0.450000X0.325000X-0.450000X0.325000X-0.450000X-0.325000X0*%
%ADD17RoundRect,0.250000X-0.250000X-0.475000X0.250000X-0.475000X0.250000X0.475000X-0.250000X0.475000X0*%
%ADD18RoundRect,0.250000X0.325000X0.450000X-0.325000X0.450000X-0.325000X-0.450000X0.325000X-0.450000X0*%
G04 APERTURE END LIST*
D10*
%TO.C,R48*%
X146862800Y-241304200D03*
X146862800Y-243354200D03*
%TD*%
D11*
%TO.C,C4*%
X74676000Y-232858200D03*
D10*
X74676000Y-234908200D03*
%TD*%
D12*
%TO.C,U11*%
X116865400Y-244050800D03*
X115595400Y-244050800D03*
X114325400Y-244050800D03*
X113055400Y-244050800D03*
X111785400Y-244050800D03*
X110515400Y-244050800D03*
X109245400Y-244050800D03*
X107975400Y-244050800D03*
X107975400Y-238650800D03*
X109245400Y-238650800D03*
X110515400Y-238650800D03*
X111785400Y-238650800D03*
X113055400Y-238650800D03*
X114325400Y-238650800D03*
X115595400Y-238650800D03*
X116865400Y-238650800D03*
%TD*%
D13*
%TO.C,D30*%
X123733600Y-218399600D03*
X123733600Y-219049600D03*
X123733600Y-219699600D03*
X121833600Y-219699600D03*
X121833600Y-219049600D03*
X121833600Y-218399600D03*
%TD*%
D14*
%TO.C,R8*%
X146091800Y-235661200D03*
X148141800Y-235661200D03*
%TD*%
D10*
%TO.C,R47*%
X160731200Y-246247200D03*
X160731200Y-248297200D03*
%TD*%
D13*
%TO.C,D28*%
X100279200Y-235966000D03*
X100279200Y-236616000D03*
X100279200Y-237266000D03*
X98379200Y-237266000D03*
X98379200Y-236616000D03*
X98379200Y-235966000D03*
%TD*%
%TO.C,D31*%
X123682800Y-215199200D03*
X123682800Y-215849200D03*
X123682800Y-216499200D03*
X121782800Y-216499200D03*
X121782800Y-215849200D03*
X121782800Y-215199200D03*
%TD*%
D12*
%TO.C,U12*%
X132461000Y-243949200D03*
X131191000Y-243949200D03*
X129921000Y-243949200D03*
X128651000Y-243949200D03*
X127381000Y-243949200D03*
X126111000Y-243949200D03*
X124841000Y-243949200D03*
X123571000Y-243949200D03*
X123571000Y-238549200D03*
X124841000Y-238549200D03*
X126111000Y-238549200D03*
X127381000Y-238549200D03*
X128651000Y-238549200D03*
X129921000Y-238549200D03*
X131191000Y-238549200D03*
X132461000Y-238549200D03*
%TD*%
D15*
%TO.C,C19*%
X134315200Y-238515000D03*
D16*
X134315200Y-236465000D03*
%TD*%
D10*
%TO.C,R49*%
X146862800Y-245304200D03*
X146862800Y-247354200D03*
%TD*%
D17*
%TO.C,C14*%
X100142000Y-223215200D03*
X102042000Y-223215200D03*
%TD*%
%TO.C,C15*%
X106304000Y-223113600D03*
X108204000Y-223113600D03*
%TD*%
D14*
%TO.C,R1*%
X146387600Y-232156000D03*
X148437600Y-232156000D03*
%TD*%
D11*
%TO.C,C5*%
X83972400Y-232909000D03*
D10*
X83972400Y-234959000D03*
%TD*%
D14*
%TO.C,R40*%
X128464200Y-248412000D03*
X130514200Y-248412000D03*
%TD*%
%TO.C,R4*%
X94834600Y-240538000D03*
X96884600Y-240538000D03*
%TD*%
%TO.C,R2*%
X142739000Y-238658400D03*
X144789000Y-238658400D03*
%TD*%
D13*
%TO.C,D29*%
X102179200Y-226314000D03*
X102179200Y-226964000D03*
X102179200Y-227614000D03*
X100279200Y-227614000D03*
X100279200Y-226964000D03*
X100279200Y-226314000D03*
%TD*%
D10*
%TO.C,R46*%
X160731200Y-242247200D03*
X160731200Y-244297200D03*
%TD*%
D18*
%TO.C,R6*%
X96833800Y-243078000D03*
X94783800Y-243078000D03*
%TD*%
D15*
%TO.C,C18*%
X118872000Y-238574800D03*
D16*
X118872000Y-236524800D03*
%TD*%
M02*
